%TF.GenerationSoftware,KiCad,Pcbnew,10.0.2-1.fc43*%
%TF.CreationDate,2026-05-24T20:43:01+02:00*%
%TF.ProjectId,robot,726f626f-742e-46b6-9963-61645f706362,rev?*%
%TF.SameCoordinates,Original*%
%TF.FileFunction,Paste,Top*%
%TF.FilePolarity,Positive*%
%FSLAX46Y46*%
G04 Gerber Fmt 4.6, Leading zero omitted, Abs format (unit mm)*
G04 Created by KiCad (PCBNEW 10.0.2-1.fc43) date 2026-05-24 20:43:01*
%MOMM*%
%LPD*%
G01*
G04 APERTURE LIST*
G04 Aperture macros list*
%AMRoundRect*
0 Rectangle with rounded corners*
0 $1 Rounding radius*
0 $2 $3 $4 $5 $6 $7 $8 $9 X,Y pos of 4 corners*
0 Add a 4 corners polygon primitive as box body*
4,1,4,$2,$3,$4,$5,$6,$7,$8,$9,$2,$3,0*
0 Add four circle primitives for the rounded corners*
1,1,$1+$1,$2,$3*
1,1,$1+$1,$4,$5*
1,1,$1+$1,$6,$7*
1,1,$1+$1,$8,$9*
0 Add four rect primitives between the rounded corners*
20,1,$1+$1,$2,$3,$4,$5,0*
20,1,$1+$1,$4,$5,$6,$7,0*
20,1,$1+$1,$6,$7,$8,$9,0*
20,1,$1+$1,$8,$9,$2,$3,0*%
%AMOutline5P*
0 Free polygon, 5 corners , with rotation*
0 The origin of the aperture is its center*
0 number of corners: always 5*
0 $1 to $10 corner X, Y*
0 $11 Rotation angle, in degrees counterclockwise*
0 create outline with 5 corners*
4,1,5,$1,$2,$3,$4,$5,$6,$7,$8,$9,$10,$1,$2,$11*%
%AMOutline6P*
0 Free polygon, 6 corners , with rotation*
0 The origin of the aperture is its center*
0 number of corners: always 6*
0 $1 to $12 corner X, Y*
0 $13 Rotation angle, in degrees counterclockwise*
0 create outline with 6 corners*
4,1,6,$1,$2,$3,$4,$5,$6,$7,$8,$9,$10,$11,$12,$1,$2,$13*%
%AMOutline7P*
0 Free polygon, 7 corners , with rotation*
0 The origin of the aperture is its center*
0 number of corners: always 7*
0 $1 to $14 corner X, Y*
0 $15 Rotation angle, in degrees counterclockwise*
0 create outline with 7 corners*
4,1,7,$1,$2,$3,$4,$5,$6,$7,$8,$9,$10,$11,$12,$13,$14,$1,$2,$15*%
%AMOutline8P*
0 Free polygon, 8 corners , with rotation*
0 The origin of the aperture is its center*
0 number of corners: always 8*
0 $1 to $16 corner X, Y*
0 $17 Rotation angle, in degrees counterclockwise*
0 create outline with 8 corners*
4,1,8,$1,$2,$3,$4,$5,$6,$7,$8,$9,$10,$11,$12,$13,$14,$15,$16,$1,$2,$17*%
G04 Aperture macros list end*
%ADD10C,0.010000*%
%ADD11RoundRect,0.140000X0.140000X0.170000X-0.140000X0.170000X-0.140000X-0.170000X0.140000X-0.170000X0*%
%ADD12R,0.700000X0.700000*%
%ADD13RoundRect,0.375000X-0.625000X-0.375000X0.625000X-0.375000X0.625000X0.375000X-0.625000X0.375000X0*%
%ADD14RoundRect,0.500000X-0.500000X-1.400000X0.500000X-1.400000X0.500000X1.400000X-0.500000X1.400000X0*%
%ADD15R,0.800000X0.400000*%
%ADD16R,0.400000X0.800000*%
%ADD17Outline5P,-0.725000X0.130500X-0.130500X0.725000X0.725000X0.725000X0.725000X-0.725000X-0.725000X-0.725000X0.000000*%
%ADD18R,1.450000X1.450000*%
%ADD19RoundRect,0.243750X-0.243750X-0.456250X0.243750X-0.456250X0.243750X0.456250X-0.243750X0.456250X0*%
%ADD20RoundRect,0.250000X0.250000X0.475000X-0.250000X0.475000X-0.250000X-0.475000X0.250000X-0.475000X0*%
%ADD21RoundRect,0.250000X0.450000X-0.262500X0.450000X0.262500X-0.450000X0.262500X-0.450000X-0.262500X0*%
%ADD22RoundRect,0.150000X0.587500X0.150000X-0.587500X0.150000X-0.587500X-0.150000X0.587500X-0.150000X0*%
%ADD23RoundRect,0.250000X-0.450000X0.262500X-0.450000X-0.262500X0.450000X-0.262500X0.450000X0.262500X0*%
%ADD24RoundRect,0.250000X0.925000X1.500000X-0.925000X1.500000X-0.925000X-1.500000X0.925000X-1.500000X0*%
%ADD25RoundRect,0.250000X-0.262500X-0.450000X0.262500X-0.450000X0.262500X0.450000X-0.262500X0.450000X0*%
%ADD26RoundRect,0.250000X-0.250000X-0.475000X0.250000X-0.475000X0.250000X0.475000X-0.250000X0.475000X0*%
%ADD27RoundRect,0.250000X0.475000X-0.250000X0.475000X0.250000X-0.475000X0.250000X-0.475000X-0.250000X0*%
%ADD28RoundRect,0.250000X0.262500X0.450000X-0.262500X0.450000X-0.262500X-0.450000X0.262500X-0.450000X0*%
%ADD29RoundRect,0.243750X0.243750X0.456250X-0.243750X0.456250X-0.243750X-0.456250X0.243750X-0.456250X0*%
%ADD30R,1.000000X1.800000*%
%ADD31RoundRect,0.250000X-1.000000X-0.650000X1.000000X-0.650000X1.000000X0.650000X-1.000000X0.650000X0*%
%ADD32RoundRect,0.250000X-0.475000X0.250000X-0.475000X-0.250000X0.475000X-0.250000X0.475000X0.250000X0*%
%ADD33RoundRect,0.150000X-0.150000X0.587500X-0.150000X-0.587500X0.150000X-0.587500X0.150000X0.587500X0*%
%ADD34RoundRect,0.150000X0.150000X-0.587500X0.150000X0.587500X-0.150000X0.587500X-0.150000X-0.587500X0*%
%ADD35RoundRect,0.250000X-0.595000X-1.080000X0.595000X-1.080000X0.595000X1.080000X-0.595000X1.080000X0*%
%ADD36RoundRect,0.150000X-0.687500X-0.150000X0.687500X-0.150000X0.687500X0.150000X-0.687500X0.150000X0*%
%ADD37RoundRect,0.040000X-0.465000X-0.120000X0.465000X-0.120000X0.465000X0.120000X-0.465000X0.120000X0*%
%ADD38RoundRect,0.040000X-0.120000X-0.465000X0.120000X-0.465000X0.120000X0.465000X-0.120000X0.465000X0*%
%ADD39O,3.556000X7.112000*%
%ADD40O,7.112000X3.556000*%
%ADD41RoundRect,0.150000X0.512500X0.150000X-0.512500X0.150000X-0.512500X-0.150000X0.512500X-0.150000X0*%
%ADD42RoundRect,0.150000X-0.587500X-0.150000X0.587500X-0.150000X0.587500X0.150000X-0.587500X0.150000X0*%
%ADD43R,1.000000X0.750000*%
%ADD44RoundRect,0.100000X-0.100000X0.637500X-0.100000X-0.637500X0.100000X-0.637500X0.100000X0.637500X0*%
%ADD45R,0.500000X0.350000*%
%ADD46RoundRect,0.150000X0.825000X0.150000X-0.825000X0.150000X-0.825000X-0.150000X0.825000X-0.150000X0*%
%ADD47RoundRect,0.250000X-0.275000X-0.275000X0.275000X-0.275000X0.275000X0.275000X-0.275000X0.275000X0*%
%ADD48RoundRect,0.062500X-0.350000X-0.062500X0.350000X-0.062500X0.350000X0.062500X-0.350000X0.062500X0*%
%ADD49RoundRect,0.062500X-0.062500X-0.350000X0.062500X-0.350000X0.062500X0.350000X-0.062500X0.350000X0*%
%ADD50RoundRect,0.150000X-0.150000X-0.575000X0.150000X-0.575000X0.150000X0.575000X-0.150000X0.575000X0*%
%ADD51RoundRect,0.075000X-0.075000X-0.650000X0.075000X-0.650000X0.075000X0.650000X-0.075000X0.650000X0*%
%ADD52RoundRect,0.150000X-0.725000X-0.150000X0.725000X-0.150000X0.725000X0.150000X-0.725000X0.150000X0*%
%ADD53RoundRect,0.150000X-0.512500X-0.150000X0.512500X-0.150000X0.512500X0.150000X-0.512500X0.150000X0*%
%ADD54RoundRect,0.250000X0.650000X-1.000000X0.650000X1.000000X-0.650000X1.000000X-0.650000X-1.000000X0*%
G04 APERTURE END LIST*
D10*
%TO.C,U4*%
X188311300Y-76353600D02*
X189631300Y-76353600D01*
X189631300Y-77673600D01*
X188311300Y-77673600D01*
X188311300Y-76353600D01*
G36*
X189631300Y-77673600D02*
G01*
X188311300Y-77673600D01*
X188311300Y-76353600D01*
X189631300Y-76353600D01*
X189631300Y-77673600D01*
G37*
%TD*%
D11*
%TO.C,C63*%
X136496900Y-112354400D03*
X137456900Y-112354400D03*
%TD*%
D12*
%TO.C,D32*%
X139496900Y-110854400D03*
X139496900Y-109754400D03*
X141326900Y-109754400D03*
X141326900Y-110854400D03*
%TD*%
%TO.C,D26*%
X163496900Y-110754400D03*
X163496900Y-109654400D03*
X165326900Y-109654400D03*
X165326900Y-110754400D03*
%TD*%
D11*
%TO.C,C54*%
X172496900Y-112254400D03*
X173456900Y-112254400D03*
%TD*%
%TO.C,C60*%
X144496900Y-112354400D03*
X145456900Y-112354400D03*
%TD*%
%TO.C,C58*%
X156496900Y-112254400D03*
X157456900Y-112254400D03*
%TD*%
%TO.C,C59*%
X152496900Y-112254400D03*
X153456900Y-112254400D03*
%TD*%
D12*
%TO.C,D23*%
X175496900Y-110754400D03*
X175496900Y-109654400D03*
X177326900Y-109654400D03*
X177326900Y-110754400D03*
%TD*%
D11*
%TO.C,C55*%
X168496900Y-112254400D03*
X169456900Y-112254400D03*
%TD*%
D12*
%TO.C,D31*%
X143496900Y-110854400D03*
X143496900Y-109754400D03*
X145326900Y-109754400D03*
X145326900Y-110854400D03*
%TD*%
%TO.C,D22*%
X179496900Y-110754400D03*
X179496900Y-109654400D03*
X181326900Y-109654400D03*
X181326900Y-110754400D03*
%TD*%
%TO.C,D29*%
X151496900Y-110754400D03*
X151496900Y-109654400D03*
X153326900Y-109654400D03*
X153326900Y-110754400D03*
%TD*%
%TO.C,D25*%
X167496900Y-110754400D03*
X167496900Y-109654400D03*
X169326900Y-109654400D03*
X169326900Y-110754400D03*
%TD*%
D11*
%TO.C,C52*%
X180546900Y-112254400D03*
X181506900Y-112254400D03*
%TD*%
%TO.C,C62*%
X140496900Y-112354400D03*
X141456900Y-112354400D03*
%TD*%
D13*
%TO.C,U3*%
X217350000Y-83133400D03*
D14*
X223650000Y-80833400D03*
D13*
X217350000Y-80833400D03*
X217350000Y-78533400D03*
%TD*%
D15*
%TO.C,U8*%
X240705000Y-61950000D03*
X240705000Y-62750000D03*
X240705000Y-63550000D03*
X240705000Y-64350000D03*
X240705000Y-65150000D03*
X240705000Y-65950000D03*
X240705000Y-66750000D03*
X240705000Y-67550000D03*
X240705000Y-68350000D03*
X240705000Y-69150000D03*
X240705000Y-69950000D03*
D16*
X241805000Y-70850000D03*
X242605000Y-70850000D03*
X243405000Y-70850000D03*
X244205000Y-70850000D03*
X245005000Y-70850000D03*
X245805000Y-70850000D03*
X246605000Y-70850000D03*
X247405000Y-70850000D03*
X248205000Y-70850000D03*
X249005000Y-70850000D03*
X249805000Y-70850000D03*
X250605000Y-70850000D03*
X251405000Y-70850000D03*
D15*
X252505000Y-69950000D03*
X252505000Y-69150000D03*
X252505000Y-68350000D03*
X252505000Y-67550000D03*
X252505000Y-66750000D03*
X252505000Y-65950000D03*
X252505000Y-65150000D03*
X252505000Y-64350000D03*
X252505000Y-63550000D03*
X252505000Y-62750000D03*
X252505000Y-61950000D03*
D16*
X251405000Y-61050000D03*
X250605000Y-61050000D03*
X249805000Y-61050000D03*
X249005000Y-61050000D03*
X248205000Y-61050000D03*
X247405000Y-61050000D03*
X246605000Y-61050000D03*
X245805000Y-61050000D03*
X245005000Y-61050000D03*
X244205000Y-61050000D03*
X243405000Y-61050000D03*
X242605000Y-61050000D03*
X241805000Y-61050000D03*
D17*
X244630000Y-63975000D03*
D18*
X244630000Y-65950000D03*
X244630000Y-67925000D03*
X246605000Y-63975000D03*
X246605000Y-65950000D03*
X246605000Y-67925000D03*
X248580000Y-63975000D03*
X248580000Y-65950000D03*
X248580000Y-67925000D03*
D12*
X252555000Y-61000000D03*
X252555000Y-70900000D03*
X240655000Y-70900000D03*
X240655000Y-61000000D03*
%TD*%
D19*
%TO.C,D3*%
X196863800Y-75913600D03*
X198738800Y-75913600D03*
%TD*%
D11*
%TO.C,C45*%
X221546700Y-112377200D03*
X220586700Y-112377200D03*
%TD*%
D12*
%TO.C,D16*%
X217416700Y-110877200D03*
X217416700Y-109777200D03*
X215586700Y-109777200D03*
X215586700Y-110877200D03*
%TD*%
D20*
%TO.C,C6*%
X214950000Y-83333400D03*
X213050000Y-83333400D03*
%TD*%
%TO.C,C7*%
X189951300Y-73213600D03*
X188051300Y-73213600D03*
%TD*%
%TO.C,C38*%
X212800000Y-107100000D03*
X210900000Y-107100000D03*
%TD*%
D21*
%TO.C,R15*%
X192043400Y-102519400D03*
X192043400Y-100694400D03*
%TD*%
D22*
%TO.C,Q3*%
X212937500Y-105050000D03*
X212937500Y-103150000D03*
X211062500Y-104100000D03*
%TD*%
D11*
%TO.C,C53*%
X177476900Y-112254400D03*
X176516900Y-112254400D03*
%TD*%
D23*
%TO.C,R21*%
X236200000Y-65487500D03*
X236200000Y-67312500D03*
%TD*%
D24*
%TO.C,L1*%
X162325000Y-87373300D03*
X156275000Y-87373300D03*
%TD*%
D25*
%TO.C,R6*%
X165475000Y-92500000D03*
X167300000Y-92500000D03*
%TD*%
D11*
%TO.C,C48*%
X209131700Y-112327200D03*
X208171700Y-112327200D03*
%TD*%
D25*
%TO.C,R13*%
X200212500Y-63400000D03*
X202037500Y-63400000D03*
%TD*%
D26*
%TO.C,C12*%
X192601300Y-75913600D03*
X194501300Y-75913600D03*
%TD*%
D20*
%TO.C,C1*%
X146075000Y-89730000D03*
X144175000Y-89730000D03*
%TD*%
D27*
%TO.C,C14*%
X188376300Y-82913600D03*
X188376300Y-81013600D03*
%TD*%
%TO.C,C25*%
X238425000Y-67350000D03*
X238425000Y-65450000D03*
%TD*%
D28*
%TO.C,R11*%
X198563800Y-83563600D03*
X196738800Y-83563600D03*
%TD*%
D25*
%TO.C,R2*%
X224568900Y-87581200D03*
X226393900Y-87581200D03*
%TD*%
D19*
%TO.C,D4*%
X165562500Y-89700000D03*
X167437500Y-89700000D03*
%TD*%
D21*
%TO.C,R16*%
X194543400Y-102606900D03*
X194543400Y-100781900D03*
%TD*%
D29*
%TO.C,D7*%
X195006600Y-95700600D03*
X193131600Y-95700600D03*
%TD*%
D30*
%TO.C,Y1*%
X240250000Y-73600000D03*
X242750000Y-73600000D03*
%TD*%
D31*
%TO.C,D1*%
X149425000Y-93500000D03*
X153425000Y-93500000D03*
%TD*%
D23*
%TO.C,R5*%
X184051300Y-81013600D03*
X184051300Y-82838600D03*
%TD*%
D11*
%TO.C,C57*%
X161456900Y-112254400D03*
X160496900Y-112254400D03*
%TD*%
D12*
%TO.C,D12*%
X233501700Y-110927200D03*
X233501700Y-109827200D03*
X231671700Y-109827200D03*
X231671700Y-110927200D03*
%TD*%
D11*
%TO.C,C47*%
X213301700Y-112327200D03*
X212341700Y-112327200D03*
%TD*%
D25*
%TO.C,R12*%
X200212500Y-60900000D03*
X202037500Y-60900000D03*
%TD*%
D12*
%TO.C,D11*%
X237501700Y-110927200D03*
X237501700Y-109827200D03*
X235671700Y-109827200D03*
X235671700Y-110927200D03*
%TD*%
D32*
%TO.C,C36*%
X242500000Y-85930000D03*
X242500000Y-87830000D03*
%TD*%
D24*
%TO.C,L2*%
X190176300Y-87763600D03*
X184126300Y-87763600D03*
%TD*%
D29*
%TO.C,D8*%
X195031600Y-98155600D03*
X193156600Y-98155600D03*
%TD*%
D20*
%TO.C,C29*%
X246650000Y-73600000D03*
X244750000Y-73600000D03*
%TD*%
D25*
%TO.C,R7*%
X212372800Y-91988100D03*
X214197800Y-91988100D03*
%TD*%
D29*
%TO.C,D5*%
X214072800Y-89388100D03*
X212197800Y-89388100D03*
%TD*%
D12*
%TO.C,D21*%
X197001700Y-110877200D03*
X197001700Y-109777200D03*
X195171700Y-109777200D03*
X195171700Y-110877200D03*
%TD*%
D28*
%TO.C,R3*%
X149837500Y-84600000D03*
X148012500Y-84600000D03*
%TD*%
D26*
%TO.C,C5*%
X151775000Y-84600000D03*
X153675000Y-84600000D03*
%TD*%
D27*
%TO.C,C19*%
X187043400Y-102644400D03*
X187043400Y-100744400D03*
%TD*%
D26*
%TO.C,C26*%
X240350000Y-76400000D03*
X242250000Y-76400000D03*
%TD*%
D11*
%TO.C,C49*%
X205216700Y-112277200D03*
X204256700Y-112277200D03*
%TD*%
D33*
%TO.C,Q1*%
X206550000Y-58212500D03*
X204650000Y-58212500D03*
X205600000Y-60087500D03*
%TD*%
D12*
%TO.C,D17*%
X213171700Y-111027200D03*
X213171700Y-109927200D03*
X211341700Y-109927200D03*
X211341700Y-111027200D03*
%TD*%
D11*
%TO.C,C41*%
X237671700Y-112427200D03*
X236711700Y-112427200D03*
%TD*%
D25*
%TO.C,R1*%
X224568900Y-90081200D03*
X226393900Y-90081200D03*
%TD*%
D20*
%TO.C,C8*%
X215000000Y-81000000D03*
X213100000Y-81000000D03*
%TD*%
D12*
%TO.C,D14*%
X225416700Y-110977200D03*
X225416700Y-109877200D03*
X223586700Y-109877200D03*
X223586700Y-110977200D03*
%TD*%
D34*
%TO.C,Q2*%
X204708800Y-68437500D03*
X206608800Y-68437500D03*
X205658800Y-66562500D03*
%TD*%
D25*
%TO.C,R25*%
X248675000Y-73700000D03*
X250500000Y-73700000D03*
%TD*%
D28*
%TO.C,R32*%
X201025000Y-107100000D03*
X199200000Y-107100000D03*
%TD*%
%TO.C,R4*%
X146037500Y-84600000D03*
X144212500Y-84600000D03*
%TD*%
D35*
%TO.C,U2*%
X219618900Y-88581200D03*
D36*
X216981400Y-86581200D03*
X216981400Y-87581200D03*
X216981400Y-88581200D03*
X216981400Y-89581200D03*
X216981400Y-90581200D03*
X222256400Y-90581200D03*
X222256400Y-89581200D03*
X222256400Y-88581200D03*
X222256400Y-87581200D03*
X222256400Y-86581200D03*
%TD*%
D12*
%TO.C,D30*%
X149326900Y-110754400D03*
X149326900Y-109654400D03*
X147496900Y-109654400D03*
X147496900Y-110754400D03*
%TD*%
D20*
%TO.C,C27*%
X250600000Y-76500000D03*
X248700000Y-76500000D03*
%TD*%
D26*
%TO.C,C16*%
X209050000Y-62100000D03*
X210950000Y-62100000D03*
%TD*%
D37*
%TO.C,U4*%
X187111300Y-76038600D03*
X187111300Y-76688600D03*
X187111300Y-77338600D03*
X187111300Y-77988600D03*
D38*
X187996300Y-78873600D03*
X188646300Y-78873600D03*
X189296300Y-78873600D03*
X189946300Y-78873600D03*
D37*
X190831300Y-77988600D03*
X190831300Y-77338600D03*
X190831300Y-76688600D03*
X190831300Y-76038600D03*
D38*
X189946300Y-75153600D03*
X189296300Y-75153600D03*
X188646300Y-75153600D03*
X187996300Y-75153600D03*
%TD*%
D28*
%TO.C,R14*%
X202037500Y-65900000D03*
X200212500Y-65900000D03*
%TD*%
D25*
%TO.C,R10*%
X130087500Y-86850000D03*
X131912500Y-86850000D03*
%TD*%
D39*
%TO.C,J3*%
X135379900Y-78800000D03*
D40*
X128458400Y-79536600D03*
%TD*%
D27*
%TO.C,C18*%
X189543400Y-102594400D03*
X189543400Y-100694400D03*
%TD*%
D11*
%TO.C,C44*%
X225546700Y-112477200D03*
X224586700Y-112477200D03*
%TD*%
D41*
%TO.C,U6*%
X184543400Y-97794400D03*
X184543400Y-96844400D03*
X184543400Y-95894400D03*
X182268400Y-95894400D03*
X182268400Y-96844400D03*
X182268400Y-97794400D03*
%TD*%
D26*
%TO.C,C11*%
X192601300Y-78163600D03*
X194501300Y-78163600D03*
%TD*%
D12*
%TO.C,D27*%
X161326900Y-110754400D03*
X161326900Y-109654400D03*
X159496900Y-109654400D03*
X159496900Y-110754400D03*
%TD*%
D11*
%TO.C,C46*%
X217546700Y-112377200D03*
X216586700Y-112377200D03*
%TD*%
%TO.C,C50*%
X201236700Y-112277200D03*
X200276700Y-112277200D03*
%TD*%
D42*
%TO.C,Q5*%
X238662500Y-104950000D03*
X238662500Y-106850000D03*
X240537500Y-105900000D03*
%TD*%
D23*
%TO.C,R19*%
X236450000Y-104925000D03*
X236450000Y-106750000D03*
%TD*%
D20*
%TO.C,C2*%
X146025000Y-87230000D03*
X144125000Y-87230000D03*
%TD*%
D27*
%TO.C,C20*%
X184543400Y-102644400D03*
X184543400Y-100744400D03*
%TD*%
D11*
%TO.C,C43*%
X229631700Y-112427200D03*
X228671700Y-112427200D03*
%TD*%
D25*
%TO.C,R22*%
X244575000Y-76300000D03*
X246400000Y-76300000D03*
%TD*%
D12*
%TO.C,D33*%
X137326900Y-110854400D03*
X137326900Y-109754400D03*
X135496900Y-109754400D03*
X135496900Y-110854400D03*
%TD*%
%TO.C,D18*%
X209001700Y-110927200D03*
X209001700Y-109827200D03*
X207171700Y-109827200D03*
X207171700Y-110927200D03*
%TD*%
D26*
%TO.C,C17*%
X209050000Y-64600000D03*
X210950000Y-64600000D03*
%TD*%
D42*
%TO.C,Q4*%
X162866500Y-103350000D03*
X162866500Y-105250000D03*
X164741500Y-104300000D03*
%TD*%
D25*
%TO.C,R31*%
X162679000Y-101500000D03*
X164504000Y-101500000D03*
%TD*%
D43*
%TO.C,SW1*%
X172704000Y-107200000D03*
X166704000Y-107200000D03*
X172704000Y-103450000D03*
X166704000Y-103450000D03*
%TD*%
D26*
%TO.C,C37*%
X162804000Y-107200000D03*
X164704000Y-107200000D03*
%TD*%
D32*
%TO.C,C35*%
X152185000Y-76762500D03*
X152185000Y-78662500D03*
%TD*%
D27*
%TO.C,C33*%
X150035000Y-78662500D03*
X150035000Y-76762500D03*
%TD*%
D44*
%TO.C,U11*%
X152285000Y-68937500D03*
X151635000Y-68937500D03*
X150985000Y-68937500D03*
X150335000Y-68937500D03*
X149685000Y-68937500D03*
X149035000Y-68937500D03*
X148385000Y-68937500D03*
X147735000Y-68937500D03*
X147735000Y-74662500D03*
X148385000Y-74662500D03*
X149035000Y-74662500D03*
X149685000Y-74662500D03*
X150335000Y-74662500D03*
X150985000Y-74662500D03*
X151635000Y-74662500D03*
X152285000Y-74662500D03*
%TD*%
D27*
%TO.C,C34*%
X147535000Y-78662500D03*
X147535000Y-76762500D03*
%TD*%
D20*
%TO.C,C9*%
X185276300Y-75913600D03*
X183376300Y-75913600D03*
%TD*%
D26*
%TO.C,C15*%
X130137500Y-91800000D03*
X132037500Y-91800000D03*
%TD*%
D23*
%TO.C,R27*%
X248500000Y-84130000D03*
X248500000Y-85955000D03*
%TD*%
D43*
%TO.C,SW2*%
X208900000Y-107200000D03*
X202900000Y-107200000D03*
X208900000Y-103450000D03*
X202900000Y-103450000D03*
%TD*%
D21*
%TO.C,R8*%
X186301300Y-82838600D03*
X186301300Y-81013600D03*
%TD*%
D45*
%TO.C,U12*%
X246525000Y-85880000D03*
X246525000Y-86530000D03*
X246525000Y-87180000D03*
X246525000Y-87830000D03*
X244475000Y-87830000D03*
X244475000Y-87180000D03*
X244475000Y-86530000D03*
X244475000Y-85880000D03*
%TD*%
D26*
%TO.C,C28*%
X236500000Y-73700000D03*
X238400000Y-73700000D03*
%TD*%
D11*
%TO.C,C61*%
X149476900Y-112154400D03*
X148516900Y-112154400D03*
%TD*%
D28*
%TO.C,R18*%
X198748400Y-95599400D03*
X196923400Y-95599400D03*
%TD*%
D20*
%TO.C,C4*%
X162125000Y-92500000D03*
X160225000Y-92500000D03*
%TD*%
D32*
%TO.C,C23*%
X236200000Y-61650000D03*
X236200000Y-63550000D03*
%TD*%
D46*
%TO.C,U1*%
X153275000Y-90410000D03*
X153275000Y-89140000D03*
X153275000Y-87870000D03*
X153275000Y-86600000D03*
X148325000Y-86600000D03*
X148325000Y-87870000D03*
X148325000Y-89140000D03*
X148325000Y-90410000D03*
%TD*%
D47*
%TO.C,U7*%
X188148400Y-96099400D03*
X188148400Y-97399400D03*
X189448400Y-96099400D03*
X189448400Y-97399400D03*
D48*
X186860900Y-95499400D03*
X186860900Y-95999400D03*
X186860900Y-96499400D03*
X186860900Y-96999400D03*
X186860900Y-97499400D03*
X186860900Y-97999400D03*
D49*
X187548400Y-98686900D03*
X188048400Y-98686900D03*
X188548400Y-98686900D03*
X189048400Y-98686900D03*
X189548400Y-98686900D03*
X190048400Y-98686900D03*
D48*
X190735900Y-97999400D03*
X190735900Y-97499400D03*
X190735900Y-96999400D03*
X190735900Y-96499400D03*
X190735900Y-95999400D03*
X190735900Y-95499400D03*
D49*
X190048400Y-94811900D03*
X189548400Y-94811900D03*
X189048400Y-94811900D03*
X188548400Y-94811900D03*
X188048400Y-94811900D03*
X187548400Y-94811900D03*
%TD*%
D26*
%TO.C,C3*%
X216775000Y-92600000D03*
X218675000Y-92600000D03*
%TD*%
D12*
%TO.C,D19*%
X205086700Y-110877200D03*
X205086700Y-109777200D03*
X203256700Y-109777200D03*
X203256700Y-110877200D03*
%TD*%
%TO.C,D24*%
X173326900Y-110754400D03*
X173326900Y-109654400D03*
X171496900Y-109654400D03*
X171496900Y-110754400D03*
%TD*%
%TO.C,D28*%
X157326900Y-110754400D03*
X157326900Y-109654400D03*
X155496900Y-109654400D03*
X155496900Y-110754400D03*
%TD*%
D19*
%TO.C,D2*%
X196863800Y-78413600D03*
X198738800Y-78413600D03*
%TD*%
D44*
%TO.C,U9*%
X175055300Y-68937500D03*
X174405300Y-68937500D03*
X173755300Y-68937500D03*
X173105300Y-68937500D03*
X172455300Y-68937500D03*
X171805300Y-68937500D03*
X171155300Y-68937500D03*
X170505300Y-68937500D03*
X170505300Y-74662500D03*
X171155300Y-74662500D03*
X171805300Y-74662500D03*
X172455300Y-74662500D03*
X173105300Y-74662500D03*
X173755300Y-74662500D03*
X174405300Y-74662500D03*
X175055300Y-74662500D03*
%TD*%
D27*
%TO.C,C30*%
X172780300Y-78662500D03*
X172780300Y-76762500D03*
%TD*%
D32*
%TO.C,C32*%
X175280300Y-76762500D03*
X175280300Y-78662500D03*
%TD*%
D27*
%TO.C,C31*%
X170280300Y-78662500D03*
X170280300Y-76762500D03*
%TD*%
D32*
%TO.C,C13*%
X190551300Y-81013600D03*
X190551300Y-82913600D03*
%TD*%
D50*
%TO.C,J1*%
X184950000Y-108615000D03*
X185750000Y-108615000D03*
D51*
X186950000Y-108615000D03*
X187950000Y-108615000D03*
X188450000Y-108615000D03*
X189450000Y-108615000D03*
D50*
X190650000Y-108615000D03*
X191450000Y-108615000D03*
X191450000Y-108615000D03*
X190650000Y-108615000D03*
D51*
X189950000Y-108615000D03*
X188950000Y-108615000D03*
X187450000Y-108615000D03*
X186450000Y-108615000D03*
D50*
X185750000Y-108615000D03*
X184950000Y-108615000D03*
%TD*%
D32*
%TO.C,C24*%
X238400000Y-61600000D03*
X238400000Y-63500000D03*
%TD*%
D12*
%TO.C,D13*%
X229501700Y-110927200D03*
X229501700Y-109827200D03*
X227671700Y-109827200D03*
X227671700Y-110927200D03*
%TD*%
D11*
%TO.C,C40*%
X241631700Y-112427200D03*
X240671700Y-112427200D03*
%TD*%
D23*
%TO.C,R24*%
X238400000Y-69375000D03*
X238400000Y-71200000D03*
%TD*%
D11*
%TO.C,C56*%
X165456900Y-112254400D03*
X164496900Y-112254400D03*
%TD*%
D52*
%TO.C,U10*%
X130500000Y-94980000D03*
X130500000Y-96250000D03*
X130500000Y-97520000D03*
X130500000Y-98790000D03*
X130500000Y-100060000D03*
X130500000Y-101330000D03*
X130500000Y-102600000D03*
X130500000Y-103870000D03*
X135650000Y-103870000D03*
X135650000Y-102600000D03*
X135650000Y-101330000D03*
X135650000Y-100060000D03*
X135650000Y-98790000D03*
X135650000Y-97520000D03*
X135650000Y-96250000D03*
X135650000Y-94980000D03*
%TD*%
D53*
%TO.C,U5*%
X204400000Y-62400000D03*
X204400000Y-63350000D03*
X204400000Y-64300000D03*
X206675000Y-64300000D03*
X206675000Y-63350000D03*
X206675000Y-62400000D03*
%TD*%
D25*
%TO.C,R30*%
X210975000Y-101200000D03*
X212800000Y-101200000D03*
%TD*%
D28*
%TO.C,R9*%
X131912500Y-89300000D03*
X130087500Y-89300000D03*
%TD*%
D20*
%TO.C,C10*%
X185276300Y-78088600D03*
X183376300Y-78088600D03*
%TD*%
D25*
%TO.C,R23*%
X236587500Y-76500000D03*
X238412500Y-76500000D03*
%TD*%
D11*
%TO.C,C51*%
X197171700Y-112277200D03*
X196211700Y-112277200D03*
%TD*%
D25*
%TO.C,TH1*%
X196738800Y-81363600D03*
X198563800Y-81363600D03*
%TD*%
D21*
%TO.C,R26*%
X248500000Y-89630000D03*
X248500000Y-87805000D03*
%TD*%
D54*
%TO.C,D6*%
X193876300Y-85788600D03*
X193876300Y-81788600D03*
%TD*%
D11*
%TO.C,C42*%
X233631700Y-112427200D03*
X232671700Y-112427200D03*
%TD*%
D28*
%TO.C,R17*%
X198868400Y-98194400D03*
X197043400Y-98194400D03*
%TD*%
D12*
%TO.C,D15*%
X221416700Y-110877200D03*
X221416700Y-109777200D03*
X219586700Y-109777200D03*
X219586700Y-110877200D03*
%TD*%
%TO.C,D20*%
X201086700Y-110877200D03*
X201086700Y-109777200D03*
X199256700Y-109777200D03*
X199256700Y-110877200D03*
%TD*%
%TO.C,D10*%
X241501700Y-110927200D03*
X241501700Y-109827200D03*
X239671700Y-109827200D03*
X239671700Y-110927200D03*
%TD*%
M02*
