%TF.GenerationSoftware,KiCad,Pcbnew,10.0.2-1.fc43*%
%TF.CreationDate,2026-05-24T20:43:01+02:00*%
%TF.ProjectId,robot,726f626f-742e-46b6-9963-61645f706362,rev?*%
%TF.SameCoordinates,Original*%
%TF.FileFunction,Copper,L1,Top*%
%TF.FilePolarity,Positive*%
%FSLAX46Y46*%
G04 Gerber Fmt 4.6, Leading zero omitted, Abs format (unit mm)*
G04 Created by KiCad (PCBNEW 10.0.2-1.fc43) date 2026-05-24 20:43:01*
%MOMM*%
%LPD*%
G01*
G04 APERTURE LIST*
G04 Aperture macros list*
%AMRoundRect*
0 Rectangle with rounded corners*
0 $1 Rounding radius*
0 $2 $3 $4 $5 $6 $7 $8 $9 X,Y pos of 4 corners*
0 Add a 4 corners polygon primitive as box body*
4,1,4,$2,$3,$4,$5,$6,$7,$8,$9,$2,$3,0*
0 Add four circle primitives for the rounded corners*
1,1,$1+$1,$2,$3*
1,1,$1+$1,$4,$5*
1,1,$1+$1,$6,$7*
1,1,$1+$1,$8,$9*
0 Add four rect primitives between the rounded corners*
20,1,$1+$1,$2,$3,$4,$5,0*
20,1,$1+$1,$4,$5,$6,$7,0*
20,1,$1+$1,$6,$7,$8,$9,0*
20,1,$1+$1,$8,$9,$2,$3,0*%
%AMOutline5P*
0 Free polygon, 5 corners , with rotation*
0 The origin of the aperture is its center*
0 number of corners: always 5*
0 $1 to $10 corner X, Y*
0 $11 Rotation angle, in degrees counterclockwise*
0 create outline with 5 corners*
4,1,5,$1,$2,$3,$4,$5,$6,$7,$8,$9,$10,$1,$2,$11*%
%AMOutline6P*
0 Free polygon, 6 corners , with rotation*
0 The origin of the aperture is its center*
0 number of corners: always 6*
0 $1 to $12 corner X, Y*
0 $13 Rotation angle, in degrees counterclockwise*
0 create outline with 6 corners*
4,1,6,$1,$2,$3,$4,$5,$6,$7,$8,$9,$10,$11,$12,$1,$2,$13*%
%AMOutline7P*
0 Free polygon, 7 corners , with rotation*
0 The origin of the aperture is its center*
0 number of corners: always 7*
0 $1 to $14 corner X, Y*
0 $15 Rotation angle, in degrees counterclockwise*
0 create outline with 7 corners*
4,1,7,$1,$2,$3,$4,$5,$6,$7,$8,$9,$10,$11,$12,$13,$14,$1,$2,$15*%
%AMOutline8P*
0 Free polygon, 8 corners , with rotation*
0 The origin of the aperture is its center*
0 number of corners: always 8*
0 $1 to $16 corner X, Y*
0 $17 Rotation angle, in degrees counterclockwise*
0 create outline with 8 corners*
4,1,8,$1,$2,$3,$4,$5,$6,$7,$8,$9,$10,$11,$12,$13,$14,$15,$16,$1,$2,$17*%
%AMFreePoly0*
4,1,6,1.000000,0.000000,0.500000,-0.750000,-0.500000,-0.750000,-0.500000,0.750000,0.500000,0.750000,1.000000,0.000000,1.000000,0.000000,$1*%
%AMFreePoly1*
4,1,6,0.500000,-0.750000,-0.650000,-0.750000,-0.150000,0.000000,-0.650000,0.750000,0.500000,0.750000,0.500000,-0.750000,0.500000,-0.750000,$1*%
G04 Aperture macros list end*
%TA.AperFunction,SMDPad,CuDef*%
%ADD10RoundRect,0.140000X0.140000X0.170000X-0.140000X0.170000X-0.140000X-0.170000X0.140000X-0.170000X0*%
%TD*%
%TA.AperFunction,SMDPad,CuDef*%
%ADD11R,0.700000X0.700000*%
%TD*%
%TA.AperFunction,SMDPad,CuDef*%
%ADD12RoundRect,0.375000X-0.625000X-0.375000X0.625000X-0.375000X0.625000X0.375000X-0.625000X0.375000X0*%
%TD*%
%TA.AperFunction,SMDPad,CuDef*%
%ADD13RoundRect,0.500000X-0.500000X-1.400000X0.500000X-1.400000X0.500000X1.400000X-0.500000X1.400000X0*%
%TD*%
%TA.AperFunction,SMDPad,CuDef*%
%ADD14R,0.800000X0.400000*%
%TD*%
%TA.AperFunction,SMDPad,CuDef*%
%ADD15R,0.400000X0.800000*%
%TD*%
%TA.AperFunction,HeatsinkPad*%
%ADD16Outline5P,-0.725000X0.130500X-0.130500X0.725000X0.725000X0.725000X0.725000X-0.725000X-0.725000X-0.725000X0.000000*%
%TD*%
%TA.AperFunction,HeatsinkPad*%
%ADD17R,1.450000X1.450000*%
%TD*%
%TA.AperFunction,SMDPad,CuDef*%
%ADD18RoundRect,0.243750X-0.243750X-0.456250X0.243750X-0.456250X0.243750X0.456250X-0.243750X0.456250X0*%
%TD*%
%TA.AperFunction,SMDPad,CuDef*%
%ADD19RoundRect,0.250000X0.250000X0.475000X-0.250000X0.475000X-0.250000X-0.475000X0.250000X-0.475000X0*%
%TD*%
%TA.AperFunction,SMDPad,CuDef*%
%ADD20RoundRect,0.250000X0.450000X-0.262500X0.450000X0.262500X-0.450000X0.262500X-0.450000X-0.262500X0*%
%TD*%
%TA.AperFunction,SMDPad,CuDef*%
%ADD21RoundRect,0.150000X0.587500X0.150000X-0.587500X0.150000X-0.587500X-0.150000X0.587500X-0.150000X0*%
%TD*%
%TA.AperFunction,SMDPad,CuDef*%
%ADD22RoundRect,0.250000X-0.450000X0.262500X-0.450000X-0.262500X0.450000X-0.262500X0.450000X0.262500X0*%
%TD*%
%TA.AperFunction,SMDPad,CuDef*%
%ADD23RoundRect,0.250000X0.925000X1.500000X-0.925000X1.500000X-0.925000X-1.500000X0.925000X-1.500000X0*%
%TD*%
%TA.AperFunction,SMDPad,CuDef*%
%ADD24RoundRect,0.250000X-0.262500X-0.450000X0.262500X-0.450000X0.262500X0.450000X-0.262500X0.450000X0*%
%TD*%
%TA.AperFunction,ComponentPad*%
%ADD25R,1.700000X1.700000*%
%TD*%
%TA.AperFunction,ComponentPad*%
%ADD26C,1.700000*%
%TD*%
%TA.AperFunction,SMDPad,CuDef*%
%ADD27RoundRect,0.250000X-0.250000X-0.475000X0.250000X-0.475000X0.250000X0.475000X-0.250000X0.475000X0*%
%TD*%
%TA.AperFunction,SMDPad,CuDef*%
%ADD28RoundRect,0.250000X0.475000X-0.250000X0.475000X0.250000X-0.475000X0.250000X-0.475000X-0.250000X0*%
%TD*%
%TA.AperFunction,SMDPad,CuDef*%
%ADD29RoundRect,0.250000X0.262500X0.450000X-0.262500X0.450000X-0.262500X-0.450000X0.262500X-0.450000X0*%
%TD*%
%TA.AperFunction,SMDPad,CuDef*%
%ADD30RoundRect,0.243750X0.243750X0.456250X-0.243750X0.456250X-0.243750X-0.456250X0.243750X-0.456250X0*%
%TD*%
%TA.AperFunction,SMDPad,CuDef*%
%ADD31R,1.000000X1.800000*%
%TD*%
%TA.AperFunction,SMDPad,CuDef*%
%ADD32RoundRect,0.250000X-1.000000X-0.650000X1.000000X-0.650000X1.000000X0.650000X-1.000000X0.650000X0*%
%TD*%
%TA.AperFunction,SMDPad,CuDef*%
%ADD33C,2.500000*%
%TD*%
%TA.AperFunction,SMDPad,CuDef*%
%ADD34RoundRect,0.250000X-0.475000X0.250000X-0.475000X-0.250000X0.475000X-0.250000X0.475000X0.250000X0*%
%TD*%
%TA.AperFunction,SMDPad,CuDef*%
%ADD35RoundRect,0.150000X-0.150000X0.587500X-0.150000X-0.587500X0.150000X-0.587500X0.150000X0.587500X0*%
%TD*%
%TA.AperFunction,SMDPad,CuDef*%
%ADD36FreePoly0,0.000000*%
%TD*%
%TA.AperFunction,SMDPad,CuDef*%
%ADD37FreePoly1,0.000000*%
%TD*%
%TA.AperFunction,SMDPad,CuDef*%
%ADD38RoundRect,0.150000X0.150000X-0.587500X0.150000X0.587500X-0.150000X0.587500X-0.150000X-0.587500X0*%
%TD*%
%TA.AperFunction,SMDPad,CuDef*%
%ADD39RoundRect,0.150000X-0.687500X-0.150000X0.687500X-0.150000X0.687500X0.150000X-0.687500X0.150000X0*%
%TD*%
%TA.AperFunction,HeatsinkPad*%
%ADD40R,2.100000X3.300000*%
%TD*%
%TA.AperFunction,SMDPad,CuDef*%
%ADD41RoundRect,0.040000X-0.465000X-0.120000X0.465000X-0.120000X0.465000X0.120000X-0.465000X0.120000X0*%
%TD*%
%TA.AperFunction,SMDPad,CuDef*%
%ADD42RoundRect,0.040000X-0.120000X-0.465000X0.120000X-0.465000X0.120000X0.465000X-0.120000X0.465000X0*%
%TD*%
%TA.AperFunction,SMDPad,CuDef*%
%ADD43R,2.100000X2.100000*%
%TD*%
%TA.AperFunction,ComponentPad*%
%ADD44RoundRect,0.250000X-0.725000X0.600000X-0.725000X-0.600000X0.725000X-0.600000X0.725000X0.600000X0*%
%TD*%
%TA.AperFunction,ComponentPad*%
%ADD45O,1.950000X1.700000*%
%TD*%
%TA.AperFunction,ComponentPad*%
%ADD46O,3.556000X7.112000*%
%TD*%
%TA.AperFunction,ComponentPad*%
%ADD47O,7.112000X3.556000*%
%TD*%
%TA.AperFunction,SMDPad,CuDef*%
%ADD48RoundRect,0.150000X0.512500X0.150000X-0.512500X0.150000X-0.512500X-0.150000X0.512500X-0.150000X0*%
%TD*%
%TA.AperFunction,SMDPad,CuDef*%
%ADD49RoundRect,0.150000X-0.587500X-0.150000X0.587500X-0.150000X0.587500X0.150000X-0.587500X0.150000X0*%
%TD*%
%TA.AperFunction,SMDPad,CuDef*%
%ADD50R,1.000000X0.750000*%
%TD*%
%TA.AperFunction,SMDPad,CuDef*%
%ADD51RoundRect,0.100000X-0.100000X0.637500X-0.100000X-0.637500X0.100000X-0.637500X0.100000X0.637500X0*%
%TD*%
%TA.AperFunction,ComponentPad*%
%ADD52RoundRect,0.250000X1.050000X1.050000X-1.050000X1.050000X-1.050000X-1.050000X1.050000X-1.050000X0*%
%TD*%
%TA.AperFunction,ComponentPad*%
%ADD53C,2.600000*%
%TD*%
%TA.AperFunction,SMDPad,CuDef*%
%ADD54R,0.500000X0.350000*%
%TD*%
%TA.AperFunction,SMDPad,CuDef*%
%ADD55RoundRect,0.150000X0.825000X0.150000X-0.825000X0.150000X-0.825000X-0.150000X0.825000X-0.150000X0*%
%TD*%
%TA.AperFunction,SMDPad,CuDef*%
%ADD56RoundRect,0.062500X-0.350000X-0.062500X0.350000X-0.062500X0.350000X0.062500X-0.350000X0.062500X0*%
%TD*%
%TA.AperFunction,SMDPad,CuDef*%
%ADD57RoundRect,0.062500X-0.062500X-0.350000X0.062500X-0.350000X0.062500X0.350000X-0.062500X0.350000X0*%
%TD*%
%TA.AperFunction,HeatsinkPad*%
%ADD58R,2.600000X2.600000*%
%TD*%
%TA.AperFunction,SMDPad,CuDef*%
%ADD59RoundRect,0.150000X-0.150000X-0.575000X0.150000X-0.575000X0.150000X0.575000X-0.150000X0.575000X0*%
%TD*%
%TA.AperFunction,SMDPad,CuDef*%
%ADD60RoundRect,0.075000X-0.075000X-0.650000X0.075000X-0.650000X0.075000X0.650000X-0.075000X0.650000X0*%
%TD*%
%TA.AperFunction,ComponentPad*%
%ADD61O,1.000000X2.100000*%
%TD*%
%TA.AperFunction,ComponentPad*%
%ADD62O,1.000000X1.600000*%
%TD*%
%TA.AperFunction,SMDPad,CuDef*%
%ADD63RoundRect,0.150000X-0.725000X-0.150000X0.725000X-0.150000X0.725000X0.150000X-0.725000X0.150000X0*%
%TD*%
%TA.AperFunction,SMDPad,CuDef*%
%ADD64RoundRect,0.150000X-0.512500X-0.150000X0.512500X-0.150000X0.512500X0.150000X-0.512500X0.150000X0*%
%TD*%
%TA.AperFunction,SMDPad,CuDef*%
%ADD65RoundRect,0.250000X0.650000X-1.000000X0.650000X1.000000X-0.650000X1.000000X-0.650000X-1.000000X0*%
%TD*%
%TA.AperFunction,ViaPad*%
%ADD66C,0.600000*%
%TD*%
%TA.AperFunction,ViaPad*%
%ADD67C,0.500000*%
%TD*%
%TA.AperFunction,ViaPad*%
%ADD68C,0.700000*%
%TD*%
%TA.AperFunction,Conductor*%
%ADD69C,0.300000*%
%TD*%
%TA.AperFunction,Conductor*%
%ADD70C,0.250000*%
%TD*%
%TA.AperFunction,Conductor*%
%ADD71C,0.320200*%
%TD*%
%TA.AperFunction,Conductor*%
%ADD72C,0.200000*%
%TD*%
%TA.AperFunction,Conductor*%
%ADD73C,0.500000*%
%TD*%
%TA.AperFunction,Conductor*%
%ADD74C,0.600000*%
%TD*%
%TA.AperFunction,Conductor*%
%ADD75C,0.399800*%
%TD*%
%TA.AperFunction,Conductor*%
%ADD76C,0.800000*%
%TD*%
%TA.AperFunction,Conductor*%
%ADD77C,0.601000*%
%TD*%
%TA.AperFunction,Conductor*%
%ADD78C,0.250200*%
%TD*%
G04 APERTURE END LIST*
D10*
%TO.P,C63,2*%
%TO.N,GND*%
X136496900Y-112354400D03*
%TO.P,C63,1*%
%TO.N,/ESP32-C6-mini/user_interface/ULED*%
X137456900Y-112354400D03*
%TD*%
D11*
%TO.P,D32,4,DIN_4*%
%TO.N,Net-(D31-DOUT)*%
X139496900Y-110854400D03*
%TO.P,D32,3,VSS_3*%
%TO.N,GND*%
X139496900Y-109754400D03*
%TO.P,D32,2,DOUT_2*%
%TO.N,Net-(D32-DOUT)*%
X141326900Y-109754400D03*
%TO.P,D32,1,VDD_1*%
%TO.N,/ESP32-C6-mini/user_interface/ULED*%
X141326900Y-110854400D03*
%TD*%
%TO.P,D26,4,DIN_4*%
%TO.N,Net-(D25-DOUT)*%
X163496900Y-110754400D03*
%TO.P,D26,3,VSS_3*%
%TO.N,GND*%
X163496900Y-109654400D03*
%TO.P,D26,2,DOUT_2*%
%TO.N,Net-(D26-DOUT)*%
X165326900Y-109654400D03*
%TO.P,D26,1,VDD_1*%
%TO.N,/ESP32-C6-mini/user_interface/ULED*%
X165326900Y-110754400D03*
%TD*%
D10*
%TO.P,C54,2*%
%TO.N,GND*%
X172496900Y-112254400D03*
%TO.P,C54,1*%
%TO.N,/ESP32-C6-mini/user_interface/ULED*%
X173456900Y-112254400D03*
%TD*%
%TO.P,C60,2*%
%TO.N,GND*%
X144496900Y-112354400D03*
%TO.P,C60,1*%
%TO.N,/ESP32-C6-mini/user_interface/ULED*%
X145456900Y-112354400D03*
%TD*%
%TO.P,C58,2*%
%TO.N,GND*%
X156496900Y-112254400D03*
%TO.P,C58,1*%
%TO.N,/ESP32-C6-mini/user_interface/ULED*%
X157456900Y-112254400D03*
%TD*%
%TO.P,C59,2*%
%TO.N,GND*%
X152496900Y-112254400D03*
%TO.P,C59,1*%
%TO.N,/ESP32-C6-mini/user_interface/ULED*%
X153456900Y-112254400D03*
%TD*%
D11*
%TO.P,D23,4,DIN_4*%
%TO.N,Net-(D22-DOUT)*%
X175496900Y-110754400D03*
%TO.P,D23,3,VSS_3*%
%TO.N,GND*%
X175496900Y-109654400D03*
%TO.P,D23,2,DOUT_2*%
%TO.N,Net-(D23-DOUT)*%
X177326900Y-109654400D03*
%TO.P,D23,1,VDD_1*%
%TO.N,/ESP32-C6-mini/user_interface/ULED*%
X177326900Y-110754400D03*
%TD*%
D10*
%TO.P,C55,2*%
%TO.N,GND*%
X168496900Y-112254400D03*
%TO.P,C55,1*%
%TO.N,/ESP32-C6-mini/user_interface/ULED*%
X169456900Y-112254400D03*
%TD*%
D11*
%TO.P,D31,4,DIN_4*%
%TO.N,Net-(D30-DOUT)*%
X143496900Y-110854400D03*
%TO.P,D31,3,VSS_3*%
%TO.N,GND*%
X143496900Y-109754400D03*
%TO.P,D31,2,DOUT_2*%
%TO.N,Net-(D31-DOUT)*%
X145326900Y-109754400D03*
%TO.P,D31,1,VDD_1*%
%TO.N,/ESP32-C6-mini/user_interface/ULED*%
X145326900Y-110854400D03*
%TD*%
%TO.P,D22,4,DIN_4*%
%TO.N,Net-(D21-DOUT)*%
X179496900Y-110754400D03*
%TO.P,D22,3,VSS_3*%
%TO.N,GND*%
X179496900Y-109654400D03*
%TO.P,D22,2,DOUT_2*%
%TO.N,Net-(D22-DOUT)*%
X181326900Y-109654400D03*
%TO.P,D22,1,VDD_1*%
%TO.N,/ESP32-C6-mini/user_interface/ULED*%
X181326900Y-110754400D03*
%TD*%
%TO.P,D29,4,DIN_4*%
%TO.N,Net-(D28-DOUT)*%
X151496900Y-110754400D03*
%TO.P,D29,3,VSS_3*%
%TO.N,GND*%
X151496900Y-109654400D03*
%TO.P,D29,2,DOUT_2*%
%TO.N,Net-(D29-DOUT)*%
X153326900Y-109654400D03*
%TO.P,D29,1,VDD_1*%
%TO.N,/ESP32-C6-mini/user_interface/ULED*%
X153326900Y-110754400D03*
%TD*%
%TO.P,D25,4,DIN_4*%
%TO.N,Net-(D24-DOUT)*%
X167496900Y-110754400D03*
%TO.P,D25,3,VSS_3*%
%TO.N,GND*%
X167496900Y-109654400D03*
%TO.P,D25,2,DOUT_2*%
%TO.N,Net-(D25-DOUT)*%
X169326900Y-109654400D03*
%TO.P,D25,1,VDD_1*%
%TO.N,/ESP32-C6-mini/user_interface/ULED*%
X169326900Y-110754400D03*
%TD*%
D10*
%TO.P,C52,2*%
%TO.N,GND*%
X180546900Y-112254400D03*
%TO.P,C52,1*%
%TO.N,/ESP32-C6-mini/user_interface/ULED*%
X181506900Y-112254400D03*
%TD*%
%TO.P,C62,2*%
%TO.N,GND*%
X140496900Y-112354400D03*
%TO.P,C62,1*%
%TO.N,/ESP32-C6-mini/user_interface/ULED*%
X141456900Y-112354400D03*
%TD*%
D12*
%TO.P,U3,3,VI_3*%
%TO.N,+5V*%
X217350000Y-83133400D03*
D13*
%TO.P,U3,2,VO_2*%
%TO.N,+3.3V*%
X223650000Y-80833400D03*
D12*
X217350000Y-80833400D03*
%TO.P,U3,1,GND_1*%
%TO.N,GND*%
X217350000Y-78533400D03*
%TD*%
D14*
%TO.P,U8,1,GND_1*%
%TO.N,GND*%
X240705000Y-61950000D03*
%TO.P,U8,2,GND_2*%
X240705000Y-62750000D03*
%TO.P,U8,3,3V3_3*%
%TO.N,+3.3V*%
X240705000Y-63550000D03*
%TO.P,U8,4,NC_4*%
%TO.N,unconnected-(U8-NC-Pad4)*%
X240705000Y-64350000D03*
%TO.P,U8,5,IO2_5*%
%TO.N,/ESP32-C6-mini/DIN*%
X240705000Y-65150000D03*
%TO.P,U8,6,IO3_6*%
%TO.N,/ESP32-C6-mini/CLK*%
X240705000Y-65950000D03*
%TO.P,U8,7,NC_7*%
%TO.N,unconnected-(U8-NC-Pad7)*%
X240705000Y-66750000D03*
%TO.P,U8,8,EN_8*%
%TO.N,/ESP32-C6-mini/EN*%
X240705000Y-67550000D03*
%TO.P,U8,9,IO4_9*%
%TO.N,/ESP32-C6-mini/DATA*%
X240705000Y-68350000D03*
%TO.P,U8,10,IO5_10*%
%TO.N,/ESP32-C6-mini/LD*%
X240705000Y-69150000D03*
%TO.P,U8,11,GND_11*%
%TO.N,GND*%
X240705000Y-69950000D03*
D15*
%TO.P,U8,12,IO0_12*%
%TO.N,/ESP32-C6-mini/GPIO0*%
X241805000Y-70850000D03*
%TO.P,U8,13,IO1_13*%
%TO.N,/ESP32-C6-mini/GPIO1*%
X242605000Y-70850000D03*
%TO.P,U8,14,GND_14*%
%TO.N,GND*%
X243405000Y-70850000D03*
%TO.P,U8,15,IO6_15*%
%TO.N,/ESP32-C6-mini/SDA*%
X244205000Y-70850000D03*
%TO.P,U8,16,IO7_16*%
%TO.N,/ESP32-C6-mini/SCL*%
X245005000Y-70850000D03*
%TO.P,U8,17,IO12_17*%
%TO.N,/ESP32-C6-mini/D-*%
X245805000Y-70850000D03*
%TO.P,U8,18,IO13_18*%
%TO.N,/ESP32-C6-mini/D+*%
X246605000Y-70850000D03*
%TO.P,U8,19,IO14_19*%
%TO.N,/ESP32-C6-mini/F_BIN1*%
X247405000Y-70850000D03*
%TO.P,U8,20,IO15_20*%
%TO.N,/ESP32-C6-mini/F_BIN2*%
X248205000Y-70850000D03*
%TO.P,U8,21,NC_21*%
%TO.N,unconnected-(U8-NC-Pad21)*%
X249005000Y-70850000D03*
%TO.P,U8,22,IO8_22*%
%TO.N,/ESP32-C6-mini/GPIO8*%
X249805000Y-70850000D03*
%TO.P,U8,23,IO9_23*%
%TO.N,/ESP32-C6-mini/BOOT*%
X250605000Y-70850000D03*
%TO.P,U8,24,IO18_24*%
%TO.N,/ESP32-C6-mini/B_AIN1*%
X251405000Y-70850000D03*
D14*
%TO.P,U8,25,IO19_25*%
%TO.N,/ESP32-C6-mini/B_AIN2*%
X252505000Y-69950000D03*
%TO.P,U8,26,IO20_26*%
%TO.N,/ESP32-C6-mini/B_BIN1*%
X252505000Y-69150000D03*
%TO.P,U8,27,IO21_27*%
%TO.N,/ESP32-C6-mini/B_BIN2*%
X252505000Y-68350000D03*
%TO.P,U8,28,IO22_28*%
%TO.N,/ESP32-C6-mini/SLEEP*%
X252505000Y-67550000D03*
%TO.P,U8,29,IO23_29*%
%TO.N,/ESP32-C6-mini/DIN_EN*%
X252505000Y-66750000D03*
%TO.P,U8,30,RXD0_30*%
%TO.N,/ESP32-C6-mini/RXD0*%
X252505000Y-65950000D03*
%TO.P,U8,31,TXD0_31*%
%TO.N,/ESP32-C6-mini/TXD0*%
X252505000Y-65150000D03*
%TO.P,U8,32,NC_32*%
%TO.N,unconnected-(U8-NC-Pad32)*%
X252505000Y-64350000D03*
%TO.P,U8,33,NC_33*%
%TO.N,unconnected-(U8-NC-Pad33)*%
X252505000Y-63550000D03*
%TO.P,U8,34,NC_34*%
%TO.N,unconnected-(U8-NC-Pad34)*%
X252505000Y-62750000D03*
%TO.P,U8,35,NC_35*%
%TO.N,unconnected-(U8-NC-Pad35)*%
X252505000Y-61950000D03*
D15*
%TO.P,U8,36,GND_36*%
%TO.N,GND*%
X251405000Y-61050000D03*
%TO.P,U8,37,GND_37*%
X250605000Y-61050000D03*
%TO.P,U8,38,GND_38*%
X249805000Y-61050000D03*
%TO.P,U8,39,GND_39*%
X249005000Y-61050000D03*
%TO.P,U8,40,GND_40*%
X248205000Y-61050000D03*
%TO.P,U8,41,GND_41*%
X247405000Y-61050000D03*
%TO.P,U8,42,GND_42*%
X246605000Y-61050000D03*
%TO.P,U8,43,GND_43*%
X245805000Y-61050000D03*
%TO.P,U8,44,GND_44*%
X245005000Y-61050000D03*
%TO.P,U8,45,GND_45*%
X244205000Y-61050000D03*
%TO.P,U8,46,GND_46*%
X243405000Y-61050000D03*
%TO.P,U8,47,GND_47*%
X242605000Y-61050000D03*
%TO.P,U8,48,GND_48*%
X241805000Y-61050000D03*
D16*
%TO.P,U8,49,GND_49*%
X244630000Y-63975000D03*
D17*
X244630000Y-65950000D03*
X244630000Y-67925000D03*
X246605000Y-63975000D03*
X246605000Y-65950000D03*
X246605000Y-67925000D03*
X248580000Y-63975000D03*
X248580000Y-65950000D03*
X248580000Y-67925000D03*
D11*
%TO.P,U8,50,GND_50*%
X252555000Y-61000000D03*
%TO.P,U8,51,GND_51*%
X252555000Y-70900000D03*
%TO.P,U8,52,GND_52*%
X240655000Y-70900000D03*
%TO.P,U8,53,GND_53*%
X240655000Y-61000000D03*
%TD*%
D18*
%TO.P,D3,1,K_1*%
%TO.N,Net-(D2-K)*%
X196863800Y-75913600D03*
%TO.P,D3,2,A_2*%
%TO.N,/CHRG*%
X198738800Y-75913600D03*
%TD*%
D10*
%TO.P,C45,1*%
%TO.N,/ESP32-C6-mini/user_interface/ULED*%
X221546700Y-112377200D03*
%TO.P,C45,2*%
%TO.N,GND*%
X220586700Y-112377200D03*
%TD*%
D11*
%TO.P,D16,1,VDD_1*%
%TO.N,/ESP32-C6-mini/user_interface/ULED*%
X217416700Y-110877200D03*
%TO.P,D16,2,DOUT_2*%
%TO.N,Net-(D16-DOUT)*%
X217416700Y-109777200D03*
%TO.P,D16,3,VSS_3*%
%TO.N,GND*%
X215586700Y-109777200D03*
%TO.P,D16,4,DIN_4*%
%TO.N,Net-(D15-DOUT)*%
X215586700Y-110877200D03*
%TD*%
D19*
%TO.P,C6,1*%
%TO.N,+5V*%
X214950000Y-83333400D03*
%TO.P,C6,2*%
%TO.N,GND*%
X213050000Y-83333400D03*
%TD*%
%TO.P,C7,1*%
%TO.N,/CV-VREG*%
X189951300Y-73213600D03*
%TO.P,C7,2*%
%TO.N,GND*%
X188051300Y-73213600D03*
%TD*%
%TO.P,C38,1*%
%TO.N,GND*%
X212800000Y-107100000D03*
%TO.P,C38,2*%
%TO.N,/ESP32-C6-mini/EN*%
X210900000Y-107100000D03*
%TD*%
D20*
%TO.P,R15,1*%
%TO.N,VBUS*%
X192043400Y-102519400D03*
%TO.P,R15,2*%
X192043400Y-100694400D03*
%TD*%
D21*
%TO.P,Q3,1,B_1*%
%TO.N,Net-(Q3-B)*%
X212937500Y-105050000D03*
%TO.P,Q3,2,E_2*%
%TO.N,/ESP32-C6-mini/DTR*%
X212937500Y-103150000D03*
%TO.P,Q3,3,C_3*%
%TO.N,/ESP32-C6-mini/EN*%
X211062500Y-104100000D03*
%TD*%
D10*
%TO.P,C53,1*%
%TO.N,/ESP32-C6-mini/user_interface/ULED*%
X177476900Y-112254400D03*
%TO.P,C53,2*%
%TO.N,GND*%
X176516900Y-112254400D03*
%TD*%
D22*
%TO.P,R21,1*%
%TO.N,/ESP32-C6-mini/EN*%
X236200000Y-65487500D03*
%TO.P,R21,2*%
%TO.N,+3.3V*%
X236200000Y-67312500D03*
%TD*%
D23*
%TO.P,L1,1*%
%TO.N,Net-(D1-K)*%
X162325000Y-87373300D03*
%TO.P,L1,2*%
%TO.N,+5V*%
X156275000Y-87373300D03*
%TD*%
D24*
%TO.P,R6,1*%
%TO.N,Net-(D4-A)*%
X165475000Y-92500000D03*
%TO.P,R6,2*%
%TO.N,GND*%
X167300000Y-92500000D03*
%TD*%
D10*
%TO.P,C48,1*%
%TO.N,/ESP32-C6-mini/user_interface/ULED*%
X209131700Y-112327200D03*
%TO.P,C48,2*%
%TO.N,GND*%
X208171700Y-112327200D03*
%TD*%
D24*
%TO.P,R13,1*%
%TO.N,/Cell2*%
X200212500Y-63400000D03*
%TO.P,R13,2*%
%TO.N,/VC*%
X202037500Y-63400000D03*
%TD*%
D25*
%TO.P,J9,1,Pin_1_1*%
%TO.N,GND*%
X125900000Y-105640000D03*
D26*
%TO.P,J9,2,Pin_2_2*%
%TO.N,/ESP32-C6-mini/NEAR*%
X125900000Y-103100000D03*
%TO.P,J9,3,Pin_3_3*%
%TO.N,/ESP32-C6-mini/CLP*%
X125900000Y-100560000D03*
%TO.P,J9,4,Pin_4_4*%
%TO.N,/ESP32-C6-mini/S5*%
X125900000Y-98020000D03*
%TO.P,J9,5,Pin_5_5*%
%TO.N,/ESP32-C6-mini/S4*%
X125900000Y-95480000D03*
%TO.P,J9,6,Pin_6_6*%
%TO.N,/ESP32-C6-mini/S3*%
X125900000Y-92940000D03*
%TO.P,J9,7,Pin_7_7*%
%TO.N,/ESP32-C6-mini/S2*%
X125900000Y-90400000D03*
%TO.P,J9,8,Pin_8_8*%
%TO.N,/ESP32-C6-mini/S1*%
X125900000Y-87860000D03*
%TO.P,J9,9,Pin_9_9*%
%TO.N,+3.3V*%
X125900000Y-85320000D03*
%TD*%
D27*
%TO.P,C12,1*%
%TO.N,/BAT*%
X192601300Y-75913600D03*
%TO.P,C12,2*%
%TO.N,GND*%
X194501300Y-75913600D03*
%TD*%
D19*
%TO.P,C1,1*%
%TO.N,+BATT*%
X146075000Y-89730000D03*
%TO.P,C1,2*%
%TO.N,GND*%
X144175000Y-89730000D03*
%TD*%
D28*
%TO.P,C14,1*%
%TO.N,/VS*%
X188376300Y-82913600D03*
%TO.P,C14,2*%
%TO.N,GND*%
X188376300Y-81013600D03*
%TD*%
%TO.P,C25,1*%
%TO.N,GND*%
X238425000Y-67350000D03*
%TO.P,C25,2*%
%TO.N,/ESP32-C6-mini/EN*%
X238425000Y-65450000D03*
%TD*%
D29*
%TO.P,R11,1*%
%TO.N,/TS*%
X198563800Y-83563600D03*
%TO.P,R11,2*%
%TO.N,GND*%
X196738800Y-83563600D03*
%TD*%
D24*
%TO.P,R2,1*%
%TO.N,VBUS*%
X224568900Y-87581200D03*
%TO.P,R2,2*%
X226393900Y-87581200D03*
%TD*%
D25*
%TO.P,J8,1,Pin_1_1*%
%TO.N,+3.3V*%
X251300000Y-91410000D03*
D26*
%TO.P,J8,2,Pin_2_2*%
%TO.N,/ESP32-C6-mini/SDA*%
X251300000Y-88870000D03*
%TO.P,J8,3,Pin_3_3*%
%TO.N,/ESP32-C6-mini/SCL*%
X251300000Y-86330000D03*
%TO.P,J8,4,Pin_4_4*%
%TO.N,GND*%
X251300000Y-83790000D03*
%TD*%
D18*
%TO.P,D4,1,K_1*%
%TO.N,+5V*%
X165562500Y-89700000D03*
%TO.P,D4,2,A_2*%
%TO.N,Net-(D4-A)*%
X167437500Y-89700000D03*
%TD*%
D20*
%TO.P,R16,1*%
%TO.N,GND*%
X194543400Y-102606900D03*
%TO.P,R16,2*%
%TO.N,VBUS*%
X194543400Y-100781900D03*
%TD*%
D30*
%TO.P,D7,1,K_1*%
%TO.N,/ESP32-C6-mini/TXS*%
X195006600Y-95700600D03*
%TO.P,D7,2,A_2*%
%TO.N,Net-(D7-A)*%
X193131600Y-95700600D03*
%TD*%
D31*
%TO.P,Y1,1,1_1*%
%TO.N,/ESP32-C6-mini/GPIO0*%
X240250000Y-73600000D03*
%TO.P,Y1,2,2_2*%
%TO.N,/ESP32-C6-mini/GPIO1*%
X242750000Y-73600000D03*
%TD*%
D32*
%TO.P,D1,1,K_1*%
%TO.N,Net-(D1-K)*%
X149425000Y-93500000D03*
%TO.P,D1,2,A_2*%
%TO.N,GND*%
X153425000Y-93500000D03*
%TD*%
D22*
%TO.P,R5,1*%
%TO.N,VBUS*%
X184051300Y-81013600D03*
%TO.P,R5,2*%
%TO.N,Net-(D2-K)*%
X184051300Y-82838600D03*
%TD*%
D10*
%TO.P,C57,1*%
%TO.N,/ESP32-C6-mini/user_interface/ULED*%
X161456900Y-112254400D03*
%TO.P,C57,2*%
%TO.N,GND*%
X160496900Y-112254400D03*
%TD*%
D33*
%TO.P,TP7,1,1_1*%
%TO.N,/ESP32-C6-mini/user_interface/ULED*%
X227200000Y-106087200D03*
%TD*%
D11*
%TO.P,D12,1,VDD_1*%
%TO.N,/ESP32-C6-mini/user_interface/ULED*%
X233501700Y-110927200D03*
%TO.P,D12,2,DOUT_2*%
%TO.N,Net-(D12-DOUT)*%
X233501700Y-109827200D03*
%TO.P,D12,3,VSS_3*%
%TO.N,GND*%
X231671700Y-109827200D03*
%TO.P,D12,4,DIN_4*%
%TO.N,Net-(D11-DOUT)*%
X231671700Y-110927200D03*
%TD*%
D10*
%TO.P,C47,1*%
%TO.N,/ESP32-C6-mini/user_interface/ULED*%
X213301700Y-112327200D03*
%TO.P,C47,2*%
%TO.N,GND*%
X212341700Y-112327200D03*
%TD*%
D24*
%TO.P,R12,1*%
%TO.N,+BATT*%
X200212500Y-60900000D03*
%TO.P,R12,2*%
%TO.N,VDDA*%
X202037500Y-60900000D03*
%TD*%
D33*
%TO.P,TP3,1,1_1*%
%TO.N,/ESP32-C6-mini/DATA*%
X149600000Y-106272800D03*
%TD*%
D11*
%TO.P,D11,1,VDD_1*%
%TO.N,/ESP32-C6-mini/user_interface/ULED*%
X237501700Y-110927200D03*
%TO.P,D11,2,DOUT_2*%
%TO.N,Net-(D11-DOUT)*%
X237501700Y-109827200D03*
%TO.P,D11,3,VSS_3*%
%TO.N,GND*%
X235671700Y-109827200D03*
%TO.P,D11,4,DIN_4*%
%TO.N,Net-(D10-DOUT)*%
X235671700Y-110927200D03*
%TD*%
D34*
%TO.P,C36,1*%
%TO.N,+3.3V*%
X242500000Y-85930000D03*
%TO.P,C36,2*%
%TO.N,GND*%
X242500000Y-87830000D03*
%TD*%
D23*
%TO.P,L2,1*%
%TO.N,/LX*%
X190176300Y-87763600D03*
%TO.P,L2,2*%
%TO.N,/VS*%
X184126300Y-87763600D03*
%TD*%
D30*
%TO.P,D8,1,K_1*%
%TO.N,/ESP32-C6-mini/RXS*%
X195031600Y-98155600D03*
%TO.P,D8,2,A_2*%
%TO.N,Net-(D8-A)*%
X193156600Y-98155600D03*
%TD*%
D19*
%TO.P,C29,1*%
%TO.N,GND*%
X246650000Y-73600000D03*
%TO.P,C29,2*%
%TO.N,/ESP32-C6-mini/GPIO1*%
X244750000Y-73600000D03*
%TD*%
D33*
%TO.P,TP8,1,1_1*%
%TO.N,GND*%
X231200000Y-106087200D03*
%TD*%
D24*
%TO.P,R7,1*%
%TO.N,Net-(D5-A)*%
X212372800Y-91988100D03*
%TO.P,R7,2*%
%TO.N,GND*%
X214197800Y-91988100D03*
%TD*%
D30*
%TO.P,D5,1,K_1*%
%TO.N,+3.3V*%
X214072800Y-89388100D03*
%TO.P,D5,2,A_2*%
%TO.N,Net-(D5-A)*%
X212197800Y-89388100D03*
%TD*%
D11*
%TO.P,D21,1,VDD_1*%
%TO.N,/ESP32-C6-mini/user_interface/ULED*%
X197001700Y-110877200D03*
%TO.P,D21,2,DOUT_2*%
%TO.N,Net-(D21-DOUT)*%
X197001700Y-109777200D03*
%TO.P,D21,3,VSS_3*%
%TO.N,GND*%
X195171700Y-109777200D03*
%TO.P,D21,4,DIN_4*%
%TO.N,Net-(D20-DOUT)*%
X195171700Y-110877200D03*
%TD*%
D29*
%TO.P,R3,1*%
%TO.N,+5V*%
X149837500Y-84600000D03*
%TO.P,R3,2*%
%TO.N,/VSNS*%
X148012500Y-84600000D03*
%TD*%
D27*
%TO.P,C5,1*%
%TO.N,+5V*%
X151775000Y-84600000D03*
%TO.P,C5,2*%
%TO.N,GND*%
X153675000Y-84600000D03*
%TD*%
D28*
%TO.P,C19,1*%
%TO.N,GND*%
X187043400Y-102644400D03*
%TO.P,C19,2*%
%TO.N,+3.3V*%
X187043400Y-100744400D03*
%TD*%
D27*
%TO.P,C26,1*%
%TO.N,GND*%
X240350000Y-76400000D03*
%TO.P,C26,2*%
%TO.N,/ESP32-C6-mini/D+*%
X242250000Y-76400000D03*
%TD*%
D10*
%TO.P,C49,1*%
%TO.N,/ESP32-C6-mini/user_interface/ULED*%
X205216700Y-112277200D03*
%TO.P,C49,2*%
%TO.N,GND*%
X204256700Y-112277200D03*
%TD*%
D35*
%TO.P,Q1,1,G_1*%
%TO.N,/DO*%
X206550000Y-58212500D03*
%TO.P,Q1,2,S_2*%
%TO.N,GND1*%
X204650000Y-58212500D03*
%TO.P,Q1,3,D_3*%
%TO.N,Net-(Q1-D)*%
X205600000Y-60087500D03*
%TD*%
D36*
%TO.P,JP3,1,A_1*%
%TO.N,/ESP32-C6-mini/D+*%
X233750000Y-97500000D03*
D37*
%TO.P,JP3,2,B_2*%
X235200000Y-97500000D03*
%TD*%
D11*
%TO.P,D17,1,VDD_1*%
%TO.N,/ESP32-C6-mini/user_interface/ULED*%
X213171700Y-111027200D03*
%TO.P,D17,2,DOUT_2*%
%TO.N,Net-(D17-DOUT)*%
X213171700Y-109927200D03*
%TO.P,D17,3,VSS_3*%
%TO.N,GND*%
X211341700Y-109927200D03*
%TO.P,D17,4,DIN_4*%
%TO.N,Net-(D16-DOUT)*%
X211341700Y-111027200D03*
%TD*%
D10*
%TO.P,C41,1*%
%TO.N,/ESP32-C6-mini/user_interface/ULED*%
X237671700Y-112427200D03*
%TO.P,C41,2*%
%TO.N,GND*%
X236711700Y-112427200D03*
%TD*%
D24*
%TO.P,R1,1*%
%TO.N,VDD*%
X224568900Y-90081200D03*
%TO.P,R1,2*%
%TO.N,VBUS*%
X226393900Y-90081200D03*
%TD*%
D19*
%TO.P,C8,1*%
%TO.N,+3.3V*%
X215000000Y-81000000D03*
%TO.P,C8,2*%
%TO.N,GND*%
X213100000Y-81000000D03*
%TD*%
D11*
%TO.P,D14,1,VDD_1*%
%TO.N,/ESP32-C6-mini/user_interface/ULED*%
X225416700Y-110977200D03*
%TO.P,D14,2,DOUT_2*%
%TO.N,Net-(D14-DOUT)*%
X225416700Y-109877200D03*
%TO.P,D14,3,VSS_3*%
%TO.N,GND*%
X223586700Y-109877200D03*
%TO.P,D14,4,DIN_4*%
%TO.N,Net-(D13-DOUT)*%
X223586700Y-110977200D03*
%TD*%
D38*
%TO.P,Q2,1,G_1*%
%TO.N,/CO*%
X204708800Y-68437500D03*
%TO.P,Q2,2,S_2*%
%TO.N,GND*%
X206608800Y-68437500D03*
%TO.P,Q2,3,D_3*%
%TO.N,Net-(Q1-D)*%
X205658800Y-66562500D03*
%TD*%
D24*
%TO.P,R25,1*%
%TO.N,/ESP32-C6-mini/GPIO8*%
X248675000Y-73700000D03*
%TO.P,R25,2*%
%TO.N,+3.3V*%
X250500000Y-73700000D03*
%TD*%
D29*
%TO.P,R32,1*%
%TO.N,/ESP32-C6-mini/EN*%
X201025000Y-107100000D03*
%TO.P,R32,2*%
%TO.N,+3.3V*%
X199200000Y-107100000D03*
%TD*%
%TO.P,R4,1*%
%TO.N,/VSNS*%
X146037500Y-84600000D03*
%TO.P,R4,2*%
%TO.N,GND*%
X144212500Y-84600000D03*
%TD*%
D39*
%TO.P,U2,1,VDD_1*%
%TO.N,VDD*%
X216981400Y-86581200D03*
%TO.P,U2,2,CFG2_2*%
%TO.N,GND*%
X216981400Y-87581200D03*
%TO.P,U2,3,CFG3_3*%
%TO.N,VDD*%
X216981400Y-88581200D03*
%TO.P,U2,4,DP_4*%
%TO.N,/D+*%
X216981400Y-89581200D03*
%TO.P,U2,5,DM_5*%
%TO.N,/D-*%
X216981400Y-90581200D03*
%TO.P,U2,6,CC2_6*%
%TO.N,/CC2*%
X222256400Y-90581200D03*
%TO.P,U2,7,CC1_7*%
%TO.N,/CC1*%
X222256400Y-89581200D03*
%TO.P,U2,8,VBUS_8*%
%TO.N,VBUS*%
X222256400Y-88581200D03*
%TO.P,U2,9,CFG1_9*%
%TO.N,GND*%
X222256400Y-87581200D03*
%TO.P,U2,10,PG_10*%
%TO.N,unconnected-(U2-PG-Pad10)*%
X222256400Y-86581200D03*
D40*
%TO.P,U2,11,GND_11*%
%TO.N,GND*%
X219618900Y-88581200D03*
%TD*%
D11*
%TO.P,D30,1,VDD_1*%
%TO.N,/ESP32-C6-mini/user_interface/ULED*%
X149326900Y-110754400D03*
%TO.P,D30,2,DOUT_2*%
%TO.N,Net-(D30-DOUT)*%
X149326900Y-109654400D03*
%TO.P,D30,3,VSS_3*%
%TO.N,GND*%
X147496900Y-109654400D03*
%TO.P,D30,4,DIN_4*%
%TO.N,Net-(D29-DOUT)*%
X147496900Y-110754400D03*
%TD*%
D19*
%TO.P,C27,1*%
%TO.N,GND*%
X250600000Y-76500000D03*
%TO.P,C27,2*%
%TO.N,/ESP32-C6-mini/D-*%
X248700000Y-76500000D03*
%TD*%
D27*
%TO.P,C16,1*%
%TO.N,VDDA*%
X209050000Y-62100000D03*
%TO.P,C16,2*%
%TO.N,GND1*%
X210950000Y-62100000D03*
%TD*%
D41*
%TO.P,U4,1,VIN_1*%
%TO.N,VBUS*%
X187111300Y-76038600D03*
%TO.P,U4,2,LX_2*%
%TO.N,/LX*%
X187111300Y-76688600D03*
%TO.P,U4,3,LX_3*%
X187111300Y-77338600D03*
%TO.P,U4,4,VIN_4*%
%TO.N,VBUS*%
X187111300Y-77988600D03*
D42*
%TO.P,U4,5,VIN_5*%
X187996300Y-78873600D03*
%TO.P,U4,6,PWR_ON-_6*%
%TO.N,unconnected-(U4-PWR_ON--Pad6)*%
X188646300Y-78873600D03*
%TO.P,U4,7,GND_7*%
%TO.N,GND*%
X189296300Y-78873600D03*
%TO.P,U4,8,VS_8*%
%TO.N,/VS*%
X189946300Y-78873600D03*
D41*
%TO.P,U4,9,BAT_9*%
%TO.N,/BAT*%
X190831300Y-77988600D03*
%TO.P,U4,10,VREG_10*%
%TO.N,/CV-VREG*%
X190831300Y-77338600D03*
%TO.P,U4,11,TS_11*%
%TO.N,/TS*%
X190831300Y-76688600D03*
%TO.P,U4,12,RTRICK_12*%
%TO.N,GND*%
X190831300Y-76038600D03*
D42*
%TO.P,U4,13,CS_13*%
%TO.N,/CV-VREG*%
X189946300Y-75153600D03*
%TO.P,U4,14,~{STDBY}_14*%
%TO.N,/STDBY*%
X189296300Y-75153600D03*
%TO.P,U4,15,~{CHRG}_15*%
%TO.N,/CHRG*%
X188646300Y-75153600D03*
%TO.P,U4,16,VIN_16*%
%TO.N,VBUS*%
X187996300Y-75153600D03*
D43*
%TO.P,U4,17,EXP_17*%
%TO.N,unconnected-(U4-EXP-Pad17)*%
X188971300Y-77013600D03*
%TD*%
D29*
%TO.P,R14,1*%
%TO.N,/CS*%
X202037500Y-65900000D03*
%TO.P,R14,2*%
%TO.N,GND*%
X200212500Y-65900000D03*
%TD*%
D24*
%TO.P,R10,1*%
%TO.N,/BATT_READ*%
X130087500Y-86850000D03*
%TO.P,R10,2*%
%TO.N,GND*%
X131912500Y-86850000D03*
%TD*%
D44*
%TO.P,J2,1,Pin_1_1*%
%TO.N,+BATT*%
X127900000Y-65987200D03*
D45*
%TO.P,J2,2,Pin_2_2*%
%TO.N,/Cell2*%
X127900000Y-68487200D03*
%TO.P,J2,3,Pin_3_3*%
%TO.N,GND1*%
X127900000Y-70987200D03*
%TD*%
D46*
%TO.P,J3,1,Pin_1_1*%
%TO.N,GND*%
X135379900Y-78800000D03*
D47*
%TO.P,J3,2,Pin_2_2*%
%TO.N,+BATT*%
X128458400Y-79536600D03*
%TD*%
D36*
%TO.P,JP4,1,A_1*%
%TO.N,/ESP32-C6-mini/D-*%
X229275000Y-97500000D03*
D37*
%TO.P,JP4,2,B_2*%
X230725000Y-97500000D03*
%TD*%
D28*
%TO.P,C18,1*%
%TO.N,GND*%
X189543400Y-102594400D03*
%TO.P,C18,2*%
%TO.N,VBUS*%
X189543400Y-100694400D03*
%TD*%
D33*
%TO.P,TP6,1,1_1*%
%TO.N,/ESP32-C6-mini/DIN*%
X223200000Y-106087200D03*
%TD*%
D10*
%TO.P,C44,1*%
%TO.N,/ESP32-C6-mini/user_interface/ULED*%
X225546700Y-112477200D03*
%TO.P,C44,2*%
%TO.N,GND*%
X224586700Y-112477200D03*
%TD*%
D48*
%TO.P,U6,1,I/O1_1*%
%TO.N,/ESP32-C6-mini/USB_D-*%
X184543400Y-97794400D03*
%TO.P,U6,2,GND_2*%
%TO.N,GND*%
X184543400Y-96844400D03*
%TO.P,U6,3,I/O2_3*%
%TO.N,/ESP32-C6-mini/USB_D+*%
X184543400Y-95894400D03*
%TO.P,U6,4,I/O2_4*%
%TO.N,/D+*%
X182268400Y-95894400D03*
%TO.P,U6,5,VBUS_5*%
%TO.N,VBUS*%
X182268400Y-96844400D03*
%TO.P,U6,6,I/O1_6*%
%TO.N,/D-*%
X182268400Y-97794400D03*
%TD*%
D27*
%TO.P,C11,1*%
%TO.N,/BAT*%
X192601300Y-78163600D03*
%TO.P,C11,2*%
%TO.N,GND*%
X194501300Y-78163600D03*
%TD*%
D11*
%TO.P,D27,1,VDD_1*%
%TO.N,/ESP32-C6-mini/user_interface/ULED*%
X161326900Y-110754400D03*
%TO.P,D27,2,DOUT_2*%
%TO.N,Net-(D27-DOUT)*%
X161326900Y-109654400D03*
%TO.P,D27,3,VSS_3*%
%TO.N,GND*%
X159496900Y-109654400D03*
%TO.P,D27,4,DIN_4*%
%TO.N,Net-(D26-DOUT)*%
X159496900Y-110754400D03*
%TD*%
D10*
%TO.P,C46,1*%
%TO.N,/ESP32-C6-mini/user_interface/ULED*%
X217546700Y-112377200D03*
%TO.P,C46,2*%
%TO.N,GND*%
X216586700Y-112377200D03*
%TD*%
%TO.P,C50,1*%
%TO.N,/ESP32-C6-mini/user_interface/ULED*%
X201236700Y-112277200D03*
%TO.P,C50,2*%
%TO.N,GND*%
X200276700Y-112277200D03*
%TD*%
D49*
%TO.P,Q5,1,G_1*%
%TO.N,/ESP32-C6-mini/DIN_EN*%
X238662500Y-104950000D03*
%TO.P,Q5,2,S_2*%
%TO.N,+5V*%
X238662500Y-106850000D03*
%TO.P,Q5,3,D_3*%
%TO.N,/ESP32-C6-mini/user_interface/ULED*%
X240537500Y-105900000D03*
%TD*%
D22*
%TO.P,R19,1*%
%TO.N,/ESP32-C6-mini/DIN_EN*%
X236450000Y-104925000D03*
%TO.P,R19,2*%
%TO.N,+5V*%
X236450000Y-106750000D03*
%TD*%
D19*
%TO.P,C2,1*%
%TO.N,+BATT*%
X146025000Y-87230000D03*
%TO.P,C2,2*%
%TO.N,GND*%
X144125000Y-87230000D03*
%TD*%
D28*
%TO.P,C20,1*%
%TO.N,GND*%
X184543400Y-102644400D03*
%TO.P,C20,2*%
%TO.N,/ESP32-C6-mini/V3*%
X184543400Y-100744400D03*
%TD*%
D10*
%TO.P,C43,1*%
%TO.N,/ESP32-C6-mini/user_interface/ULED*%
X229631700Y-112427200D03*
%TO.P,C43,2*%
%TO.N,GND*%
X228671700Y-112427200D03*
%TD*%
D24*
%TO.P,R22,1*%
%TO.N,/ESP32-C6-mini/D+*%
X244575000Y-76300000D03*
%TO.P,R22,2*%
%TO.N,/D+*%
X246400000Y-76300000D03*
%TD*%
D11*
%TO.P,D33,1,VDD_1*%
%TO.N,/ESP32-C6-mini/user_interface/ULED*%
X137326900Y-110854400D03*
%TO.P,D33,2,DOUT_2*%
%TO.N,unconnected-(D33-DOUT-Pad2)*%
X137326900Y-109754400D03*
%TO.P,D33,3,VSS_3*%
%TO.N,GND*%
X135496900Y-109754400D03*
%TO.P,D33,4,DIN_4*%
%TO.N,Net-(D32-DOUT)*%
X135496900Y-110854400D03*
%TD*%
%TO.P,D18,1,VDD_1*%
%TO.N,/ESP32-C6-mini/user_interface/ULED*%
X209001700Y-110927200D03*
%TO.P,D18,2,DOUT_2*%
%TO.N,Net-(D18-DOUT)*%
X209001700Y-109827200D03*
%TO.P,D18,3,VSS_3*%
%TO.N,GND*%
X207171700Y-109827200D03*
%TO.P,D18,4,DIN_4*%
%TO.N,Net-(D17-DOUT)*%
X207171700Y-110927200D03*
%TD*%
D27*
%TO.P,C17,1*%
%TO.N,/VC*%
X209050000Y-64600000D03*
%TO.P,C17,2*%
%TO.N,GND1*%
X210950000Y-64600000D03*
%TD*%
D33*
%TO.P,TP1,1,1_1*%
%TO.N,/ESP32-C6-mini/LD*%
X141600000Y-106272800D03*
%TD*%
D49*
%TO.P,Q4,1,B_1*%
%TO.N,Net-(Q4-B)*%
X162866500Y-103350000D03*
%TO.P,Q4,2,E_2*%
%TO.N,/ESP32-C6-mini/BOOT*%
X162866500Y-105250000D03*
%TO.P,Q4,3,C_3*%
%TO.N,/ESP32-C6-mini/RTS*%
X164741500Y-104300000D03*
%TD*%
D24*
%TO.P,R31,1*%
%TO.N,Net-(Q4-B)*%
X162679000Y-101500000D03*
%TO.P,R31,2*%
%TO.N,/ESP32-C6-mini/RTS*%
X164504000Y-101500000D03*
%TD*%
D50*
%TO.P,SW1,1,1_1*%
%TO.N,/ESP32-C6-mini/BOOT*%
X172704000Y-107200000D03*
X166704000Y-107200000D03*
%TO.P,SW1,2,2_2*%
X172704000Y-103450000D03*
X166704000Y-103450000D03*
%TD*%
D27*
%TO.P,C37,1*%
%TO.N,GND*%
X162804000Y-107200000D03*
%TO.P,C37,2*%
%TO.N,/ESP32-C6-mini/BOOT*%
X164704000Y-107200000D03*
%TD*%
D34*
%TO.P,C35,1*%
%TO.N,/ESP32-C6-mini/sensors/B_VINT*%
X152185000Y-76762500D03*
%TO.P,C35,2*%
%TO.N,GND*%
X152185000Y-78662500D03*
%TD*%
D28*
%TO.P,C33,1*%
%TO.N,GND*%
X150035000Y-78662500D03*
%TO.P,C33,2*%
%TO.N,+BATT*%
X150035000Y-76762500D03*
%TD*%
D51*
%TO.P,U11,1,~{SLEEP}_1*%
%TO.N,/ESP32-C6-mini/SLEEP*%
X152285000Y-68937500D03*
%TO.P,U11,2,AOUT1_2*%
%TO.N,/ESP32-C6-mini/B_AOUT1*%
X151635000Y-68937500D03*
%TO.P,U11,3,AISEN_3*%
%TO.N,GND*%
X150985000Y-68937500D03*
%TO.P,U11,4,AOUT2_4*%
%TO.N,/ESP32-C6-mini/B_AOUT2*%
X150335000Y-68937500D03*
%TO.P,U11,5,BOUT2_5*%
%TO.N,/ESP32-C6-mini/B_BOUT2*%
X149685000Y-68937500D03*
%TO.P,U11,6,BISEN_6*%
%TO.N,GND*%
X149035000Y-68937500D03*
%TO.P,U11,7,BOUT1_7*%
%TO.N,/ESP32-C6-mini/B_BOUT1*%
X148385000Y-68937500D03*
%TO.P,U11,8,~{FAULT}_8*%
%TO.N,unconnected-(U11-~{FAULT}-Pad8)*%
X147735000Y-68937500D03*
%TO.P,U11,9,BIN1_9*%
%TO.N,/ESP32-C6-mini/B_BIN1*%
X147735000Y-74662500D03*
%TO.P,U11,10,BIN2_10*%
%TO.N,/ESP32-C6-mini/B_BIN2*%
X148385000Y-74662500D03*
%TO.P,U11,11,VCP_11*%
%TO.N,/ESP32-C6-mini/sensors/B_VCP*%
X149035000Y-74662500D03*
%TO.P,U11,12,VM_12*%
%TO.N,+BATT*%
X149685000Y-74662500D03*
%TO.P,U11,13,GND_13*%
%TO.N,GND*%
X150335000Y-74662500D03*
%TO.P,U11,14,VINT_14*%
%TO.N,/ESP32-C6-mini/sensors/B_VINT*%
X150985000Y-74662500D03*
%TO.P,U11,15,AIN2_15*%
%TO.N,/ESP32-C6-mini/B_AIN2*%
X151635000Y-74662500D03*
%TO.P,U11,16,AIN1_16*%
%TO.N,/ESP32-C6-mini/B_AIN1*%
X152285000Y-74662500D03*
%TD*%
D28*
%TO.P,C34,1*%
%TO.N,+BATT*%
X147535000Y-78662500D03*
%TO.P,C34,2*%
%TO.N,/ESP32-C6-mini/sensors/B_VCP*%
X147535000Y-76762500D03*
%TD*%
D52*
%TO.P,J6,1,Pin_1_1*%
%TO.N,/ESP32-C6-mini/B_AOUT1*%
X157410000Y-61900000D03*
D53*
%TO.P,J6,2,Pin_2_2*%
%TO.N,/ESP32-C6-mini/B_AOUT2*%
X152330000Y-61900000D03*
%TO.P,J6,3,Pin_3_3*%
%TO.N,/ESP32-C6-mini/B_BOUT1*%
X147250000Y-61900000D03*
%TO.P,J6,4,Pin_4_4*%
%TO.N,/ESP32-C6-mini/B_BOUT2*%
X142170000Y-61900000D03*
%TD*%
D19*
%TO.P,C9,1*%
%TO.N,VBUS*%
X185276300Y-75913600D03*
%TO.P,C9,2*%
%TO.N,GND*%
X183376300Y-75913600D03*
%TD*%
D27*
%TO.P,C15,1*%
%TO.N,/BATT_READ*%
X130137500Y-91800000D03*
%TO.P,C15,2*%
%TO.N,GND*%
X132037500Y-91800000D03*
%TD*%
D22*
%TO.P,R27,1*%
%TO.N,/ESP32-C6-mini/SCL*%
X248500000Y-84130000D03*
%TO.P,R27,2*%
%TO.N,+3.3V*%
X248500000Y-85955000D03*
%TD*%
D50*
%TO.P,SW2,1,1_1*%
%TO.N,/ESP32-C6-mini/EN*%
X208900000Y-107200000D03*
X202900000Y-107200000D03*
%TO.P,SW2,2,2_2*%
X208900000Y-103450000D03*
X202900000Y-103450000D03*
%TD*%
D20*
%TO.P,R8,1*%
%TO.N,/VS*%
X186301300Y-82838600D03*
%TO.P,R8,2*%
%TO.N,+BATT*%
X186301300Y-81013600D03*
%TD*%
D54*
%TO.P,U12,1,GND_1*%
%TO.N,GND*%
X246525000Y-85880000D03*
%TO.P,U12,2,CSB_2*%
%TO.N,+3.3V*%
X246525000Y-86530000D03*
%TO.P,U12,3,SDI_3*%
%TO.N,/ESP32-C6-mini/SDA*%
X246525000Y-87180000D03*
%TO.P,U12,4,SCK_4*%
%TO.N,/ESP32-C6-mini/SCL*%
X246525000Y-87830000D03*
%TO.P,U12,5,SDO_5*%
%TO.N,GND*%
X244475000Y-87830000D03*
%TO.P,U12,6,VDDIO_6*%
%TO.N,+3.3V*%
X244475000Y-87180000D03*
%TO.P,U12,7,GND_7*%
%TO.N,GND*%
X244475000Y-86530000D03*
%TO.P,U12,8,VDD_8*%
%TO.N,+3.3V*%
X244475000Y-85880000D03*
%TD*%
D27*
%TO.P,C28,1*%
%TO.N,GND*%
X236500000Y-73700000D03*
%TO.P,C28,2*%
%TO.N,/ESP32-C6-mini/GPIO0*%
X238400000Y-73700000D03*
%TD*%
D33*
%TO.P,TP5,1,1_1*%
%TO.N,/ESP32-C6-mini/DIN_EN*%
X219200000Y-106087200D03*
%TD*%
D10*
%TO.P,C61,1*%
%TO.N,/ESP32-C6-mini/user_interface/ULED*%
X149476900Y-112154400D03*
%TO.P,C61,2*%
%TO.N,GND*%
X148516900Y-112154400D03*
%TD*%
D33*
%TO.P,TP2,1,1_1*%
%TO.N,/ESP32-C6-mini/sensors/CP*%
X145600000Y-106272800D03*
%TD*%
D29*
%TO.P,R18,1*%
%TO.N,Net-(D8-A)*%
X198748400Y-95599400D03*
%TO.P,R18,2*%
%TO.N,GND*%
X196923400Y-95599400D03*
%TD*%
D19*
%TO.P,C4,1*%
%TO.N,Net-(U1-BOOT)*%
X162125000Y-92500000D03*
%TO.P,C4,2*%
%TO.N,Net-(D1-K)*%
X160225000Y-92500000D03*
%TD*%
D34*
%TO.P,C23,1*%
%TO.N,GND*%
X236200000Y-61650000D03*
%TO.P,C23,2*%
%TO.N,+3.3V*%
X236200000Y-63550000D03*
%TD*%
D55*
%TO.P,U1,1,BOOT_1*%
%TO.N,Net-(U1-BOOT)*%
X153275000Y-90410000D03*
%TO.P,U1,2,NC_2*%
%TO.N,unconnected-(U1-NC-Pad2)*%
X153275000Y-89140000D03*
%TO.P,U1,3,NC_3*%
%TO.N,unconnected-(U1-NC-Pad3)*%
X153275000Y-87870000D03*
%TO.P,U1,4,VSNS_4*%
%TO.N,/VSNS*%
X153275000Y-86600000D03*
%TO.P,U1,5,ENA_5*%
%TO.N,unconnected-(U1-ENA-Pad5)*%
X148325000Y-86600000D03*
%TO.P,U1,6,GND_6*%
%TO.N,GND*%
X148325000Y-87870000D03*
%TO.P,U1,7,VIN_7*%
%TO.N,+BATT*%
X148325000Y-89140000D03*
%TO.P,U1,8,PH_8*%
%TO.N,Net-(D1-K)*%
X148325000Y-90410000D03*
%TD*%
D56*
%TO.P,U7,1,~{RI}_1*%
%TO.N,unconnected-(U7-~{RI}-Pad1)*%
X186860900Y-95499400D03*
%TO.P,U7,2,GND_2*%
%TO.N,GND*%
X186860900Y-95999400D03*
%TO.P,U7,3,D+_3*%
%TO.N,/ESP32-C6-mini/USB_D+*%
X186860900Y-96499400D03*
%TO.P,U7,4,D-_4*%
%TO.N,/ESP32-C6-mini/USB_D-*%
X186860900Y-96999400D03*
%TO.P,U7,5,VIO_5*%
%TO.N,+3.3V*%
X186860900Y-97499400D03*
%TO.P,U7,6,V3_6*%
%TO.N,/ESP32-C6-mini/V3*%
X186860900Y-97999400D03*
D57*
%TO.P,U7,7,VDD5_7*%
%TO.N,+3.3V*%
X187548400Y-98686900D03*
%TO.P,U7,8,VBUS_8*%
%TO.N,VBUS*%
X188048400Y-98686900D03*
%TO.P,U7,9,~{RST}_9*%
%TO.N,unconnected-(U7-~{RST}-Pad9)*%
X188548400Y-98686900D03*
%TO.P,U7,10,~{ACT}_10*%
%TO.N,unconnected-(U7-~{ACT}-Pad10)*%
X189048400Y-98686900D03*
%TO.P,U7,11,~{WAKEUP}/GPIO3_11*%
%TO.N,unconnected-(U7-~{WAKEUP}{slash}GPIO3-Pad11)*%
X189548400Y-98686900D03*
%TO.P,U7,12,TNOW/GPIO2_12*%
%TO.N,unconnected-(U7-TNOW{slash}GPIO2-Pad12)*%
X190048400Y-98686900D03*
D56*
%TO.P,U7,13,RXS/GPIO1_13*%
%TO.N,/ESP32-C6-mini/RXS*%
X190735900Y-97999400D03*
%TO.P,U7,14,TXS/GPIO0_14*%
%TO.N,/ESP32-C6-mini/TXS*%
X190735900Y-97499400D03*
%TO.P,U7,15,~{SUSPEND}_15*%
%TO.N,unconnected-(U7-~{SUSPEND}-Pad15)*%
X190735900Y-96999400D03*
%TO.P,U7,16,GPIO4_16*%
%TO.N,unconnected-(U7-GPIO4-Pad16)*%
X190735900Y-96499400D03*
%TO.P,U7,17,SUSPEND_17*%
%TO.N,unconnected-(U7-SUSPEND-Pad17)*%
X190735900Y-95999400D03*
%TO.P,U7,18,~{CTS}_18*%
%TO.N,unconnected-(U7-~{CTS}-Pad18)*%
X190735900Y-95499400D03*
D57*
%TO.P,U7,19,~{RTS}_19*%
%TO.N,/ESP32-C6-mini/RTS*%
X190048400Y-94811900D03*
%TO.P,U7,20,RXD_20*%
%TO.N,/ESP32-C6-mini/RXD0*%
X189548400Y-94811900D03*
%TO.P,U7,21,TXD_21*%
%TO.N,/ESP32-C6-mini/TXD0*%
X189048400Y-94811900D03*
%TO.P,U7,22,~{DSR}_22*%
%TO.N,unconnected-(U7-~{DSR}-Pad22)*%
X188548400Y-94811900D03*
%TO.P,U7,23,~{DTR}_23*%
%TO.N,/ESP32-C6-mini/DTR*%
X188048400Y-94811900D03*
%TO.P,U7,24,~{DCD}_24*%
%TO.N,unconnected-(U7-~{DCD}-Pad24)*%
X187548400Y-94811900D03*
D58*
%TO.P,U7,25,GND_25*%
%TO.N,GND*%
X188798400Y-96749400D03*
%TD*%
D27*
%TO.P,C3,1*%
%TO.N,GND*%
X216775000Y-92600000D03*
%TO.P,C3,2*%
%TO.N,VDD*%
X218675000Y-92600000D03*
%TD*%
D11*
%TO.P,D19,1,VDD_1*%
%TO.N,/ESP32-C6-mini/user_interface/ULED*%
X205086700Y-110877200D03*
%TO.P,D19,2,DOUT_2*%
%TO.N,Net-(D19-DOUT)*%
X205086700Y-109777200D03*
%TO.P,D19,3,VSS_3*%
%TO.N,GND*%
X203256700Y-109777200D03*
%TO.P,D19,4,DIN_4*%
%TO.N,Net-(D18-DOUT)*%
X203256700Y-110877200D03*
%TD*%
%TO.P,D24,1,VDD_1*%
%TO.N,/ESP32-C6-mini/user_interface/ULED*%
X173326900Y-110754400D03*
%TO.P,D24,2,DOUT_2*%
%TO.N,Net-(D24-DOUT)*%
X173326900Y-109654400D03*
%TO.P,D24,3,VSS_3*%
%TO.N,GND*%
X171496900Y-109654400D03*
%TO.P,D24,4,DIN_4*%
%TO.N,Net-(D23-DOUT)*%
X171496900Y-110754400D03*
%TD*%
%TO.P,D28,1,VDD_1*%
%TO.N,/ESP32-C6-mini/user_interface/ULED*%
X157326900Y-110754400D03*
%TO.P,D28,2,DOUT_2*%
%TO.N,Net-(D28-DOUT)*%
X157326900Y-109654400D03*
%TO.P,D28,3,VSS_3*%
%TO.N,GND*%
X155496900Y-109654400D03*
%TO.P,D28,4,DIN_4*%
%TO.N,Net-(D27-DOUT)*%
X155496900Y-110754400D03*
%TD*%
D18*
%TO.P,D2,1,K_1*%
%TO.N,Net-(D2-K)*%
X196863800Y-78413600D03*
%TO.P,D2,2,A_2*%
%TO.N,/STDBY*%
X198738800Y-78413600D03*
%TD*%
D36*
%TO.P,JP1,1,A_1*%
%TO.N,/ESP32-C6-mini/TXD0*%
X238550000Y-97500000D03*
D37*
%TO.P,JP1,2,B_2*%
X240000000Y-97500000D03*
%TD*%
D51*
%TO.P,U9,1,~{SLEEP}_1*%
%TO.N,/ESP32-C6-mini/SLEEP*%
X175055300Y-68937500D03*
%TO.P,U9,2,AOUT1_2*%
%TO.N,/ESP32-C6-mini/F_AOUT1*%
X174405300Y-68937500D03*
%TO.P,U9,3,AISEN_3*%
%TO.N,GND*%
X173755300Y-68937500D03*
%TO.P,U9,4,AOUT2_4*%
%TO.N,/ESP32-C6-mini/F_AOUT2*%
X173105300Y-68937500D03*
%TO.P,U9,5,BOUT2_5*%
%TO.N,/ESP32-C6-mini/F_BOUT2*%
X172455300Y-68937500D03*
%TO.P,U9,6,BISEN_6*%
%TO.N,GND*%
X171805300Y-68937500D03*
%TO.P,U9,7,BOUT1_7*%
%TO.N,/ESP32-C6-mini/F_BOUT1*%
X171155300Y-68937500D03*
%TO.P,U9,8,~{FAULT}_8*%
%TO.N,unconnected-(U9-~{FAULT}-Pad8)*%
X170505300Y-68937500D03*
%TO.P,U9,9,BIN1_9*%
%TO.N,/ESP32-C6-mini/F_BIN1*%
X170505300Y-74662500D03*
%TO.P,U9,10,BIN2_10*%
%TO.N,/ESP32-C6-mini/F_BIN2*%
X171155300Y-74662500D03*
%TO.P,U9,11,VCP_11*%
%TO.N,/ESP32-C6-mini/sensors/F_VCP*%
X171805300Y-74662500D03*
%TO.P,U9,12,VM_12*%
%TO.N,+BATT*%
X172455300Y-74662500D03*
%TO.P,U9,13,GND_13*%
%TO.N,GND*%
X173105300Y-74662500D03*
%TO.P,U9,14,VINT_14*%
%TO.N,/ESP32-C6-mini/sensors/F_VINT*%
X173755300Y-74662500D03*
%TO.P,U9,15,AIN2_15*%
%TO.N,/ESP32-C6-mini/D+*%
X174405300Y-74662500D03*
%TO.P,U9,16,AIN1_16*%
%TO.N,/ESP32-C6-mini/D-*%
X175055300Y-74662500D03*
%TD*%
D28*
%TO.P,C30,1*%
%TO.N,GND*%
X172780300Y-78662500D03*
%TO.P,C30,2*%
%TO.N,+BATT*%
X172780300Y-76762500D03*
%TD*%
D52*
%TO.P,J4,1,Pin_1_1*%
%TO.N,/ESP32-C6-mini/F_AOUT1*%
X180780300Y-61900000D03*
D53*
%TO.P,J4,2,Pin_2_2*%
%TO.N,/ESP32-C6-mini/F_AOUT2*%
X175700300Y-61900000D03*
%TO.P,J4,3,Pin_3_3*%
%TO.N,/ESP32-C6-mini/F_BOUT1*%
X170620300Y-61900000D03*
%TO.P,J4,4,Pin_4_4*%
%TO.N,/ESP32-C6-mini/F_BOUT2*%
X165540300Y-61900000D03*
%TD*%
D34*
%TO.P,C32,1*%
%TO.N,/ESP32-C6-mini/sensors/F_VINT*%
X175280300Y-76762500D03*
%TO.P,C32,2*%
%TO.N,GND*%
X175280300Y-78662500D03*
%TD*%
D28*
%TO.P,C31,1*%
%TO.N,+BATT*%
X170280300Y-78662500D03*
%TO.P,C31,2*%
%TO.N,/ESP32-C6-mini/sensors/F_VCP*%
X170280300Y-76762500D03*
%TD*%
D36*
%TO.P,JP2,1,A_1*%
%TO.N,/ESP32-C6-mini/RXD0*%
X243050000Y-97500000D03*
D37*
%TO.P,JP2,2,B_2*%
X244500000Y-97500000D03*
%TD*%
D34*
%TO.P,C13,1*%
%TO.N,/VS*%
X190551300Y-81013600D03*
%TO.P,C13,2*%
%TO.N,GND*%
X190551300Y-82913600D03*
%TD*%
D33*
%TO.P,TP4,1,1_1*%
%TO.N,GND*%
X153600000Y-106272800D03*
%TD*%
D59*
%TO.P,J1,A1,GND_A1*%
%TO.N,GND*%
X184950000Y-108615000D03*
%TO.P,J1,A4,VBUS_A4*%
%TO.N,VBUS*%
X185750000Y-108615000D03*
D60*
%TO.P,J1,A5,CC1_A5*%
%TO.N,/CC1*%
X186950000Y-108615000D03*
%TO.P,J1,A6,D+_A6*%
%TO.N,/D+*%
X187950000Y-108615000D03*
%TO.P,J1,A7,D-_A7*%
%TO.N,/D-*%
X188450000Y-108615000D03*
%TO.P,J1,A8,SBU1_A8*%
%TO.N,unconnected-(J1-SBU1-PadA8)*%
X189450000Y-108615000D03*
D59*
%TO.P,J1,A9,VBUS_A9*%
%TO.N,VBUS*%
X190650000Y-108615000D03*
%TO.P,J1,A12,GND_A12*%
%TO.N,GND*%
X191450000Y-108615000D03*
%TO.P,J1,B1,GND_B1*%
X191450000Y-108615000D03*
%TO.P,J1,B4,VBUS_B4*%
%TO.N,VBUS*%
X190650000Y-108615000D03*
D60*
%TO.P,J1,B5,CC2_B5*%
%TO.N,/CC2*%
X189950000Y-108615000D03*
%TO.P,J1,B6,D+_B6*%
%TO.N,/D+*%
X188950000Y-108615000D03*
%TO.P,J1,B7,D-_B7*%
%TO.N,/D-*%
X187450000Y-108615000D03*
%TO.P,J1,B8,SBU2_B8*%
%TO.N,unconnected-(J1-SBU2-PadB8)*%
X186450000Y-108615000D03*
D59*
%TO.P,J1,B9,VBUS_B9*%
%TO.N,VBUS*%
X185750000Y-108615000D03*
%TO.P,J1,B12,GND_B12*%
%TO.N,GND*%
X184950000Y-108615000D03*
D61*
%TO.P,J1,SH,SHIELD_SH*%
%TO.N,unconnected-(J1-SHIELD-PadSH)*%
X183880000Y-109530000D03*
D62*
%TO.N,unconnected-(J1-SHIELD-PadSH)_1*%
X183880000Y-113710000D03*
D61*
%TO.N,unconnected-(J1-SHIELD-PadSH)_3*%
X192520000Y-109530000D03*
D62*
%TO.N,unconnected-(J1-SHIELD-PadSH)_2*%
X192520000Y-113710000D03*
%TD*%
D34*
%TO.P,C24,1*%
%TO.N,GND*%
X238400000Y-61600000D03*
%TO.P,C24,2*%
%TO.N,+3.3V*%
X238400000Y-63500000D03*
%TD*%
D11*
%TO.P,D13,1,VDD_1*%
%TO.N,/ESP32-C6-mini/user_interface/ULED*%
X229501700Y-110927200D03*
%TO.P,D13,2,DOUT_2*%
%TO.N,Net-(D13-DOUT)*%
X229501700Y-109827200D03*
%TO.P,D13,3,VSS_3*%
%TO.N,GND*%
X227671700Y-109827200D03*
%TO.P,D13,4,DIN_4*%
%TO.N,Net-(D12-DOUT)*%
X227671700Y-110927200D03*
%TD*%
D10*
%TO.P,C40,1*%
%TO.N,/ESP32-C6-mini/user_interface/ULED*%
X241631700Y-112427200D03*
%TO.P,C40,2*%
%TO.N,GND*%
X240671700Y-112427200D03*
%TD*%
D25*
%TO.P,J7,1,Pin_1_1*%
%TO.N,+3.3V*%
X251200000Y-95630000D03*
D26*
%TO.P,J7,2,Pin_2_2*%
%TO.N,/ESP32-C6-mini/TXD0*%
X251200000Y-98170000D03*
%TO.P,J7,3,Pin_3_3*%
%TO.N,/ESP32-C6-mini/RXD0*%
X251200000Y-100710000D03*
%TO.P,J7,4,Pin_4_4*%
%TO.N,GND*%
X251200000Y-103250000D03*
%TD*%
D22*
%TO.P,R24,1*%
%TO.N,/ESP32-C6-mini/GPIO1*%
X238400000Y-69375000D03*
%TO.P,R24,2*%
%TO.N,/ESP32-C6-mini/GPIO0*%
X238400000Y-71200000D03*
%TD*%
D10*
%TO.P,C56,1*%
%TO.N,/ESP32-C6-mini/user_interface/ULED*%
X165456900Y-112254400D03*
%TO.P,C56,2*%
%TO.N,GND*%
X164496900Y-112254400D03*
%TD*%
D63*
%TO.P,U10,1,~{PL}_1*%
%TO.N,/ESP32-C6-mini/LD*%
X130500000Y-94980000D03*
%TO.P,U10,2,CP_2*%
%TO.N,/ESP32-C6-mini/CLK*%
X130500000Y-96250000D03*
%TO.P,U10,3,D4_3*%
%TO.N,/ESP32-C6-mini/S5*%
X130500000Y-97520000D03*
%TO.P,U10,4,D5_4*%
%TO.N,/ESP32-C6-mini/CLP*%
X130500000Y-98790000D03*
%TO.P,U10,5,D6_5*%
%TO.N,/ESP32-C6-mini/NEAR*%
X130500000Y-100060000D03*
%TO.P,U10,6,D7_6*%
%TO.N,unconnected-(U10-D7-Pad6)*%
X130500000Y-101330000D03*
%TO.P,U10,7,~{Q7}_7*%
%TO.N,unconnected-(U10-~{Q7}-Pad7)*%
X130500000Y-102600000D03*
%TO.P,U10,8,GND_8*%
%TO.N,GND*%
X130500000Y-103870000D03*
%TO.P,U10,9,Q7_9*%
%TO.N,/ESP32-C6-mini/DATA*%
X135650000Y-103870000D03*
%TO.P,U10,10,DS_10*%
%TO.N,unconnected-(U10-DS-Pad10)*%
X135650000Y-102600000D03*
%TO.P,U10,11,D0_11*%
%TO.N,/ESP32-C6-mini/S1*%
X135650000Y-101330000D03*
%TO.P,U10,12,D1_12*%
%TO.N,/ESP32-C6-mini/S2*%
X135650000Y-100060000D03*
%TO.P,U10,13,D2_13*%
%TO.N,/ESP32-C6-mini/S3*%
X135650000Y-98790000D03*
%TO.P,U10,14,D3_14*%
%TO.N,/ESP32-C6-mini/S4*%
X135650000Y-97520000D03*
%TO.P,U10,15,~{CE}_15*%
%TO.N,GND*%
X135650000Y-96250000D03*
%TO.P,U10,16,VCC_16*%
%TO.N,+3.3V*%
X135650000Y-94980000D03*
%TD*%
D64*
%TO.P,U5,1,OD_1*%
%TO.N,/OD*%
X204400000Y-62400000D03*
%TO.P,U5,2,OC_2*%
%TO.N,/0C*%
X204400000Y-63350000D03*
%TO.P,U5,3,CS_3*%
%TO.N,/CS*%
X204400000Y-64300000D03*
%TO.P,U5,4,VC_4*%
%TO.N,/VC*%
X206675000Y-64300000D03*
%TO.P,U5,5,VDD_5*%
%TO.N,VDDA*%
X206675000Y-63350000D03*
%TO.P,U5,6,VSS_6*%
%TO.N,GND1*%
X206675000Y-62400000D03*
%TD*%
D24*
%TO.P,R30,1*%
%TO.N,Net-(Q3-B)*%
X210975000Y-101200000D03*
%TO.P,R30,2*%
%TO.N,/ESP32-C6-mini/DTR*%
X212800000Y-101200000D03*
%TD*%
D29*
%TO.P,R9,1*%
%TO.N,+BATT*%
X131912500Y-89300000D03*
%TO.P,R9,2*%
%TO.N,/BATT_READ*%
X130087500Y-89300000D03*
%TD*%
D19*
%TO.P,C10,1*%
%TO.N,VBUS*%
X185276300Y-78088600D03*
%TO.P,C10,2*%
%TO.N,GND*%
X183376300Y-78088600D03*
%TD*%
D24*
%TO.P,R23,1*%
%TO.N,/ESP32-C6-mini/D-*%
X236587500Y-76500000D03*
%TO.P,R23,2*%
%TO.N,/D-*%
X238412500Y-76500000D03*
%TD*%
D10*
%TO.P,C51,1*%
%TO.N,/ESP32-C6-mini/user_interface/ULED*%
X197171700Y-112277200D03*
%TO.P,C51,2*%
%TO.N,GND*%
X196211700Y-112277200D03*
%TD*%
D24*
%TO.P,TH1,1*%
%TO.N,+BATT*%
X196738800Y-81363600D03*
%TO.P,TH1,2*%
%TO.N,/TS*%
X198563800Y-81363600D03*
%TD*%
D20*
%TO.P,R26,1*%
%TO.N,/ESP32-C6-mini/SDA*%
X248500000Y-89630000D03*
%TO.P,R26,2*%
%TO.N,+3.3V*%
X248500000Y-87805000D03*
%TD*%
D65*
%TO.P,D6,1,K_1*%
%TO.N,/LX*%
X193876300Y-85788600D03*
%TO.P,D6,2,A_2*%
%TO.N,+BATT*%
X193876300Y-81788600D03*
%TD*%
D10*
%TO.P,C42,1*%
%TO.N,/ESP32-C6-mini/user_interface/ULED*%
X233631700Y-112427200D03*
%TO.P,C42,2*%
%TO.N,GND*%
X232671700Y-112427200D03*
%TD*%
D29*
%TO.P,R17,1*%
%TO.N,Net-(D7-A)*%
X198868400Y-98194400D03*
%TO.P,R17,2*%
%TO.N,GND*%
X197043400Y-98194400D03*
%TD*%
D11*
%TO.P,D15,1,VDD_1*%
%TO.N,/ESP32-C6-mini/user_interface/ULED*%
X221416700Y-110877200D03*
%TO.P,D15,2,DOUT_2*%
%TO.N,Net-(D15-DOUT)*%
X221416700Y-109777200D03*
%TO.P,D15,3,VSS_3*%
%TO.N,GND*%
X219586700Y-109777200D03*
%TO.P,D15,4,DIN_4*%
%TO.N,Net-(D14-DOUT)*%
X219586700Y-110877200D03*
%TD*%
%TO.P,D20,1,VDD_1*%
%TO.N,/ESP32-C6-mini/user_interface/ULED*%
X201086700Y-110877200D03*
%TO.P,D20,2,DOUT_2*%
%TO.N,Net-(D20-DOUT)*%
X201086700Y-109777200D03*
%TO.P,D20,3,VSS_3*%
%TO.N,GND*%
X199256700Y-109777200D03*
%TO.P,D20,4,DIN_4*%
%TO.N,Net-(D19-DOUT)*%
X199256700Y-110877200D03*
%TD*%
%TO.P,D10,1,VDD_1*%
%TO.N,/ESP32-C6-mini/user_interface/ULED*%
X241501700Y-110927200D03*
%TO.P,D10,2,DOUT_2*%
%TO.N,Net-(D10-DOUT)*%
X241501700Y-109827200D03*
%TO.P,D10,3,VSS_3*%
%TO.N,GND*%
X239671700Y-109827200D03*
%TO.P,D10,4,DIN_4*%
%TO.N,/ESP32-C6-mini/DIN*%
X239671700Y-110927200D03*
%TD*%
D66*
%TO.N,/ESP32-C6-mini/V3*%
X186100000Y-98960000D03*
X184530000Y-99880000D03*
D67*
%TO.N,VBUS*%
X186750000Y-78900000D03*
X183030001Y-97095448D03*
D68*
%TO.N,+3.3V*%
X197330000Y-101780000D03*
D67*
%TO.N,GND*%
X252240000Y-72000000D03*
X243740000Y-86630000D03*
%TO.N,/ESP32-C6-mini/F_BIN1*%
X247510000Y-71727100D03*
%TO.N,GND*%
X247247800Y-74170000D03*
X251730000Y-76390000D03*
D68*
%TO.N,+3.3V*%
X251740000Y-73700000D03*
X213590000Y-87800000D03*
X234290000Y-67270000D03*
X220600000Y-64760000D03*
X244500000Y-84540000D03*
X245200000Y-87060000D03*
X247170000Y-86480000D03*
X249580000Y-85910000D03*
X249450000Y-88690000D03*
X242520000Y-84790000D03*
%TO.N,GND*%
X246520000Y-85200000D03*
D67*
X244420000Y-88740000D03*
X242450000Y-88800000D03*
X239330000Y-67850000D03*
X249250000Y-62790000D03*
X243010000Y-69900000D03*
X241720000Y-69720000D03*
X239260000Y-75470000D03*
X236500000Y-72490000D03*
X224410000Y-110070000D03*
X217400000Y-77020000D03*
D66*
%TO.N,/BAT*%
X193501944Y-77638600D03*
X193501300Y-76338600D03*
%TO.N,/CV-VREG*%
X191601301Y-75472941D03*
X191605412Y-77417408D03*
%TO.N,/TS*%
X197500000Y-77300000D03*
X195906300Y-76780000D03*
D67*
%TO.N,GND*%
X207574365Y-68774365D03*
X251120000Y-105220000D03*
X232910000Y-104900000D03*
X223750433Y-86703296D03*
X219618900Y-88581200D03*
X215850000Y-92250000D03*
X215030000Y-91310000D03*
X207819595Y-112630000D03*
D66*
%TO.N,+5V*%
X234510000Y-106360000D03*
X219940000Y-83780000D03*
D67*
%TO.N,GND*%
X212080000Y-81010000D03*
X212110000Y-83360000D03*
X214050000Y-107120000D03*
X187070000Y-73250000D03*
X199949082Y-112630000D03*
X197580000Y-82610000D03*
X191660000Y-82080000D03*
X187373191Y-81936809D03*
%TO.N,VBUS*%
X182990000Y-80540000D03*
X187190000Y-75330000D03*
X185673325Y-76686675D03*
X185530000Y-78970000D03*
%TO.N,GND*%
X185060000Y-103630000D03*
X182410000Y-78060000D03*
X182310000Y-75920000D03*
X171708413Y-67031587D03*
X173970000Y-67670000D03*
X173140000Y-73354400D03*
X168410000Y-92510000D03*
X154870000Y-104540000D03*
X133180000Y-86850000D03*
X153630000Y-83270000D03*
X149310000Y-79610000D03*
X153670000Y-78670000D03*
X150310000Y-73380000D03*
X148510000Y-70500000D03*
X151010000Y-67440000D03*
X149960000Y-88280000D03*
X142870000Y-84630000D03*
X142980000Y-89720000D03*
X142870000Y-88070000D03*
X133070000Y-96300000D03*
X133340000Y-91810000D03*
X127610000Y-105630000D03*
X130520000Y-104800000D03*
D66*
%TO.N,/ESP32-C6-mini/user_interface/ULED*%
X224770000Y-110840000D03*
D67*
%TO.N,GND*%
X135476900Y-109113750D03*
D66*
%TO.N,/ESP32-C6-mini/user_interface/ULED*%
X137959081Y-110517166D03*
X209760000Y-110920000D03*
X209760000Y-112330000D03*
X150230000Y-110570000D03*
D67*
%TO.N,GND*%
X172780000Y-79860000D03*
X175340000Y-79950000D03*
X190600000Y-75390000D03*
X195856300Y-77830000D03*
X195856300Y-74990000D03*
X185999538Y-95600033D03*
X188320000Y-96190000D03*
X185426991Y-96776991D03*
X197820000Y-97330000D03*
X197760000Y-95160000D03*
%TO.N,VBUS*%
X185850000Y-109433274D03*
X190420959Y-107410959D03*
X192290000Y-103420000D03*
X194770000Y-99910000D03*
X192490000Y-99890000D03*
X189950000Y-99900000D03*
%TO.N,GND*%
X195460000Y-103370000D03*
X189750000Y-103710000D03*
X187770000Y-103760000D03*
D66*
%TO.N,VBUS*%
X188048400Y-99701500D03*
D68*
%TO.N,+3.3V*%
X197960000Y-107120000D03*
D67*
%TO.N,GND*%
X161780000Y-106220000D03*
D66*
%TO.N,+BATT*%
X148980000Y-77320000D03*
X147560000Y-79930000D03*
%TO.N,GND1*%
X203500000Y-58160000D03*
X207080000Y-61410000D03*
X210160000Y-63620000D03*
X212030000Y-62110000D03*
%TO.N,+BATT*%
X129900000Y-64650000D03*
X146025000Y-88437500D03*
X146040000Y-85980000D03*
X133040000Y-89290000D03*
%TO.N,+5V*%
X165630000Y-88270000D03*
X156830000Y-85100000D03*
X150620000Y-83100000D03*
D67*
%TO.N,GND*%
X155800000Y-93190000D03*
X210690000Y-110160000D03*
D66*
%TO.N,/ESP32-C6-mini/user_interface/ULED*%
X150060000Y-112750000D03*
D67*
%TO.N,GND*%
X239240000Y-110080000D03*
X240380000Y-112710000D03*
X232440000Y-112080000D03*
X236330000Y-112800000D03*
X234920000Y-110020000D03*
X232090000Y-110040000D03*
X228340000Y-112750000D03*
X226890000Y-109990000D03*
X224170000Y-112800000D03*
X220250000Y-112680000D03*
X211970000Y-111920000D03*
X216176537Y-112729141D03*
X218860000Y-109820000D03*
X216218883Y-109653300D03*
X207730000Y-109830000D03*
X203910000Y-112610000D03*
X202590000Y-109870000D03*
X199896091Y-109716091D03*
X194750000Y-110000000D03*
X195850000Y-112630000D03*
X191419763Y-107009763D03*
X184829999Y-109389012D03*
X179110000Y-109940000D03*
X180160000Y-112590000D03*
X176120000Y-112530000D03*
X176140000Y-109670000D03*
X172090000Y-112590000D03*
X170740000Y-109900000D03*
X168125200Y-110050777D03*
X168180000Y-112660000D03*
X158760000Y-109830000D03*
X162670000Y-109900000D03*
X164170000Y-111920000D03*
X160140000Y-112610000D03*
X156140000Y-111900000D03*
X154660000Y-109900000D03*
X152010000Y-112690000D03*
X151100000Y-109890000D03*
X148010000Y-112750000D03*
X147790000Y-109880000D03*
X139910000Y-109980000D03*
X144002598Y-110046595D03*
X144430000Y-112920000D03*
X140046900Y-111870000D03*
X136490000Y-113020000D03*
X138220000Y-78820000D03*
D66*
%TO.N,+BATT*%
X128450000Y-76260000D03*
%TO.N,/ESP32-C6-mini/user_interface/ULED*%
X242120367Y-110940000D03*
X242390367Y-112420000D03*
X238350367Y-112410000D03*
X237490000Y-111510367D03*
X234100367Y-110980000D03*
X234370367Y-112420000D03*
X226160367Y-112450000D03*
X230320000Y-112410000D03*
X230296585Y-110526585D03*
X222040000Y-110890000D03*
X222190000Y-112380000D03*
X217980000Y-110840000D03*
X218220000Y-112450000D03*
X213970000Y-112310000D03*
X213830000Y-111010000D03*
X205870000Y-112230000D03*
X205780000Y-110850000D03*
X202030000Y-112310000D03*
X201760000Y-110820000D03*
X197650000Y-110920000D03*
X197890000Y-112270000D03*
X182150000Y-112270000D03*
X181920000Y-110740000D03*
X178210000Y-112260000D03*
X178030000Y-110750000D03*
X173930000Y-110760000D03*
X174070000Y-112270000D03*
X170120000Y-112250000D03*
X169940000Y-110770000D03*
X165970000Y-110780000D03*
X166183635Y-112270900D03*
X161980000Y-112680000D03*
X161800000Y-111240000D03*
X158273635Y-112270900D03*
X157860000Y-111220000D03*
X153920000Y-112760000D03*
X153800000Y-111260000D03*
X145940000Y-112780000D03*
X145700000Y-111240000D03*
X141790000Y-111300000D03*
X142290000Y-112350000D03*
D68*
%TO.N,+3.3V*%
X137590000Y-94990000D03*
D66*
%TO.N,/ESP32-C6-mini/user_interface/ULED*%
X137940000Y-113100000D03*
D68*
%TO.N,+3.3V*%
X225550000Y-81460000D03*
X219290000Y-80790000D03*
X215300000Y-79300000D03*
D67*
%TO.N,/ESP32-C6-mini/B_BOUT1*%
X148291700Y-67715700D03*
%TO.N,/ESP32-C6-mini/F_BOUT1*%
X171062900Y-67713000D03*
%TO.N,/ESP32-C6-mini/S3*%
X132668300Y-98601700D03*
%TO.N,/ESP32-C6-mini/S2*%
X133255300Y-99596000D03*
%TO.N,/ESP32-C6-mini/S1*%
X134257900Y-101330000D03*
D66*
%TO.N,/ESP32-C6-mini/RTS*%
X190682800Y-94811900D03*
X180969800Y-102012000D03*
D67*
%TO.N,/ESP32-C6-mini/RXS*%
X191690200Y-97999400D03*
X195855300Y-99017400D03*
D66*
%TO.N,/CHRG*%
X191521800Y-74408500D03*
X187336700Y-74294000D03*
%TO.N,/ESP32-C6-mini/TXD0*%
X251600100Y-65150000D03*
D67*
%TO.N,/ESP32-C6-mini/RXD0*%
X253519500Y-65950000D03*
%TO.N,/ESP32-C6-mini/DIN_EN*%
X245350800Y-104950000D03*
X251614500Y-66698900D03*
%TO.N,/ESP32-C6-mini/SLEEP*%
X201810000Y-69589700D03*
X251639200Y-67550000D03*
%TO.N,/ESP32-C6-mini/B_BIN2*%
X175771100Y-70395500D03*
X251494900Y-62658800D03*
%TO.N,/ESP32-C6-mini/B_BIN1*%
X232482100Y-70164700D03*
X244275400Y-69150000D03*
%TO.N,/ESP32-C6-mini/B_AIN2*%
X251594500Y-69950000D03*
X206223700Y-70758800D03*
%TO.N,/ESP32-C6-mini/B_AIN1*%
X253995400Y-65429900D03*
X185584800Y-71502700D03*
%TO.N,/ESP32-C6-mini/BOOT*%
X176618700Y-103450000D03*
X195431500Y-84637200D03*
X240666800Y-81725500D03*
X250605000Y-71735100D03*
%TO.N,/ESP32-C6-mini/F_BIN2*%
X244461100Y-69971900D03*
X174453000Y-73075800D03*
%TO.N,/ESP32-C6-mini/F_BIN1*%
X185402100Y-72239000D03*
D66*
%TO.N,/ESP32-C6-mini/D+*%
X214430800Y-94839700D03*
X220928800Y-77970400D03*
%TO.N,/ESP32-C6-mini/D-*%
X184678100Y-74662500D03*
X187328500Y-71093400D03*
X228506300Y-76500000D03*
X227969900Y-97180000D03*
D67*
%TO.N,/ESP32-C6-mini/SCL*%
X245005000Y-71712600D03*
%TO.N,/ESP32-C6-mini/LD*%
X210722900Y-68529900D03*
X181065000Y-95896900D03*
%TO.N,/ESP32-C6-mini/DATA*%
X185815900Y-106954000D03*
X241618100Y-68312500D03*
%TO.N,/ESP32-C6-mini/CLK*%
X223825500Y-64619100D03*
X210138000Y-92592100D03*
%TO.N,/ESP32-C6-mini/DIN*%
X241570800Y-65592400D03*
X240586700Y-110872600D03*
D66*
%TO.N,/CC1*%
X208905500Y-85977100D03*
X187150000Y-109904100D03*
%TO.N,/CC2*%
X212624900Y-99410200D03*
X219493200Y-90742000D03*
%TO.N,/D-*%
X207898700Y-106097300D03*
X220479000Y-93413700D03*
X237628100Y-75482800D03*
D67*
%TO.N,/ESP32-C6-mini/SDA*%
X245417500Y-72484700D03*
D66*
%TO.N,/LX*%
X191477700Y-85263500D03*
X186304500Y-75354800D03*
D67*
%TO.N,/ESP32-C6-mini/EN*%
X209551000Y-102609500D03*
X213762300Y-65598100D03*
%TO.N,VBUS*%
X216332800Y-98242100D03*
X223853600Y-92450400D03*
D66*
%TO.N,+BATT*%
X195306300Y-81605400D03*
X198700400Y-61112000D03*
X187840000Y-80000900D03*
%TD*%
%TO.N,/ESP32-C6-mini/V3*%
D69*
X186100000Y-98960000D02*
X186100000Y-98760300D01*
X184543400Y-100744400D02*
X184543400Y-99893400D01*
X184543400Y-99893400D02*
X184530000Y-99880000D01*
X186100000Y-98760300D02*
X186860900Y-97999400D01*
%TO.N,+3.3V*%
X186860900Y-97499400D02*
X186363304Y-97499400D01*
X186363304Y-97499400D02*
X185340000Y-98522704D01*
X185340000Y-99850000D02*
X186234400Y-100744400D01*
X186234400Y-100744400D02*
X187043400Y-100744400D01*
X185340000Y-98522704D02*
X185340000Y-99850000D01*
X187548400Y-98686900D02*
X187043400Y-99191900D01*
X187043400Y-99191900D02*
X187043400Y-100744400D01*
X249450000Y-88690000D02*
X249544251Y-88595749D01*
X249544251Y-88595749D02*
X249544251Y-88054251D01*
X249544251Y-88054251D02*
X249295000Y-87805000D01*
X249295000Y-87805000D02*
X248500000Y-87805000D01*
%TO.N,/ESP32-C6-mini/SDA*%
D70*
X251300000Y-88870000D02*
X250530000Y-89640000D01*
X250530000Y-89640000D02*
X248510000Y-89640000D01*
X248510000Y-89640000D02*
X248500000Y-89630000D01*
%TO.N,VBUS*%
D71*
X187996300Y-78873600D02*
X186776400Y-78873600D01*
X186776400Y-78873600D02*
X186750000Y-78900000D01*
D69*
X187111300Y-78538700D02*
X186750000Y-78900000D01*
X187111300Y-77988600D02*
X187111300Y-78538700D01*
X182662175Y-97095448D02*
X182411127Y-96844400D01*
X183030001Y-97095448D02*
X182662175Y-97095448D01*
X182411127Y-96844400D02*
X182268400Y-96844400D01*
%TO.N,/ESP32-C6-mini/DTR*%
D72*
X185878300Y-102432900D02*
X185878300Y-103047900D01*
X183580000Y-101293300D02*
X183833800Y-101547100D01*
X183833800Y-101547100D02*
X184992500Y-101547100D01*
X183580000Y-101290744D02*
X183580000Y-101293300D01*
X185878300Y-103047900D02*
X187460400Y-104630000D01*
X183518400Y-101229144D02*
X183580000Y-101290744D01*
X183518400Y-100259656D02*
X183518400Y-101229144D01*
X184992500Y-101547100D02*
X185878300Y-102432900D01*
X211795000Y-100195000D02*
X212800000Y-101200000D01*
X183580000Y-95553200D02*
X183580000Y-100198056D01*
X183580000Y-100198056D02*
X183518400Y-100259656D01*
X188048400Y-94381600D02*
X187712800Y-94046000D01*
X185087200Y-94046000D02*
X183580000Y-95553200D01*
X187712800Y-94046000D02*
X185087200Y-94046000D01*
X188048400Y-94811900D02*
X188048400Y-94381600D01*
X187460400Y-104630000D02*
X195532600Y-104630000D01*
X195532600Y-104630000D02*
X199967600Y-100195000D01*
X199967600Y-100195000D02*
X211795000Y-100195000D01*
%TO.N,+3.3V*%
D69*
X197206900Y-101656900D02*
X197330000Y-101780000D01*
X187955900Y-101656900D02*
X197206900Y-101656900D01*
X187043400Y-100744400D02*
X187955900Y-101656900D01*
%TO.N,GND*%
X252555000Y-71685000D02*
X252240000Y-72000000D01*
X252555000Y-70900000D02*
X252555000Y-71685000D01*
%TO.N,/ESP32-C6-mini/B_AIN1*%
D70*
X251405000Y-70850000D02*
X251470000Y-70915000D01*
X251470000Y-70915000D02*
X251470000Y-72820000D01*
X251470000Y-72820000D02*
X253200000Y-72820000D01*
X254096200Y-71923800D02*
X254096200Y-65530700D01*
X253200000Y-72820000D02*
X254096200Y-71923800D01*
X254096200Y-65530700D02*
X253995400Y-65429900D01*
%TO.N,GND*%
D69*
X243840000Y-86530000D02*
X243740000Y-86630000D01*
X244475000Y-86530000D02*
X243840000Y-86530000D01*
%TO.N,/ESP32-C6-mini/F_BIN1*%
D70*
X247510000Y-71727100D02*
X247405000Y-71622100D01*
X247405000Y-71622100D02*
X247405000Y-70850000D01*
%TO.N,/ESP32-C6-mini/D-*%
D72*
X245805000Y-74281700D02*
X246224700Y-74701400D01*
X246224700Y-74701400D02*
X247001382Y-74701400D01*
X247001382Y-74701400D02*
X247019982Y-74720000D01*
X247019982Y-74720000D02*
X247130000Y-74720000D01*
X247130000Y-74720000D02*
X248700000Y-76290000D01*
X248700000Y-76290000D02*
X248700000Y-76500000D01*
%TO.N,GND*%
D73*
X246677800Y-73600000D02*
X247247800Y-74170000D01*
X246650000Y-73600000D02*
X246677800Y-73600000D01*
X251620000Y-76500000D02*
X251730000Y-76390000D01*
X250600000Y-76500000D02*
X251620000Y-76500000D01*
X240655000Y-61000000D02*
X241755000Y-61000000D01*
X241755000Y-61000000D02*
X241805000Y-61050000D01*
%TO.N,+3.3V*%
X250500000Y-73700000D02*
X251740000Y-73700000D01*
X214072800Y-89388100D02*
X214072800Y-88282800D01*
X214072800Y-88282800D02*
X213590000Y-87800000D01*
X234332500Y-67312500D02*
X234290000Y-67270000D01*
X236200000Y-67312500D02*
X234332500Y-67312500D01*
%TO.N,/ESP32-C6-mini/EN*%
D70*
X213762300Y-65598100D02*
X214474200Y-66310000D01*
X214474200Y-66310000D02*
X235377500Y-66310000D01*
X235377500Y-66310000D02*
X236200000Y-65487500D01*
%TO.N,+3.3V*%
D74*
X221810000Y-63550000D02*
X220600000Y-64760000D01*
X236200000Y-63550000D02*
X221810000Y-63550000D01*
%TO.N,/ESP32-C6-mini/CLK*%
D70*
X240705000Y-65950000D02*
X239978300Y-65950000D01*
X239978300Y-65950000D02*
X239978300Y-65426000D01*
X234120900Y-64619100D02*
X223825500Y-64619100D01*
X239978300Y-65426000D02*
X239122300Y-64570000D01*
X239122300Y-64570000D02*
X234170000Y-64570000D01*
X234170000Y-64570000D02*
X234120900Y-64619100D01*
%TO.N,+3.3V*%
D74*
X244480000Y-85680000D02*
X244480000Y-84560000D01*
X244480000Y-84560000D02*
X244500000Y-84540000D01*
D73*
X245080000Y-87180000D02*
X245200000Y-87060000D01*
X244475000Y-87180000D02*
X245080000Y-87180000D01*
X246525000Y-86530000D02*
X247120000Y-86530000D01*
X247120000Y-86530000D02*
X247170000Y-86480000D01*
%TO.N,GND*%
X246550000Y-85690000D02*
X246525000Y-85665000D01*
X246525000Y-85665000D02*
X246525000Y-85205000D01*
X246525000Y-85205000D02*
X246520000Y-85200000D01*
%TO.N,+3.3V*%
X248500000Y-85955000D02*
X249535000Y-85955000D01*
X249535000Y-85955000D02*
X249580000Y-85910000D01*
D74*
X242500000Y-84810000D02*
X242520000Y-84790000D01*
X242500000Y-85930000D02*
X242500000Y-84810000D01*
%TO.N,GND*%
D69*
X244475000Y-88685000D02*
X244420000Y-88740000D01*
X244475000Y-87830000D02*
X244475000Y-88685000D01*
X242500000Y-88750000D02*
X242450000Y-88800000D01*
X242500000Y-87830000D02*
X242500000Y-88750000D01*
X238830000Y-67350000D02*
X239330000Y-67850000D01*
X238425000Y-67350000D02*
X238830000Y-67350000D01*
D73*
X251405000Y-61050000D02*
X252505000Y-61050000D01*
X252505000Y-61050000D02*
X252555000Y-61000000D01*
X251455000Y-61000000D02*
X251405000Y-61050000D01*
D75*
X247440000Y-61050000D02*
X249020000Y-62630000D01*
X246605000Y-61050000D02*
X247440000Y-61050000D01*
D73*
X248580000Y-63460000D02*
X249250000Y-62790000D01*
X248580000Y-63975000D02*
X248580000Y-63460000D01*
X248580000Y-65950000D02*
X248580000Y-67925000D01*
X248580000Y-63975000D02*
X248580000Y-65950000D01*
X246605000Y-63975000D02*
X248580000Y-63975000D01*
X243405000Y-70295000D02*
X243010000Y-69900000D01*
X243405000Y-70850000D02*
X243405000Y-70295000D01*
X241490000Y-69950000D02*
X241720000Y-69720000D01*
X240705000Y-69950000D02*
X241490000Y-69950000D01*
X240190000Y-76400000D02*
X239260000Y-75470000D01*
X240350000Y-76400000D02*
X240190000Y-76400000D01*
X236500000Y-73700000D02*
X236500000Y-72490000D01*
X224410000Y-110070000D02*
X224029999Y-110070000D01*
X224029999Y-110070000D02*
X223798252Y-109838253D01*
X217350000Y-77070000D02*
X217400000Y-77020000D01*
X217350000Y-78533400D02*
X217350000Y-77070000D01*
%TO.N,/BAT*%
D72*
X192601300Y-75913600D02*
X193076300Y-75913600D01*
X193076300Y-75913600D02*
X193501300Y-76338600D01*
X193026300Y-76338600D02*
X192601300Y-75913600D01*
X192601300Y-78163600D02*
X192976944Y-78163600D01*
X192976944Y-78163600D02*
X193501944Y-77638600D01*
%TO.N,/CV-VREG*%
X190831300Y-77338600D02*
X191526604Y-77338600D01*
X191526604Y-77338600D02*
X191605412Y-77417408D01*
X191601301Y-75472941D02*
X190968360Y-74840000D01*
X190968360Y-74840000D02*
X190259900Y-74840000D01*
X190259900Y-74840000D02*
X189946300Y-75153600D01*
%TO.N,/BAT*%
X190831300Y-77988600D02*
X190831300Y-79021300D01*
X190831300Y-79021300D02*
X191895000Y-80085000D01*
X191895000Y-80085000D02*
X192601300Y-79378700D01*
X192601300Y-79378700D02*
X192601300Y-78163600D01*
%TO.N,/TS*%
D69*
X197701300Y-80501100D02*
X198563800Y-81363600D01*
X197701300Y-77501300D02*
X197701300Y-80501100D01*
X190831300Y-76688600D02*
X191795844Y-76688600D01*
X191795844Y-76688600D02*
X192095844Y-76988600D01*
X192095844Y-76988600D02*
X195697700Y-76988600D01*
X195697700Y-76988600D02*
X195906300Y-76780000D01*
X197500000Y-77300000D02*
X197701300Y-77501300D01*
%TO.N,/BAT*%
D72*
X192601300Y-76381300D02*
X192601300Y-75913600D01*
%TO.N,GND*%
D73*
X207237500Y-68437500D02*
X207574365Y-68774365D01*
X206608800Y-68437500D02*
X207237500Y-68437500D01*
X200212500Y-65900000D02*
X200212500Y-66600000D01*
X200212500Y-66600000D02*
X203237500Y-69625000D01*
X203237500Y-69625000D02*
X205421300Y-69625000D01*
X205421300Y-69625000D02*
X206608800Y-68437500D01*
%TO.N,/ESP32-C6-mini/B_BIN1*%
D70*
X197194306Y-70497900D02*
X188747792Y-70497900D01*
X188747792Y-70497900D02*
X188690996Y-70554696D01*
X205648700Y-70520627D02*
X205648700Y-70440000D01*
X188690996Y-70554696D02*
X187775200Y-69638900D01*
X202503473Y-70440000D02*
X202213473Y-70730000D01*
X205985527Y-70183800D02*
X205648700Y-70520627D01*
X147735000Y-73918400D02*
X147735000Y-74662500D01*
X197426406Y-70730000D02*
X197194306Y-70497900D01*
X202213473Y-70730000D02*
X197426406Y-70730000D01*
X206798700Y-70520627D02*
X206461873Y-70183800D01*
X206461873Y-70183800D02*
X205985527Y-70183800D01*
X205648700Y-70440000D02*
X202503473Y-70440000D01*
X206798700Y-70530000D02*
X206798700Y-70520627D01*
X232116800Y-70530000D02*
X206798700Y-70530000D01*
X232482100Y-70164700D02*
X232116800Y-70530000D01*
X187775200Y-69638900D02*
X177391700Y-69638900D01*
X177391700Y-69638900D02*
X176056300Y-70974300D01*
X176056300Y-70974300D02*
X150941600Y-70974300D01*
X150810400Y-70843100D02*
X150810300Y-70843100D01*
X150941600Y-70974300D02*
X150810400Y-70843100D01*
X150810300Y-70843100D02*
X147735000Y-73918400D01*
%TO.N,/ESP32-C6-mini/B_AIN2*%
X176243400Y-71426000D02*
X154151800Y-71426000D01*
X197240010Y-71180000D02*
X197007910Y-70947900D01*
X185256700Y-71015300D02*
X176654100Y-71015300D01*
X188702087Y-71180000D02*
X188677400Y-71180000D01*
X206223700Y-70758800D02*
X205802500Y-71180000D01*
X188934188Y-70947900D02*
X188702087Y-71180000D01*
X154151800Y-71426000D02*
X151635000Y-73942800D01*
X187920500Y-70423100D02*
X185848900Y-70423100D01*
X188677400Y-71180000D02*
X187920500Y-70423100D01*
X197007910Y-70947900D02*
X188934188Y-70947900D01*
X176654100Y-71015300D02*
X176243400Y-71426000D01*
X205802500Y-71180000D02*
X197240010Y-71180000D01*
X185848900Y-70423100D02*
X185256700Y-71015300D01*
X151635000Y-73942800D02*
X151635000Y-74662500D01*
%TO.N,/ESP32-C6-mini/D-*%
D72*
X236587500Y-76500000D02*
X231707500Y-71620000D01*
X231707500Y-71620000D02*
X197078970Y-71620000D01*
X197078970Y-71620000D02*
X196831870Y-71372900D01*
X196831870Y-71372900D02*
X189110228Y-71372900D01*
X189110228Y-71372900D02*
X188863128Y-71620000D01*
X188863128Y-71620000D02*
X187855100Y-71620000D01*
X187855100Y-71620000D02*
X187328500Y-71093400D01*
%TO.N,/ESP32-C6-mini/D+*%
X220928800Y-77970400D02*
X215008400Y-72050000D01*
X215008400Y-72050000D02*
X196943286Y-72050000D01*
X196943286Y-72050000D02*
X196666185Y-71772900D01*
X174405300Y-73993800D02*
X174405300Y-74662500D01*
X196666185Y-71772900D02*
X189275914Y-71772900D01*
X189275914Y-71772900D02*
X188998814Y-72050000D01*
X188998814Y-72050000D02*
X186385800Y-72050000D01*
X186385800Y-72050000D02*
X185645100Y-72790700D01*
X185645100Y-72790700D02*
X175608400Y-72790700D01*
X175608400Y-72790700D02*
X174405300Y-73993800D01*
%TO.N,/ESP32-C6-mini/SLEEP*%
D70*
X188281100Y-69506000D02*
X187962300Y-69187200D01*
X201810000Y-69589700D02*
X201726300Y-69506000D01*
X201726300Y-69506000D02*
X188281100Y-69506000D01*
X187962300Y-69187200D02*
X175055300Y-69187200D01*
%TO.N,GND*%
D73*
X251200000Y-105140000D02*
X251120000Y-105220000D01*
X251200000Y-103250000D02*
X251200000Y-105140000D01*
X231722800Y-106087200D02*
X232910000Y-104900000D01*
X231200000Y-106087200D02*
X231722800Y-106087200D01*
X223543900Y-86909829D02*
X223750433Y-86703296D01*
X223543900Y-86983884D02*
X223543900Y-86909829D01*
X222946584Y-87581200D02*
X223543900Y-86983884D01*
X222256400Y-87581200D02*
X222946584Y-87581200D01*
X216981400Y-87581200D02*
X218618900Y-87581200D01*
X218618900Y-87581200D02*
X219618900Y-88581200D01*
X216200000Y-92600000D02*
X215850000Y-92250000D01*
X216775000Y-92600000D02*
X216200000Y-92600000D01*
X214351900Y-91988100D02*
X215030000Y-91310000D01*
X214197800Y-91988100D02*
X214351900Y-91988100D01*
X200490000Y-65622500D02*
X200212500Y-65900000D01*
X207819595Y-112630000D02*
X208143090Y-112306505D01*
%TO.N,+5V*%
D76*
X234900000Y-106750000D02*
X234510000Y-106360000D01*
X236450000Y-106750000D02*
X234900000Y-106750000D01*
X219293400Y-83133400D02*
X219940000Y-83780000D01*
X217350000Y-83133400D02*
X219293400Y-83133400D01*
%TO.N,GND*%
D73*
X212090000Y-81000000D02*
X212080000Y-81010000D01*
X213100000Y-81000000D02*
X212090000Y-81000000D01*
X212136600Y-83333400D02*
X212110000Y-83360000D01*
X213050000Y-83333400D02*
X212136600Y-83333400D01*
X214030000Y-107100000D02*
X214050000Y-107120000D01*
X212800000Y-107100000D02*
X214030000Y-107100000D01*
X187106400Y-73213600D02*
X187070000Y-73250000D01*
X188051300Y-73213600D02*
X187106400Y-73213600D01*
X190600000Y-75390000D02*
X190600000Y-75659959D01*
X190600000Y-75659959D02*
X190831300Y-75891259D01*
X190831300Y-75891259D02*
X190831300Y-76038600D01*
X199896091Y-109716091D02*
X199860000Y-109680000D01*
X199860000Y-109680000D02*
X199483010Y-109680000D01*
X199483010Y-109680000D02*
X199356505Y-109806505D01*
X199949082Y-112630000D02*
X200272577Y-112306505D01*
X196738800Y-83451200D02*
X197580000Y-82610000D01*
X196738800Y-83563600D02*
X196738800Y-83451200D01*
X189296300Y-78873600D02*
X189296300Y-80093600D01*
X189296300Y-80093600D02*
X188376300Y-81013600D01*
%TO.N,+BATT*%
D72*
X187314000Y-80000900D02*
X186301300Y-81013600D01*
X187840000Y-80000900D02*
X187314000Y-80000900D01*
%TO.N,GND*%
D73*
X190826400Y-82913600D02*
X191660000Y-82080000D01*
X190551300Y-82913600D02*
X190826400Y-82913600D01*
X188296400Y-81013600D02*
X187373191Y-81936809D01*
X188376300Y-81013600D02*
X188296400Y-81013600D01*
%TO.N,VBUS*%
X183463600Y-81013600D02*
X182990000Y-80540000D01*
X184051300Y-81013600D02*
X183463600Y-81013600D01*
D71*
X187996300Y-75153600D02*
X187366400Y-75153600D01*
X187366400Y-75153600D02*
X187190000Y-75330000D01*
D69*
X187111300Y-75408700D02*
X187190000Y-75330000D01*
X187111300Y-76038600D02*
X187111300Y-75408700D01*
D76*
X185673325Y-76686675D02*
X185276300Y-76289650D01*
X185276300Y-76289650D02*
X185276300Y-75913600D01*
X185276300Y-78716300D02*
X185530000Y-78970000D01*
X185276300Y-78088600D02*
X185276300Y-78716300D01*
D71*
X187786500Y-75363400D02*
X187996300Y-75153600D01*
%TO.N,GND*%
D73*
X184543400Y-103113400D02*
X185060000Y-103630000D01*
X184543400Y-102644400D02*
X184543400Y-103113400D01*
X182438600Y-78088600D02*
X182410000Y-78060000D01*
X183376300Y-78088600D02*
X182438600Y-78088600D01*
X182316400Y-75913600D02*
X182310000Y-75920000D01*
X183376300Y-75913600D02*
X182316400Y-75913600D01*
X171805300Y-67128474D02*
X171708413Y-67031587D01*
X171805300Y-68937500D02*
X171805300Y-67128474D01*
%TO.N,/ESP32-C6-mini/F_BOUT2*%
D70*
X165540300Y-61900000D02*
X167390000Y-61900000D01*
X167390000Y-61900000D02*
X172455300Y-66965300D01*
X172455300Y-66965300D02*
X172455300Y-68937500D01*
%TO.N,GND*%
D73*
X173755300Y-67884700D02*
X173970000Y-67670000D01*
X173755300Y-68937500D02*
X173755300Y-67884700D01*
X173140000Y-73354400D02*
X173140000Y-73651400D01*
X173140000Y-73651400D02*
X173105300Y-73686100D01*
X173105300Y-73686100D02*
X173105300Y-74662500D01*
%TO.N,/ESP32-C6-mini/F_BIN2*%
D70*
X174453000Y-73075800D02*
X174156600Y-72779400D01*
X174156600Y-72779400D02*
X172342600Y-72779400D01*
X172342600Y-72779400D02*
X171155300Y-73966700D01*
X171155300Y-73966700D02*
X171155300Y-74662500D01*
%TO.N,/ESP32-C6-mini/CLK*%
X137309400Y-94060000D02*
X147514900Y-94060000D01*
X147514900Y-94060000D02*
X147850000Y-94395100D01*
X129520100Y-94334400D02*
X129293900Y-94560600D01*
X137035000Y-94334400D02*
X129520100Y-94334400D01*
X137309400Y-94060000D02*
X137035000Y-94334400D01*
X130198400Y-96250000D02*
X130500000Y-96250000D01*
X148374900Y-94920000D02*
X147850000Y-94395100D01*
X156540000Y-94110000D02*
X155730000Y-94920000D01*
X129293900Y-94560600D02*
X129293900Y-95345500D01*
X168277200Y-94110000D02*
X156540000Y-94110000D01*
X155730000Y-94920000D02*
X148374900Y-94920000D01*
X169795100Y-92592100D02*
X168277200Y-94110000D01*
X129293900Y-95345500D02*
X130198400Y-96250000D01*
X210138000Y-92592100D02*
X169795100Y-92592100D01*
%TO.N,GND*%
D73*
X168400000Y-92500000D02*
X168410000Y-92510000D01*
X167300000Y-92500000D02*
X168400000Y-92500000D01*
X153600000Y-105810000D02*
X154870000Y-104540000D01*
X153600000Y-106272800D02*
X153600000Y-105810000D01*
X131912500Y-86850000D02*
X133180000Y-86850000D01*
X153675000Y-83315000D02*
X153630000Y-83270000D01*
X153675000Y-84600000D02*
X153675000Y-83315000D01*
X150035000Y-78885000D02*
X149310000Y-79610000D01*
X150035000Y-78662500D02*
X150035000Y-78885000D01*
X153662500Y-78662500D02*
X153670000Y-78670000D01*
X152185000Y-78662500D02*
X153662500Y-78662500D01*
D69*
X150335000Y-73405000D02*
X150310000Y-73380000D01*
X150335000Y-74662500D02*
X150335000Y-73405000D01*
D73*
X149035000Y-69975000D02*
X148510000Y-70500000D01*
X149035000Y-68937500D02*
X149035000Y-69975000D01*
X150985000Y-67465000D02*
X151010000Y-67440000D01*
X150985000Y-68937500D02*
X150985000Y-67465000D01*
X149550000Y-87870000D02*
X149960000Y-88280000D01*
X148325000Y-87870000D02*
X149550000Y-87870000D01*
X142900000Y-84600000D02*
X142870000Y-84630000D01*
X144212500Y-84600000D02*
X142900000Y-84600000D01*
X142990000Y-89730000D02*
X142980000Y-89720000D01*
X144175000Y-89730000D02*
X142990000Y-89730000D01*
X143710000Y-87230000D02*
X142870000Y-88070000D01*
X144125000Y-87230000D02*
X143710000Y-87230000D01*
X133070000Y-96300000D02*
X133546829Y-96300000D01*
X133546829Y-96300000D02*
X133596829Y-96250000D01*
X133596829Y-96250000D02*
X135650000Y-96250000D01*
X133340000Y-91810000D02*
X132880000Y-91810000D01*
X132880000Y-91810000D02*
X132870000Y-91800000D01*
X132870000Y-91800000D02*
X132037500Y-91800000D01*
%TO.N,/ESP32-C6-mini/user_interface/ULED*%
X242390367Y-112420000D02*
X242467818Y-112420000D01*
X242467818Y-112420000D02*
X243360000Y-111527817D01*
X243360000Y-111527817D02*
X243360000Y-108722500D01*
X243360000Y-108722500D02*
X240537500Y-105900000D01*
%TO.N,GND*%
X127600000Y-105640000D02*
X127610000Y-105630000D01*
X125900000Y-105640000D02*
X127600000Y-105640000D01*
X130500000Y-104780000D02*
X130520000Y-104800000D01*
X130500000Y-103870000D02*
X130500000Y-104780000D01*
%TO.N,/ESP32-C6-mini/user_interface/ULED*%
D72*
X227200000Y-106087200D02*
X225650000Y-104537200D01*
X222066700Y-109127200D02*
X222066700Y-110863300D01*
X225650000Y-104537200D02*
X222557968Y-104537200D01*
X221650000Y-105445168D02*
X221650000Y-108710500D01*
X222557968Y-104537200D02*
X221650000Y-105445168D01*
X221650000Y-108710500D02*
X222066700Y-109127200D01*
X222066700Y-110863300D02*
X222040000Y-110890000D01*
%TO.N,/ESP32-C6-mini/DIN_EN*%
D70*
X219200000Y-106087200D02*
X221627200Y-103660000D01*
X221627200Y-103660000D02*
X235185000Y-103660000D01*
X235185000Y-103660000D02*
X236450000Y-104925000D01*
%TO.N,/ESP32-C6-mini/user_interface/ULED*%
D73*
X225427665Y-111007954D02*
X224937954Y-111007954D01*
X224937954Y-111007954D02*
X224770000Y-110840000D01*
%TO.N,GND*%
X135470000Y-109779350D02*
X135470000Y-109120650D01*
%TO.N,/ESP32-C6-mini/user_interface/ULED*%
X137400000Y-110968100D02*
X137508147Y-110968100D01*
X137508147Y-110968100D02*
X137959081Y-110517166D01*
X209119265Y-110920000D02*
X209760000Y-110920000D01*
X209119265Y-112330000D02*
X209760000Y-112330000D01*
X149358450Y-110871550D02*
X149660000Y-110570000D01*
X149660000Y-110570000D02*
X150230000Y-110570000D01*
%TO.N,Net-(D29-DOUT)*%
D72*
X153326900Y-109654400D02*
X153243800Y-109654400D01*
X152615100Y-110283100D02*
X152615100Y-110896400D01*
X153243800Y-109654400D02*
X152615100Y-110283100D01*
X152615100Y-110896400D02*
X151991500Y-111520000D01*
X151991500Y-111520000D02*
X148914200Y-111520000D01*
X148914200Y-111520000D02*
X148148600Y-110754400D01*
X148148600Y-110754400D02*
X147496900Y-110754400D01*
%TO.N,GND*%
D73*
X172780300Y-79859700D02*
X172780000Y-79860000D01*
X172780300Y-78662500D02*
X172780300Y-79859700D01*
X175280300Y-79890300D02*
X175340000Y-79950000D01*
X175280300Y-78662500D02*
X175280300Y-79890300D01*
X195522700Y-78163600D02*
X195856300Y-77830000D01*
X194501300Y-78163600D02*
X195522700Y-78163600D01*
X194932700Y-75913600D02*
X195856300Y-74990000D01*
X194501300Y-75913600D02*
X194932700Y-75913600D01*
D69*
X185999538Y-95635634D02*
X185999538Y-95600033D01*
X186363304Y-95999400D02*
X185999538Y-95635634D01*
X186860900Y-95999400D02*
X186363304Y-95999400D01*
D73*
X188798400Y-96668400D02*
X188320000Y-96190000D01*
X188798400Y-96749400D02*
X188798400Y-96668400D01*
X185359582Y-96844400D02*
X185426991Y-96776991D01*
X184543400Y-96844400D02*
X185359582Y-96844400D01*
X197043400Y-98106600D02*
X197820000Y-97330000D01*
X197043400Y-98194400D02*
X197043400Y-98106600D01*
X197320600Y-95599400D02*
X197760000Y-95160000D01*
X196923400Y-95599400D02*
X197320600Y-95599400D01*
%TO.N,VBUS*%
X185750000Y-109333274D02*
X185850000Y-109433274D01*
X185750000Y-108615000D02*
X185750000Y-109333274D01*
X190650000Y-107640000D02*
X190420959Y-107410959D01*
X190650000Y-108615000D02*
X190650000Y-107640000D01*
D76*
X192043400Y-103173400D02*
X192290000Y-103420000D01*
X192043400Y-102519400D02*
X192043400Y-103173400D01*
X194543400Y-100136600D02*
X194770000Y-99910000D01*
X194543400Y-100781900D02*
X194543400Y-100136600D01*
X192043400Y-100336600D02*
X192490000Y-99890000D01*
X192043400Y-100694400D02*
X192043400Y-100336600D01*
X189543400Y-100306600D02*
X189950000Y-99900000D01*
X189543400Y-100694400D02*
X189543400Y-100306600D01*
%TO.N,GND*%
D73*
X194696900Y-102606900D02*
X195460000Y-103370000D01*
X194543400Y-102606900D02*
X194696900Y-102606900D01*
X189543400Y-103503400D02*
X189750000Y-103710000D01*
X189543400Y-102594400D02*
X189543400Y-103503400D01*
X187043400Y-103033400D02*
X187770000Y-103760000D01*
X187043400Y-102644400D02*
X187043400Y-103033400D01*
%TO.N,VBUS*%
D76*
X189543400Y-100694400D02*
X189041300Y-100694400D01*
%TO.N,+3.3V*%
D73*
X197960000Y-107120000D02*
X197920000Y-107160000D01*
X197980000Y-107100000D02*
X197960000Y-107120000D01*
X199200000Y-107100000D02*
X197980000Y-107100000D01*
%TO.N,GND*%
X162760000Y-107200000D02*
X161780000Y-106220000D01*
X162804000Y-107200000D02*
X162760000Y-107200000D01*
%TO.N,+BATT*%
X149685000Y-74662500D02*
X149685000Y-76412500D01*
X149685000Y-76412500D02*
X150035000Y-76762500D01*
X148980000Y-77320000D02*
X149217500Y-77320000D01*
X149217500Y-77320000D02*
X149785000Y-76752500D01*
X147535000Y-79905000D02*
X147560000Y-79930000D01*
X147535000Y-78662500D02*
X147535000Y-79905000D01*
%TO.N,GND1*%
X204650000Y-58212500D02*
X133352822Y-58212500D01*
X133352822Y-58212500D02*
X126475000Y-65090322D01*
X126475000Y-65090322D02*
X126475000Y-69562200D01*
X126475000Y-69562200D02*
X127900000Y-70987200D01*
X203552500Y-58212500D02*
X203500000Y-58160000D01*
X204650000Y-58212500D02*
X203552500Y-58212500D01*
X206675000Y-61815000D02*
X207080000Y-61410000D01*
X206675000Y-62400000D02*
X206675000Y-61815000D01*
X210950000Y-64410000D02*
X210160000Y-63620000D01*
X210950000Y-64600000D02*
X210950000Y-64410000D01*
X212020000Y-62100000D02*
X212030000Y-62110000D01*
X210950000Y-62100000D02*
X212020000Y-62100000D01*
%TO.N,+BATT*%
X128562800Y-65987200D02*
X129900000Y-64650000D01*
X127900000Y-65987200D02*
X128562800Y-65987200D01*
X146075000Y-89730000D02*
X146010000Y-89665000D01*
X146010000Y-89665000D02*
X146010000Y-88452500D01*
X146025000Y-85995000D02*
X146040000Y-85980000D01*
X146025000Y-87230000D02*
X146025000Y-85995000D01*
D72*
X146075000Y-88615000D02*
X146070000Y-88610000D01*
D73*
X133030000Y-89300000D02*
X133040000Y-89290000D01*
X131912500Y-89300000D02*
X133030000Y-89300000D01*
%TO.N,+5V*%
X165562500Y-88337500D02*
X165630000Y-88270000D01*
X165562500Y-89700000D02*
X165562500Y-88337500D01*
X156275000Y-85655000D02*
X156830000Y-85100000D01*
X156275000Y-87373300D02*
X156275000Y-85655000D01*
D76*
X149837500Y-83882500D02*
X150620000Y-83100000D01*
X149837500Y-84600000D02*
X149837500Y-83882500D01*
%TO.N,GND*%
D73*
X153735000Y-93190000D02*
X155800000Y-93190000D01*
X153425000Y-93500000D02*
X153735000Y-93190000D01*
%TO.N,Net-(D22-DOUT)*%
D72*
X181326900Y-109654400D02*
X180675200Y-109654400D01*
X180675200Y-109654400D02*
X179988000Y-108967200D01*
X179988000Y-108967200D02*
X175057400Y-108967200D01*
X174845200Y-109179400D02*
X174845200Y-110495200D01*
X174845200Y-110495200D02*
X175104400Y-110754400D01*
X175057400Y-108967200D02*
X174845200Y-109179400D01*
X175104400Y-110754400D02*
X175496900Y-110754400D01*
%TO.N,GND*%
D73*
X184829999Y-109389012D02*
X184829999Y-109320001D01*
X184829999Y-109320001D02*
X184973495Y-109176505D01*
X191374763Y-107762079D02*
X191400000Y-107787316D01*
X191419763Y-107009763D02*
X191374763Y-107054763D01*
X191374763Y-107054763D02*
X191374763Y-107762079D01*
X191400000Y-107787316D02*
X191400000Y-109120000D01*
X191400000Y-109120000D02*
X191436505Y-109156505D01*
X176140000Y-109670000D02*
X175673010Y-109670000D01*
X175673010Y-109670000D02*
X175646505Y-109696505D01*
X202590000Y-109870000D02*
X203070000Y-109870000D01*
X203070000Y-109870000D02*
X203123495Y-109816505D01*
X207730000Y-109830000D02*
X207303010Y-109830000D01*
X207303010Y-109830000D02*
X207246505Y-109886505D01*
X218860000Y-109820000D02*
X219420000Y-109820000D01*
X219420000Y-109820000D02*
X219473495Y-109766505D01*
X226890000Y-109990000D02*
X227420000Y-109990000D01*
X227420000Y-109990000D02*
X227553495Y-109856505D01*
X234920000Y-110020000D02*
X235360000Y-110020000D01*
X235360000Y-110020000D02*
X235563495Y-109816505D01*
X170740000Y-109900000D02*
X171150000Y-109900000D01*
X171150000Y-109900000D02*
X171373495Y-109676505D01*
%TO.N,/ESP32-C6-mini/user_interface/ULED*%
X149576900Y-112266900D02*
X150060000Y-112750000D01*
%TO.N,GND*%
X158760000Y-109830000D02*
X159360000Y-109830000D01*
X159360000Y-109830000D02*
X159523495Y-109666505D01*
X148010000Y-112750000D02*
X148010000Y-112683010D01*
X148010000Y-112683010D02*
X148486505Y-112206505D01*
X147790000Y-109880000D02*
X147466505Y-109556505D01*
X154980000Y-109900000D02*
X155323495Y-109556505D01*
X154660000Y-109900000D02*
X154980000Y-109900000D01*
X162670000Y-109900000D02*
X163140000Y-109900000D01*
X163140000Y-109900000D02*
X163343495Y-109696505D01*
X239240000Y-110080000D02*
X239563495Y-109756505D01*
X240380000Y-112710000D02*
X240703495Y-112386505D01*
X232440000Y-112080000D02*
X232763495Y-112403495D01*
X236330000Y-112800000D02*
X236653495Y-112476505D01*
X232090000Y-110040000D02*
X231766505Y-109716505D01*
X228340000Y-112750000D02*
X228663495Y-112426505D01*
X224170000Y-112800000D02*
X224493495Y-112476505D01*
X220250000Y-112680000D02*
X220573495Y-112356505D01*
X211970000Y-111920000D02*
X212293495Y-112243495D01*
%TO.N,Net-(D16-DOUT)*%
D72*
X211341700Y-111027200D02*
X211341700Y-112295600D01*
X211341700Y-112295600D02*
X211996100Y-112950000D01*
X216400000Y-111522700D02*
X216400000Y-110250000D01*
X211996100Y-112950000D02*
X214972700Y-112950000D01*
X216400000Y-110250000D02*
X216872800Y-109777200D01*
X214972700Y-112950000D02*
X216400000Y-111522700D01*
X216872800Y-109777200D02*
X217416700Y-109777200D01*
%TO.N,GND*%
D73*
X216176537Y-112729141D02*
X216500032Y-112405646D01*
X216218883Y-109653300D02*
X215856700Y-109653300D01*
X215856700Y-109653300D02*
X215636505Y-109873495D01*
%TO.N,Net-(D17-DOUT)*%
D72*
X206696700Y-110478900D02*
X206723400Y-110478900D01*
X206723400Y-110478900D02*
X207171700Y-110927200D01*
%TO.N,GND*%
D73*
X203910000Y-112610000D02*
X204233495Y-112286505D01*
X194750000Y-110000000D02*
X195073495Y-109676505D01*
X195850000Y-112630000D02*
X196173495Y-112306505D01*
X179110000Y-109940000D02*
X179433495Y-109616505D01*
X180160000Y-112590000D02*
X180483495Y-112266505D01*
X176120000Y-112530000D02*
X176443495Y-112206505D01*
X172090000Y-112590000D02*
X172413495Y-112266505D01*
X168125200Y-110050777D02*
X167874423Y-109800000D01*
X167874423Y-109800000D02*
X167843010Y-109800000D01*
X167843010Y-109800000D02*
X167716505Y-109673495D01*
X168180000Y-112660000D02*
X168503495Y-112336505D01*
X164170000Y-111920000D02*
X164493495Y-112243495D01*
X160140000Y-112610000D02*
X160463495Y-112286505D01*
X156140000Y-111900000D02*
X156463495Y-112223495D01*
X152010000Y-112690000D02*
X152033010Y-112690000D01*
X152033010Y-112690000D02*
X152416505Y-112306505D01*
X151100000Y-109890000D02*
X151423495Y-109566505D01*
X139910000Y-109980000D02*
X139586505Y-109656505D01*
X144002598Y-110046595D02*
X143679103Y-109723100D01*
X143679103Y-109723100D02*
X143454400Y-109723100D01*
X144436900Y-112913100D02*
X144430000Y-112920000D01*
X144436900Y-112254400D02*
X144436900Y-112913100D01*
X140046900Y-111870000D02*
X140493100Y-112316200D01*
X140493100Y-112316200D02*
X140493100Y-112425600D01*
X136496900Y-113013100D02*
X136490000Y-113020000D01*
X136496900Y-112354400D02*
X136496900Y-113013100D01*
X138200000Y-78800000D02*
X138220000Y-78820000D01*
X135379900Y-78800000D02*
X138200000Y-78800000D01*
%TO.N,+BATT*%
X128458400Y-76268400D02*
X128450000Y-76260000D01*
X128458400Y-79536600D02*
X128458400Y-76268400D01*
%TO.N,Net-(D31-DOUT)*%
D72*
X139496900Y-110854400D02*
X139496900Y-112303400D01*
X139496900Y-112303400D02*
X140189500Y-112996000D01*
X140189500Y-112996000D02*
X142599700Y-112996000D01*
X142599700Y-112996000D02*
X144550000Y-111045700D01*
X144550000Y-111045700D02*
X144550000Y-110100000D01*
X144895600Y-109754400D02*
X145326900Y-109754400D01*
X144550000Y-110100000D02*
X144895600Y-109754400D01*
%TO.N,Net-(D30-DOUT)*%
X149326900Y-109654400D02*
X148675200Y-109654400D01*
X147978300Y-108957500D02*
X143167100Y-108957500D01*
X148675200Y-109654400D02*
X147978300Y-108957500D01*
X142845200Y-110275200D02*
X143424400Y-110854400D01*
X143167100Y-108957500D02*
X142845200Y-109279400D01*
X142845200Y-109279400D02*
X142845200Y-110275200D01*
X143424400Y-110854400D02*
X143496900Y-110854400D01*
%TO.N,/ESP32-C6-mini/user_interface/ULED*%
D73*
X241479632Y-110940000D02*
X242120367Y-110940000D01*
%TO.N,Net-(D10-DOUT)*%
D72*
X241539400Y-109820000D02*
X242330000Y-109820000D01*
X242330000Y-109820000D02*
X242480800Y-109970800D01*
X242480800Y-109970800D02*
X242540800Y-109970800D01*
X242540800Y-109970800D02*
X242810000Y-110240000D01*
X242810000Y-110240000D02*
X242810000Y-111300000D01*
X242810000Y-111300000D02*
X242292800Y-111817200D01*
X242292800Y-111817200D02*
X239261700Y-111817200D01*
X239261700Y-111817200D02*
X238151700Y-110707200D01*
X238151700Y-110707200D02*
X238151700Y-109177200D01*
X238151700Y-109177200D02*
X237954500Y-108980000D01*
X236321700Y-109707200D02*
X236321700Y-110477200D01*
X237954500Y-108980000D02*
X237048900Y-108980000D01*
X237048900Y-108980000D02*
X236321700Y-109707200D01*
X236321700Y-110477200D02*
X235871700Y-110927200D01*
X235871700Y-110927200D02*
X235671700Y-110927200D01*
%TO.N,Net-(D12-DOUT)*%
X227671700Y-110927200D02*
X228323400Y-110927200D01*
X228323400Y-110927200D02*
X228989600Y-111593400D01*
X228989600Y-111593400D02*
X230078300Y-111593400D01*
X230078300Y-111593400D02*
X231020000Y-110651700D01*
X231020000Y-109352200D02*
X231302200Y-109070000D01*
X231020000Y-110651700D02*
X231020000Y-109352200D01*
X231302200Y-109070000D02*
X232092800Y-109070000D01*
X232092800Y-109070000D02*
X232850000Y-109827200D01*
X232850000Y-109827200D02*
X233501700Y-109827200D01*
%TO.N,/ESP32-C6-mini/user_interface/ULED*%
D73*
X241749632Y-112420000D02*
X242390367Y-112420000D01*
X237709632Y-112410000D02*
X238350367Y-112410000D01*
X237490000Y-110869632D02*
X237490000Y-111510367D01*
X233459632Y-110980000D02*
X234100367Y-110980000D01*
X233729632Y-112420000D02*
X234370367Y-112420000D01*
X225519632Y-112450000D02*
X226160367Y-112450000D01*
%TO.N,Net-(D11-DOUT)*%
D72*
X231671700Y-110927200D02*
X231671700Y-112444500D01*
X232271400Y-113044200D02*
X234854700Y-113044200D01*
X236851700Y-111047200D02*
X236851700Y-109927200D01*
X231671700Y-112444500D02*
X232271400Y-113044200D01*
X234854700Y-113044200D02*
X236851700Y-111047200D01*
X236851700Y-109927200D02*
X236951700Y-109827200D01*
X236951700Y-109827200D02*
X237501700Y-109827200D01*
%TO.N,/ESP32-C6-mini/user_interface/ULED*%
D73*
X229489265Y-110930000D02*
X229893170Y-110930000D01*
X229893170Y-110930000D02*
X230296585Y-110526585D01*
X229679265Y-112410000D02*
X230320000Y-112410000D01*
X221399265Y-110890000D02*
X222040000Y-110890000D01*
X221549265Y-112380000D02*
X222190000Y-112380000D01*
X217339265Y-110840000D02*
X217980000Y-110840000D01*
X217579265Y-112450000D02*
X218220000Y-112450000D01*
X213329265Y-112310000D02*
X213970000Y-112310000D01*
X213189265Y-111010000D02*
X213830000Y-111010000D01*
X205229265Y-112230000D02*
X205870000Y-112230000D01*
X205139265Y-110850000D02*
X205780000Y-110850000D01*
X201389265Y-112310000D02*
X202030000Y-112310000D01*
X201119265Y-110820000D02*
X201760000Y-110820000D01*
%TO.N,Net-(D20-DOUT)*%
D72*
X195171700Y-110877200D02*
X195253000Y-110877200D01*
X195253000Y-110877200D02*
X195823400Y-110306800D01*
X195823400Y-110306800D02*
X195823400Y-109791100D01*
X195823400Y-109791100D02*
X196514500Y-109100000D01*
X200612800Y-109777200D02*
X201086700Y-109777200D01*
X196514500Y-109100000D02*
X197573700Y-109100000D01*
X197573700Y-109100000D02*
X198164400Y-109690700D01*
X198164400Y-109690700D02*
X198164400Y-110585871D01*
X198164400Y-110585871D02*
X198250000Y-110671471D01*
X198250000Y-110671471D02*
X198250000Y-111016600D01*
X198250000Y-111016600D02*
X198797800Y-111564400D01*
X198797800Y-111564400D02*
X199803800Y-111564400D01*
X199803800Y-111564400D02*
X200260000Y-111108200D01*
X200260000Y-111108200D02*
X200260000Y-110130000D01*
X200260000Y-110130000D02*
X200612800Y-109777200D01*
%TO.N,Net-(D19-DOUT)*%
X198781700Y-110428900D02*
X198808400Y-110428900D01*
X198808400Y-110428900D02*
X199256700Y-110877200D01*
%TO.N,/ESP32-C6-mini/user_interface/ULED*%
D73*
X197009265Y-110920000D02*
X197650000Y-110920000D01*
%TO.N,Net-(D21-DOUT)*%
D72*
X196169600Y-110582600D02*
X196975000Y-109777200D01*
X196975000Y-109777200D02*
X197001700Y-109777200D01*
%TO.N,/ESP32-C6-mini/user_interface/ULED*%
D73*
X197249265Y-112270000D02*
X197890000Y-112270000D01*
X181509265Y-112270000D02*
X182150000Y-112270000D01*
X181279265Y-110740000D02*
X181920000Y-110740000D01*
X177569265Y-112260000D02*
X178210000Y-112260000D01*
X177389265Y-110750000D02*
X178030000Y-110750000D01*
%TO.N,Net-(D23-DOUT)*%
D72*
X171496900Y-110754400D02*
X172148600Y-110754400D01*
X172148600Y-110754400D02*
X172812600Y-111418400D01*
X172812600Y-111418400D02*
X176132900Y-111418400D01*
X176132900Y-111418400D02*
X176676900Y-110874400D01*
X176676900Y-110874400D02*
X176676900Y-110104400D01*
X176676900Y-110104400D02*
X177126900Y-109654400D01*
X177126900Y-109654400D02*
X177326900Y-109654400D01*
%TO.N,/ESP32-C6-mini/user_interface/ULED*%
D73*
X173289265Y-110760000D02*
X173930000Y-110760000D01*
X173429265Y-112270000D02*
X174070000Y-112270000D01*
X169479265Y-112250000D02*
X170120000Y-112250000D01*
X169299265Y-110770000D02*
X169940000Y-110770000D01*
X165329265Y-110780000D02*
X165970000Y-110780000D01*
X165536900Y-112276900D02*
X165542900Y-112270900D01*
X165542900Y-112270900D02*
X166183635Y-112270900D01*
X161496900Y-112196900D02*
X161980000Y-112680000D01*
X161316900Y-110756900D02*
X161800000Y-111240000D01*
%TO.N,Net-(D27-DOUT)*%
D72*
X155496900Y-110754400D02*
X155496900Y-112262900D01*
X155496900Y-112262900D02*
X156104900Y-112870900D01*
X156104900Y-112870900D02*
X158680400Y-112870900D01*
X158680400Y-112870900D02*
X160548600Y-111002700D01*
X160548600Y-111002700D02*
X160548600Y-110221400D01*
X160548600Y-110221400D02*
X160760000Y-110010000D01*
X160760000Y-110010000D02*
X160971300Y-110010000D01*
X160971300Y-110010000D02*
X161326900Y-109654400D01*
%TO.N,/ESP32-C6-mini/user_interface/ULED*%
D73*
X157486900Y-112176900D02*
X157580900Y-112270900D01*
X157580900Y-112270900D02*
X158273635Y-112270900D01*
X157376900Y-110736900D02*
X157860000Y-111220000D01*
X153436900Y-112276900D02*
X153920000Y-112760000D01*
X153316900Y-110776900D02*
X153800000Y-111260000D01*
X145456900Y-112296900D02*
X145940000Y-112780000D01*
X145216900Y-110756900D02*
X145700000Y-111240000D01*
X141306900Y-110816900D02*
X141790000Y-111300000D01*
X141466900Y-112323100D02*
X141493800Y-112350000D01*
X141493800Y-112350000D02*
X142290000Y-112350000D01*
%TO.N,+3.3V*%
D74*
X225550000Y-81460000D02*
X224150000Y-81460000D01*
D73*
X135650000Y-94980000D02*
X137580000Y-94980000D01*
X137580000Y-94980000D02*
X137590000Y-94990000D01*
%TO.N,/ESP32-C6-mini/user_interface/ULED*%
X137456900Y-112616900D02*
X137940000Y-113100000D01*
X137456900Y-112354400D02*
X137456900Y-112616900D01*
%TO.N,+3.3V*%
D74*
X218650000Y-80790000D02*
X218640000Y-80800000D01*
X219290000Y-80790000D02*
X218650000Y-80790000D01*
X218640000Y-80800000D02*
X217240000Y-80800000D01*
X215000000Y-79600000D02*
X215300000Y-79300000D01*
X215000000Y-81000000D02*
X215000000Y-79600000D01*
%TO.N,Net-(D5-A)*%
D72*
X212197800Y-91813100D02*
X212372800Y-91988100D01*
X212197800Y-89388100D02*
X212197800Y-91813100D01*
%TO.N,Net-(Q4-B)*%
X162679000Y-103162500D02*
X162679000Y-101500000D01*
X162866500Y-103350000D02*
X162679000Y-103162500D01*
%TO.N,Net-(D17-DOUT)*%
X213171700Y-109927200D02*
X212520000Y-109927200D01*
X206520000Y-110302200D02*
X206696700Y-110478900D01*
X206520000Y-109352200D02*
X206520000Y-110302200D01*
X206755500Y-109116700D02*
X206520000Y-109352200D01*
X211709500Y-109116700D02*
X206755500Y-109116700D01*
X212520000Y-109927200D02*
X211709500Y-109116700D01*
%TO.N,/ESP32-C6-mini/sensors/B_VINT*%
X150985000Y-75562500D02*
X152185000Y-76762500D01*
X150985000Y-74662500D02*
X150985000Y-75562500D01*
%TO.N,Net-(D8-A)*%
X197510900Y-96836900D02*
X198748400Y-95599400D01*
X194475300Y-96836900D02*
X197510900Y-96836900D01*
X193156600Y-98155600D02*
X194475300Y-96836900D01*
%TO.N,/ESP32-C6-mini/sensors/B_VCP*%
X147638000Y-76762500D02*
X147535000Y-76762500D01*
X149035000Y-75365500D02*
X147638000Y-76762500D01*
X149035000Y-74662500D02*
X149035000Y-75365500D01*
%TO.N,/ESP32-C6-mini/sensors/F_VINT*%
X175177300Y-76762500D02*
X175280300Y-76762500D01*
X173755300Y-75340500D02*
X175177300Y-76762500D01*
X173755300Y-74662500D02*
X173755300Y-75340500D01*
%TO.N,/ESP32-C6-mini/B_BOUT2*%
X149685000Y-68257800D02*
X149685000Y-68937500D01*
X143327200Y-61900000D02*
X149685000Y-68257800D01*
X142170000Y-61900000D02*
X143327200Y-61900000D01*
%TO.N,/ESP32-C6-mini/B_BOUT1*%
D70*
X148385000Y-67809000D02*
X148385000Y-68937500D01*
X148291700Y-67715700D02*
X148385000Y-67809000D01*
%TO.N,/ESP32-C6-mini/B_AOUT2*%
X150335000Y-63895000D02*
X150335000Y-68937500D01*
X152330000Y-61900000D02*
X150335000Y-63895000D01*
%TO.N,/ESP32-C6-mini/B_AOUT1*%
X151635000Y-67675000D02*
X151635000Y-68937500D01*
X157410000Y-61900000D02*
X151635000Y-67675000D01*
%TO.N,Net-(D21-DOUT)*%
D72*
X179496900Y-110754400D02*
X180148600Y-110754400D01*
X196169600Y-111057800D02*
X196169600Y-110582600D01*
X195691500Y-111535900D02*
X196169600Y-111057800D01*
X180930100Y-111535900D02*
X195691500Y-111535900D01*
X180148600Y-110754400D02*
X180930100Y-111535900D01*
%TO.N,Net-(D25-DOUT)*%
X163496900Y-112262900D02*
X163496900Y-110754400D01*
X164104900Y-112870900D02*
X163496900Y-112262900D01*
X166544900Y-112870900D02*
X164104900Y-112870900D01*
X168675200Y-110740600D02*
X166544900Y-112870900D01*
X168675200Y-109654400D02*
X168675200Y-110740600D01*
X169326900Y-109654400D02*
X168675200Y-109654400D01*
%TO.N,/Cell2*%
X127900000Y-68487200D02*
X127900000Y-67335500D01*
X200137600Y-63400000D02*
X200212500Y-63400000D01*
X196997800Y-60260200D02*
X200137600Y-63400000D01*
X136127000Y-60260200D02*
X196997800Y-60260200D01*
X129051700Y-67335500D02*
X136127000Y-60260200D01*
X127900000Y-67335500D02*
X129051700Y-67335500D01*
%TO.N,/ESP32-C6-mini/F_BOUT1*%
D70*
X171155300Y-67805400D02*
X171155300Y-68937500D01*
X171062900Y-67713000D02*
X171155300Y-67805400D01*
%TO.N,/ESP32-C6-mini/F_AOUT2*%
X173105300Y-64495000D02*
X173105300Y-68937500D01*
X175700300Y-61900000D02*
X173105300Y-64495000D01*
%TO.N,/ESP32-C6-mini/F_AOUT1*%
X174405300Y-68169000D02*
X174405300Y-68937500D01*
X180674300Y-61900000D02*
X174405300Y-68169000D01*
X180780300Y-61900000D02*
X180674300Y-61900000D01*
%TO.N,/BATT_READ*%
D72*
X130087500Y-89300000D02*
X130087500Y-86850000D01*
X130087500Y-91750000D02*
X130087500Y-89300000D01*
X130137500Y-91800000D02*
X130087500Y-91750000D01*
%TO.N,Net-(D2-K)*%
X196863800Y-78413600D02*
X196863800Y-75913600D01*
X195461000Y-79816400D02*
X196863800Y-78413600D01*
X193393500Y-79816400D02*
X195461000Y-79816400D01*
X192659300Y-80550600D02*
X193393500Y-79816400D01*
X192659300Y-82326400D02*
X192659300Y-80550600D01*
X190885200Y-84100500D02*
X192659300Y-82326400D01*
X190595800Y-84100500D02*
X190885200Y-84100500D01*
X187801500Y-86894800D02*
X190595800Y-84100500D01*
X187801500Y-87295000D02*
X187801500Y-86894800D01*
X185201400Y-89895100D02*
X187801500Y-87295000D01*
X183036300Y-89895100D02*
X185201400Y-89895100D01*
X182644400Y-89503200D02*
X183036300Y-89895100D01*
X182644400Y-84245500D02*
X182644400Y-89503200D01*
X184051300Y-82838600D02*
X182644400Y-84245500D01*
%TO.N,Net-(Q1-D)*%
X205600000Y-66503700D02*
X205600000Y-60087500D01*
X205658800Y-66562500D02*
X205600000Y-66503700D01*
%TO.N,Net-(D1-K)*%
X159973800Y-92248800D02*
X160225000Y-92500000D01*
X149425000Y-92248800D02*
X159973800Y-92248800D01*
X149425000Y-91510000D02*
X149425000Y-92248800D01*
X148325000Y-90410000D02*
X149425000Y-91510000D01*
X149425000Y-92248800D02*
X149425000Y-93500000D01*
X148960000Y-89775000D02*
X148325000Y-90410000D01*
X159923300Y-89775000D02*
X148960000Y-89775000D01*
X162325000Y-87373300D02*
X159923300Y-89775000D01*
%TO.N,/VSNS*%
X146037500Y-84600000D02*
X148012500Y-84600000D01*
X153681400Y-86600000D02*
X153275000Y-86600000D01*
X154559200Y-87477800D02*
X153681400Y-86600000D01*
X154559200Y-88299600D02*
X154559200Y-87477800D01*
X154353800Y-88505000D02*
X154559200Y-88299600D01*
X151917500Y-88505000D02*
X154353800Y-88505000D01*
X148012500Y-84600000D02*
X151917500Y-88505000D01*
%TO.N,Net-(U1-BOOT)*%
D70*
X160035000Y-90410000D02*
X162125000Y-92500000D01*
X153275000Y-90410000D02*
X160035000Y-90410000D01*
%TO.N,Net-(D4-A)*%
D72*
X165475000Y-91662500D02*
X167437500Y-89700000D01*
X165475000Y-92500000D02*
X165475000Y-91662500D01*
%TO.N,Net-(Q3-B)*%
X212937500Y-104587500D02*
X212937500Y-105050000D01*
X210975000Y-102625000D02*
X212937500Y-104587500D01*
X210975000Y-101200000D02*
X210975000Y-102625000D01*
%TO.N,/ESP32-C6-mini/S4*%
D70*
X127305000Y-96885000D02*
X125900000Y-95480000D01*
X135015000Y-96885000D02*
X127305000Y-96885000D01*
X135650000Y-97520000D02*
X135015000Y-96885000D01*
%TO.N,/ESP32-C6-mini/S3*%
X132856600Y-98790000D02*
X132668300Y-98601700D01*
X135650000Y-98790000D02*
X132856600Y-98790000D01*
%TO.N,/ESP32-C6-mini/S2*%
X135186000Y-99596000D02*
X135650000Y-100060000D01*
X133255300Y-99596000D02*
X135186000Y-99596000D01*
%TO.N,/ESP32-C6-mini/S1*%
X135650000Y-101330000D02*
X134257900Y-101330000D01*
%TO.N,/ESP32-C6-mini/NEAR*%
X128940000Y-100060000D02*
X125900000Y-103100000D01*
X130500000Y-100060000D02*
X128940000Y-100060000D01*
%TO.N,/ESP32-C6-mini/CLP*%
X127670000Y-98790000D02*
X125900000Y-100560000D01*
X130500000Y-98790000D02*
X127670000Y-98790000D01*
%TO.N,/ESP32-C6-mini/S5*%
X126400000Y-97520000D02*
X125900000Y-98020000D01*
X130500000Y-97520000D02*
X126400000Y-97520000D01*
%TO.N,Net-(D26-DOUT)*%
D72*
X160148600Y-109561300D02*
X160148600Y-110754400D01*
X160709500Y-109000400D02*
X160148600Y-109561300D01*
X164021200Y-109000400D02*
X160709500Y-109000400D01*
X164675200Y-109654400D02*
X164021200Y-109000400D01*
X165326900Y-109654400D02*
X164675200Y-109654400D01*
X159496900Y-110754400D02*
X160148600Y-110754400D01*
%TO.N,/ESP32-C6-mini/DTR*%
X212937500Y-101337500D02*
X212937500Y-103150000D01*
X212800000Y-101200000D02*
X212937500Y-101337500D01*
%TO.N,/ESP32-C6-mini/RTS*%
X164741500Y-101737500D02*
X164504000Y-101500000D01*
X164741500Y-104300000D02*
X164741500Y-101737500D01*
X190048400Y-94811900D02*
X190682800Y-94811900D01*
X165016000Y-102012000D02*
X180969800Y-102012000D01*
X164504000Y-101500000D02*
X165016000Y-102012000D01*
%TO.N,/ESP32-C6-mini/TXS*%
X191410100Y-97499400D02*
X190735900Y-97499400D01*
X191981400Y-96928100D02*
X191410100Y-97499400D01*
X193779100Y-96928100D02*
X191981400Y-96928100D01*
X195006600Y-95700600D02*
X193779100Y-96928100D01*
%TO.N,/ESP32-C6-mini/RXS*%
D70*
X195855300Y-98979300D02*
X195855300Y-99017400D01*
X195031600Y-98155600D02*
X195855300Y-98979300D01*
X190735900Y-97999400D02*
X191690200Y-97999400D01*
%TO.N,/ESP32-C6-mini/USB_D-*%
D72*
X185420300Y-97794400D02*
X184543400Y-97794400D01*
X186215300Y-96999400D02*
X185420300Y-97794400D01*
X186860900Y-96999400D02*
X186215300Y-96999400D01*
%TO.N,/ESP32-C6-mini/USB_D+*%
X185444100Y-95894400D02*
X184543400Y-95894400D01*
X186049100Y-96499400D02*
X185444100Y-95894400D01*
X186860900Y-96499400D02*
X186049100Y-96499400D01*
%TO.N,Net-(D18-DOUT)*%
X208350000Y-111010400D02*
X208350000Y-109827200D01*
X207763500Y-111596900D02*
X208350000Y-111010400D01*
X204628100Y-111596900D02*
X207763500Y-111596900D01*
X203908400Y-110877200D02*
X204628100Y-111596900D01*
X203256700Y-110877200D02*
X203908400Y-110877200D01*
X209001700Y-109827200D02*
X208350000Y-109827200D01*
%TO.N,/CHRG*%
X188205400Y-74294000D02*
X187336700Y-74294000D01*
X188646300Y-74734900D02*
X188205400Y-74294000D01*
X188646300Y-75153600D02*
X188646300Y-74734900D01*
X197233700Y-74408500D02*
X191521800Y-74408500D01*
X198738800Y-75913600D02*
X197233700Y-74408500D01*
%TO.N,/STDBY*%
X189115500Y-74972800D02*
X189296300Y-75153600D01*
X189115500Y-72499000D02*
X189115500Y-74972800D01*
X189441600Y-72172900D02*
X189115500Y-72499000D01*
X196500500Y-72172900D02*
X189441600Y-72172900D01*
X199529200Y-75201600D02*
X196500500Y-72172900D01*
X199529200Y-77623200D02*
X199529200Y-75201600D01*
X198738800Y-78413600D02*
X199529200Y-77623200D01*
%TO.N,/TS*%
X198563800Y-83563600D02*
X198563800Y-81363600D01*
%TO.N,/CV-VREG*%
X189946300Y-73218600D02*
X189951300Y-73213600D01*
X189946300Y-75153600D02*
X189946300Y-73218600D01*
%TO.N,/VS*%
X190551300Y-79478600D02*
X190551300Y-81013600D01*
X189946300Y-78873600D02*
X190551300Y-79478600D01*
X188376300Y-82913600D02*
X186376300Y-82913600D01*
X186376300Y-82913600D02*
X186301300Y-82838600D01*
X186376300Y-85513600D02*
X184126300Y-87763600D01*
X186376300Y-82913600D02*
X186376300Y-85513600D01*
X188651300Y-82913600D02*
X188376300Y-82913600D01*
X190551300Y-81013600D02*
X188651300Y-82913600D01*
%TO.N,Net-(D32-DOUT)*%
X140023500Y-109102700D02*
X140675200Y-109754400D01*
X139021900Y-109102700D02*
X140023500Y-109102700D01*
X138845200Y-109279400D02*
X139021900Y-109102700D01*
X138845200Y-110480700D02*
X138845200Y-109279400D01*
X137775400Y-111550500D02*
X138845200Y-110480700D01*
X136844700Y-111550500D02*
X137775400Y-111550500D01*
X136148600Y-110854400D02*
X136844700Y-111550500D01*
X135496900Y-110854400D02*
X136148600Y-110854400D01*
X141326900Y-109754400D02*
X140675200Y-109754400D01*
%TO.N,Net-(D28-DOUT)*%
X157326900Y-109654400D02*
X156675200Y-109654400D01*
X155954200Y-108933400D02*
X156675200Y-109654400D01*
X152908900Y-108933400D02*
X155954200Y-108933400D01*
X152148600Y-109693700D02*
X152908900Y-108933400D01*
X152148600Y-110754400D02*
X152148600Y-109693700D01*
X151496900Y-110754400D02*
X152148600Y-110754400D01*
%TO.N,Net-(D24-DOUT)*%
X166845200Y-109179400D02*
X166845200Y-110754400D01*
X167052400Y-108972200D02*
X166845200Y-109179400D01*
X171993000Y-108972200D02*
X167052400Y-108972200D01*
X172675200Y-109654400D02*
X171993000Y-108972200D01*
X173326900Y-109654400D02*
X172675200Y-109654400D01*
X167496900Y-110754400D02*
X166845200Y-110754400D01*
%TO.N,Net-(D13-DOUT)*%
X222935000Y-109402200D02*
X222935000Y-110977200D01*
X223223600Y-109113600D02*
X222935000Y-109402200D01*
X228136400Y-109113600D02*
X223223600Y-109113600D01*
X228850000Y-109827200D02*
X228136400Y-109113600D01*
X229501700Y-109827200D02*
X228850000Y-109827200D01*
X223586700Y-110977200D02*
X222935000Y-110977200D01*
%TO.N,VDDA*%
X207800000Y-63350000D02*
X209050000Y-62100000D01*
X206675000Y-63350000D02*
X207800000Y-63350000D01*
X203350000Y-60900000D02*
X202037500Y-60900000D01*
X205243700Y-59006300D02*
X203350000Y-60900000D01*
X205956300Y-59006300D02*
X205243700Y-59006300D01*
X209050000Y-62100000D02*
X205956300Y-59006300D01*
%TO.N,/VC*%
X201190300Y-64247200D02*
X202037500Y-63400000D01*
X201190300Y-66595200D02*
X201190300Y-64247200D01*
X201647800Y-67052700D02*
X201190300Y-66595200D01*
X204711600Y-67052700D02*
X201647800Y-67052700D01*
X205302500Y-67643600D02*
X204711600Y-67052700D01*
X205965200Y-67643600D02*
X205302500Y-67643600D01*
X206975000Y-66633800D02*
X205965200Y-67643600D01*
X206975000Y-64600000D02*
X206975000Y-66633800D01*
X206675000Y-64300000D02*
X206975000Y-64600000D01*
X206975000Y-64600000D02*
X209050000Y-64600000D01*
%TO.N,/CS*%
X202800000Y-65900000D02*
X202037500Y-65900000D01*
X204400000Y-64300000D02*
X202800000Y-65900000D01*
%TO.N,/ESP32-C6-mini/TXD0*%
X241893800Y-96407900D02*
X240801700Y-97500000D01*
X249437900Y-96407900D02*
X241893800Y-96407900D01*
X251200000Y-98170000D02*
X249437900Y-96407900D01*
X240000000Y-97500000D02*
X240801700Y-97500000D01*
X240000000Y-97500000D02*
X238550000Y-97500000D01*
X252505000Y-65150000D02*
X251803300Y-65150000D01*
X235488000Y-94438000D02*
X238550000Y-97500000D01*
X216309100Y-94438000D02*
X235488000Y-94438000D01*
X215502300Y-93631200D02*
X216309100Y-94438000D01*
X189602300Y-93631200D02*
X215502300Y-93631200D01*
X189048400Y-94185100D02*
X189602300Y-93631200D01*
X189048400Y-94811900D02*
X189048400Y-94185100D01*
X251803300Y-65150000D02*
X251600100Y-65150000D01*
%TO.N,/ESP32-C6-mini/RXD0*%
D70*
X243050000Y-97500000D02*
X244500000Y-97500000D01*
X247990000Y-97500000D02*
X251200000Y-100710000D01*
X244500000Y-97500000D02*
X247990000Y-97500000D01*
X189548400Y-94289300D02*
X189548400Y-94811900D01*
X189765400Y-94072300D02*
X189548400Y-94289300D01*
X212777200Y-94072300D02*
X189765400Y-94072300D01*
X216220300Y-97515400D02*
X212777200Y-94072300D01*
X216633800Y-97515400D02*
X216220300Y-97515400D01*
X217706500Y-98588100D02*
X216633800Y-97515400D01*
X241961900Y-98588100D02*
X217706500Y-98588100D01*
X243050000Y-97500000D02*
X241961900Y-98588100D01*
X252505000Y-65950000D02*
X253519500Y-65950000D01*
%TO.N,/ESP32-C6-mini/DIN_EN*%
X236475000Y-104950000D02*
X236450000Y-104925000D01*
X238662500Y-104950000D02*
X236475000Y-104950000D01*
X252505000Y-66750000D02*
X251778300Y-66750000D01*
X251665600Y-66750000D02*
X251614500Y-66698900D01*
X251778300Y-66750000D02*
X251665600Y-66750000D01*
X238662500Y-104950000D02*
X245350800Y-104950000D01*
%TO.N,/ESP32-C6-mini/SLEEP*%
X252505000Y-67550000D02*
X251639200Y-67550000D01*
X175055300Y-68937500D02*
X175055300Y-69187200D01*
X153372900Y-70025400D02*
X152285000Y-68937500D01*
X174744100Y-70025400D02*
X153372900Y-70025400D01*
X175055300Y-69714200D02*
X174744100Y-70025400D01*
X175055300Y-69187200D02*
X175055300Y-69714200D01*
%TO.N,/ESP32-C6-mini/B_BIN2*%
X175644000Y-70522600D02*
X175771100Y-70395500D01*
X151128700Y-70522600D02*
X175644000Y-70522600D01*
X150969600Y-70363500D02*
X151128700Y-70522600D01*
X150651100Y-70363500D02*
X150969600Y-70363500D01*
X147206800Y-73807800D02*
X150651100Y-70363500D01*
X147206800Y-75491600D02*
X147206800Y-73807800D01*
X147487500Y-75772300D02*
X147206800Y-75491600D01*
X147995800Y-75772300D02*
X147487500Y-75772300D01*
X148385000Y-75383100D02*
X147995800Y-75772300D01*
X148385000Y-74662500D02*
X148385000Y-75383100D01*
X250958200Y-63195500D02*
X251494900Y-62658800D01*
X250958200Y-67705400D02*
X250958200Y-63195500D01*
X251602800Y-68350000D02*
X250958200Y-67705400D01*
X252505000Y-68350000D02*
X251602800Y-68350000D01*
%TO.N,/ESP32-C6-mini/B_BIN1*%
X252505000Y-69150000D02*
X244275400Y-69150000D01*
%TO.N,/ESP32-C6-mini/B_AIN2*%
X252505000Y-69950000D02*
X251594500Y-69950000D01*
%TO.N,/ESP32-C6-mini/B_AIN1*%
X155069800Y-71877700D02*
X152285000Y-74662500D01*
X176430500Y-71877700D02*
X155069800Y-71877700D01*
X176663300Y-71644900D02*
X176430500Y-71877700D01*
X185442600Y-71644900D02*
X176663300Y-71644900D01*
X185584800Y-71502700D02*
X185442600Y-71644900D01*
%TO.N,/ESP32-C6-mini/BOOT*%
X166704000Y-107200000D02*
X164704000Y-107200000D01*
X172704000Y-107200000D02*
X166704000Y-107200000D01*
X166704000Y-103450000D02*
X166704000Y-104151700D01*
X164438000Y-106934000D02*
X164704000Y-107200000D01*
X164438000Y-106417700D02*
X164438000Y-106934000D01*
X164034200Y-106417700D02*
X164438000Y-106417700D01*
X162866500Y-105250000D02*
X164034200Y-106417700D01*
X164438000Y-106417700D02*
X166704000Y-104151700D01*
X172704000Y-103450000D02*
X166704000Y-103450000D01*
X250605000Y-71735100D02*
X250605000Y-70850000D01*
X237755100Y-84637200D02*
X195431500Y-84637200D01*
X240666800Y-81725500D02*
X237755100Y-84637200D01*
X172704000Y-103450000D02*
X176618700Y-103450000D01*
%TO.N,/ESP32-C6-mini/F_BIN2*%
X248205000Y-70850000D02*
X248205000Y-70123300D01*
X244612500Y-70123300D02*
X244461100Y-69971900D01*
X248205000Y-70123300D02*
X244612500Y-70123300D01*
%TO.N,/ESP32-C6-mini/F_BIN1*%
X185311700Y-72329400D02*
X185402100Y-72239000D01*
X172141100Y-72329400D02*
X185311700Y-72329400D01*
X170505300Y-73965200D02*
X172141100Y-72329400D01*
X170505300Y-74662500D02*
X170505300Y-73965200D01*
%TO.N,/ESP32-C6-mini/D+*%
D72*
X235200000Y-97500000D02*
X233750000Y-97500000D01*
X231089700Y-94839700D02*
X233750000Y-97500000D01*
X214430800Y-94839700D02*
X231089700Y-94839700D01*
X240906800Y-77970400D02*
X220928800Y-77970400D01*
X242250000Y-76627200D02*
X240906800Y-77970400D01*
X242250000Y-76400000D02*
X242250000Y-76627200D01*
X244475000Y-76400000D02*
X242250000Y-76400000D01*
X244575000Y-76300000D02*
X244475000Y-76400000D01*
%TO.N,/ESP32-C6-mini/D-*%
X230725000Y-97500000D02*
X229275000Y-97500000D01*
X175055300Y-74662500D02*
X184678100Y-74662500D01*
X228955000Y-97180000D02*
X229275000Y-97500000D01*
X227969900Y-97180000D02*
X228955000Y-97180000D01*
X236587500Y-76500000D02*
X228506300Y-76500000D01*
X237615900Y-77528400D02*
X236587500Y-76500000D01*
X240736100Y-77528400D02*
X237615900Y-77528400D01*
X241300000Y-76964500D02*
X240736100Y-77528400D01*
X241300000Y-75783700D02*
X241300000Y-76964500D01*
X241923800Y-75159900D02*
X241300000Y-75783700D01*
X244926800Y-75159900D02*
X241923800Y-75159900D01*
X245805000Y-74281700D02*
X244926800Y-75159900D01*
X245969200Y-71715900D02*
X245805000Y-71551700D01*
X245969200Y-72713200D02*
X245969200Y-71715900D01*
X245805000Y-72877400D02*
X245969200Y-72713200D01*
X245805000Y-74281700D02*
X245805000Y-72877400D01*
X245805000Y-70850000D02*
X245805000Y-71551700D01*
%TO.N,/ESP32-C6-mini/SCL*%
D70*
X246525000Y-87830000D02*
X247101700Y-87830000D01*
X249100000Y-84130000D02*
X248500000Y-84130000D01*
X251300000Y-86330000D02*
X249100000Y-84130000D01*
X250748500Y-86881500D02*
X251300000Y-86330000D01*
X247807300Y-86881500D02*
X250748500Y-86881500D01*
X247101700Y-87587100D02*
X247807300Y-86881500D01*
X247101700Y-87830000D02*
X247101700Y-87587100D01*
X245005000Y-70850000D02*
X245005000Y-71712600D01*
%TO.N,/ESP32-C6-mini/GPIO1*%
X242605000Y-70850000D02*
X242605000Y-71576700D01*
X242110400Y-73600000D02*
X242750000Y-73600000D01*
X242750000Y-73600000D02*
X244750000Y-73600000D01*
X242750000Y-71721700D02*
X242605000Y-71576700D01*
X242750000Y-73600000D02*
X242750000Y-71721700D01*
X242110400Y-73600000D02*
X241976700Y-73600000D01*
X235619500Y-72155500D02*
X238400000Y-69375000D01*
X235619500Y-74385900D02*
X235619500Y-72155500D01*
X236060300Y-74826700D02*
X235619500Y-74385900D01*
X241013300Y-74826700D02*
X236060300Y-74826700D01*
X241976700Y-73863300D02*
X241013300Y-74826700D01*
X241976700Y-73600000D02*
X241976700Y-73863300D01*
%TO.N,/ESP32-C6-mini/GPIO0*%
X241805000Y-70850000D02*
X241805000Y-71576700D01*
X239375000Y-73600000D02*
X239375000Y-71576700D01*
X241805000Y-71576700D02*
X239375000Y-71576700D01*
X238776700Y-71576700D02*
X238400000Y-71200000D01*
X239375000Y-71576700D02*
X238776700Y-71576700D01*
X240250000Y-73600000D02*
X239375000Y-73600000D01*
X238500000Y-73600000D02*
X238400000Y-73700000D01*
X239375000Y-73600000D02*
X238500000Y-73600000D01*
%TO.N,/ESP32-C6-mini/LD*%
X136570400Y-95615000D02*
X136852300Y-95896900D01*
X131135000Y-95615000D02*
X136570400Y-95615000D01*
X130500000Y-94980000D02*
X131135000Y-95615000D01*
X136459900Y-106272800D02*
X141600000Y-106272800D01*
X134358200Y-104171100D02*
X136459900Y-106272800D01*
X134358200Y-103598300D02*
X134358200Y-104171100D01*
X134721500Y-103235000D02*
X134358200Y-103598300D01*
X136616400Y-103235000D02*
X134721500Y-103235000D01*
X136852300Y-102999100D02*
X136616400Y-103235000D01*
X136852300Y-95896900D02*
X136852300Y-102999100D01*
X136852300Y-95896900D02*
X181065000Y-95896900D01*
X240705000Y-69150000D02*
X239978300Y-69150000D01*
X239358200Y-68529900D02*
X210722900Y-68529900D01*
X239978300Y-69150000D02*
X239358200Y-68529900D01*
%TO.N,/ESP32-C6-mini/DATA*%
X147197200Y-103870000D02*
X149600000Y-106272800D01*
X135650000Y-103870000D02*
X147197200Y-103870000D01*
X241469200Y-68312500D02*
X241431700Y-68350000D01*
X241618100Y-68312500D02*
X241469200Y-68312500D01*
X240705000Y-68350000D02*
X241431700Y-68350000D01*
X176099900Y-106954000D02*
X185815900Y-106954000D01*
X174721700Y-108332200D02*
X176099900Y-106954000D01*
X151659400Y-108332200D02*
X174721700Y-108332200D01*
X149600000Y-106272800D02*
X151659400Y-108332200D01*
%TO.N,/ESP32-C6-mini/DIN*%
X240403000Y-110872600D02*
X240348400Y-110927200D01*
X240586700Y-110872600D02*
X240403000Y-110872600D01*
X239671700Y-110927200D02*
X240348400Y-110927200D01*
X240586700Y-109500100D02*
X240586700Y-110872600D01*
X239102700Y-108016100D02*
X240586700Y-109500100D01*
X225128900Y-108016100D02*
X239102700Y-108016100D01*
X223200000Y-106087200D02*
X225128900Y-108016100D01*
X240705000Y-65150000D02*
X241431700Y-65150000D01*
X241431700Y-65453300D02*
X241570800Y-65592400D01*
X241431700Y-65150000D02*
X241431700Y-65453300D01*
%TO.N,Net-(D19-DOUT)*%
D72*
X205086700Y-109777200D02*
X204435000Y-109777200D01*
X198605000Y-110252200D02*
X198781700Y-110428900D01*
X198605000Y-109302200D02*
X198605000Y-110252200D01*
X198781700Y-109125500D02*
X198605000Y-109302200D01*
X203783300Y-109125500D02*
X198781700Y-109125500D01*
X204435000Y-109777200D02*
X203783300Y-109125500D01*
%TO.N,/CC1*%
X186950000Y-109704100D02*
X186950000Y-108615000D01*
X187150000Y-109904100D02*
X186950000Y-109704100D01*
X220185000Y-85977100D02*
X208905500Y-85977100D01*
X221043600Y-86835700D02*
X220185000Y-85977100D01*
X221043600Y-88866400D02*
X221043600Y-86835700D01*
X221758400Y-89581200D02*
X221043600Y-88866400D01*
X222256400Y-89581200D02*
X221758400Y-89581200D01*
%TO.N,/CC2*%
X219654000Y-90581200D02*
X219493200Y-90742000D01*
X222256400Y-90581200D02*
X219654000Y-90581200D01*
X213998200Y-100783500D02*
X212624900Y-99410200D01*
X213998200Y-105441400D02*
X213998200Y-100783500D01*
X213474400Y-105965200D02*
X213998200Y-105441400D01*
X212409800Y-105965200D02*
X213474400Y-105965200D01*
X211850000Y-106525000D02*
X212409800Y-105965200D01*
X211850000Y-107721500D02*
X211850000Y-106525000D01*
X211373500Y-108198000D02*
X211850000Y-107721500D01*
X195535800Y-108198000D02*
X211373500Y-108198000D01*
X192767400Y-110966400D02*
X195535800Y-108198000D01*
X190749800Y-110966400D02*
X192767400Y-110966400D01*
X189950000Y-110166600D02*
X190749800Y-110966400D01*
X189950000Y-108615000D02*
X189950000Y-110166600D01*
%TO.N,/D-*%
X187450000Y-107835000D02*
X187450000Y-108615000D01*
X187761700Y-107523300D02*
X187450000Y-107835000D01*
X190195400Y-106097300D02*
X207898700Y-106097300D01*
X188450000Y-107842700D02*
X190195400Y-106097300D01*
X188450000Y-108615000D02*
X188450000Y-107842700D01*
X188130600Y-107523300D02*
X187761700Y-107523300D01*
X188450000Y-107842700D02*
X188130600Y-107523300D01*
X182269900Y-97795900D02*
X182268400Y-97794400D01*
X182269900Y-102031500D02*
X182269900Y-97795900D01*
X187761700Y-107523300D02*
X182269900Y-102031500D01*
X220258100Y-93634600D02*
X220479000Y-93413700D01*
X218203100Y-93634600D02*
X220258100Y-93634600D01*
X217725000Y-93156500D02*
X218203100Y-93634600D01*
X217725000Y-91324800D02*
X217725000Y-93156500D01*
X216981400Y-90581200D02*
X217725000Y-91324800D01*
X238412500Y-76267200D02*
X237628100Y-75482800D01*
X238412500Y-76500000D02*
X238412500Y-76267200D01*
%TO.N,/D+*%
X188681100Y-109642000D02*
X188074900Y-109642000D01*
X188950000Y-109373100D02*
X188681100Y-109642000D01*
X188950000Y-108615000D02*
X188950000Y-109373100D01*
X187950100Y-109517200D02*
X188074900Y-109642000D01*
X187950100Y-108615000D02*
X187950100Y-109517200D01*
X187950000Y-108615000D02*
X187950100Y-108615000D01*
X181862200Y-95894400D02*
X182268400Y-95894400D01*
X181253200Y-96503400D02*
X181862200Y-95894400D01*
X181253200Y-100796800D02*
X181253200Y-96503400D01*
X181868200Y-101411800D02*
X181253200Y-100796800D01*
X181868200Y-102226000D02*
X181868200Y-101411800D01*
X186403000Y-106760800D02*
X181868200Y-102226000D01*
X186403000Y-107147600D02*
X186403000Y-106760800D01*
X186004500Y-107546100D02*
X186403000Y-107147600D01*
X184125100Y-107546100D02*
X186004500Y-107546100D01*
X183045800Y-108625400D02*
X184125100Y-107546100D01*
X183045800Y-110379700D02*
X183045800Y-108625400D01*
X183605800Y-110939700D02*
X183045800Y-110379700D01*
X187060000Y-110939700D02*
X183605800Y-110939700D01*
X188074900Y-109924800D02*
X187060000Y-110939700D01*
X188074900Y-109642000D02*
X188074900Y-109924800D01*
X215352500Y-89581200D02*
X216981400Y-89581200D01*
X214543000Y-90390700D02*
X215352500Y-89581200D01*
X214278500Y-90390700D02*
X214543000Y-90390700D01*
X213347400Y-91321800D02*
X214278500Y-90390700D01*
X213347400Y-93186000D02*
X213347400Y-91321800D01*
X184976800Y-93186000D02*
X213347400Y-93186000D01*
X182268400Y-95894400D02*
X184976800Y-93186000D01*
X246400000Y-76772500D02*
X246400000Y-76300000D01*
X229136200Y-94036300D02*
X246400000Y-76772500D01*
X216675600Y-94036300D02*
X229136200Y-94036300D01*
X215825300Y-93186000D02*
X216675600Y-94036300D01*
X213347400Y-93186000D02*
X215825300Y-93186000D01*
%TO.N,/ESP32-C6-mini/GPIO8*%
D70*
X249805000Y-72570000D02*
X249805000Y-70850000D01*
X248675000Y-73700000D02*
X249805000Y-72570000D01*
%TO.N,VDD*%
D72*
X216457500Y-86581200D02*
X216981400Y-86581200D01*
X215840800Y-87197900D02*
X216457500Y-86581200D01*
X215840800Y-87973900D02*
X215840800Y-87197900D01*
X216448100Y-88581200D02*
X215840800Y-87973900D01*
X216981400Y-88581200D02*
X216448100Y-88581200D01*
X219356800Y-91918200D02*
X218675000Y-92600000D01*
X218194200Y-90755600D02*
X219356800Y-91918200D01*
X218194200Y-89296000D02*
X218194200Y-90755600D01*
X217479400Y-88581200D02*
X218194200Y-89296000D01*
X216981400Y-88581200D02*
X217479400Y-88581200D01*
X222731900Y-91918200D02*
X224568900Y-90081200D01*
X219356800Y-91918200D02*
X222731900Y-91918200D01*
%TO.N,/ESP32-C6-mini/SDA*%
D70*
X247376000Y-89630000D02*
X248500000Y-89630000D01*
X245948300Y-88202300D02*
X247376000Y-89630000D01*
X245948300Y-87180000D02*
X245948300Y-88202300D01*
X246525000Y-87180000D02*
X245948300Y-87180000D01*
X244205000Y-71780500D02*
X244205000Y-70850000D01*
X244909200Y-72484700D02*
X244205000Y-71780500D01*
X245417500Y-72484700D02*
X244909200Y-72484700D01*
%TO.N,Net-(D7-A)*%
D72*
X199563600Y-97499200D02*
X198868400Y-98194400D01*
X199563600Y-94867100D02*
X199563600Y-97499200D01*
X199264100Y-94567600D02*
X199563600Y-94867100D01*
X194264600Y-94567600D02*
X199264100Y-94567600D01*
X193131600Y-95700600D02*
X194264600Y-94567600D01*
%TO.N,/LX*%
X187111300Y-77338600D02*
X187111300Y-76688600D01*
X186304400Y-75354800D02*
X186304500Y-75354800D01*
X186304400Y-76327800D02*
X186304400Y-75354800D01*
X186665200Y-76688600D02*
X186304400Y-76327800D01*
X187111300Y-76688600D02*
X186665200Y-76688600D01*
X191832300Y-86107600D02*
X190176300Y-87763600D01*
X191832300Y-85788600D02*
X191832300Y-86107600D01*
X193876300Y-85788600D02*
X191832300Y-85788600D01*
X191477700Y-85434000D02*
X191477700Y-85263500D01*
X191832300Y-85788600D02*
X191477700Y-85434000D01*
%TO.N,/ESP32-C6-mini/EN*%
D70*
X202900000Y-103450000D02*
X208900000Y-103450000D01*
X201125000Y-107200000D02*
X201025000Y-107100000D01*
X202900000Y-107200000D02*
X201125000Y-107200000D01*
X210800000Y-107200000D02*
X210900000Y-107100000D01*
X208900000Y-107200000D02*
X210800000Y-107200000D01*
X202900000Y-107200000D02*
X208900000Y-107200000D01*
X210900000Y-104262500D02*
X210900000Y-107100000D01*
X211062500Y-104100000D02*
X210900000Y-104262500D01*
X240705000Y-67550000D02*
X239978300Y-67550000D01*
X238408900Y-65756700D02*
X237819400Y-65756700D01*
X239978300Y-67326100D02*
X238408900Y-65756700D01*
X239978300Y-67550000D02*
X239978300Y-67326100D01*
X237550200Y-65487500D02*
X237819400Y-65756700D01*
X236200000Y-65487500D02*
X237550200Y-65487500D01*
X238118300Y-65756700D02*
X238425000Y-65450000D01*
X237819400Y-65756700D02*
X238118300Y-65756700D01*
X209551000Y-103450000D02*
X209551000Y-102609500D01*
X208900000Y-103450000D02*
X209551000Y-103450000D01*
X210412500Y-103450000D02*
X211062500Y-104100000D01*
X209551000Y-103450000D02*
X210412500Y-103450000D01*
%TO.N,/ESP32-C6-mini/sensors/F_VCP*%
D72*
X170383300Y-76762500D02*
X170280300Y-76762500D01*
X171805300Y-75340500D02*
X170383300Y-76762500D01*
X171805300Y-74662500D02*
X171805300Y-75340500D01*
%TO.N,Net-(D14-DOUT)*%
X226068400Y-111452200D02*
X226068400Y-109877200D01*
X225873700Y-111646900D02*
X226068400Y-111452200D01*
X221008100Y-111646900D02*
X225873700Y-111646900D01*
X220238400Y-110877200D02*
X221008100Y-111646900D01*
X219586700Y-110877200D02*
X220238400Y-110877200D01*
X225416700Y-109877200D02*
X226068400Y-109877200D01*
%TO.N,Net-(D15-DOUT)*%
X214935000Y-109302200D02*
X214935000Y-110877200D01*
X215133900Y-109103300D02*
X214935000Y-109302200D01*
X220091100Y-109103300D02*
X215133900Y-109103300D01*
X220765000Y-109777200D02*
X220091100Y-109103300D01*
X221416700Y-109777200D02*
X220765000Y-109777200D01*
X215586700Y-110877200D02*
X214935000Y-110877200D01*
%TO.N,VBUS*%
D71*
X187786500Y-78663800D02*
X187996300Y-78873600D01*
D77*
X222355600Y-88482000D02*
X222256400Y-88581200D01*
X223609600Y-88482000D02*
X222355600Y-88482000D01*
D76*
X226393900Y-89382800D02*
X226393900Y-90081200D01*
X225493100Y-88482000D02*
X226393900Y-89382800D01*
X226393900Y-87581200D02*
X225493100Y-88482000D01*
X225493100Y-88482000D02*
X223609600Y-88482000D01*
X224568900Y-87581200D02*
X226393900Y-87581200D01*
X194455900Y-100694400D02*
X194543400Y-100781900D01*
D78*
X188048400Y-99701500D02*
X188048400Y-98686900D01*
D76*
X200757900Y-98242100D02*
X216332800Y-98242100D01*
X198218100Y-100781900D02*
X200757900Y-98242100D01*
X194543400Y-100781900D02*
X198218100Y-100781900D01*
X226393900Y-90174500D02*
X226393900Y-90081200D01*
X224118000Y-92450400D02*
X226393900Y-90174500D01*
X223853600Y-92450400D02*
X224118000Y-92450400D01*
%TO.N,/ESP32-C6-mini/user_interface/ULED*%
D72*
X237501700Y-112257200D02*
X237671700Y-112427200D01*
%TO.N,+5V*%
D76*
X236550000Y-106850000D02*
X238662500Y-106850000D01*
X236450000Y-106750000D02*
X236550000Y-106850000D01*
X151775000Y-84600000D02*
X149837500Y-84600000D01*
X217150000Y-83333400D02*
X217350000Y-83133400D01*
X214950000Y-83333400D02*
X217150000Y-83333400D01*
%TO.N,+BATT*%
D72*
X147735000Y-89730000D02*
X148325000Y-89140000D01*
X146075000Y-89730000D02*
X147735000Y-89730000D01*
X172455300Y-76437500D02*
X172455300Y-74662500D01*
X172780300Y-76762500D02*
X172455300Y-76437500D01*
X172180300Y-76762500D02*
X170280300Y-78662500D01*
X172780300Y-76762500D02*
X172180300Y-76762500D01*
X185049400Y-79761700D02*
X186301300Y-81013600D01*
X179619700Y-79761700D02*
X185049400Y-79761700D01*
X177570500Y-77712500D02*
X179619700Y-79761700D01*
X173730300Y-77712500D02*
X177570500Y-77712500D01*
X172780300Y-76762500D02*
X173730300Y-77712500D01*
X169188700Y-77570900D02*
X170280300Y-78662500D01*
X150843400Y-77570900D02*
X169188700Y-77570900D01*
X150035000Y-76762500D02*
X150843400Y-77570900D01*
X195548100Y-81363600D02*
X195306300Y-81605400D01*
X196738800Y-81363600D02*
X195548100Y-81363600D01*
X194059500Y-81605400D02*
X193876300Y-81788600D01*
X195306300Y-81605400D02*
X194059500Y-81605400D01*
X198912400Y-60900000D02*
X198700400Y-61112000D01*
X200212500Y-60900000D02*
X198912400Y-60900000D01*
%TO.N,+3.3V*%
D74*
X238350000Y-63550000D02*
X238400000Y-63500000D01*
X236200000Y-63550000D02*
X238350000Y-63550000D01*
X217183400Y-81000000D02*
X217350000Y-80833400D01*
X215000000Y-81000000D02*
X217183400Y-81000000D01*
X238450000Y-63550000D02*
X238400000Y-63500000D01*
X240705000Y-63550000D02*
X238450000Y-63550000D01*
%TO.N,GND*%
D73*
X238350000Y-61650000D02*
X238400000Y-61600000D01*
X236200000Y-61650000D02*
X238350000Y-61650000D01*
X238750000Y-61950000D02*
X238400000Y-61600000D01*
X240705000Y-61950000D02*
X238750000Y-61950000D01*
X239853300Y-69950000D02*
X239853300Y-70900000D01*
X246605000Y-67925000D02*
X248580000Y-67925000D01*
X246605000Y-65950000D02*
X248580000Y-65950000D01*
X244630000Y-67925000D02*
X246605000Y-67925000D01*
X244630000Y-65950000D02*
X246605000Y-65950000D01*
D75*
X241805000Y-61050000D02*
X242605000Y-61050000D01*
X242605000Y-61050000D02*
X243405000Y-61050000D01*
X243405000Y-61050000D02*
X244205000Y-61050000D01*
X244205000Y-61050000D02*
X245005000Y-61050000D01*
X245005000Y-61050000D02*
X245805000Y-61050000D01*
X245805000Y-61050000D02*
X246605000Y-61050000D01*
X246605000Y-61050000D02*
X247405000Y-61050000D01*
X247405000Y-61050000D02*
X248205000Y-61050000D01*
X248205000Y-61050000D02*
X249005000Y-61050000D01*
X249005000Y-61050000D02*
X249805000Y-61050000D01*
X249805000Y-61050000D02*
X250605000Y-61050000D01*
X250605000Y-61050000D02*
X251405000Y-61050000D01*
D73*
X240705000Y-69950000D02*
X239853300Y-69950000D01*
X240655000Y-70900000D02*
X239853300Y-70900000D01*
X241556700Y-62750000D02*
X241556700Y-61950000D01*
X240705000Y-62750000D02*
X241556700Y-62750000D01*
X240705000Y-61950000D02*
X241556700Y-61950000D01*
X244630000Y-63975000D02*
X246605000Y-63975000D01*
X241556700Y-61308500D02*
X241556700Y-61950000D01*
X241616300Y-61248900D02*
X241556700Y-61308500D01*
D75*
X241805000Y-61060200D02*
X241805000Y-61050000D01*
X241616300Y-61248900D02*
X241805000Y-61060200D01*
D73*
X210690000Y-110160000D02*
X211000000Y-110160000D01*
X211000000Y-110160000D02*
X211293495Y-109866505D01*
%TO.N,/ESP32-C6-mini/D+*%
D72*
X249201100Y-77537900D02*
X248204100Y-77537900D01*
X249558100Y-75815000D02*
X249558100Y-77180900D01*
X247797800Y-74329600D02*
X248574500Y-75106300D01*
X247797800Y-73047800D02*
X247797800Y-74329600D01*
X247002400Y-72252400D02*
X247797800Y-73047800D01*
X248574500Y-75106300D02*
X248849400Y-75106300D01*
X246613500Y-71863500D02*
X246613500Y-71930218D01*
X248849400Y-75106300D02*
X249558100Y-75815000D01*
X248204100Y-77537900D02*
X247453300Y-76787100D01*
X246613500Y-71930218D02*
X246935682Y-72252400D01*
X249558100Y-77180900D02*
X249201100Y-77537900D01*
X246837900Y-75243900D02*
X245631100Y-75243900D01*
X246935682Y-72252400D02*
X247002400Y-72252400D01*
X246605000Y-71855000D02*
X246613500Y-71863500D01*
X246605000Y-70850000D02*
X246605000Y-71855000D01*
X247453300Y-76787100D02*
X247453300Y-75859300D01*
X247453300Y-75859300D02*
X247212500Y-75618500D01*
X247212500Y-75618500D02*
X247212500Y-75615256D01*
X247212500Y-75615256D02*
X246897244Y-75300000D01*
X246897244Y-75300000D02*
X246894000Y-75300000D01*
X246894000Y-75300000D02*
X246837900Y-75243900D01*
X245631100Y-75243900D02*
X244575000Y-76300000D01*
%TD*%
%TA.AperFunction,Conductor*%
%TO.N,GND*%
G36*
X189143039Y-79744685D02*
G01*
X189188794Y-79797489D01*
X189200000Y-79849000D01*
X189200000Y-81601000D01*
X189180315Y-81668039D01*
X189127511Y-81713794D01*
X189076000Y-81725000D01*
X187824000Y-81725000D01*
X187756961Y-81705315D01*
X187711206Y-81652511D01*
X187700000Y-81601000D01*
X187700000Y-80625400D01*
X187719685Y-80558361D01*
X187772489Y-80512606D01*
X187824000Y-80501400D01*
X187905890Y-80501400D01*
X187905892Y-80501400D01*
X188033186Y-80467292D01*
X188147314Y-80401400D01*
X188240500Y-80308214D01*
X188306392Y-80194086D01*
X188340500Y-80066792D01*
X188340500Y-79935008D01*
X188326053Y-79881090D01*
X188327716Y-79811244D01*
X188366878Y-79753381D01*
X188431107Y-79725877D01*
X188445828Y-79725000D01*
X189076000Y-79725000D01*
X189143039Y-79744685D01*
G37*
%TD.AperFunction*%
%TD*%
%TA.AperFunction,Conductor*%
%TO.N,GND*%
G36*
X252243039Y-81369685D02*
G01*
X252288794Y-81422489D01*
X252300000Y-81474000D01*
X252300000Y-84660108D01*
X252280315Y-84727147D01*
X252227511Y-84772902D01*
X252176000Y-84784108D01*
X250690060Y-84784108D01*
X250623021Y-84764423D01*
X250602379Y-84747789D01*
X250236319Y-84381729D01*
X250202834Y-84320406D01*
X250200000Y-84294048D01*
X250200000Y-81474000D01*
X250219685Y-81406961D01*
X250272489Y-81361206D01*
X250324000Y-81350000D01*
X252176000Y-81350000D01*
X252243039Y-81369685D01*
G37*
%TD.AperFunction*%
%TD*%
M02*
