M48
; DRILL file KiCad 10.0.2-1.fc43 date 2026-05-25T12:00:33
; FORMAT={-:-/ absolute / metric / decimal}
; #@! TF.CreationDate,2026-05-25T12:00:33+02:00
; #@! TF.GenerationSoftware,Kicad,Pcbnew,10.0.2-1.fc43
; #@! TF.FileFunction,Plated,1,4,PTH
FMAT,2
METRIC
; #@! TA.AperFunction,Plated,PTH,ViaDrill
T1C0.300
; #@! TA.AperFunction,Plated,PTH,ViaDrill
T2C0.400
; #@! TA.AperFunction,Plated,PTH,ComponentDrill
T3C0.600
; #@! TA.AperFunction,Plated,PTH,ComponentDrill
T4C0.950
; #@! TA.AperFunction,Plated,PTH,ComponentDrill
T5C1.000
; #@! TA.AperFunction,Plated,PTH,ComponentDrill
T6C1.270
; #@! TA.AperFunction,Plated,PTH,ComponentDrill
T7C1.300
%
G90
G05
T1
X124.978Y-76.338
X126.11Y-76.37
X127.32Y-76.35
X127.61Y-105.63
X128.52Y-76.34
X129.61Y-76.33
X129.9Y-64.65
X130.52Y-104.8
X130.67Y-76.31
X132.668Y-98.602
X133.04Y-89.29
X133.07Y-96.3
X133.18Y-86.85
X133.255Y-99.596
X133.34Y-91.81
X134.258Y-101.33
X135.477Y-109.114
X136.49Y-113.02
X137.59Y-94.99
X137.94Y-113.1
X137.959Y-110.517
X138.95Y-81.7
X138.97Y-80.83
X139.0Y-78.83
X139.01Y-79.87
X139.04Y-77.15
X139.05Y-77.96
X139.1Y-76.32
X139.91Y-109.98
X140.047Y-111.87
X141.79Y-111.3
X142.13Y-89.74
X142.15Y-88.87
X142.18Y-86.87
X142.19Y-87.91
X142.22Y-85.19
X142.23Y-86.0
X142.28Y-84.36
X142.29Y-112.35
X144.003Y-110.047
X144.43Y-112.92
X145.7Y-111.24
X145.94Y-112.78
X146.025Y-88.438
X146.04Y-85.98
X147.56Y-79.93
X147.79Y-109.88
X148.01Y-112.75
X148.292Y-67.716
X148.51Y-70.5
X148.98Y-77.32
X149.31Y-79.61
X149.96Y-88.28
X150.06Y-112.75
X150.23Y-110.57
X150.31Y-73.38
X150.62Y-83.1
X151.01Y-67.44
X151.1Y-109.89
X152.01Y-112.69
X153.63Y-83.27
X153.67Y-78.67
X153.8Y-111.26
X153.92Y-112.76
X154.66Y-109.9
X154.87Y-104.54
X155.8Y-93.19
X156.14Y-111.9
X157.86Y-111.22
X158.2Y-86.1
X158.2Y-87.2
X158.2Y-88.2
X158.274Y-112.271
X158.76Y-109.83
X160.14Y-112.61
X161.78Y-106.22
X161.8Y-111.24
X161.98Y-112.68
X162.67Y-109.9
X164.17Y-111.92
X165.63Y-88.27
X165.97Y-110.78
X166.184Y-112.271
X168.125Y-110.051
X168.18Y-112.66
X168.41Y-92.51
X169.94Y-110.77
X170.12Y-112.25
X170.74Y-109.9
X171.063Y-67.713
X171.708Y-67.032
X172.09Y-112.59
X172.78Y-79.86
X173.14Y-73.354
X173.93Y-110.76
X173.97Y-67.67
X174.07Y-112.27
X174.453Y-73.076
X175.34Y-79.95
X175.771Y-70.395
X176.12Y-112.53
X176.14Y-109.67
X176.619Y-103.45
X178.03Y-110.75
X178.21Y-112.26
X179.11Y-109.94
X180.16Y-112.59
X180.97Y-102.012
X181.065Y-95.897
X181.92Y-110.74
X182.15Y-112.27
X182.31Y-75.92
X182.41Y-78.06
X182.99Y-80.54
X183.03Y-97.095
X183.96Y-61.79
X184.53Y-99.88
X184.678Y-74.662
X184.69Y-59.82
X184.83Y-109.389
X185.06Y-103.63
X185.402Y-72.239
X185.427Y-96.777
X185.44Y-67.48
X185.53Y-78.97
X185.585Y-71.503
X185.673Y-76.687
X185.816Y-106.954
X185.85Y-109.433
X186.0Y-95.6
X186.1Y-98.96
X186.304Y-75.355
X186.75Y-78.9
X187.07Y-73.25
X187.15Y-109.904
X187.19Y-75.33
X187.328Y-71.093
X187.337Y-74.294
X187.373Y-81.937
X187.77Y-103.76
X187.84Y-80.001
X188.048Y-99.701
X188.32Y-96.19
X189.75Y-103.71
X189.95Y-99.9
X190.421Y-107.411
X190.6Y-75.39
X190.683Y-94.812
X191.42Y-107.01
X191.478Y-85.263
X191.522Y-74.409
X191.54Y-58.61
X191.601Y-75.473
X191.605Y-77.417
X191.66Y-82.08
X191.69Y-97.999
X192.1Y-57.7
X192.29Y-103.42
X192.49Y-99.89
X193.501Y-76.339
X193.502Y-77.639
X194.75Y-110.0
X194.77Y-99.91
X195.306Y-81.605
X195.431Y-84.637
X195.46Y-103.37
X195.85Y-112.63
X195.855Y-99.017
X195.856Y-74.99
X195.856Y-77.83
X195.906Y-76.78
X197.33Y-101.78
X197.5Y-77.3
X197.58Y-82.61
X197.65Y-110.92
X197.76Y-95.16
X197.8Y-57.2
X197.82Y-97.33
X197.89Y-112.27
X197.96Y-107.12
X198.156Y-61.6
X199.896Y-109.716
X199.949Y-112.63
X201.76Y-110.82
X201.81Y-69.59
X202.03Y-112.31
X202.59Y-109.87
X203.5Y-58.16
X203.91Y-112.61
X205.78Y-110.85
X205.87Y-112.23
X206.224Y-70.759
X207.08Y-61.41
X207.574Y-68.774
X207.73Y-109.83
X207.82Y-112.63
X207.899Y-106.097
X208.905Y-85.977
X209.551Y-102.609
X209.76Y-110.92
X209.76Y-112.33
X210.138Y-92.592
X210.16Y-63.62
X210.69Y-110.16
X210.723Y-68.53
X211.97Y-111.92
X212.03Y-62.11
X212.08Y-81.01
X212.11Y-83.36
X212.625Y-99.41
X213.59Y-87.8
X213.762Y-65.598
X213.83Y-111.01
X213.97Y-112.31
X214.05Y-107.12
X214.431Y-94.84
X215.03Y-91.31
X215.3Y-79.3
X215.85Y-92.25
X216.177Y-112.729
X216.219Y-109.653
X216.333Y-98.242
X217.4Y-77.02
X217.98Y-110.84
X218.22Y-112.45
X218.86Y-109.82
X219.29Y-80.79
X219.493Y-90.742
X219.619Y-88.581
X219.94Y-83.78
X220.25Y-112.68
X220.479Y-93.414
X220.6Y-64.76
X220.929Y-77.97
X222.04Y-110.89
X222.19Y-112.38
X223.75Y-86.703
X223.825Y-64.619
X224.14Y-93.33
X224.17Y-112.8
X224.41Y-110.07
X224.77Y-110.84
X225.75Y-79.0
X225.75Y-80.0
X225.75Y-81.0
X225.75Y-82.0
X226.16Y-112.45
X226.89Y-109.99
X227.97Y-97.18
X228.34Y-112.75
X228.506Y-76.5
X230.297Y-110.527
X230.32Y-112.41
X232.09Y-110.04
X232.44Y-112.08
X232.482Y-70.165
X232.91Y-104.9
X234.1Y-110.98
X234.29Y-67.27
X234.37Y-112.42
X234.51Y-106.36
X234.92Y-110.02
X236.33Y-112.8
X236.5Y-72.49
X237.49Y-111.51
X237.628Y-75.483
X238.35Y-112.41
X239.24Y-110.08
X239.26Y-75.47
X239.33Y-67.85
X240.38Y-112.71
X240.587Y-110.873
X240.667Y-81.725
X241.571Y-65.592
X241.618Y-68.312
X241.72Y-69.72
X242.12Y-110.94
X242.39Y-112.42
X242.45Y-88.8
X242.52Y-84.79
X243.01Y-69.9
X243.74Y-86.63
X244.275Y-69.15
X244.42Y-88.74
X244.461Y-69.972
X244.5Y-84.54
X245.005Y-71.713
X245.2Y-87.06
X245.351Y-104.95
X245.417Y-72.485
X246.52Y-85.2
X247.17Y-86.48
X247.248Y-74.17
X247.51Y-71.727
X249.25Y-62.79
X249.58Y-85.91
X250.605Y-71.735
X251.12Y-105.22
X251.495Y-62.659
X251.594Y-69.95
X251.6Y-65.15
X251.614Y-66.699
X251.639Y-67.55
X251.73Y-76.39
X251.74Y-73.7
X252.24Y-72.0
X253.519Y-65.95
X253.995Y-65.43
T2
X249.45Y-88.69
T4
X127.9Y-65.987
X127.9Y-68.487
X127.9Y-70.987
T5
X125.9Y-85.32
X125.9Y-87.86
X125.9Y-90.4
X125.9Y-92.94
X125.9Y-95.48
X125.9Y-98.02
X125.9Y-100.56
X125.9Y-103.1
X125.9Y-105.64
X187.14Y-58.57
X189.68Y-58.57
X193.985Y-58.557
X196.525Y-58.557
X251.3Y-83.79
X251.3Y-86.33
X251.3Y-88.87
X251.3Y-91.41
X251.325Y-95.63
X251.325Y-98.17
X251.325Y-100.71
X251.325Y-103.25
T6
X128.458Y-79.537
X135.38Y-78.8
T7
X142.17Y-61.9
X147.25Y-61.9
X152.33Y-61.9
X157.41Y-61.9
X165.54Y-61.9
X170.62Y-61.9
X175.7Y-61.9
X180.78Y-61.9
T3
X183.88Y-108.98G85X183.88Y-110.08
G05
X183.88Y-113.41G85X183.88Y-114.01
G05
X192.52Y-108.98G85X192.52Y-110.08
G05
X192.52Y-113.41G85X192.52Y-114.01
G05
M30
