%TF.GenerationSoftware,KiCad,Pcbnew,10.0.2-1.fc43*%
%TF.CreationDate,2026-05-24T20:43:01+02:00*%
%TF.ProjectId,robot,726f626f-742e-46b6-9963-61645f706362,rev?*%
%TF.SameCoordinates,Original*%
%TF.FileFunction,Legend,Top*%
%TF.FilePolarity,Positive*%
%FSLAX46Y46*%
G04 Gerber Fmt 4.6, Leading zero omitted, Abs format (unit mm)*
G04 Created by KiCad (PCBNEW 10.0.2-1.fc43) date 2026-05-24 20:43:01*
%MOMM*%
%LPD*%
G01*
G04 APERTURE LIST*
%ADD10C,0.000250*%
%ADD11C,0.150000*%
%ADD12C,0.120000*%
%ADD13C,0.127000*%
%ADD14C,0.200000*%
%ADD15C,0.100000*%
%ADD16O,3.556000X7.112000*%
%ADD17O,7.112000X3.556000*%
G04 APERTURE END LIST*
D10*
X225051449Y-106088461D02*
X225051449Y-106087890D01*
X225052449Y-106088176D02*
X225051449Y-106088176D01*
X225052449Y-106087556D02*
X225051449Y-106087556D01*
X225051449Y-106087556D02*
X225051449Y-106087175D01*
X225051449Y-106087175D02*
X225051497Y-106087080D01*
X225051497Y-106087080D02*
X225051544Y-106087033D01*
X225051544Y-106087033D02*
X225051640Y-106086985D01*
X225051640Y-106086985D02*
X225051782Y-106086985D01*
X225051782Y-106086985D02*
X225051878Y-106087033D01*
X225051878Y-106087033D02*
X225051925Y-106087080D01*
X225051925Y-106087080D02*
X225051973Y-106087175D01*
X225051973Y-106087175D02*
X225051973Y-106087556D01*
X225051449Y-106086652D02*
X225051449Y-106085985D01*
X225051449Y-106085985D02*
X225052449Y-106086414D01*
D11*
X233641666Y-95154819D02*
X233641666Y-95869104D01*
X233641666Y-95869104D02*
X233594047Y-96011961D01*
X233594047Y-96011961D02*
X233498809Y-96107200D01*
X233498809Y-96107200D02*
X233355952Y-96154819D01*
X233355952Y-96154819D02*
X233260714Y-96154819D01*
X234117857Y-96154819D02*
X234117857Y-95154819D01*
X234117857Y-95154819D02*
X234498809Y-95154819D01*
X234498809Y-95154819D02*
X234594047Y-95202438D01*
X234594047Y-95202438D02*
X234641666Y-95250057D01*
X234641666Y-95250057D02*
X234689285Y-95345295D01*
X234689285Y-95345295D02*
X234689285Y-95488152D01*
X234689285Y-95488152D02*
X234641666Y-95583390D01*
X234641666Y-95583390D02*
X234594047Y-95631009D01*
X234594047Y-95631009D02*
X234498809Y-95678628D01*
X234498809Y-95678628D02*
X234117857Y-95678628D01*
X235022619Y-95154819D02*
X235641666Y-95154819D01*
X235641666Y-95154819D02*
X235308333Y-95535771D01*
X235308333Y-95535771D02*
X235451190Y-95535771D01*
X235451190Y-95535771D02*
X235546428Y-95583390D01*
X235546428Y-95583390D02*
X235594047Y-95631009D01*
X235594047Y-95631009D02*
X235641666Y-95726247D01*
X235641666Y-95726247D02*
X235641666Y-95964342D01*
X235641666Y-95964342D02*
X235594047Y-96059580D01*
X235594047Y-96059580D02*
X235546428Y-96107200D01*
X235546428Y-96107200D02*
X235451190Y-96154819D01*
X235451190Y-96154819D02*
X235165476Y-96154819D01*
X235165476Y-96154819D02*
X235070238Y-96107200D01*
X235070238Y-96107200D02*
X235022619Y-96059580D01*
X188324395Y-76679819D02*
X188324395Y-77489342D01*
X188324395Y-77489342D02*
X188372014Y-77584580D01*
X188372014Y-77584580D02*
X188419633Y-77632200D01*
X188419633Y-77632200D02*
X188514871Y-77679819D01*
X188514871Y-77679819D02*
X188705347Y-77679819D01*
X188705347Y-77679819D02*
X188800585Y-77632200D01*
X188800585Y-77632200D02*
X188848204Y-77584580D01*
X188848204Y-77584580D02*
X188895823Y-77489342D01*
X188895823Y-77489342D02*
X188895823Y-76679819D01*
X189800585Y-77013152D02*
X189800585Y-77679819D01*
X189562490Y-76632200D02*
X189324395Y-77346485D01*
X189324395Y-77346485D02*
X189943442Y-77346485D01*
X134553131Y-79943000D02*
X135641702Y-79943000D01*
X135641702Y-79943000D02*
X135859417Y-80015571D01*
X135859417Y-80015571D02*
X136004560Y-80160714D01*
X136004560Y-80160714D02*
X136077131Y-80378428D01*
X136077131Y-80378428D02*
X136077131Y-80523571D01*
X134553131Y-79362428D02*
X134553131Y-78419000D01*
X134553131Y-78419000D02*
X135133702Y-78927000D01*
X135133702Y-78927000D02*
X135133702Y-78709285D01*
X135133702Y-78709285D02*
X135206274Y-78564143D01*
X135206274Y-78564143D02*
X135278845Y-78491571D01*
X135278845Y-78491571D02*
X135423988Y-78419000D01*
X135423988Y-78419000D02*
X135786845Y-78419000D01*
X135786845Y-78419000D02*
X135931988Y-78491571D01*
X135931988Y-78491571D02*
X136004560Y-78564143D01*
X136004560Y-78564143D02*
X136077131Y-78709285D01*
X136077131Y-78709285D02*
X136077131Y-79144714D01*
X136077131Y-79144714D02*
X136004560Y-79289857D01*
X136004560Y-79289857D02*
X135931988Y-79362428D01*
X229166666Y-95154819D02*
X229166666Y-95869104D01*
X229166666Y-95869104D02*
X229119047Y-96011961D01*
X229119047Y-96011961D02*
X229023809Y-96107200D01*
X229023809Y-96107200D02*
X228880952Y-96154819D01*
X228880952Y-96154819D02*
X228785714Y-96154819D01*
X229642857Y-96154819D02*
X229642857Y-95154819D01*
X229642857Y-95154819D02*
X230023809Y-95154819D01*
X230023809Y-95154819D02*
X230119047Y-95202438D01*
X230119047Y-95202438D02*
X230166666Y-95250057D01*
X230166666Y-95250057D02*
X230214285Y-95345295D01*
X230214285Y-95345295D02*
X230214285Y-95488152D01*
X230214285Y-95488152D02*
X230166666Y-95583390D01*
X230166666Y-95583390D02*
X230119047Y-95631009D01*
X230119047Y-95631009D02*
X230023809Y-95678628D01*
X230023809Y-95678628D02*
X229642857Y-95678628D01*
X231071428Y-95488152D02*
X231071428Y-96154819D01*
X230833333Y-95107200D02*
X230595238Y-95821485D01*
X230595238Y-95821485D02*
X231214285Y-95821485D01*
X238441666Y-95154819D02*
X238441666Y-95869104D01*
X238441666Y-95869104D02*
X238394047Y-96011961D01*
X238394047Y-96011961D02*
X238298809Y-96107200D01*
X238298809Y-96107200D02*
X238155952Y-96154819D01*
X238155952Y-96154819D02*
X238060714Y-96154819D01*
X238917857Y-96154819D02*
X238917857Y-95154819D01*
X238917857Y-95154819D02*
X239298809Y-95154819D01*
X239298809Y-95154819D02*
X239394047Y-95202438D01*
X239394047Y-95202438D02*
X239441666Y-95250057D01*
X239441666Y-95250057D02*
X239489285Y-95345295D01*
X239489285Y-95345295D02*
X239489285Y-95488152D01*
X239489285Y-95488152D02*
X239441666Y-95583390D01*
X239441666Y-95583390D02*
X239394047Y-95631009D01*
X239394047Y-95631009D02*
X239298809Y-95678628D01*
X239298809Y-95678628D02*
X238917857Y-95678628D01*
X240441666Y-96154819D02*
X239870238Y-96154819D01*
X240155952Y-96154819D02*
X240155952Y-95154819D01*
X240155952Y-95154819D02*
X240060714Y-95297676D01*
X240060714Y-95297676D02*
X239965476Y-95392914D01*
X239965476Y-95392914D02*
X239870238Y-95440533D01*
X242941666Y-95154819D02*
X242941666Y-95869104D01*
X242941666Y-95869104D02*
X242894047Y-96011961D01*
X242894047Y-96011961D02*
X242798809Y-96107200D01*
X242798809Y-96107200D02*
X242655952Y-96154819D01*
X242655952Y-96154819D02*
X242560714Y-96154819D01*
X243417857Y-96154819D02*
X243417857Y-95154819D01*
X243417857Y-95154819D02*
X243798809Y-95154819D01*
X243798809Y-95154819D02*
X243894047Y-95202438D01*
X243894047Y-95202438D02*
X243941666Y-95250057D01*
X243941666Y-95250057D02*
X243989285Y-95345295D01*
X243989285Y-95345295D02*
X243989285Y-95488152D01*
X243989285Y-95488152D02*
X243941666Y-95583390D01*
X243941666Y-95583390D02*
X243894047Y-95631009D01*
X243894047Y-95631009D02*
X243798809Y-95678628D01*
X243798809Y-95678628D02*
X243417857Y-95678628D01*
X244370238Y-95250057D02*
X244417857Y-95202438D01*
X244417857Y-95202438D02*
X244513095Y-95154819D01*
X244513095Y-95154819D02*
X244751190Y-95154819D01*
X244751190Y-95154819D02*
X244846428Y-95202438D01*
X244846428Y-95202438D02*
X244894047Y-95250057D01*
X244894047Y-95250057D02*
X244941666Y-95345295D01*
X244941666Y-95345295D02*
X244941666Y-95440533D01*
X244941666Y-95440533D02*
X244894047Y-95583390D01*
X244894047Y-95583390D02*
X244322619Y-96154819D01*
X244322619Y-96154819D02*
X244941666Y-96154819D01*
%TO.C,C63*%
D12*
X137084736Y-112714400D02*
X136869064Y-112714400D01*
X137084736Y-111994400D02*
X136869064Y-111994400D01*
%TO.C,D32*%
X142011900Y-109154400D02*
X142011900Y-111154400D01*
X142011900Y-109154400D02*
X138811900Y-109154400D01*
X141711900Y-111454400D02*
X142011900Y-111154400D01*
X141711900Y-111454400D02*
X138811900Y-111454400D01*
X138811900Y-111454400D02*
X138811900Y-109154400D01*
%TO.C,D26*%
X166011900Y-109054400D02*
X166011900Y-111054400D01*
X166011900Y-109054400D02*
X162811900Y-109054400D01*
X165711900Y-111354400D02*
X166011900Y-111054400D01*
X165711900Y-111354400D02*
X162811900Y-111354400D01*
X162811900Y-111354400D02*
X162811900Y-109054400D01*
%TO.C,C54*%
X173084736Y-112614400D02*
X172869064Y-112614400D01*
X173084736Y-111894400D02*
X172869064Y-111894400D01*
%TO.C,C60*%
X145084736Y-112714400D02*
X144869064Y-112714400D01*
X145084736Y-111994400D02*
X144869064Y-111994400D01*
%TO.C,C58*%
X157084736Y-112614400D02*
X156869064Y-112614400D01*
X157084736Y-111894400D02*
X156869064Y-111894400D01*
%TO.C,C59*%
X153084736Y-112614400D02*
X152869064Y-112614400D01*
X153084736Y-111894400D02*
X152869064Y-111894400D01*
%TO.C,D23*%
X178011900Y-109054400D02*
X178011900Y-111054400D01*
X178011900Y-109054400D02*
X174811900Y-109054400D01*
X177711900Y-111354400D02*
X178011900Y-111054400D01*
X177711900Y-111354400D02*
X174811900Y-111354400D01*
X174811900Y-111354400D02*
X174811900Y-109054400D01*
%TO.C,C55*%
X169084736Y-112614400D02*
X168869064Y-112614400D01*
X169084736Y-111894400D02*
X168869064Y-111894400D01*
%TO.C,D31*%
X146011900Y-109154400D02*
X146011900Y-111154400D01*
X146011900Y-109154400D02*
X142811900Y-109154400D01*
X145711900Y-111454400D02*
X146011900Y-111154400D01*
X145711900Y-111454400D02*
X142811900Y-111454400D01*
X142811900Y-111454400D02*
X142811900Y-109154400D01*
%TO.C,D22*%
X182011900Y-109054400D02*
X182011900Y-111054400D01*
X182011900Y-109054400D02*
X178811900Y-109054400D01*
X181711900Y-111354400D02*
X182011900Y-111054400D01*
X181711900Y-111354400D02*
X178811900Y-111354400D01*
X178811900Y-111354400D02*
X178811900Y-109054400D01*
%TO.C,D29*%
X154011900Y-109054400D02*
X154011900Y-111054400D01*
X154011900Y-109054400D02*
X150811900Y-109054400D01*
X153711900Y-111354400D02*
X154011900Y-111054400D01*
X153711900Y-111354400D02*
X150811900Y-111354400D01*
X150811900Y-111354400D02*
X150811900Y-109054400D01*
%TO.C,D25*%
X170011900Y-109054400D02*
X170011900Y-111054400D01*
X170011900Y-109054400D02*
X166811900Y-109054400D01*
X169711900Y-111354400D02*
X170011900Y-111054400D01*
X169711900Y-111354400D02*
X166811900Y-111354400D01*
X166811900Y-111354400D02*
X166811900Y-109054400D01*
%TO.C,C52*%
X181134736Y-112614400D02*
X180919064Y-112614400D01*
X181134736Y-111894400D02*
X180919064Y-111894400D01*
%TO.C,C62*%
X141084736Y-112714400D02*
X140869064Y-112714400D01*
X141084736Y-111994400D02*
X140869064Y-111994400D01*
%TO.C,U3*%
X217370000Y-77523400D02*
X217130000Y-77193400D01*
X217610000Y-77193400D01*
X217370000Y-77523400D01*
G36*
X217370000Y-77523400D02*
G01*
X217130000Y-77193400D01*
X217610000Y-77193400D01*
X217370000Y-77523400D01*
G37*
X222410000Y-84243400D02*
X222410000Y-82983400D01*
X222410000Y-77423400D02*
X222410000Y-78683400D01*
X218650000Y-84243400D02*
X222410000Y-84243400D01*
X218650000Y-77423400D02*
X222410000Y-77423400D01*
%TO.C,U8*%
X239855000Y-71700000D02*
X239855000Y-60950000D01*
X253355000Y-60950000D02*
X253355000Y-71700000D01*
X253355000Y-71700000D02*
X239855000Y-71700000D01*
X239505000Y-61950000D02*
X239169000Y-62190000D01*
X239169000Y-61710000D01*
X239505000Y-61950000D01*
G36*
X239505000Y-61950000D02*
G01*
X239169000Y-62190000D01*
X239169000Y-61710000D01*
X239505000Y-61950000D01*
G37*
%TO.C,D3*%
X196116300Y-74953600D02*
X196116300Y-76873600D01*
X196116300Y-76873600D02*
X198801300Y-76873600D01*
X198801300Y-74953600D02*
X196116300Y-74953600D01*
%TO.C,C45*%
X221174536Y-112017200D02*
X220958864Y-112017200D01*
X221174536Y-112737200D02*
X220958864Y-112737200D01*
%TO.C,D16*%
X214901700Y-111477200D02*
X214901700Y-109177200D01*
X217801700Y-111477200D02*
X214901700Y-111477200D01*
X217801700Y-111477200D02*
X218101700Y-111177200D01*
X218101700Y-109177200D02*
X214901700Y-109177200D01*
X218101700Y-109177200D02*
X218101700Y-111177200D01*
%TO.C,C6*%
X214261252Y-82598400D02*
X213738748Y-82598400D01*
X214261252Y-84068400D02*
X213738748Y-84068400D01*
%TO.C,C7*%
X189262552Y-72478600D02*
X188740048Y-72478600D01*
X189262552Y-73948600D02*
X188740048Y-73948600D01*
%TO.C,C38*%
X212111252Y-106365000D02*
X211588748Y-106365000D01*
X212111252Y-107835000D02*
X211588748Y-107835000D01*
%TO.C,R15*%
X191308400Y-101833964D02*
X191308400Y-101379836D01*
X192778400Y-101833964D02*
X192778400Y-101379836D01*
%TO.C,Q3*%
X211240000Y-102540000D02*
X212760000Y-102540000D01*
X211240000Y-103540000D02*
X211240000Y-102540000D01*
X211240000Y-105660000D02*
X211240000Y-104660000D01*
X212760000Y-102540000D02*
X212760000Y-102590000D01*
X212760000Y-103710000D02*
X212760000Y-104490000D01*
X212760000Y-105610000D02*
X212760000Y-105660000D01*
X212760000Y-105660000D02*
X211240000Y-105660000D01*
X213300000Y-104480000D02*
X213060000Y-104150000D01*
X213540000Y-104150000D01*
X213300000Y-104480000D01*
G36*
X213300000Y-104480000D02*
G01*
X213060000Y-104150000D01*
X213540000Y-104150000D01*
X213300000Y-104480000D01*
G37*
%TO.C,C53*%
X177104736Y-111894400D02*
X176889064Y-111894400D01*
X177104736Y-112614400D02*
X176889064Y-112614400D01*
%TO.C,R21*%
X235465000Y-66172936D02*
X235465000Y-66627064D01*
X236935000Y-66172936D02*
X236935000Y-66627064D01*
%TO.C,L1*%
X155965000Y-83963300D02*
X162635000Y-83963300D01*
X155965000Y-85363300D02*
X155965000Y-83963300D01*
X155965000Y-90783300D02*
X155965000Y-89383300D01*
X162635000Y-83963300D02*
X162635000Y-85363300D01*
X162635000Y-89383300D02*
X162635000Y-90783300D01*
X162635000Y-90783300D02*
X155965000Y-90783300D01*
%TO.C,R6*%
X166160436Y-91765000D02*
X166614564Y-91765000D01*
X166160436Y-93235000D02*
X166614564Y-93235000D01*
%TO.C,C48*%
X208759536Y-111967200D02*
X208543864Y-111967200D01*
X208759536Y-112687200D02*
X208543864Y-112687200D01*
%TO.C,R13*%
X200897936Y-62665000D02*
X201352064Y-62665000D01*
X200897936Y-64135000D02*
X201352064Y-64135000D01*
%TO.C,J9*%
X124520000Y-104370000D02*
X124520000Y-83940000D01*
X127280000Y-83940000D02*
X124520000Y-83940000D01*
X127280000Y-104370000D02*
X124520000Y-104370000D01*
X127280000Y-104370000D02*
X127280000Y-83940000D01*
X127280000Y-105640000D02*
X127280000Y-107020000D01*
X127280000Y-107020000D02*
X125900000Y-107020000D01*
%TO.C,C12*%
X193290048Y-75178600D02*
X193812552Y-75178600D01*
X193290048Y-76648600D02*
X193812552Y-76648600D01*
%TO.C,C1*%
X145386252Y-88995000D02*
X144863748Y-88995000D01*
X145386252Y-90465000D02*
X144863748Y-90465000D01*
%TO.C,C14*%
X187641300Y-82224852D02*
X187641300Y-81702348D01*
X189111300Y-82224852D02*
X189111300Y-81702348D01*
%TO.C,C25*%
X237690000Y-66661252D02*
X237690000Y-66138748D01*
X239160000Y-66661252D02*
X239160000Y-66138748D01*
%TO.C,R11*%
X197878364Y-82828600D02*
X197424236Y-82828600D01*
X197878364Y-84298600D02*
X197424236Y-84298600D01*
%TO.C,R2*%
X225254336Y-86846200D02*
X225708464Y-86846200D01*
X225254336Y-88316200D02*
X225708464Y-88316200D01*
%TO.C,J8*%
X249920000Y-90140000D02*
X249920000Y-82410000D01*
X252680000Y-82410000D02*
X249920000Y-82410000D01*
X252680000Y-90140000D02*
X249920000Y-90140000D01*
X252680000Y-90140000D02*
X252680000Y-82410000D01*
X252680000Y-91410000D02*
X252680000Y-92790000D01*
X252680000Y-92790000D02*
X251300000Y-92790000D01*
%TO.C,D4*%
X164815000Y-88740000D02*
X164815000Y-90660000D01*
X164815000Y-90660000D02*
X167500000Y-90660000D01*
X167500000Y-88740000D02*
X164815000Y-88740000D01*
%TO.C,R16*%
X193808400Y-101921464D02*
X193808400Y-101467336D01*
X195278400Y-101921464D02*
X195278400Y-101467336D01*
%TO.C,D7*%
X193069100Y-96660600D02*
X195754100Y-96660600D01*
X195754100Y-94740600D02*
X193069100Y-94740600D01*
X195754100Y-96660600D02*
X195754100Y-94740600D01*
%TO.C,Y1*%
X242175000Y-72725000D02*
X240825000Y-72725000D01*
X242175000Y-74475000D02*
X240825000Y-74475000D01*
%TO.C,D1*%
X147915000Y-91850000D02*
X147915000Y-95150000D01*
X147915000Y-91850000D02*
X153425000Y-91850000D01*
X147915000Y-95150000D02*
X153425000Y-95150000D01*
%TO.C,R5*%
X183316300Y-81699036D02*
X183316300Y-82153164D01*
X184786300Y-81699036D02*
X184786300Y-82153164D01*
%TO.C,C57*%
X161084736Y-111894400D02*
X160869064Y-111894400D01*
X161084736Y-112614400D02*
X160869064Y-112614400D01*
%TO.C,TP7*%
X228650000Y-106087200D02*
G75*
G02*
X225750000Y-106087200I-1450000J0D01*
G01*
X225750000Y-106087200D02*
G75*
G02*
X228650000Y-106087200I1450000J0D01*
G01*
%TO.C,D12*%
X230986700Y-111527200D02*
X230986700Y-109227200D01*
X233886700Y-111527200D02*
X230986700Y-111527200D01*
X233886700Y-111527200D02*
X234186700Y-111227200D01*
X234186700Y-109227200D02*
X230986700Y-109227200D01*
X234186700Y-109227200D02*
X234186700Y-111227200D01*
%TO.C,C47*%
X212929536Y-111967200D02*
X212713864Y-111967200D01*
X212929536Y-112687200D02*
X212713864Y-112687200D01*
%TO.C,R12*%
X200897936Y-60165000D02*
X201352064Y-60165000D01*
X200897936Y-61635000D02*
X201352064Y-61635000D01*
%TO.C,TP3*%
X151050000Y-106272800D02*
G75*
G02*
X148150000Y-106272800I-1450000J0D01*
G01*
X148150000Y-106272800D02*
G75*
G02*
X151050000Y-106272800I1450000J0D01*
G01*
%TO.C,D11*%
X234986700Y-111527200D02*
X234986700Y-109227200D01*
X237886700Y-111527200D02*
X234986700Y-111527200D01*
X237886700Y-111527200D02*
X238186700Y-111227200D01*
X238186700Y-109227200D02*
X234986700Y-109227200D01*
X238186700Y-109227200D02*
X238186700Y-111227200D01*
%TO.C,C36*%
X241765000Y-86618748D02*
X241765000Y-87141252D01*
X243235000Y-86618748D02*
X243235000Y-87141252D01*
%TO.C,L2*%
X183816300Y-84353600D02*
X190486300Y-84353600D01*
X183816300Y-85753600D02*
X183816300Y-84353600D01*
X183816300Y-91173600D02*
X183816300Y-89773600D01*
X190486300Y-84353600D02*
X190486300Y-85753600D01*
X190486300Y-89773600D02*
X190486300Y-91173600D01*
X190486300Y-91173600D02*
X183816300Y-91173600D01*
%TO.C,D8*%
X193094100Y-99115600D02*
X195779100Y-99115600D01*
X195779100Y-97195600D02*
X193094100Y-97195600D01*
X195779100Y-99115600D02*
X195779100Y-97195600D01*
%TO.C,C29*%
X245961252Y-72865000D02*
X245438748Y-72865000D01*
X245961252Y-74335000D02*
X245438748Y-74335000D01*
%TO.C,TP8*%
X232650000Y-106087200D02*
G75*
G02*
X229750000Y-106087200I-1450000J0D01*
G01*
X229750000Y-106087200D02*
G75*
G02*
X232650000Y-106087200I1450000J0D01*
G01*
%TO.C,R7*%
X213058236Y-91253100D02*
X213512364Y-91253100D01*
X213058236Y-92723100D02*
X213512364Y-92723100D01*
%TO.C,D5*%
X212135300Y-90348100D02*
X214820300Y-90348100D01*
X214820300Y-88428100D02*
X212135300Y-88428100D01*
X214820300Y-90348100D02*
X214820300Y-88428100D01*
%TO.C,D21*%
X194486700Y-111477200D02*
X194486700Y-109177200D01*
X197386700Y-111477200D02*
X194486700Y-111477200D01*
X197386700Y-111477200D02*
X197686700Y-111177200D01*
X197686700Y-109177200D02*
X194486700Y-109177200D01*
X197686700Y-109177200D02*
X197686700Y-111177200D01*
%TO.C,R3*%
X149152064Y-83865000D02*
X148697936Y-83865000D01*
X149152064Y-85335000D02*
X148697936Y-85335000D01*
%TO.C,C5*%
X152463748Y-83865000D02*
X152986252Y-83865000D01*
X152463748Y-85335000D02*
X152986252Y-85335000D01*
%TO.C,C19*%
X186308400Y-101955652D02*
X186308400Y-101433148D01*
X187778400Y-101955652D02*
X187778400Y-101433148D01*
%TO.C,C26*%
X241038748Y-75665000D02*
X241561252Y-75665000D01*
X241038748Y-77135000D02*
X241561252Y-77135000D01*
%TO.C,C49*%
X204844536Y-111917200D02*
X204628864Y-111917200D01*
X204844536Y-112637200D02*
X204628864Y-112637200D01*
%TO.C,Q1*%
X204040000Y-58390000D02*
X204090000Y-58390000D01*
X204040000Y-59910000D02*
X204040000Y-58390000D01*
X205040000Y-59910000D02*
X204040000Y-59910000D01*
X205210000Y-58390000D02*
X205990000Y-58390000D01*
X207110000Y-58390000D02*
X207160000Y-58390000D01*
X207160000Y-58390000D02*
X207160000Y-59910000D01*
X207160000Y-59910000D02*
X206160000Y-59910000D01*
X205980000Y-57850000D02*
X205650000Y-58090000D01*
X205650000Y-57610000D01*
X205980000Y-57850000D01*
G36*
X205980000Y-57850000D02*
G01*
X205650000Y-58090000D01*
X205650000Y-57610000D01*
X205980000Y-57850000D01*
G37*
%TO.C,JP3*%
X233075000Y-96500000D02*
X235875000Y-96500000D01*
X233075000Y-98500000D02*
X233075000Y-96500000D01*
X235875000Y-96500000D02*
X235875000Y-98500000D01*
X235875000Y-98500000D02*
X233075000Y-98500000D01*
%TO.C,D17*%
X210656700Y-111627200D02*
X210656700Y-109327200D01*
X213556700Y-111627200D02*
X210656700Y-111627200D01*
X213556700Y-111627200D02*
X213856700Y-111327200D01*
X213856700Y-109327200D02*
X210656700Y-109327200D01*
X213856700Y-109327200D02*
X213856700Y-111327200D01*
%TO.C,C41*%
X237299536Y-112067200D02*
X237083864Y-112067200D01*
X237299536Y-112787200D02*
X237083864Y-112787200D01*
%TO.C,R1*%
X225254336Y-89346200D02*
X225708464Y-89346200D01*
X225254336Y-90816200D02*
X225708464Y-90816200D01*
%TO.C,C8*%
X214311252Y-80265000D02*
X213788748Y-80265000D01*
X214311252Y-81735000D02*
X213788748Y-81735000D01*
%TO.C,D14*%
X222901700Y-111577200D02*
X222901700Y-109277200D01*
X225801700Y-111577200D02*
X222901700Y-111577200D01*
X225801700Y-111577200D02*
X226101700Y-111277200D01*
X226101700Y-109277200D02*
X222901700Y-109277200D01*
X226101700Y-109277200D02*
X226101700Y-111277200D01*
%TO.C,Q2*%
X204098800Y-66740000D02*
X205098800Y-66740000D01*
X204098800Y-68260000D02*
X204098800Y-66740000D01*
X204148800Y-68260000D02*
X204098800Y-68260000D01*
X206048800Y-68260000D02*
X205268800Y-68260000D01*
X206218800Y-66740000D02*
X207218800Y-66740000D01*
X207218800Y-66740000D02*
X207218800Y-68260000D01*
X207218800Y-68260000D02*
X207168800Y-68260000D01*
X205278800Y-68800000D02*
X205608800Y-68560000D01*
X205608800Y-69040000D01*
X205278800Y-68800000D01*
G36*
X205608800Y-69040000D02*
G01*
X205278800Y-68800000D01*
X205608800Y-68560000D01*
X205608800Y-69040000D01*
G37*
%TO.C,R25*%
X249360436Y-72965000D02*
X249814564Y-72965000D01*
X249360436Y-74435000D02*
X249814564Y-74435000D01*
%TO.C,R32*%
X200339564Y-106365000D02*
X199885436Y-106365000D01*
X200339564Y-107835000D02*
X199885436Y-107835000D01*
%TO.C,R4*%
X145352064Y-83865000D02*
X144897936Y-83865000D01*
X145352064Y-85335000D02*
X144897936Y-85335000D01*
%TO.C,U2*%
X217558900Y-86021200D02*
X221678900Y-86021200D01*
X221678900Y-91141200D02*
X217558900Y-91141200D01*
X215878900Y-86581200D02*
X215548900Y-86821200D01*
X215548900Y-86341200D01*
X215878900Y-86581200D01*
G36*
X215878900Y-86581200D02*
G01*
X215548900Y-86821200D01*
X215548900Y-86341200D01*
X215878900Y-86581200D01*
G37*
%TO.C,D30*%
X146811900Y-111354400D02*
X146811900Y-109054400D01*
X149711900Y-111354400D02*
X146811900Y-111354400D01*
X149711900Y-111354400D02*
X150011900Y-111054400D01*
X150011900Y-109054400D02*
X146811900Y-109054400D01*
X150011900Y-109054400D02*
X150011900Y-111054400D01*
%TO.C,C27*%
X249911252Y-75765000D02*
X249388748Y-75765000D01*
X249911252Y-77235000D02*
X249388748Y-77235000D01*
%TO.C,C16*%
X209738748Y-61365000D02*
X210261252Y-61365000D01*
X209738748Y-62835000D02*
X210261252Y-62835000D01*
%TO.C,U4*%
D13*
X186971300Y-75013600D02*
X186971300Y-75558600D01*
X186971300Y-75013600D02*
X187516300Y-75013600D01*
X186971300Y-79013600D02*
X186971300Y-78468600D01*
X186971300Y-79013600D02*
X187516300Y-79013600D01*
X190971300Y-75013600D02*
X190426300Y-75013600D01*
X190971300Y-75013600D02*
X190971300Y-75558600D01*
X190971300Y-79013600D02*
X190426300Y-79013600D01*
X190971300Y-79013600D02*
X190971300Y-78468600D01*
D14*
X186001300Y-76038600D02*
G75*
G02*
X185801300Y-76038600I-100000J0D01*
G01*
X185801300Y-76038600D02*
G75*
G02*
X186001300Y-76038600I100000J0D01*
G01*
%TO.C,R14*%
D12*
X201352064Y-65165000D02*
X200897936Y-65165000D01*
X201352064Y-66635000D02*
X200897936Y-66635000D01*
%TO.C,R10*%
X130772936Y-86115000D02*
X131227064Y-86115000D01*
X130772936Y-87585000D02*
X131227064Y-87585000D01*
%TO.C,J2*%
X125150000Y-64187200D02*
X125150000Y-68487200D01*
X125150000Y-72787200D02*
X125150000Y-68487200D01*
X128100000Y-63437200D02*
X128100000Y-64187200D01*
X128100000Y-64187200D02*
X125150000Y-64187200D01*
X128100000Y-72787200D02*
X125150000Y-72787200D01*
X128100000Y-73537200D02*
X128100000Y-72787200D01*
X130650000Y-63137200D02*
X129400000Y-63137200D01*
X130650000Y-64387200D02*
X130650000Y-63137200D01*
X129600000Y-63437200D02*
X130350000Y-63437200D01*
X130350000Y-65237200D01*
X129600000Y-65237200D01*
X129600000Y-63437200D01*
X129600000Y-66737200D02*
X130350000Y-66737200D01*
X130350000Y-70237200D01*
X129600000Y-70237200D01*
X129600000Y-66737200D01*
X129600000Y-71737200D02*
X130350000Y-71737200D01*
X130350000Y-73537200D01*
X129600000Y-73537200D01*
X129600000Y-71737200D01*
X124390000Y-63427200D02*
X130360000Y-63427200D01*
X130360000Y-73547200D01*
X124390000Y-73547200D01*
X124390000Y-63427200D01*
%TO.C,J3*%
D13*
X125626300Y-78850800D02*
X125626300Y-80222400D01*
X125626300Y-78850800D02*
X131315900Y-78850800D01*
X131315900Y-78850800D02*
X131315900Y-80222400D01*
X131315900Y-80222400D02*
X125626300Y-80222400D01*
X134694100Y-75955200D02*
X136065700Y-75955200D01*
X134694100Y-81644800D02*
X134694100Y-75955200D01*
X134694100Y-81644800D02*
X136065700Y-81644800D01*
X136065700Y-75955200D02*
X136065700Y-81644800D01*
%TO.C,JP4*%
D12*
X228600000Y-96500000D02*
X231400000Y-96500000D01*
X228600000Y-98500000D02*
X228600000Y-96500000D01*
X231400000Y-96500000D02*
X231400000Y-98500000D01*
X231400000Y-98500000D02*
X228600000Y-98500000D01*
%TO.C,C18*%
X188808400Y-101905652D02*
X188808400Y-101383148D01*
X190278400Y-101905652D02*
X190278400Y-101383148D01*
%TO.C,TP6*%
X224650000Y-106087200D02*
G75*
G02*
X221750000Y-106087200I-1450000J0D01*
G01*
X221750000Y-106087200D02*
G75*
G02*
X224650000Y-106087200I1450000J0D01*
G01*
%TO.C,C44*%
X225174536Y-112117200D02*
X224958864Y-112117200D01*
X225174536Y-112837200D02*
X224958864Y-112837200D01*
%TO.C,U6*%
X182495900Y-95284400D02*
X184315900Y-95284400D01*
X182495900Y-95334400D02*
X182495900Y-95284400D01*
X182495900Y-98404400D02*
X182495900Y-98354400D01*
X184315900Y-95284400D02*
X184315900Y-95334400D01*
X184315900Y-98354400D02*
X184315900Y-98404400D01*
X184315900Y-98404400D02*
X182495900Y-98404400D01*
X184855900Y-98354400D02*
X185095900Y-98684400D01*
X184615900Y-98684400D01*
X184855900Y-98354400D01*
G36*
X185095900Y-98684400D02*
G01*
X184615900Y-98684400D01*
X184855900Y-98354400D01*
X185095900Y-98684400D01*
G37*
%TO.C,C11*%
X193290048Y-77428600D02*
X193812552Y-77428600D01*
X193290048Y-78898600D02*
X193812552Y-78898600D01*
%TO.C,D27*%
X158811900Y-111354400D02*
X158811900Y-109054400D01*
X161711900Y-111354400D02*
X158811900Y-111354400D01*
X161711900Y-111354400D02*
X162011900Y-111054400D01*
X162011900Y-109054400D02*
X158811900Y-109054400D01*
X162011900Y-109054400D02*
X162011900Y-111054400D01*
%TO.C,C46*%
X217174536Y-112017200D02*
X216958864Y-112017200D01*
X217174536Y-112737200D02*
X216958864Y-112737200D01*
%TO.C,C50*%
X200864536Y-111917200D02*
X200648864Y-111917200D01*
X200864536Y-112637200D02*
X200648864Y-112637200D01*
%TO.C,Q5*%
X238840000Y-104340000D02*
X240360000Y-104340000D01*
X238840000Y-104390000D02*
X238840000Y-104340000D01*
X238840000Y-106290000D02*
X238840000Y-105510000D01*
X238840000Y-107460000D02*
X238840000Y-107410000D01*
X240360000Y-104340000D02*
X240360000Y-105340000D01*
X240360000Y-106460000D02*
X240360000Y-107460000D01*
X240360000Y-107460000D02*
X238840000Y-107460000D01*
X238300000Y-105520000D02*
X238540000Y-105850000D01*
X238060000Y-105850000D01*
X238300000Y-105520000D01*
G36*
X238540000Y-105850000D02*
G01*
X238060000Y-105850000D01*
X238300000Y-105520000D01*
X238540000Y-105850000D01*
G37*
%TO.C,R19*%
X235715000Y-105610436D02*
X235715000Y-106064564D01*
X237185000Y-105610436D02*
X237185000Y-106064564D01*
%TO.C,C2*%
X145336252Y-86495000D02*
X144813748Y-86495000D01*
X145336252Y-87965000D02*
X144813748Y-87965000D01*
%TO.C,C20*%
X183808400Y-101955652D02*
X183808400Y-101433148D01*
X185278400Y-101955652D02*
X185278400Y-101433148D01*
%TO.C,C43*%
X229259536Y-112067200D02*
X229043864Y-112067200D01*
X229259536Y-112787200D02*
X229043864Y-112787200D01*
%TO.C,R22*%
X245260436Y-75565000D02*
X245714564Y-75565000D01*
X245260436Y-77035000D02*
X245714564Y-77035000D01*
%TO.C,D33*%
X134811900Y-111454400D02*
X134811900Y-109154400D01*
X137711900Y-111454400D02*
X134811900Y-111454400D01*
X137711900Y-111454400D02*
X138011900Y-111154400D01*
X138011900Y-109154400D02*
X134811900Y-109154400D01*
X138011900Y-109154400D02*
X138011900Y-111154400D01*
%TO.C,D18*%
X206486700Y-111527200D02*
X206486700Y-109227200D01*
X209386700Y-111527200D02*
X206486700Y-111527200D01*
X209386700Y-111527200D02*
X209686700Y-111227200D01*
X209686700Y-109227200D02*
X206486700Y-109227200D01*
X209686700Y-109227200D02*
X209686700Y-111227200D01*
%TO.C,C17*%
X209738748Y-63865000D02*
X210261252Y-63865000D01*
X209738748Y-65335000D02*
X210261252Y-65335000D01*
%TO.C,TP1*%
X143050000Y-106272800D02*
G75*
G02*
X140150000Y-106272800I-1450000J0D01*
G01*
X140150000Y-106272800D02*
G75*
G02*
X143050000Y-106272800I1450000J0D01*
G01*
%TO.C,Q4*%
X163044000Y-102740000D02*
X164564000Y-102740000D01*
X163044000Y-102790000D02*
X163044000Y-102740000D01*
X163044000Y-104690000D02*
X163044000Y-103910000D01*
X163044000Y-105860000D02*
X163044000Y-105810000D01*
X164564000Y-102740000D02*
X164564000Y-103740000D01*
X164564000Y-104860000D02*
X164564000Y-105860000D01*
X164564000Y-105860000D02*
X163044000Y-105860000D01*
X162504000Y-103920000D02*
X162744000Y-104250000D01*
X162264000Y-104250000D01*
X162504000Y-103920000D01*
G36*
X162744000Y-104250000D02*
G01*
X162264000Y-104250000D01*
X162504000Y-103920000D01*
X162744000Y-104250000D01*
G37*
%TO.C,R31*%
X163364436Y-100765000D02*
X163818564Y-100765000D01*
X163364436Y-102235000D02*
X163818564Y-102235000D01*
%TO.C,SW1*%
X166954000Y-106325000D02*
X166954000Y-104325000D01*
X167954000Y-103025000D02*
X168404000Y-102575000D01*
X167954000Y-107625000D02*
X168404000Y-108075000D01*
X171004000Y-102575000D02*
X168404000Y-102575000D01*
X171004000Y-108075000D02*
X168404000Y-108075000D01*
X171454000Y-103025000D02*
X171004000Y-102575000D01*
X171454000Y-107625000D02*
X171004000Y-108075000D01*
X172454000Y-106325000D02*
X172454000Y-104325000D01*
%TO.C,C37*%
X163492748Y-106465000D02*
X164015252Y-106465000D01*
X163492748Y-107935000D02*
X164015252Y-107935000D01*
%TO.C,C35*%
X151450000Y-77451248D02*
X151450000Y-77973752D01*
X152920000Y-77451248D02*
X152920000Y-77973752D01*
%TO.C,C33*%
X149300000Y-77973752D02*
X149300000Y-77451248D01*
X150770000Y-77973752D02*
X150770000Y-77451248D01*
%TO.C,U11*%
X147275000Y-74110000D02*
X147275000Y-69490000D01*
X152745000Y-69490000D02*
X152745000Y-74110000D01*
X152290000Y-67940000D02*
X152050000Y-67610000D01*
X152530000Y-67610000D01*
X152290000Y-67940000D01*
G36*
X152290000Y-67940000D02*
G01*
X152050000Y-67610000D01*
X152530000Y-67610000D01*
X152290000Y-67940000D01*
G37*
%TO.C,C34*%
X146800000Y-77973752D02*
X146800000Y-77451248D01*
X148270000Y-77973752D02*
X148270000Y-77451248D01*
%TO.C,J6*%
X139510000Y-57180000D02*
X157110000Y-57180000D01*
X139510000Y-67220000D02*
X139510000Y-57180000D01*
X157710000Y-57180000D02*
X160070000Y-57180000D01*
X160070000Y-57180000D02*
X160070000Y-67220000D01*
X160070000Y-57800000D02*
X139510000Y-57800000D01*
X160070000Y-59300000D02*
X139510000Y-59300000D01*
X160070000Y-64200000D02*
X139510000Y-64200000D01*
X160070000Y-67220000D02*
X139510000Y-67220000D01*
X157410000Y-57180000D02*
X156970000Y-56570000D01*
X157850000Y-56570000D01*
X157410000Y-57180000D01*
G36*
X157410000Y-57180000D02*
G01*
X156970000Y-56570000D01*
X157850000Y-56570000D01*
X157410000Y-57180000D01*
G37*
%TO.C,C9*%
X184587552Y-75178600D02*
X184065048Y-75178600D01*
X184587552Y-76648600D02*
X184065048Y-76648600D01*
%TO.C,C15*%
X130826248Y-91065000D02*
X131348752Y-91065000D01*
X130826248Y-92535000D02*
X131348752Y-92535000D01*
%TO.C,R27*%
X247765000Y-84815436D02*
X247765000Y-85269564D01*
X249235000Y-84815436D02*
X249235000Y-85269564D01*
%TO.C,SW2*%
X203150000Y-106325000D02*
X203150000Y-104325000D01*
X204150000Y-103025000D02*
X204600000Y-102575000D01*
X204150000Y-107625000D02*
X204600000Y-108075000D01*
X207200000Y-102575000D02*
X204600000Y-102575000D01*
X207200000Y-108075000D02*
X204600000Y-108075000D01*
X207650000Y-103025000D02*
X207200000Y-102575000D01*
X207650000Y-107625000D02*
X207200000Y-108075000D01*
X208650000Y-106325000D02*
X208650000Y-104325000D01*
%TO.C,R8*%
X185566300Y-82153164D02*
X185566300Y-81699036D01*
X187036300Y-82153164D02*
X187036300Y-81699036D01*
%TO.C,U12*%
D15*
X244140000Y-85505000D02*
X244140000Y-85655000D01*
X244150000Y-85505000D02*
X244300000Y-85505000D01*
X244150000Y-88205000D02*
X244150000Y-88055000D01*
X244150000Y-88205000D02*
X244300000Y-88205000D01*
X246850000Y-88055000D02*
X246850000Y-88205000D01*
X246850000Y-88205000D02*
X246700000Y-88205000D01*
D12*
X246850000Y-85505000D02*
X246850000Y-85145000D01*
X247210000Y-85505000D01*
X246850000Y-85505000D01*
G36*
X247210000Y-85505000D02*
G01*
X246850000Y-85505000D01*
X246850000Y-85145000D01*
X247210000Y-85505000D01*
G37*
%TO.C,C28*%
X237188748Y-72965000D02*
X237711252Y-72965000D01*
X237188748Y-74435000D02*
X237711252Y-74435000D01*
%TO.C,TP5*%
X220650000Y-106087200D02*
G75*
G02*
X217750000Y-106087200I-1450000J0D01*
G01*
X217750000Y-106087200D02*
G75*
G02*
X220650000Y-106087200I1450000J0D01*
G01*
%TO.C,C61*%
X149104736Y-111794400D02*
X148889064Y-111794400D01*
X149104736Y-112514400D02*
X148889064Y-112514400D01*
%TO.C,TP2*%
X147050000Y-106272800D02*
G75*
G02*
X144150000Y-106272800I-1450000J0D01*
G01*
X144150000Y-106272800D02*
G75*
G02*
X147050000Y-106272800I1450000J0D01*
G01*
%TO.C,R18*%
X198062964Y-94864400D02*
X197608836Y-94864400D01*
X198062964Y-96334400D02*
X197608836Y-96334400D01*
%TO.C,C4*%
X161436252Y-91765000D02*
X160913748Y-91765000D01*
X161436252Y-93235000D02*
X160913748Y-93235000D01*
%TO.C,C23*%
X235465000Y-62338748D02*
X235465000Y-62861252D01*
X236935000Y-62338748D02*
X236935000Y-62861252D01*
%TO.C,U1*%
X148740000Y-85945000D02*
X152860000Y-85945000D01*
X148740000Y-86040000D02*
X148740000Y-85945000D01*
X148740000Y-91065000D02*
X148740000Y-90970000D01*
X152860000Y-85945000D02*
X152860000Y-86040000D01*
X152860000Y-90970000D02*
X152860000Y-91065000D01*
X152860000Y-91065000D02*
X148740000Y-91065000D01*
X153400000Y-90975000D02*
X153640000Y-91305000D01*
X153160000Y-91305000D01*
X153400000Y-90975000D01*
G36*
X153640000Y-91305000D02*
G01*
X153160000Y-91305000D01*
X153400000Y-90975000D01*
X153640000Y-91305000D01*
G37*
%TO.C,U7*%
X186688400Y-94639400D02*
X187163400Y-94639400D01*
X186688400Y-95114400D02*
X186688400Y-94639400D01*
X186688400Y-98859400D02*
X186688400Y-98384400D01*
X187163400Y-98859400D02*
X186688400Y-98859400D01*
X190433400Y-94639400D02*
X190908400Y-94639400D01*
X190908400Y-94639400D02*
X190908400Y-95114400D01*
X190908400Y-98384400D02*
X190908400Y-98859400D01*
X190908400Y-98859400D02*
X190433400Y-98859400D01*
X186188400Y-95499400D02*
X185858400Y-95739400D01*
X185858400Y-95259400D01*
X186188400Y-95499400D01*
G36*
X186188400Y-95499400D02*
G01*
X185858400Y-95739400D01*
X185858400Y-95259400D01*
X186188400Y-95499400D01*
G37*
%TO.C,C3*%
X217463748Y-91865000D02*
X217986252Y-91865000D01*
X217463748Y-93335000D02*
X217986252Y-93335000D01*
%TO.C,D19*%
X202571700Y-111477200D02*
X202571700Y-109177200D01*
X205471700Y-111477200D02*
X202571700Y-111477200D01*
X205471700Y-111477200D02*
X205771700Y-111177200D01*
X205771700Y-109177200D02*
X202571700Y-109177200D01*
X205771700Y-109177200D02*
X205771700Y-111177200D01*
%TO.C,D24*%
X170811900Y-111354400D02*
X170811900Y-109054400D01*
X173711900Y-111354400D02*
X170811900Y-111354400D01*
X173711900Y-111354400D02*
X174011900Y-111054400D01*
X174011900Y-109054400D02*
X170811900Y-109054400D01*
X174011900Y-109054400D02*
X174011900Y-111054400D01*
%TO.C,D28*%
X154811900Y-111354400D02*
X154811900Y-109054400D01*
X157711900Y-111354400D02*
X154811900Y-111354400D01*
X157711900Y-111354400D02*
X158011900Y-111054400D01*
X158011900Y-109054400D02*
X154811900Y-109054400D01*
X158011900Y-109054400D02*
X158011900Y-111054400D01*
%TO.C,D2*%
X196116300Y-77453600D02*
X196116300Y-79373600D01*
X196116300Y-79373600D02*
X198801300Y-79373600D01*
X198801300Y-77453600D02*
X196116300Y-77453600D01*
%TO.C,JP1*%
X237875000Y-96500000D02*
X240675000Y-96500000D01*
X237875000Y-98500000D02*
X237875000Y-96500000D01*
X240675000Y-96500000D02*
X240675000Y-98500000D01*
X240675000Y-98500000D02*
X237875000Y-98500000D01*
%TO.C,U9*%
X170045300Y-74110000D02*
X170045300Y-69490000D01*
X175515300Y-69490000D02*
X175515300Y-74110000D01*
X175060300Y-67940000D02*
X174820300Y-67610000D01*
X175300300Y-67610000D01*
X175060300Y-67940000D01*
G36*
X175060300Y-67940000D02*
G01*
X174820300Y-67610000D01*
X175300300Y-67610000D01*
X175060300Y-67940000D01*
G37*
%TO.C,C30*%
X172045300Y-77973752D02*
X172045300Y-77451248D01*
X173515300Y-77973752D02*
X173515300Y-77451248D01*
%TO.C,J4*%
X162880300Y-57180000D02*
X180480300Y-57180000D01*
X162880300Y-67220000D02*
X162880300Y-57180000D01*
X181080300Y-57180000D02*
X183440300Y-57180000D01*
X183440300Y-57180000D02*
X183440300Y-67220000D01*
X183440300Y-57800000D02*
X162880300Y-57800000D01*
X183440300Y-59300000D02*
X162880300Y-59300000D01*
X183440300Y-64200000D02*
X162880300Y-64200000D01*
X183440300Y-67220000D02*
X162880300Y-67220000D01*
X180780300Y-57180000D02*
X180340300Y-56570000D01*
X181220300Y-56570000D01*
X180780300Y-57180000D01*
G36*
X180780300Y-57180000D02*
G01*
X180340300Y-56570000D01*
X181220300Y-56570000D01*
X180780300Y-57180000D01*
G37*
%TO.C,C32*%
X174545300Y-77451248D02*
X174545300Y-77973752D01*
X176015300Y-77451248D02*
X176015300Y-77973752D01*
%TO.C,C31*%
X169545300Y-77973752D02*
X169545300Y-77451248D01*
X171015300Y-77973752D02*
X171015300Y-77451248D01*
%TO.C,JP2*%
X242375000Y-96500000D02*
X245175000Y-96500000D01*
X242375000Y-98500000D02*
X242375000Y-96500000D01*
X245175000Y-96500000D02*
X245175000Y-98500000D01*
X245175000Y-98500000D02*
X242375000Y-98500000D01*
%TO.C,C13*%
X189816300Y-81702348D02*
X189816300Y-82224852D01*
X191286300Y-81702348D02*
X191286300Y-82224852D01*
%TO.C,TP4*%
X155050000Y-106272800D02*
G75*
G02*
X152150000Y-106272800I-1450000J0D01*
G01*
X152150000Y-106272800D02*
G75*
G02*
X155050000Y-106272800I1450000J0D01*
G01*
%TO.C,J1*%
X183500000Y-110760000D02*
X183500000Y-112760000D01*
X192900000Y-110760000D02*
X192900000Y-112760000D01*
%TO.C,C24*%
X237665000Y-62288748D02*
X237665000Y-62811252D01*
X239135000Y-62288748D02*
X239135000Y-62811252D01*
%TO.C,D13*%
X226986700Y-111527200D02*
X226986700Y-109227200D01*
X229886700Y-111527200D02*
X226986700Y-111527200D01*
X229886700Y-111527200D02*
X230186700Y-111227200D01*
X230186700Y-109227200D02*
X226986700Y-109227200D01*
X230186700Y-109227200D02*
X230186700Y-111227200D01*
%TO.C,C40*%
X241259536Y-112067200D02*
X241043864Y-112067200D01*
X241259536Y-112787200D02*
X241043864Y-112787200D01*
%TO.C,J7*%
X249820000Y-94250000D02*
X251200000Y-94250000D01*
X249820000Y-95630000D02*
X249820000Y-94250000D01*
X249820000Y-96900000D02*
X249820000Y-104630000D01*
X249820000Y-96900000D02*
X252580000Y-96900000D01*
X249820000Y-104630000D02*
X252580000Y-104630000D01*
X252580000Y-96900000D02*
X252580000Y-104630000D01*
%TO.C,R24*%
X237665000Y-70060436D02*
X237665000Y-70514564D01*
X239135000Y-70060436D02*
X239135000Y-70514564D01*
%TO.C,C56*%
X165084736Y-111894400D02*
X164869064Y-111894400D01*
X165084736Y-112614400D02*
X164869064Y-112614400D01*
%TO.C,U10*%
X131015000Y-94365000D02*
X135135000Y-94365000D01*
X131015000Y-94420000D02*
X131015000Y-94365000D01*
X131015000Y-104485000D02*
X131015000Y-104430000D01*
X135135000Y-94365000D02*
X135135000Y-94420000D01*
X135135000Y-104430000D02*
X135135000Y-104485000D01*
X135135000Y-104485000D02*
X131015000Y-104485000D01*
X130475000Y-94415000D02*
X130235000Y-94085000D01*
X130715000Y-94085000D01*
X130475000Y-94415000D01*
G36*
X130475000Y-94415000D02*
G01*
X130235000Y-94085000D01*
X130715000Y-94085000D01*
X130475000Y-94415000D01*
G37*
%TO.C,U5*%
X204627500Y-61790000D02*
X206447500Y-61790000D01*
X204627500Y-61840000D02*
X204627500Y-61790000D01*
X204627500Y-64910000D02*
X204627500Y-64860000D01*
X206447500Y-61790000D02*
X206447500Y-61840000D01*
X206447500Y-64860000D02*
X206447500Y-64910000D01*
X206447500Y-64910000D02*
X204627500Y-64910000D01*
X204087500Y-61840000D02*
X203847500Y-61510000D01*
X204327500Y-61510000D01*
X204087500Y-61840000D01*
G36*
X204087500Y-61840000D02*
G01*
X203847500Y-61510000D01*
X204327500Y-61510000D01*
X204087500Y-61840000D01*
G37*
%TO.C,R30*%
X211660436Y-100465000D02*
X212114564Y-100465000D01*
X211660436Y-101935000D02*
X212114564Y-101935000D01*
%TO.C,R9*%
X131227064Y-88565000D02*
X130772936Y-88565000D01*
X131227064Y-90035000D02*
X130772936Y-90035000D01*
%TO.C,C10*%
X184587552Y-77353600D02*
X184065048Y-77353600D01*
X184587552Y-78823600D02*
X184065048Y-78823600D01*
%TO.C,R23*%
X237272936Y-75765000D02*
X237727064Y-75765000D01*
X237272936Y-77235000D02*
X237727064Y-77235000D01*
%TO.C,C51*%
X196799536Y-111917200D02*
X196583864Y-111917200D01*
X196799536Y-112637200D02*
X196583864Y-112637200D01*
%TO.C,TH1*%
X197424236Y-80628600D02*
X197878364Y-80628600D01*
X197424236Y-82098600D02*
X197878364Y-82098600D01*
%TO.C,R26*%
X247765000Y-88944564D02*
X247765000Y-88490436D01*
X249235000Y-88944564D02*
X249235000Y-88490436D01*
%TO.C,D6*%
X192226300Y-87298600D02*
X192226300Y-81788600D01*
X192226300Y-87298600D02*
X195526300Y-87298600D01*
X195526300Y-87298600D02*
X195526300Y-81788600D01*
%TO.C,C42*%
X233259536Y-112067200D02*
X233043864Y-112067200D01*
X233259536Y-112787200D02*
X233043864Y-112787200D01*
%TO.C,R17*%
X198182964Y-97459400D02*
X197728836Y-97459400D01*
X198182964Y-98929400D02*
X197728836Y-98929400D01*
%TO.C,D15*%
X218901700Y-111477200D02*
X218901700Y-109177200D01*
X221801700Y-111477200D02*
X218901700Y-111477200D01*
X221801700Y-111477200D02*
X222101700Y-111177200D01*
X222101700Y-109177200D02*
X218901700Y-109177200D01*
X222101700Y-109177200D02*
X222101700Y-111177200D01*
%TO.C,D20*%
X198571700Y-111477200D02*
X198571700Y-109177200D01*
X201471700Y-111477200D02*
X198571700Y-111477200D01*
X201471700Y-111477200D02*
X201771700Y-111177200D01*
X201771700Y-109177200D02*
X198571700Y-109177200D01*
X201771700Y-109177200D02*
X201771700Y-111177200D01*
%TO.C,D10*%
X238986700Y-111527200D02*
X238986700Y-109227200D01*
X241886700Y-111527200D02*
X238986700Y-111527200D01*
X241886700Y-111527200D02*
X242186700Y-111227200D01*
X242186700Y-109227200D02*
X238986700Y-109227200D01*
X242186700Y-109227200D02*
X242186700Y-111227200D01*
%TD*%
D16*
%TO.C,J3*%
X135379900Y-78800000D03*
D17*
X128458400Y-79536600D03*
%TD*%
M02*
