%TF.GenerationSoftware,KiCad,Pcbnew,10.0.3-1.fc43*%
%TF.CreationDate,2026-05-27T22:45:46+02:00*%
%TF.ProjectId,robot,726f626f-742e-46b6-9963-61645f706362,rev?*%
%TF.SameCoordinates,Original*%
%TF.FileFunction,Legend,Top*%
%TF.FilePolarity,Positive*%
%FSLAX46Y46*%
G04 Gerber Fmt 4.6, Leading zero omitted, Abs format (unit mm)*
G04 Created by KiCad (PCBNEW 10.0.3-1.fc43) date 2026-05-27 22:45:46*
%MOMM*%
%LPD*%
G01*
G04 APERTURE LIST*
%ADD10C,0.080000*%
%ADD11C,0.150000*%
%ADD12C,0.000250*%
%ADD13C,0.120000*%
%ADD14C,0.100000*%
%ADD15C,0.127000*%
%ADD16C,0.200000*%
%ADD17O,7.112000X3.556000*%
%ADD18O,3.556000X7.112000*%
G04 APERTURE END LIST*
D10*
X122804059Y-85004649D02*
X123113583Y-85004649D01*
X123113583Y-85004649D02*
X122946916Y-85195125D01*
X122946916Y-85195125D02*
X123018345Y-85195125D01*
X123018345Y-85195125D02*
X123065964Y-85218935D01*
X123065964Y-85218935D02*
X123089773Y-85242744D01*
X123089773Y-85242744D02*
X123113583Y-85290363D01*
X123113583Y-85290363D02*
X123113583Y-85409411D01*
X123113583Y-85409411D02*
X123089773Y-85457030D01*
X123089773Y-85457030D02*
X123065964Y-85480840D01*
X123065964Y-85480840D02*
X123018345Y-85504649D01*
X123018345Y-85504649D02*
X122875488Y-85504649D01*
X122875488Y-85504649D02*
X122827869Y-85480840D01*
X122827869Y-85480840D02*
X122804059Y-85457030D01*
X123327868Y-85457030D02*
X123351678Y-85480840D01*
X123351678Y-85480840D02*
X123327868Y-85504649D01*
X123327868Y-85504649D02*
X123304059Y-85480840D01*
X123304059Y-85480840D02*
X123327868Y-85457030D01*
X123327868Y-85457030D02*
X123327868Y-85504649D01*
X123518344Y-85004649D02*
X123827868Y-85004649D01*
X123827868Y-85004649D02*
X123661201Y-85195125D01*
X123661201Y-85195125D02*
X123732630Y-85195125D01*
X123732630Y-85195125D02*
X123780249Y-85218935D01*
X123780249Y-85218935D02*
X123804058Y-85242744D01*
X123804058Y-85242744D02*
X123827868Y-85290363D01*
X123827868Y-85290363D02*
X123827868Y-85409411D01*
X123827868Y-85409411D02*
X123804058Y-85457030D01*
X123804058Y-85457030D02*
X123780249Y-85480840D01*
X123780249Y-85480840D02*
X123732630Y-85504649D01*
X123732630Y-85504649D02*
X123589773Y-85504649D01*
X123589773Y-85504649D02*
X123542154Y-85480840D01*
X123542154Y-85480840D02*
X123518344Y-85457030D01*
X123970725Y-85004649D02*
X124137391Y-85504649D01*
X124137391Y-85504649D02*
X124304058Y-85004649D01*
X252824059Y-95434649D02*
X253133583Y-95434649D01*
X253133583Y-95434649D02*
X252966916Y-95625125D01*
X252966916Y-95625125D02*
X253038345Y-95625125D01*
X253038345Y-95625125D02*
X253085964Y-95648935D01*
X253085964Y-95648935D02*
X253109773Y-95672744D01*
X253109773Y-95672744D02*
X253133583Y-95720363D01*
X253133583Y-95720363D02*
X253133583Y-95839411D01*
X253133583Y-95839411D02*
X253109773Y-95887030D01*
X253109773Y-95887030D02*
X253085964Y-95910840D01*
X253085964Y-95910840D02*
X253038345Y-95934649D01*
X253038345Y-95934649D02*
X252895488Y-95934649D01*
X252895488Y-95934649D02*
X252847869Y-95910840D01*
X252847869Y-95910840D02*
X252824059Y-95887030D01*
X253347868Y-95887030D02*
X253371678Y-95910840D01*
X253371678Y-95910840D02*
X253347868Y-95934649D01*
X253347868Y-95934649D02*
X253324059Y-95910840D01*
X253324059Y-95910840D02*
X253347868Y-95887030D01*
X253347868Y-95887030D02*
X253347868Y-95934649D01*
X253538344Y-95434649D02*
X253847868Y-95434649D01*
X253847868Y-95434649D02*
X253681201Y-95625125D01*
X253681201Y-95625125D02*
X253752630Y-95625125D01*
X253752630Y-95625125D02*
X253800249Y-95648935D01*
X253800249Y-95648935D02*
X253824058Y-95672744D01*
X253824058Y-95672744D02*
X253847868Y-95720363D01*
X253847868Y-95720363D02*
X253847868Y-95839411D01*
X253847868Y-95839411D02*
X253824058Y-95887030D01*
X253824058Y-95887030D02*
X253800249Y-95910840D01*
X253800249Y-95910840D02*
X253752630Y-95934649D01*
X253752630Y-95934649D02*
X253609773Y-95934649D01*
X253609773Y-95934649D02*
X253562154Y-95910840D01*
X253562154Y-95910840D02*
X253538344Y-95887030D01*
X253990725Y-95434649D02*
X254157391Y-95934649D01*
X254157391Y-95934649D02*
X254324058Y-95434649D01*
X252916649Y-97961352D02*
X253202363Y-97961352D01*
X253059506Y-98461352D02*
X253059506Y-97961352D01*
X253321410Y-97961352D02*
X253654743Y-98461352D01*
X253654743Y-97961352D02*
X253321410Y-98461352D01*
X253307392Y-101064649D02*
X253140726Y-100826554D01*
X253021678Y-101064649D02*
X253021678Y-100564649D01*
X253021678Y-100564649D02*
X253212154Y-100564649D01*
X253212154Y-100564649D02*
X253259773Y-100588459D01*
X253259773Y-100588459D02*
X253283583Y-100612268D01*
X253283583Y-100612268D02*
X253307392Y-100659887D01*
X253307392Y-100659887D02*
X253307392Y-100731316D01*
X253307392Y-100731316D02*
X253283583Y-100778935D01*
X253283583Y-100778935D02*
X253259773Y-100802744D01*
X253259773Y-100802744D02*
X253212154Y-100826554D01*
X253212154Y-100826554D02*
X253021678Y-100826554D01*
X253474059Y-100564649D02*
X253807392Y-101064649D01*
X253807392Y-100564649D02*
X253474059Y-101064649D01*
X253249982Y-102995162D02*
X253202363Y-102971352D01*
X253202363Y-102971352D02*
X253130934Y-102971352D01*
X253130934Y-102971352D02*
X253059506Y-102995162D01*
X253059506Y-102995162D02*
X253011887Y-103042781D01*
X253011887Y-103042781D02*
X252988077Y-103090400D01*
X252988077Y-103090400D02*
X252964268Y-103185638D01*
X252964268Y-103185638D02*
X252964268Y-103257066D01*
X252964268Y-103257066D02*
X252988077Y-103352304D01*
X252988077Y-103352304D02*
X253011887Y-103399923D01*
X253011887Y-103399923D02*
X253059506Y-103447543D01*
X253059506Y-103447543D02*
X253130934Y-103471352D01*
X253130934Y-103471352D02*
X253178553Y-103471352D01*
X253178553Y-103471352D02*
X253249982Y-103447543D01*
X253249982Y-103447543D02*
X253273791Y-103423733D01*
X253273791Y-103423733D02*
X253273791Y-103257066D01*
X253273791Y-103257066D02*
X253178553Y-103257066D01*
X253488077Y-103471352D02*
X253488077Y-102971352D01*
X253488077Y-102971352D02*
X253773791Y-103471352D01*
X253773791Y-103471352D02*
X253773791Y-102971352D01*
X254011887Y-103471352D02*
X254011887Y-102971352D01*
X254011887Y-102971352D02*
X254130935Y-102971352D01*
X254130935Y-102971352D02*
X254202363Y-102995162D01*
X254202363Y-102995162D02*
X254249982Y-103042781D01*
X254249982Y-103042781D02*
X254273792Y-103090400D01*
X254273792Y-103090400D02*
X254297601Y-103185638D01*
X254297601Y-103185638D02*
X254297601Y-103257066D01*
X254297601Y-103257066D02*
X254273792Y-103352304D01*
X254273792Y-103352304D02*
X254249982Y-103399923D01*
X254249982Y-103399923D02*
X254202363Y-103447543D01*
X254202363Y-103447543D02*
X254130935Y-103471352D01*
X254130935Y-103471352D02*
X254011887Y-103471352D01*
X247033459Y-90479273D02*
X246033459Y-90479273D01*
X246128697Y-90050702D02*
X246081078Y-90003083D01*
X246081078Y-90003083D02*
X246033459Y-89907845D01*
X246033459Y-89907845D02*
X246033459Y-89669750D01*
X246033459Y-89669750D02*
X246081078Y-89574512D01*
X246081078Y-89574512D02*
X246128697Y-89526893D01*
X246128697Y-89526893D02*
X246223935Y-89479274D01*
X246223935Y-89479274D02*
X246319173Y-89479274D01*
X246319173Y-89479274D02*
X246462030Y-89526893D01*
X246462030Y-89526893D02*
X247033459Y-90098321D01*
X247033459Y-90098321D02*
X247033459Y-89479274D01*
X246938220Y-88479274D02*
X246985840Y-88526893D01*
X246985840Y-88526893D02*
X247033459Y-88669750D01*
X247033459Y-88669750D02*
X247033459Y-88764988D01*
X247033459Y-88764988D02*
X246985840Y-88907845D01*
X246985840Y-88907845D02*
X246890601Y-89003083D01*
X246890601Y-89003083D02*
X246795363Y-89050702D01*
X246795363Y-89050702D02*
X246604887Y-89098321D01*
X246604887Y-89098321D02*
X246462030Y-89098321D01*
X246462030Y-89098321D02*
X246271554Y-89050702D01*
X246271554Y-89050702D02*
X246176316Y-89003083D01*
X246176316Y-89003083D02*
X246081078Y-88907845D01*
X246081078Y-88907845D02*
X246033459Y-88764988D01*
X246033459Y-88764988D02*
X246033459Y-88669750D01*
X246033459Y-88669750D02*
X246081078Y-88526893D01*
X246081078Y-88526893D02*
X246128697Y-88479274D01*
X253224982Y-83635162D02*
X253177363Y-83611352D01*
X253177363Y-83611352D02*
X253105934Y-83611352D01*
X253105934Y-83611352D02*
X253034506Y-83635162D01*
X253034506Y-83635162D02*
X252986887Y-83682781D01*
X252986887Y-83682781D02*
X252963077Y-83730400D01*
X252963077Y-83730400D02*
X252939268Y-83825638D01*
X252939268Y-83825638D02*
X252939268Y-83897066D01*
X252939268Y-83897066D02*
X252963077Y-83992304D01*
X252963077Y-83992304D02*
X252986887Y-84039923D01*
X252986887Y-84039923D02*
X253034506Y-84087543D01*
X253034506Y-84087543D02*
X253105934Y-84111352D01*
X253105934Y-84111352D02*
X253153553Y-84111352D01*
X253153553Y-84111352D02*
X253224982Y-84087543D01*
X253224982Y-84087543D02*
X253248791Y-84063733D01*
X253248791Y-84063733D02*
X253248791Y-83897066D01*
X253248791Y-83897066D02*
X253153553Y-83897066D01*
X253463077Y-84111352D02*
X253463077Y-83611352D01*
X253463077Y-83611352D02*
X253748791Y-84111352D01*
X253748791Y-84111352D02*
X253748791Y-83611352D01*
X253986887Y-84111352D02*
X253986887Y-83611352D01*
X253986887Y-83611352D02*
X254105935Y-83611352D01*
X254105935Y-83611352D02*
X254177363Y-83635162D01*
X254177363Y-83635162D02*
X254224982Y-83682781D01*
X254224982Y-83682781D02*
X254248792Y-83730400D01*
X254248792Y-83730400D02*
X254272601Y-83825638D01*
X254272601Y-83825638D02*
X254272601Y-83897066D01*
X254272601Y-83897066D02*
X254248792Y-83992304D01*
X254248792Y-83992304D02*
X254224982Y-84039923D01*
X254224982Y-84039923D02*
X254177363Y-84087543D01*
X254177363Y-84087543D02*
X254105935Y-84111352D01*
X254105935Y-84111352D02*
X253986887Y-84111352D01*
X252939268Y-89217543D02*
X253010696Y-89241352D01*
X253010696Y-89241352D02*
X253129744Y-89241352D01*
X253129744Y-89241352D02*
X253177363Y-89217543D01*
X253177363Y-89217543D02*
X253201172Y-89193733D01*
X253201172Y-89193733D02*
X253224982Y-89146114D01*
X253224982Y-89146114D02*
X253224982Y-89098495D01*
X253224982Y-89098495D02*
X253201172Y-89050876D01*
X253201172Y-89050876D02*
X253177363Y-89027066D01*
X253177363Y-89027066D02*
X253129744Y-89003257D01*
X253129744Y-89003257D02*
X253034506Y-88979447D01*
X253034506Y-88979447D02*
X252986887Y-88955638D01*
X252986887Y-88955638D02*
X252963077Y-88931828D01*
X252963077Y-88931828D02*
X252939268Y-88884209D01*
X252939268Y-88884209D02*
X252939268Y-88836590D01*
X252939268Y-88836590D02*
X252963077Y-88788971D01*
X252963077Y-88788971D02*
X252986887Y-88765162D01*
X252986887Y-88765162D02*
X253034506Y-88741352D01*
X253034506Y-88741352D02*
X253153553Y-88741352D01*
X253153553Y-88741352D02*
X253224982Y-88765162D01*
X253439267Y-89241352D02*
X253439267Y-88741352D01*
X253439267Y-88741352D02*
X253558315Y-88741352D01*
X253558315Y-88741352D02*
X253629743Y-88765162D01*
X253629743Y-88765162D02*
X253677362Y-88812781D01*
X253677362Y-88812781D02*
X253701172Y-88860400D01*
X253701172Y-88860400D02*
X253724981Y-88955638D01*
X253724981Y-88955638D02*
X253724981Y-89027066D01*
X253724981Y-89027066D02*
X253701172Y-89122304D01*
X253701172Y-89122304D02*
X253677362Y-89169923D01*
X253677362Y-89169923D02*
X253629743Y-89217543D01*
X253629743Y-89217543D02*
X253558315Y-89241352D01*
X253558315Y-89241352D02*
X253439267Y-89241352D01*
X253915458Y-89098495D02*
X254153553Y-89098495D01*
X253867839Y-89241352D02*
X254034505Y-88741352D01*
X254034505Y-88741352D02*
X254201172Y-89241352D01*
X252939268Y-86627543D02*
X253010696Y-86651352D01*
X253010696Y-86651352D02*
X253129744Y-86651352D01*
X253129744Y-86651352D02*
X253177363Y-86627543D01*
X253177363Y-86627543D02*
X253201172Y-86603733D01*
X253201172Y-86603733D02*
X253224982Y-86556114D01*
X253224982Y-86556114D02*
X253224982Y-86508495D01*
X253224982Y-86508495D02*
X253201172Y-86460876D01*
X253201172Y-86460876D02*
X253177363Y-86437066D01*
X253177363Y-86437066D02*
X253129744Y-86413257D01*
X253129744Y-86413257D02*
X253034506Y-86389447D01*
X253034506Y-86389447D02*
X252986887Y-86365638D01*
X252986887Y-86365638D02*
X252963077Y-86341828D01*
X252963077Y-86341828D02*
X252939268Y-86294209D01*
X252939268Y-86294209D02*
X252939268Y-86246590D01*
X252939268Y-86246590D02*
X252963077Y-86198971D01*
X252963077Y-86198971D02*
X252986887Y-86175162D01*
X252986887Y-86175162D02*
X253034506Y-86151352D01*
X253034506Y-86151352D02*
X253153553Y-86151352D01*
X253153553Y-86151352D02*
X253224982Y-86175162D01*
X253724981Y-86603733D02*
X253701172Y-86627543D01*
X253701172Y-86627543D02*
X253629743Y-86651352D01*
X253629743Y-86651352D02*
X253582124Y-86651352D01*
X253582124Y-86651352D02*
X253510696Y-86627543D01*
X253510696Y-86627543D02*
X253463077Y-86579923D01*
X253463077Y-86579923D02*
X253439267Y-86532304D01*
X253439267Y-86532304D02*
X253415458Y-86437066D01*
X253415458Y-86437066D02*
X253415458Y-86365638D01*
X253415458Y-86365638D02*
X253439267Y-86270400D01*
X253439267Y-86270400D02*
X253463077Y-86222781D01*
X253463077Y-86222781D02*
X253510696Y-86175162D01*
X253510696Y-86175162D02*
X253582124Y-86151352D01*
X253582124Y-86151352D02*
X253629743Y-86151352D01*
X253629743Y-86151352D02*
X253701172Y-86175162D01*
X253701172Y-86175162D02*
X253724981Y-86198971D01*
X254177362Y-86651352D02*
X253939267Y-86651352D01*
X253939267Y-86651352D02*
X253939267Y-86151352D01*
X252867549Y-91161352D02*
X253177073Y-91161352D01*
X253177073Y-91161352D02*
X253010406Y-91351828D01*
X253010406Y-91351828D02*
X253081835Y-91351828D01*
X253081835Y-91351828D02*
X253129454Y-91375638D01*
X253129454Y-91375638D02*
X253153263Y-91399447D01*
X253153263Y-91399447D02*
X253177073Y-91447066D01*
X253177073Y-91447066D02*
X253177073Y-91566114D01*
X253177073Y-91566114D02*
X253153263Y-91613733D01*
X253153263Y-91613733D02*
X253129454Y-91637543D01*
X253129454Y-91637543D02*
X253081835Y-91661352D01*
X253081835Y-91661352D02*
X252938978Y-91661352D01*
X252938978Y-91661352D02*
X252891359Y-91637543D01*
X252891359Y-91637543D02*
X252867549Y-91613733D01*
X253391358Y-91613733D02*
X253415168Y-91637543D01*
X253415168Y-91637543D02*
X253391358Y-91661352D01*
X253391358Y-91661352D02*
X253367549Y-91637543D01*
X253367549Y-91637543D02*
X253391358Y-91613733D01*
X253391358Y-91613733D02*
X253391358Y-91661352D01*
X253581834Y-91161352D02*
X253891358Y-91161352D01*
X253891358Y-91161352D02*
X253724691Y-91351828D01*
X253724691Y-91351828D02*
X253796120Y-91351828D01*
X253796120Y-91351828D02*
X253843739Y-91375638D01*
X253843739Y-91375638D02*
X253867548Y-91399447D01*
X253867548Y-91399447D02*
X253891358Y-91447066D01*
X253891358Y-91447066D02*
X253891358Y-91566114D01*
X253891358Y-91566114D02*
X253867548Y-91613733D01*
X253867548Y-91613733D02*
X253843739Y-91637543D01*
X253843739Y-91637543D02*
X253796120Y-91661352D01*
X253796120Y-91661352D02*
X253653263Y-91661352D01*
X253653263Y-91661352D02*
X253605644Y-91637543D01*
X253605644Y-91637543D02*
X253581834Y-91613733D01*
X254034215Y-91161352D02*
X254200881Y-91661352D01*
X254200881Y-91661352D02*
X254367548Y-91161352D01*
X122827869Y-88200840D02*
X122899297Y-88224649D01*
X122899297Y-88224649D02*
X123018345Y-88224649D01*
X123018345Y-88224649D02*
X123065964Y-88200840D01*
X123065964Y-88200840D02*
X123089773Y-88177030D01*
X123089773Y-88177030D02*
X123113583Y-88129411D01*
X123113583Y-88129411D02*
X123113583Y-88081792D01*
X123113583Y-88081792D02*
X123089773Y-88034173D01*
X123089773Y-88034173D02*
X123065964Y-88010363D01*
X123065964Y-88010363D02*
X123018345Y-87986554D01*
X123018345Y-87986554D02*
X122923107Y-87962744D01*
X122923107Y-87962744D02*
X122875488Y-87938935D01*
X122875488Y-87938935D02*
X122851678Y-87915125D01*
X122851678Y-87915125D02*
X122827869Y-87867506D01*
X122827869Y-87867506D02*
X122827869Y-87819887D01*
X122827869Y-87819887D02*
X122851678Y-87772268D01*
X122851678Y-87772268D02*
X122875488Y-87748459D01*
X122875488Y-87748459D02*
X122923107Y-87724649D01*
X122923107Y-87724649D02*
X123042154Y-87724649D01*
X123042154Y-87724649D02*
X123113583Y-87748459D01*
X123589773Y-88224649D02*
X123304059Y-88224649D01*
X123446916Y-88224649D02*
X123446916Y-87724649D01*
X123446916Y-87724649D02*
X123399297Y-87796078D01*
X123399297Y-87796078D02*
X123351678Y-87843697D01*
X123351678Y-87843697D02*
X123304059Y-87867506D01*
X122827869Y-90600840D02*
X122899297Y-90624649D01*
X122899297Y-90624649D02*
X123018345Y-90624649D01*
X123018345Y-90624649D02*
X123065964Y-90600840D01*
X123065964Y-90600840D02*
X123089773Y-90577030D01*
X123089773Y-90577030D02*
X123113583Y-90529411D01*
X123113583Y-90529411D02*
X123113583Y-90481792D01*
X123113583Y-90481792D02*
X123089773Y-90434173D01*
X123089773Y-90434173D02*
X123065964Y-90410363D01*
X123065964Y-90410363D02*
X123018345Y-90386554D01*
X123018345Y-90386554D02*
X122923107Y-90362744D01*
X122923107Y-90362744D02*
X122875488Y-90338935D01*
X122875488Y-90338935D02*
X122851678Y-90315125D01*
X122851678Y-90315125D02*
X122827869Y-90267506D01*
X122827869Y-90267506D02*
X122827869Y-90219887D01*
X122827869Y-90219887D02*
X122851678Y-90172268D01*
X122851678Y-90172268D02*
X122875488Y-90148459D01*
X122875488Y-90148459D02*
X122923107Y-90124649D01*
X122923107Y-90124649D02*
X123042154Y-90124649D01*
X123042154Y-90124649D02*
X123113583Y-90148459D01*
X123304059Y-90172268D02*
X123327868Y-90148459D01*
X123327868Y-90148459D02*
X123375487Y-90124649D01*
X123375487Y-90124649D02*
X123494535Y-90124649D01*
X123494535Y-90124649D02*
X123542154Y-90148459D01*
X123542154Y-90148459D02*
X123565963Y-90172268D01*
X123565963Y-90172268D02*
X123589773Y-90219887D01*
X123589773Y-90219887D02*
X123589773Y-90267506D01*
X123589773Y-90267506D02*
X123565963Y-90338935D01*
X123565963Y-90338935D02*
X123280249Y-90624649D01*
X123280249Y-90624649D02*
X123589773Y-90624649D01*
X122827869Y-93245868D02*
X122899297Y-93269677D01*
X122899297Y-93269677D02*
X123018345Y-93269677D01*
X123018345Y-93269677D02*
X123065964Y-93245868D01*
X123065964Y-93245868D02*
X123089773Y-93222058D01*
X123089773Y-93222058D02*
X123113583Y-93174439D01*
X123113583Y-93174439D02*
X123113583Y-93126820D01*
X123113583Y-93126820D02*
X123089773Y-93079201D01*
X123089773Y-93079201D02*
X123065964Y-93055391D01*
X123065964Y-93055391D02*
X123018345Y-93031582D01*
X123018345Y-93031582D02*
X122923107Y-93007772D01*
X122923107Y-93007772D02*
X122875488Y-92983963D01*
X122875488Y-92983963D02*
X122851678Y-92960153D01*
X122851678Y-92960153D02*
X122827869Y-92912534D01*
X122827869Y-92912534D02*
X122827869Y-92864915D01*
X122827869Y-92864915D02*
X122851678Y-92817296D01*
X122851678Y-92817296D02*
X122875488Y-92793487D01*
X122875488Y-92793487D02*
X122923107Y-92769677D01*
X122923107Y-92769677D02*
X123042154Y-92769677D01*
X123042154Y-92769677D02*
X123113583Y-92793487D01*
X123280249Y-92769677D02*
X123589773Y-92769677D01*
X123589773Y-92769677D02*
X123423106Y-92960153D01*
X123423106Y-92960153D02*
X123494535Y-92960153D01*
X123494535Y-92960153D02*
X123542154Y-92983963D01*
X123542154Y-92983963D02*
X123565963Y-93007772D01*
X123565963Y-93007772D02*
X123589773Y-93055391D01*
X123589773Y-93055391D02*
X123589773Y-93174439D01*
X123589773Y-93174439D02*
X123565963Y-93222058D01*
X123565963Y-93222058D02*
X123542154Y-93245868D01*
X123542154Y-93245868D02*
X123494535Y-93269677D01*
X123494535Y-93269677D02*
X123351678Y-93269677D01*
X123351678Y-93269677D02*
X123304059Y-93245868D01*
X123304059Y-93245868D02*
X123280249Y-93222058D01*
X122827869Y-95845868D02*
X122899297Y-95869677D01*
X122899297Y-95869677D02*
X123018345Y-95869677D01*
X123018345Y-95869677D02*
X123065964Y-95845868D01*
X123065964Y-95845868D02*
X123089773Y-95822058D01*
X123089773Y-95822058D02*
X123113583Y-95774439D01*
X123113583Y-95774439D02*
X123113583Y-95726820D01*
X123113583Y-95726820D02*
X123089773Y-95679201D01*
X123089773Y-95679201D02*
X123065964Y-95655391D01*
X123065964Y-95655391D02*
X123018345Y-95631582D01*
X123018345Y-95631582D02*
X122923107Y-95607772D01*
X122923107Y-95607772D02*
X122875488Y-95583963D01*
X122875488Y-95583963D02*
X122851678Y-95560153D01*
X122851678Y-95560153D02*
X122827869Y-95512534D01*
X122827869Y-95512534D02*
X122827869Y-95464915D01*
X122827869Y-95464915D02*
X122851678Y-95417296D01*
X122851678Y-95417296D02*
X122875488Y-95393487D01*
X122875488Y-95393487D02*
X122923107Y-95369677D01*
X122923107Y-95369677D02*
X123042154Y-95369677D01*
X123042154Y-95369677D02*
X123113583Y-95393487D01*
X123542154Y-95536344D02*
X123542154Y-95869677D01*
X123423106Y-95345868D02*
X123304059Y-95703010D01*
X123304059Y-95703010D02*
X123613582Y-95703010D01*
X122827869Y-98370840D02*
X122899297Y-98394649D01*
X122899297Y-98394649D02*
X123018345Y-98394649D01*
X123018345Y-98394649D02*
X123065964Y-98370840D01*
X123065964Y-98370840D02*
X123089773Y-98347030D01*
X123089773Y-98347030D02*
X123113583Y-98299411D01*
X123113583Y-98299411D02*
X123113583Y-98251792D01*
X123113583Y-98251792D02*
X123089773Y-98204173D01*
X123089773Y-98204173D02*
X123065964Y-98180363D01*
X123065964Y-98180363D02*
X123018345Y-98156554D01*
X123018345Y-98156554D02*
X122923107Y-98132744D01*
X122923107Y-98132744D02*
X122875488Y-98108935D01*
X122875488Y-98108935D02*
X122851678Y-98085125D01*
X122851678Y-98085125D02*
X122827869Y-98037506D01*
X122827869Y-98037506D02*
X122827869Y-97989887D01*
X122827869Y-97989887D02*
X122851678Y-97942268D01*
X122851678Y-97942268D02*
X122875488Y-97918459D01*
X122875488Y-97918459D02*
X122923107Y-97894649D01*
X122923107Y-97894649D02*
X123042154Y-97894649D01*
X123042154Y-97894649D02*
X123113583Y-97918459D01*
X123565963Y-97894649D02*
X123327868Y-97894649D01*
X123327868Y-97894649D02*
X123304059Y-98132744D01*
X123304059Y-98132744D02*
X123327868Y-98108935D01*
X123327868Y-98108935D02*
X123375487Y-98085125D01*
X123375487Y-98085125D02*
X123494535Y-98085125D01*
X123494535Y-98085125D02*
X123542154Y-98108935D01*
X123542154Y-98108935D02*
X123565963Y-98132744D01*
X123565963Y-98132744D02*
X123589773Y-98180363D01*
X123589773Y-98180363D02*
X123589773Y-98299411D01*
X123589773Y-98299411D02*
X123565963Y-98347030D01*
X123565963Y-98347030D02*
X123542154Y-98370840D01*
X123542154Y-98370840D02*
X123494535Y-98394649D01*
X123494535Y-98394649D02*
X123375487Y-98394649D01*
X123375487Y-98394649D02*
X123327868Y-98370840D01*
X123327868Y-98370840D02*
X123304059Y-98347030D01*
X123137392Y-100637030D02*
X123113583Y-100660840D01*
X123113583Y-100660840D02*
X123042154Y-100684649D01*
X123042154Y-100684649D02*
X122994535Y-100684649D01*
X122994535Y-100684649D02*
X122923107Y-100660840D01*
X122923107Y-100660840D02*
X122875488Y-100613220D01*
X122875488Y-100613220D02*
X122851678Y-100565601D01*
X122851678Y-100565601D02*
X122827869Y-100470363D01*
X122827869Y-100470363D02*
X122827869Y-100398935D01*
X122827869Y-100398935D02*
X122851678Y-100303697D01*
X122851678Y-100303697D02*
X122875488Y-100256078D01*
X122875488Y-100256078D02*
X122923107Y-100208459D01*
X122923107Y-100208459D02*
X122994535Y-100184649D01*
X122994535Y-100184649D02*
X123042154Y-100184649D01*
X123042154Y-100184649D02*
X123113583Y-100208459D01*
X123113583Y-100208459D02*
X123137392Y-100232268D01*
X123589773Y-100684649D02*
X123351678Y-100684649D01*
X123351678Y-100684649D02*
X123351678Y-100184649D01*
X123756440Y-100684649D02*
X123756440Y-100184649D01*
X123756440Y-100184649D02*
X123946916Y-100184649D01*
X123946916Y-100184649D02*
X123994535Y-100208459D01*
X123994535Y-100208459D02*
X124018345Y-100232268D01*
X124018345Y-100232268D02*
X124042154Y-100279887D01*
X124042154Y-100279887D02*
X124042154Y-100351316D01*
X124042154Y-100351316D02*
X124018345Y-100398935D01*
X124018345Y-100398935D02*
X123994535Y-100422744D01*
X123994535Y-100422744D02*
X123946916Y-100446554D01*
X123946916Y-100446554D02*
X123756440Y-100446554D01*
X122671678Y-103344649D02*
X122671678Y-102844649D01*
X122671678Y-102844649D02*
X122957392Y-103344649D01*
X122957392Y-103344649D02*
X122957392Y-102844649D01*
X123195488Y-103082744D02*
X123362155Y-103082744D01*
X123433583Y-103344649D02*
X123195488Y-103344649D01*
X123195488Y-103344649D02*
X123195488Y-102844649D01*
X123195488Y-102844649D02*
X123433583Y-102844649D01*
X123624060Y-103201792D02*
X123862155Y-103201792D01*
X123576441Y-103344649D02*
X123743107Y-102844649D01*
X123743107Y-102844649D02*
X123909774Y-103344649D01*
X124362154Y-103344649D02*
X124195488Y-103106554D01*
X124076440Y-103344649D02*
X124076440Y-102844649D01*
X124076440Y-102844649D02*
X124266916Y-102844649D01*
X124266916Y-102844649D02*
X124314535Y-102868459D01*
X124314535Y-102868459D02*
X124338345Y-102892268D01*
X124338345Y-102892268D02*
X124362154Y-102939887D01*
X124362154Y-102939887D02*
X124362154Y-103011316D01*
X124362154Y-103011316D02*
X124338345Y-103058935D01*
X124338345Y-103058935D02*
X124314535Y-103082744D01*
X124314535Y-103082744D02*
X124266916Y-103106554D01*
X124266916Y-103106554D02*
X124076440Y-103106554D01*
X123113583Y-105388459D02*
X123065964Y-105364649D01*
X123065964Y-105364649D02*
X122994535Y-105364649D01*
X122994535Y-105364649D02*
X122923107Y-105388459D01*
X122923107Y-105388459D02*
X122875488Y-105436078D01*
X122875488Y-105436078D02*
X122851678Y-105483697D01*
X122851678Y-105483697D02*
X122827869Y-105578935D01*
X122827869Y-105578935D02*
X122827869Y-105650363D01*
X122827869Y-105650363D02*
X122851678Y-105745601D01*
X122851678Y-105745601D02*
X122875488Y-105793220D01*
X122875488Y-105793220D02*
X122923107Y-105840840D01*
X122923107Y-105840840D02*
X122994535Y-105864649D01*
X122994535Y-105864649D02*
X123042154Y-105864649D01*
X123042154Y-105864649D02*
X123113583Y-105840840D01*
X123113583Y-105840840D02*
X123137392Y-105817030D01*
X123137392Y-105817030D02*
X123137392Y-105650363D01*
X123137392Y-105650363D02*
X123042154Y-105650363D01*
X123351678Y-105864649D02*
X123351678Y-105364649D01*
X123351678Y-105364649D02*
X123637392Y-105864649D01*
X123637392Y-105864649D02*
X123637392Y-105364649D01*
X123875488Y-105864649D02*
X123875488Y-105364649D01*
X123875488Y-105364649D02*
X123994536Y-105364649D01*
X123994536Y-105364649D02*
X124065964Y-105388459D01*
X124065964Y-105388459D02*
X124113583Y-105436078D01*
X124113583Y-105436078D02*
X124137393Y-105483697D01*
X124137393Y-105483697D02*
X124161202Y-105578935D01*
X124161202Y-105578935D02*
X124161202Y-105650363D01*
X124161202Y-105650363D02*
X124137393Y-105745601D01*
X124137393Y-105745601D02*
X124113583Y-105793220D01*
X124113583Y-105793220D02*
X124065964Y-105840840D01*
X124065964Y-105840840D02*
X123994536Y-105864649D01*
X123994536Y-105864649D02*
X123875488Y-105864649D01*
X123036440Y-65978792D02*
X123017392Y-65997840D01*
X123017392Y-65997840D02*
X122960250Y-66016887D01*
X122960250Y-66016887D02*
X122922154Y-66016887D01*
X122922154Y-66016887D02*
X122865011Y-65997840D01*
X122865011Y-65997840D02*
X122826916Y-65959744D01*
X122826916Y-65959744D02*
X122807869Y-65921649D01*
X122807869Y-65921649D02*
X122788821Y-65845459D01*
X122788821Y-65845459D02*
X122788821Y-65788316D01*
X122788821Y-65788316D02*
X122807869Y-65712125D01*
X122807869Y-65712125D02*
X122826916Y-65674030D01*
X122826916Y-65674030D02*
X122865011Y-65635935D01*
X122865011Y-65635935D02*
X122922154Y-65616887D01*
X122922154Y-65616887D02*
X122960250Y-65616887D01*
X122960250Y-65616887D02*
X123017392Y-65635935D01*
X123017392Y-65635935D02*
X123036440Y-65654982D01*
X123360250Y-65997840D02*
X123322154Y-66016887D01*
X123322154Y-66016887D02*
X123245964Y-66016887D01*
X123245964Y-66016887D02*
X123207869Y-65997840D01*
X123207869Y-65997840D02*
X123188821Y-65959744D01*
X123188821Y-65959744D02*
X123188821Y-65807363D01*
X123188821Y-65807363D02*
X123207869Y-65769268D01*
X123207869Y-65769268D02*
X123245964Y-65750220D01*
X123245964Y-65750220D02*
X123322154Y-65750220D01*
X123322154Y-65750220D02*
X123360250Y-65769268D01*
X123360250Y-65769268D02*
X123379297Y-65807363D01*
X123379297Y-65807363D02*
X123379297Y-65845459D01*
X123379297Y-65845459D02*
X123188821Y-65883554D01*
X123607868Y-66016887D02*
X123569773Y-65997840D01*
X123569773Y-65997840D02*
X123550726Y-65959744D01*
X123550726Y-65959744D02*
X123550726Y-65616887D01*
X123817392Y-66016887D02*
X123779297Y-65997840D01*
X123779297Y-65997840D02*
X123760250Y-65959744D01*
X123760250Y-65959744D02*
X123760250Y-65616887D01*
X124179297Y-66016887D02*
X123950726Y-66016887D01*
X124065012Y-66016887D02*
X124065012Y-65616887D01*
X124065012Y-65616887D02*
X124026916Y-65674030D01*
X124026916Y-65674030D02*
X123988821Y-65712125D01*
X123988821Y-65712125D02*
X123950726Y-65731173D01*
X123036440Y-68628792D02*
X123017392Y-68647840D01*
X123017392Y-68647840D02*
X122960250Y-68666887D01*
X122960250Y-68666887D02*
X122922154Y-68666887D01*
X122922154Y-68666887D02*
X122865011Y-68647840D01*
X122865011Y-68647840D02*
X122826916Y-68609744D01*
X122826916Y-68609744D02*
X122807869Y-68571649D01*
X122807869Y-68571649D02*
X122788821Y-68495459D01*
X122788821Y-68495459D02*
X122788821Y-68438316D01*
X122788821Y-68438316D02*
X122807869Y-68362125D01*
X122807869Y-68362125D02*
X122826916Y-68324030D01*
X122826916Y-68324030D02*
X122865011Y-68285935D01*
X122865011Y-68285935D02*
X122922154Y-68266887D01*
X122922154Y-68266887D02*
X122960250Y-68266887D01*
X122960250Y-68266887D02*
X123017392Y-68285935D01*
X123017392Y-68285935D02*
X123036440Y-68304982D01*
X123360250Y-68647840D02*
X123322154Y-68666887D01*
X123322154Y-68666887D02*
X123245964Y-68666887D01*
X123245964Y-68666887D02*
X123207869Y-68647840D01*
X123207869Y-68647840D02*
X123188821Y-68609744D01*
X123188821Y-68609744D02*
X123188821Y-68457363D01*
X123188821Y-68457363D02*
X123207869Y-68419268D01*
X123207869Y-68419268D02*
X123245964Y-68400220D01*
X123245964Y-68400220D02*
X123322154Y-68400220D01*
X123322154Y-68400220D02*
X123360250Y-68419268D01*
X123360250Y-68419268D02*
X123379297Y-68457363D01*
X123379297Y-68457363D02*
X123379297Y-68495459D01*
X123379297Y-68495459D02*
X123188821Y-68533554D01*
X123607868Y-68666887D02*
X123569773Y-68647840D01*
X123569773Y-68647840D02*
X123550726Y-68609744D01*
X123550726Y-68609744D02*
X123550726Y-68266887D01*
X123817392Y-68666887D02*
X123779297Y-68647840D01*
X123779297Y-68647840D02*
X123760250Y-68609744D01*
X123760250Y-68609744D02*
X123760250Y-68266887D01*
X123950726Y-68304982D02*
X123969774Y-68285935D01*
X123969774Y-68285935D02*
X124007869Y-68266887D01*
X124007869Y-68266887D02*
X124103107Y-68266887D01*
X124103107Y-68266887D02*
X124141202Y-68285935D01*
X124141202Y-68285935D02*
X124160250Y-68304982D01*
X124160250Y-68304982D02*
X124179297Y-68343078D01*
X124179297Y-68343078D02*
X124179297Y-68381173D01*
X124179297Y-68381173D02*
X124160250Y-68438316D01*
X124160250Y-68438316D02*
X123931678Y-68666887D01*
X123931678Y-68666887D02*
X124179297Y-68666887D01*
X123067392Y-70885935D02*
X123029297Y-70866887D01*
X123029297Y-70866887D02*
X122972154Y-70866887D01*
X122972154Y-70866887D02*
X122915011Y-70885935D01*
X122915011Y-70885935D02*
X122876916Y-70924030D01*
X122876916Y-70924030D02*
X122857869Y-70962125D01*
X122857869Y-70962125D02*
X122838821Y-71038316D01*
X122838821Y-71038316D02*
X122838821Y-71095459D01*
X122838821Y-71095459D02*
X122857869Y-71171649D01*
X122857869Y-71171649D02*
X122876916Y-71209744D01*
X122876916Y-71209744D02*
X122915011Y-71247840D01*
X122915011Y-71247840D02*
X122972154Y-71266887D01*
X122972154Y-71266887D02*
X123010250Y-71266887D01*
X123010250Y-71266887D02*
X123067392Y-71247840D01*
X123067392Y-71247840D02*
X123086440Y-71228792D01*
X123086440Y-71228792D02*
X123086440Y-71095459D01*
X123086440Y-71095459D02*
X123010250Y-71095459D01*
X123257869Y-71266887D02*
X123257869Y-70866887D01*
X123257869Y-70866887D02*
X123486440Y-71266887D01*
X123486440Y-71266887D02*
X123486440Y-70866887D01*
X123676917Y-71266887D02*
X123676917Y-70866887D01*
X123676917Y-70866887D02*
X123772155Y-70866887D01*
X123772155Y-70866887D02*
X123829298Y-70885935D01*
X123829298Y-70885935D02*
X123867393Y-70924030D01*
X123867393Y-70924030D02*
X123886440Y-70962125D01*
X123886440Y-70962125D02*
X123905488Y-71038316D01*
X123905488Y-71038316D02*
X123905488Y-71095459D01*
X123905488Y-71095459D02*
X123886440Y-71171649D01*
X123886440Y-71171649D02*
X123867393Y-71209744D01*
X123867393Y-71209744D02*
X123829298Y-71247840D01*
X123829298Y-71247840D02*
X123772155Y-71266887D01*
X123772155Y-71266887D02*
X123676917Y-71266887D01*
X141529773Y-103884649D02*
X141291678Y-103884649D01*
X141291678Y-103884649D02*
X141291678Y-103384649D01*
X141696440Y-103884649D02*
X141696440Y-103384649D01*
X141696440Y-103384649D02*
X141815488Y-103384649D01*
X141815488Y-103384649D02*
X141886916Y-103408459D01*
X141886916Y-103408459D02*
X141934535Y-103456078D01*
X141934535Y-103456078D02*
X141958345Y-103503697D01*
X141958345Y-103503697D02*
X141982154Y-103598935D01*
X141982154Y-103598935D02*
X141982154Y-103670363D01*
X141982154Y-103670363D02*
X141958345Y-103765601D01*
X141958345Y-103765601D02*
X141934535Y-103813220D01*
X141934535Y-103813220D02*
X141886916Y-103860840D01*
X141886916Y-103860840D02*
X141815488Y-103884649D01*
X141815488Y-103884649D02*
X141696440Y-103884649D01*
X145417392Y-103837030D02*
X145393583Y-103860840D01*
X145393583Y-103860840D02*
X145322154Y-103884649D01*
X145322154Y-103884649D02*
X145274535Y-103884649D01*
X145274535Y-103884649D02*
X145203107Y-103860840D01*
X145203107Y-103860840D02*
X145155488Y-103813220D01*
X145155488Y-103813220D02*
X145131678Y-103765601D01*
X145131678Y-103765601D02*
X145107869Y-103670363D01*
X145107869Y-103670363D02*
X145107869Y-103598935D01*
X145107869Y-103598935D02*
X145131678Y-103503697D01*
X145131678Y-103503697D02*
X145155488Y-103456078D01*
X145155488Y-103456078D02*
X145203107Y-103408459D01*
X145203107Y-103408459D02*
X145274535Y-103384649D01*
X145274535Y-103384649D02*
X145322154Y-103384649D01*
X145322154Y-103384649D02*
X145393583Y-103408459D01*
X145393583Y-103408459D02*
X145417392Y-103432268D01*
X145631678Y-103884649D02*
X145631678Y-103384649D01*
X145631678Y-103384649D02*
X145822154Y-103384649D01*
X145822154Y-103384649D02*
X145869773Y-103408459D01*
X145869773Y-103408459D02*
X145893583Y-103432268D01*
X145893583Y-103432268D02*
X145917392Y-103479887D01*
X145917392Y-103479887D02*
X145917392Y-103551316D01*
X145917392Y-103551316D02*
X145893583Y-103598935D01*
X145893583Y-103598935D02*
X145869773Y-103622744D01*
X145869773Y-103622744D02*
X145822154Y-103646554D01*
X145822154Y-103646554D02*
X145631678Y-103646554D01*
X148621678Y-103884649D02*
X148621678Y-103384649D01*
X148621678Y-103384649D02*
X148740726Y-103384649D01*
X148740726Y-103384649D02*
X148812154Y-103408459D01*
X148812154Y-103408459D02*
X148859773Y-103456078D01*
X148859773Y-103456078D02*
X148883583Y-103503697D01*
X148883583Y-103503697D02*
X148907392Y-103598935D01*
X148907392Y-103598935D02*
X148907392Y-103670363D01*
X148907392Y-103670363D02*
X148883583Y-103765601D01*
X148883583Y-103765601D02*
X148859773Y-103813220D01*
X148859773Y-103813220D02*
X148812154Y-103860840D01*
X148812154Y-103860840D02*
X148740726Y-103884649D01*
X148740726Y-103884649D02*
X148621678Y-103884649D01*
X149097869Y-103741792D02*
X149335964Y-103741792D01*
X149050250Y-103884649D02*
X149216916Y-103384649D01*
X149216916Y-103384649D02*
X149383583Y-103884649D01*
X149478821Y-103384649D02*
X149764535Y-103384649D01*
X149621678Y-103884649D02*
X149621678Y-103384649D01*
X149907392Y-103741792D02*
X150145487Y-103741792D01*
X149859773Y-103884649D02*
X150026439Y-103384649D01*
X150026439Y-103384649D02*
X150193106Y-103884649D01*
X153083583Y-103408459D02*
X153035964Y-103384649D01*
X153035964Y-103384649D02*
X152964535Y-103384649D01*
X152964535Y-103384649D02*
X152893107Y-103408459D01*
X152893107Y-103408459D02*
X152845488Y-103456078D01*
X152845488Y-103456078D02*
X152821678Y-103503697D01*
X152821678Y-103503697D02*
X152797869Y-103598935D01*
X152797869Y-103598935D02*
X152797869Y-103670363D01*
X152797869Y-103670363D02*
X152821678Y-103765601D01*
X152821678Y-103765601D02*
X152845488Y-103813220D01*
X152845488Y-103813220D02*
X152893107Y-103860840D01*
X152893107Y-103860840D02*
X152964535Y-103884649D01*
X152964535Y-103884649D02*
X153012154Y-103884649D01*
X153012154Y-103884649D02*
X153083583Y-103860840D01*
X153083583Y-103860840D02*
X153107392Y-103837030D01*
X153107392Y-103837030D02*
X153107392Y-103670363D01*
X153107392Y-103670363D02*
X153012154Y-103670363D01*
X153321678Y-103884649D02*
X153321678Y-103384649D01*
X153321678Y-103384649D02*
X153607392Y-103884649D01*
X153607392Y-103884649D02*
X153607392Y-103384649D01*
X153845488Y-103884649D02*
X153845488Y-103384649D01*
X153845488Y-103384649D02*
X153964536Y-103384649D01*
X153964536Y-103384649D02*
X154035964Y-103408459D01*
X154035964Y-103408459D02*
X154083583Y-103456078D01*
X154083583Y-103456078D02*
X154107393Y-103503697D01*
X154107393Y-103503697D02*
X154131202Y-103598935D01*
X154131202Y-103598935D02*
X154131202Y-103670363D01*
X154131202Y-103670363D02*
X154107393Y-103765601D01*
X154107393Y-103765601D02*
X154083583Y-103813220D01*
X154083583Y-103813220D02*
X154035964Y-103860840D01*
X154035964Y-103860840D02*
X153964536Y-103884649D01*
X153964536Y-103884649D02*
X153845488Y-103884649D01*
X186949773Y-60934649D02*
X186711678Y-60934649D01*
X186711678Y-60934649D02*
X186687869Y-61172744D01*
X186687869Y-61172744D02*
X186711678Y-61148935D01*
X186711678Y-61148935D02*
X186759297Y-61125125D01*
X186759297Y-61125125D02*
X186878345Y-61125125D01*
X186878345Y-61125125D02*
X186925964Y-61148935D01*
X186925964Y-61148935D02*
X186949773Y-61172744D01*
X186949773Y-61172744D02*
X186973583Y-61220363D01*
X186973583Y-61220363D02*
X186973583Y-61339411D01*
X186973583Y-61339411D02*
X186949773Y-61387030D01*
X186949773Y-61387030D02*
X186925964Y-61410840D01*
X186925964Y-61410840D02*
X186878345Y-61434649D01*
X186878345Y-61434649D02*
X186759297Y-61434649D01*
X186759297Y-61434649D02*
X186711678Y-61410840D01*
X186711678Y-61410840D02*
X186687869Y-61387030D01*
X187116440Y-60934649D02*
X187283106Y-61434649D01*
X187283106Y-61434649D02*
X187449773Y-60934649D01*
X189433583Y-60958459D02*
X189385964Y-60934649D01*
X189385964Y-60934649D02*
X189314535Y-60934649D01*
X189314535Y-60934649D02*
X189243107Y-60958459D01*
X189243107Y-60958459D02*
X189195488Y-61006078D01*
X189195488Y-61006078D02*
X189171678Y-61053697D01*
X189171678Y-61053697D02*
X189147869Y-61148935D01*
X189147869Y-61148935D02*
X189147869Y-61220363D01*
X189147869Y-61220363D02*
X189171678Y-61315601D01*
X189171678Y-61315601D02*
X189195488Y-61363220D01*
X189195488Y-61363220D02*
X189243107Y-61410840D01*
X189243107Y-61410840D02*
X189314535Y-61434649D01*
X189314535Y-61434649D02*
X189362154Y-61434649D01*
X189362154Y-61434649D02*
X189433583Y-61410840D01*
X189433583Y-61410840D02*
X189457392Y-61387030D01*
X189457392Y-61387030D02*
X189457392Y-61220363D01*
X189457392Y-61220363D02*
X189362154Y-61220363D01*
X189671678Y-61434649D02*
X189671678Y-60934649D01*
X189671678Y-60934649D02*
X189957392Y-61434649D01*
X189957392Y-61434649D02*
X189957392Y-60934649D01*
X190195488Y-61434649D02*
X190195488Y-60934649D01*
X190195488Y-60934649D02*
X190314536Y-60934649D01*
X190314536Y-60934649D02*
X190385964Y-60958459D01*
X190385964Y-60958459D02*
X190433583Y-61006078D01*
X190433583Y-61006078D02*
X190457393Y-61053697D01*
X190457393Y-61053697D02*
X190481202Y-61148935D01*
X190481202Y-61148935D02*
X190481202Y-61220363D01*
X190481202Y-61220363D02*
X190457393Y-61315601D01*
X190457393Y-61315601D02*
X190433583Y-61363220D01*
X190433583Y-61363220D02*
X190385964Y-61410840D01*
X190385964Y-61410840D02*
X190314536Y-61434649D01*
X190314536Y-61434649D02*
X190195488Y-61434649D01*
X193114059Y-60934649D02*
X193423583Y-60934649D01*
X193423583Y-60934649D02*
X193256916Y-61125125D01*
X193256916Y-61125125D02*
X193328345Y-61125125D01*
X193328345Y-61125125D02*
X193375964Y-61148935D01*
X193375964Y-61148935D02*
X193399773Y-61172744D01*
X193399773Y-61172744D02*
X193423583Y-61220363D01*
X193423583Y-61220363D02*
X193423583Y-61339411D01*
X193423583Y-61339411D02*
X193399773Y-61387030D01*
X193399773Y-61387030D02*
X193375964Y-61410840D01*
X193375964Y-61410840D02*
X193328345Y-61434649D01*
X193328345Y-61434649D02*
X193185488Y-61434649D01*
X193185488Y-61434649D02*
X193137869Y-61410840D01*
X193137869Y-61410840D02*
X193114059Y-61387030D01*
X193637868Y-61387030D02*
X193661678Y-61410840D01*
X193661678Y-61410840D02*
X193637868Y-61434649D01*
X193637868Y-61434649D02*
X193614059Y-61410840D01*
X193614059Y-61410840D02*
X193637868Y-61387030D01*
X193637868Y-61387030D02*
X193637868Y-61434649D01*
X193828344Y-60934649D02*
X194137868Y-60934649D01*
X194137868Y-60934649D02*
X193971201Y-61125125D01*
X193971201Y-61125125D02*
X194042630Y-61125125D01*
X194042630Y-61125125D02*
X194090249Y-61148935D01*
X194090249Y-61148935D02*
X194114058Y-61172744D01*
X194114058Y-61172744D02*
X194137868Y-61220363D01*
X194137868Y-61220363D02*
X194137868Y-61339411D01*
X194137868Y-61339411D02*
X194114058Y-61387030D01*
X194114058Y-61387030D02*
X194090249Y-61410840D01*
X194090249Y-61410840D02*
X194042630Y-61434649D01*
X194042630Y-61434649D02*
X193899773Y-61434649D01*
X193899773Y-61434649D02*
X193852154Y-61410840D01*
X193852154Y-61410840D02*
X193828344Y-61387030D01*
X194280725Y-60934649D02*
X194447391Y-61434649D01*
X194447391Y-61434649D02*
X194614058Y-60934649D01*
X195883583Y-60958459D02*
X195835964Y-60934649D01*
X195835964Y-60934649D02*
X195764535Y-60934649D01*
X195764535Y-60934649D02*
X195693107Y-60958459D01*
X195693107Y-60958459D02*
X195645488Y-61006078D01*
X195645488Y-61006078D02*
X195621678Y-61053697D01*
X195621678Y-61053697D02*
X195597869Y-61148935D01*
X195597869Y-61148935D02*
X195597869Y-61220363D01*
X195597869Y-61220363D02*
X195621678Y-61315601D01*
X195621678Y-61315601D02*
X195645488Y-61363220D01*
X195645488Y-61363220D02*
X195693107Y-61410840D01*
X195693107Y-61410840D02*
X195764535Y-61434649D01*
X195764535Y-61434649D02*
X195812154Y-61434649D01*
X195812154Y-61434649D02*
X195883583Y-61410840D01*
X195883583Y-61410840D02*
X195907392Y-61387030D01*
X195907392Y-61387030D02*
X195907392Y-61220363D01*
X195907392Y-61220363D02*
X195812154Y-61220363D01*
X196121678Y-61434649D02*
X196121678Y-60934649D01*
X196121678Y-60934649D02*
X196407392Y-61434649D01*
X196407392Y-61434649D02*
X196407392Y-60934649D01*
X196645488Y-61434649D02*
X196645488Y-60934649D01*
X196645488Y-60934649D02*
X196764536Y-60934649D01*
X196764536Y-60934649D02*
X196835964Y-60958459D01*
X196835964Y-60958459D02*
X196883583Y-61006078D01*
X196883583Y-61006078D02*
X196907393Y-61053697D01*
X196907393Y-61053697D02*
X196931202Y-61148935D01*
X196931202Y-61148935D02*
X196931202Y-61220363D01*
X196931202Y-61220363D02*
X196907393Y-61315601D01*
X196907393Y-61315601D02*
X196883583Y-61363220D01*
X196883583Y-61363220D02*
X196835964Y-61410840D01*
X196835964Y-61410840D02*
X196764536Y-61434649D01*
X196764536Y-61434649D02*
X196645488Y-61434649D01*
X218011678Y-103954649D02*
X218011678Y-103454649D01*
X218011678Y-103454649D02*
X218130726Y-103454649D01*
X218130726Y-103454649D02*
X218202154Y-103478459D01*
X218202154Y-103478459D02*
X218249773Y-103526078D01*
X218249773Y-103526078D02*
X218273583Y-103573697D01*
X218273583Y-103573697D02*
X218297392Y-103668935D01*
X218297392Y-103668935D02*
X218297392Y-103740363D01*
X218297392Y-103740363D02*
X218273583Y-103835601D01*
X218273583Y-103835601D02*
X218249773Y-103883220D01*
X218249773Y-103883220D02*
X218202154Y-103930840D01*
X218202154Y-103930840D02*
X218130726Y-103954649D01*
X218130726Y-103954649D02*
X218011678Y-103954649D01*
X218511678Y-103954649D02*
X218511678Y-103454649D01*
X218749773Y-103954649D02*
X218749773Y-103454649D01*
X218749773Y-103454649D02*
X219035487Y-103954649D01*
X219035487Y-103954649D02*
X219035487Y-103454649D01*
X219154536Y-104002268D02*
X219535488Y-104002268D01*
X219654535Y-103692744D02*
X219821202Y-103692744D01*
X219892630Y-103954649D02*
X219654535Y-103954649D01*
X219654535Y-103954649D02*
X219654535Y-103454649D01*
X219654535Y-103454649D02*
X219892630Y-103454649D01*
X220106916Y-103954649D02*
X220106916Y-103454649D01*
X220106916Y-103454649D02*
X220392630Y-103954649D01*
X220392630Y-103954649D02*
X220392630Y-103454649D01*
X222611678Y-103954649D02*
X222611678Y-103454649D01*
X222611678Y-103454649D02*
X222730726Y-103454649D01*
X222730726Y-103454649D02*
X222802154Y-103478459D01*
X222802154Y-103478459D02*
X222849773Y-103526078D01*
X222849773Y-103526078D02*
X222873583Y-103573697D01*
X222873583Y-103573697D02*
X222897392Y-103668935D01*
X222897392Y-103668935D02*
X222897392Y-103740363D01*
X222897392Y-103740363D02*
X222873583Y-103835601D01*
X222873583Y-103835601D02*
X222849773Y-103883220D01*
X222849773Y-103883220D02*
X222802154Y-103930840D01*
X222802154Y-103930840D02*
X222730726Y-103954649D01*
X222730726Y-103954649D02*
X222611678Y-103954649D01*
X223111678Y-103954649D02*
X223111678Y-103454649D01*
X223349773Y-103954649D02*
X223349773Y-103454649D01*
X223349773Y-103454649D02*
X223635487Y-103954649D01*
X223635487Y-103954649D02*
X223635487Y-103454649D01*
X225461678Y-95704649D02*
X225461678Y-95204649D01*
X225461678Y-95204649D02*
X225580726Y-95204649D01*
X225580726Y-95204649D02*
X225652154Y-95228459D01*
X225652154Y-95228459D02*
X225699773Y-95276078D01*
X225699773Y-95276078D02*
X225723583Y-95323697D01*
X225723583Y-95323697D02*
X225747392Y-95418935D01*
X225747392Y-95418935D02*
X225747392Y-95490363D01*
X225747392Y-95490363D02*
X225723583Y-95585601D01*
X225723583Y-95585601D02*
X225699773Y-95633220D01*
X225699773Y-95633220D02*
X225652154Y-95680840D01*
X225652154Y-95680840D02*
X225580726Y-95704649D01*
X225580726Y-95704649D02*
X225461678Y-95704649D01*
X225961678Y-95704649D02*
X225961678Y-95204649D01*
X225961678Y-95204649D02*
X226128345Y-95561792D01*
X226128345Y-95561792D02*
X226295011Y-95204649D01*
X226295011Y-95204649D02*
X226295011Y-95704649D01*
X226361678Y-103454649D02*
X226361678Y-103859411D01*
X226361678Y-103859411D02*
X226385488Y-103907030D01*
X226385488Y-103907030D02*
X226409297Y-103930840D01*
X226409297Y-103930840D02*
X226456916Y-103954649D01*
X226456916Y-103954649D02*
X226552154Y-103954649D01*
X226552154Y-103954649D02*
X226599773Y-103930840D01*
X226599773Y-103930840D02*
X226623583Y-103907030D01*
X226623583Y-103907030D02*
X226647392Y-103859411D01*
X226647392Y-103859411D02*
X226647392Y-103454649D01*
X227123583Y-103954649D02*
X226885488Y-103954649D01*
X226885488Y-103954649D02*
X226885488Y-103454649D01*
X227290250Y-103692744D02*
X227456917Y-103692744D01*
X227528345Y-103954649D02*
X227290250Y-103954649D01*
X227290250Y-103954649D02*
X227290250Y-103454649D01*
X227290250Y-103454649D02*
X227528345Y-103454649D01*
X227742631Y-103954649D02*
X227742631Y-103454649D01*
X227742631Y-103454649D02*
X227861679Y-103454649D01*
X227861679Y-103454649D02*
X227933107Y-103478459D01*
X227933107Y-103478459D02*
X227980726Y-103526078D01*
X227980726Y-103526078D02*
X228004536Y-103573697D01*
X228004536Y-103573697D02*
X228028345Y-103668935D01*
X228028345Y-103668935D02*
X228028345Y-103740363D01*
X228028345Y-103740363D02*
X228004536Y-103835601D01*
X228004536Y-103835601D02*
X227980726Y-103883220D01*
X227980726Y-103883220D02*
X227933107Y-103930840D01*
X227933107Y-103930840D02*
X227861679Y-103954649D01*
X227861679Y-103954649D02*
X227742631Y-103954649D01*
X230061678Y-95704649D02*
X230061678Y-95204649D01*
X230061678Y-95204649D02*
X230180726Y-95204649D01*
X230180726Y-95204649D02*
X230252154Y-95228459D01*
X230252154Y-95228459D02*
X230299773Y-95276078D01*
X230299773Y-95276078D02*
X230323583Y-95323697D01*
X230323583Y-95323697D02*
X230347392Y-95418935D01*
X230347392Y-95418935D02*
X230347392Y-95490363D01*
X230347392Y-95490363D02*
X230323583Y-95585601D01*
X230323583Y-95585601D02*
X230299773Y-95633220D01*
X230299773Y-95633220D02*
X230252154Y-95680840D01*
X230252154Y-95680840D02*
X230180726Y-95704649D01*
X230180726Y-95704649D02*
X230061678Y-95704649D01*
X230561678Y-95704649D02*
X230561678Y-95204649D01*
X230561678Y-95204649D02*
X230752154Y-95204649D01*
X230752154Y-95204649D02*
X230799773Y-95228459D01*
X230799773Y-95228459D02*
X230823583Y-95252268D01*
X230823583Y-95252268D02*
X230847392Y-95299887D01*
X230847392Y-95299887D02*
X230847392Y-95371316D01*
X230847392Y-95371316D02*
X230823583Y-95418935D01*
X230823583Y-95418935D02*
X230799773Y-95442744D01*
X230799773Y-95442744D02*
X230752154Y-95466554D01*
X230752154Y-95466554D02*
X230561678Y-95466554D01*
X230823583Y-103478459D02*
X230775964Y-103454649D01*
X230775964Y-103454649D02*
X230704535Y-103454649D01*
X230704535Y-103454649D02*
X230633107Y-103478459D01*
X230633107Y-103478459D02*
X230585488Y-103526078D01*
X230585488Y-103526078D02*
X230561678Y-103573697D01*
X230561678Y-103573697D02*
X230537869Y-103668935D01*
X230537869Y-103668935D02*
X230537869Y-103740363D01*
X230537869Y-103740363D02*
X230561678Y-103835601D01*
X230561678Y-103835601D02*
X230585488Y-103883220D01*
X230585488Y-103883220D02*
X230633107Y-103930840D01*
X230633107Y-103930840D02*
X230704535Y-103954649D01*
X230704535Y-103954649D02*
X230752154Y-103954649D01*
X230752154Y-103954649D02*
X230823583Y-103930840D01*
X230823583Y-103930840D02*
X230847392Y-103907030D01*
X230847392Y-103907030D02*
X230847392Y-103740363D01*
X230847392Y-103740363D02*
X230752154Y-103740363D01*
X231061678Y-103954649D02*
X231061678Y-103454649D01*
X231061678Y-103454649D02*
X231347392Y-103954649D01*
X231347392Y-103954649D02*
X231347392Y-103454649D01*
X231585488Y-103954649D02*
X231585488Y-103454649D01*
X231585488Y-103454649D02*
X231704536Y-103454649D01*
X231704536Y-103454649D02*
X231775964Y-103478459D01*
X231775964Y-103478459D02*
X231823583Y-103526078D01*
X231823583Y-103526078D02*
X231847393Y-103573697D01*
X231847393Y-103573697D02*
X231871202Y-103668935D01*
X231871202Y-103668935D02*
X231871202Y-103740363D01*
X231871202Y-103740363D02*
X231847393Y-103835601D01*
X231847393Y-103835601D02*
X231823583Y-103883220D01*
X231823583Y-103883220D02*
X231775964Y-103930840D01*
X231775964Y-103930840D02*
X231704536Y-103954649D01*
X231704536Y-103954649D02*
X231585488Y-103954649D01*
X234580250Y-95204649D02*
X234865964Y-95204649D01*
X234723107Y-95704649D02*
X234723107Y-95204649D01*
X234985011Y-95204649D02*
X235318344Y-95704649D01*
X235318344Y-95204649D02*
X234985011Y-95704649D01*
X235508820Y-95704649D02*
X235508820Y-95204649D01*
X235508820Y-95204649D02*
X235627868Y-95204649D01*
X235627868Y-95204649D02*
X235699296Y-95228459D01*
X235699296Y-95228459D02*
X235746915Y-95276078D01*
X235746915Y-95276078D02*
X235770725Y-95323697D01*
X235770725Y-95323697D02*
X235794534Y-95418935D01*
X235794534Y-95418935D02*
X235794534Y-95490363D01*
X235794534Y-95490363D02*
X235770725Y-95585601D01*
X235770725Y-95585601D02*
X235746915Y-95633220D01*
X235746915Y-95633220D02*
X235699296Y-95680840D01*
X235699296Y-95680840D02*
X235627868Y-95704649D01*
X235627868Y-95704649D02*
X235508820Y-95704649D01*
X236104058Y-95204649D02*
X236151677Y-95204649D01*
X236151677Y-95204649D02*
X236199296Y-95228459D01*
X236199296Y-95228459D02*
X236223106Y-95252268D01*
X236223106Y-95252268D02*
X236246915Y-95299887D01*
X236246915Y-95299887D02*
X236270725Y-95395125D01*
X236270725Y-95395125D02*
X236270725Y-95514173D01*
X236270725Y-95514173D02*
X236246915Y-95609411D01*
X236246915Y-95609411D02*
X236223106Y-95657030D01*
X236223106Y-95657030D02*
X236199296Y-95680840D01*
X236199296Y-95680840D02*
X236151677Y-95704649D01*
X236151677Y-95704649D02*
X236104058Y-95704649D01*
X236104058Y-95704649D02*
X236056439Y-95680840D01*
X236056439Y-95680840D02*
X236032630Y-95657030D01*
X236032630Y-95657030D02*
X236008820Y-95609411D01*
X236008820Y-95609411D02*
X235985011Y-95514173D01*
X235985011Y-95514173D02*
X235985011Y-95395125D01*
X235985011Y-95395125D02*
X236008820Y-95299887D01*
X236008820Y-95299887D02*
X236032630Y-95252268D01*
X236032630Y-95252268D02*
X236056439Y-95228459D01*
X236056439Y-95228459D02*
X236104058Y-95204649D01*
X239277392Y-95704649D02*
X239110726Y-95466554D01*
X238991678Y-95704649D02*
X238991678Y-95204649D01*
X238991678Y-95204649D02*
X239182154Y-95204649D01*
X239182154Y-95204649D02*
X239229773Y-95228459D01*
X239229773Y-95228459D02*
X239253583Y-95252268D01*
X239253583Y-95252268D02*
X239277392Y-95299887D01*
X239277392Y-95299887D02*
X239277392Y-95371316D01*
X239277392Y-95371316D02*
X239253583Y-95418935D01*
X239253583Y-95418935D02*
X239229773Y-95442744D01*
X239229773Y-95442744D02*
X239182154Y-95466554D01*
X239182154Y-95466554D02*
X238991678Y-95466554D01*
X239444059Y-95204649D02*
X239777392Y-95704649D01*
X239777392Y-95204649D02*
X239444059Y-95704649D01*
X239967868Y-95704649D02*
X239967868Y-95204649D01*
X239967868Y-95204649D02*
X240086916Y-95204649D01*
X240086916Y-95204649D02*
X240158344Y-95228459D01*
X240158344Y-95228459D02*
X240205963Y-95276078D01*
X240205963Y-95276078D02*
X240229773Y-95323697D01*
X240229773Y-95323697D02*
X240253582Y-95418935D01*
X240253582Y-95418935D02*
X240253582Y-95490363D01*
X240253582Y-95490363D02*
X240229773Y-95585601D01*
X240229773Y-95585601D02*
X240205963Y-95633220D01*
X240205963Y-95633220D02*
X240158344Y-95680840D01*
X240158344Y-95680840D02*
X240086916Y-95704649D01*
X240086916Y-95704649D02*
X239967868Y-95704649D01*
X240563106Y-95204649D02*
X240610725Y-95204649D01*
X240610725Y-95204649D02*
X240658344Y-95228459D01*
X240658344Y-95228459D02*
X240682154Y-95252268D01*
X240682154Y-95252268D02*
X240705963Y-95299887D01*
X240705963Y-95299887D02*
X240729773Y-95395125D01*
X240729773Y-95395125D02*
X240729773Y-95514173D01*
X240729773Y-95514173D02*
X240705963Y-95609411D01*
X240705963Y-95609411D02*
X240682154Y-95657030D01*
X240682154Y-95657030D02*
X240658344Y-95680840D01*
X240658344Y-95680840D02*
X240610725Y-95704649D01*
X240610725Y-95704649D02*
X240563106Y-95704649D01*
X240563106Y-95704649D02*
X240515487Y-95680840D01*
X240515487Y-95680840D02*
X240491678Y-95657030D01*
X240491678Y-95657030D02*
X240467868Y-95609411D01*
X240467868Y-95609411D02*
X240444059Y-95514173D01*
X240444059Y-95514173D02*
X240444059Y-95395125D01*
X240444059Y-95395125D02*
X240467868Y-95299887D01*
X240467868Y-95299887D02*
X240491678Y-95252268D01*
X240491678Y-95252268D02*
X240515487Y-95228459D01*
X240515487Y-95228459D02*
X240563106Y-95204649D01*
X126128132Y-74542506D02*
X126890037Y-74542506D01*
X133980726Y-74142506D02*
X134742631Y-74142506D01*
X134361678Y-74523459D02*
X134361678Y-73761554D01*
X141564059Y-55939253D02*
X141706916Y-55986872D01*
X141706916Y-55986872D02*
X141754535Y-56034491D01*
X141754535Y-56034491D02*
X141802154Y-56129729D01*
X141802154Y-56129729D02*
X141802154Y-56272586D01*
X141802154Y-56272586D02*
X141754535Y-56367824D01*
X141754535Y-56367824D02*
X141706916Y-56415444D01*
X141706916Y-56415444D02*
X141611678Y-56463063D01*
X141611678Y-56463063D02*
X141230726Y-56463063D01*
X141230726Y-56463063D02*
X141230726Y-55463063D01*
X141230726Y-55463063D02*
X141564059Y-55463063D01*
X141564059Y-55463063D02*
X141659297Y-55510682D01*
X141659297Y-55510682D02*
X141706916Y-55558301D01*
X141706916Y-55558301D02*
X141754535Y-55653539D01*
X141754535Y-55653539D02*
X141754535Y-55748777D01*
X141754535Y-55748777D02*
X141706916Y-55844015D01*
X141706916Y-55844015D02*
X141659297Y-55891634D01*
X141659297Y-55891634D02*
X141564059Y-55939253D01*
X141564059Y-55939253D02*
X141230726Y-55939253D01*
X142183107Y-55558301D02*
X142230726Y-55510682D01*
X142230726Y-55510682D02*
X142325964Y-55463063D01*
X142325964Y-55463063D02*
X142564059Y-55463063D01*
X142564059Y-55463063D02*
X142659297Y-55510682D01*
X142659297Y-55510682D02*
X142706916Y-55558301D01*
X142706916Y-55558301D02*
X142754535Y-55653539D01*
X142754535Y-55653539D02*
X142754535Y-55748777D01*
X142754535Y-55748777D02*
X142706916Y-55891634D01*
X142706916Y-55891634D02*
X142135488Y-56463063D01*
X142135488Y-56463063D02*
X142754535Y-56463063D01*
X146794059Y-55939253D02*
X146936916Y-55986872D01*
X146936916Y-55986872D02*
X146984535Y-56034491D01*
X146984535Y-56034491D02*
X147032154Y-56129729D01*
X147032154Y-56129729D02*
X147032154Y-56272586D01*
X147032154Y-56272586D02*
X146984535Y-56367824D01*
X146984535Y-56367824D02*
X146936916Y-56415444D01*
X146936916Y-56415444D02*
X146841678Y-56463063D01*
X146841678Y-56463063D02*
X146460726Y-56463063D01*
X146460726Y-56463063D02*
X146460726Y-55463063D01*
X146460726Y-55463063D02*
X146794059Y-55463063D01*
X146794059Y-55463063D02*
X146889297Y-55510682D01*
X146889297Y-55510682D02*
X146936916Y-55558301D01*
X146936916Y-55558301D02*
X146984535Y-55653539D01*
X146984535Y-55653539D02*
X146984535Y-55748777D01*
X146984535Y-55748777D02*
X146936916Y-55844015D01*
X146936916Y-55844015D02*
X146889297Y-55891634D01*
X146889297Y-55891634D02*
X146794059Y-55939253D01*
X146794059Y-55939253D02*
X146460726Y-55939253D01*
X147984535Y-56463063D02*
X147413107Y-56463063D01*
X147698821Y-56463063D02*
X147698821Y-55463063D01*
X147698821Y-55463063D02*
X147603583Y-55605920D01*
X147603583Y-55605920D02*
X147508345Y-55701158D01*
X147508345Y-55701158D02*
X147413107Y-55748777D01*
X151473107Y-56177348D02*
X151949297Y-56177348D01*
X151377869Y-56463063D02*
X151711202Y-55463063D01*
X151711202Y-55463063D02*
X152044535Y-56463063D01*
X152330250Y-55558301D02*
X152377869Y-55510682D01*
X152377869Y-55510682D02*
X152473107Y-55463063D01*
X152473107Y-55463063D02*
X152711202Y-55463063D01*
X152711202Y-55463063D02*
X152806440Y-55510682D01*
X152806440Y-55510682D02*
X152854059Y-55558301D01*
X152854059Y-55558301D02*
X152901678Y-55653539D01*
X152901678Y-55653539D02*
X152901678Y-55748777D01*
X152901678Y-55748777D02*
X152854059Y-55891634D01*
X152854059Y-55891634D02*
X152282631Y-56463063D01*
X152282631Y-56463063D02*
X152901678Y-56463063D01*
X156603107Y-56177348D02*
X157079297Y-56177348D01*
X156507869Y-56463063D02*
X156841202Y-55463063D01*
X156841202Y-55463063D02*
X157174535Y-56463063D01*
X158031678Y-56463063D02*
X157460250Y-56463063D01*
X157745964Y-56463063D02*
X157745964Y-55463063D01*
X157745964Y-55463063D02*
X157650726Y-55605920D01*
X157650726Y-55605920D02*
X157555488Y-55701158D01*
X157555488Y-55701158D02*
X157460250Y-55748777D01*
X165121704Y-55869649D02*
X165264561Y-55917268D01*
X165264561Y-55917268D02*
X165312180Y-55964887D01*
X165312180Y-55964887D02*
X165359799Y-56060125D01*
X165359799Y-56060125D02*
X165359799Y-56202982D01*
X165359799Y-56202982D02*
X165312180Y-56298220D01*
X165312180Y-56298220D02*
X165264561Y-56345840D01*
X165264561Y-56345840D02*
X165169323Y-56393459D01*
X165169323Y-56393459D02*
X164788371Y-56393459D01*
X164788371Y-56393459D02*
X164788371Y-55393459D01*
X164788371Y-55393459D02*
X165121704Y-55393459D01*
X165121704Y-55393459D02*
X165216942Y-55441078D01*
X165216942Y-55441078D02*
X165264561Y-55488697D01*
X165264561Y-55488697D02*
X165312180Y-55583935D01*
X165312180Y-55583935D02*
X165312180Y-55679173D01*
X165312180Y-55679173D02*
X165264561Y-55774411D01*
X165264561Y-55774411D02*
X165216942Y-55822030D01*
X165216942Y-55822030D02*
X165121704Y-55869649D01*
X165121704Y-55869649D02*
X164788371Y-55869649D01*
X165740752Y-55488697D02*
X165788371Y-55441078D01*
X165788371Y-55441078D02*
X165883609Y-55393459D01*
X165883609Y-55393459D02*
X166121704Y-55393459D01*
X166121704Y-55393459D02*
X166216942Y-55441078D01*
X166216942Y-55441078D02*
X166264561Y-55488697D01*
X166264561Y-55488697D02*
X166312180Y-55583935D01*
X166312180Y-55583935D02*
X166312180Y-55679173D01*
X166312180Y-55679173D02*
X166264561Y-55822030D01*
X166264561Y-55822030D02*
X165693133Y-56393459D01*
X165693133Y-56393459D02*
X166312180Y-56393459D01*
X168394059Y-101469649D02*
X168536916Y-101517268D01*
X168536916Y-101517268D02*
X168584535Y-101564887D01*
X168584535Y-101564887D02*
X168632154Y-101660125D01*
X168632154Y-101660125D02*
X168632154Y-101802982D01*
X168632154Y-101802982D02*
X168584535Y-101898220D01*
X168584535Y-101898220D02*
X168536916Y-101945840D01*
X168536916Y-101945840D02*
X168441678Y-101993459D01*
X168441678Y-101993459D02*
X168060726Y-101993459D01*
X168060726Y-101993459D02*
X168060726Y-100993459D01*
X168060726Y-100993459D02*
X168394059Y-100993459D01*
X168394059Y-100993459D02*
X168489297Y-101041078D01*
X168489297Y-101041078D02*
X168536916Y-101088697D01*
X168536916Y-101088697D02*
X168584535Y-101183935D01*
X168584535Y-101183935D02*
X168584535Y-101279173D01*
X168584535Y-101279173D02*
X168536916Y-101374411D01*
X168536916Y-101374411D02*
X168489297Y-101422030D01*
X168489297Y-101422030D02*
X168394059Y-101469649D01*
X168394059Y-101469649D02*
X168060726Y-101469649D01*
X169251202Y-100993459D02*
X169441678Y-100993459D01*
X169441678Y-100993459D02*
X169536916Y-101041078D01*
X169536916Y-101041078D02*
X169632154Y-101136316D01*
X169632154Y-101136316D02*
X169679773Y-101326792D01*
X169679773Y-101326792D02*
X169679773Y-101660125D01*
X169679773Y-101660125D02*
X169632154Y-101850601D01*
X169632154Y-101850601D02*
X169536916Y-101945840D01*
X169536916Y-101945840D02*
X169441678Y-101993459D01*
X169441678Y-101993459D02*
X169251202Y-101993459D01*
X169251202Y-101993459D02*
X169155964Y-101945840D01*
X169155964Y-101945840D02*
X169060726Y-101850601D01*
X169060726Y-101850601D02*
X169013107Y-101660125D01*
X169013107Y-101660125D02*
X169013107Y-101326792D01*
X169013107Y-101326792D02*
X169060726Y-101136316D01*
X169060726Y-101136316D02*
X169155964Y-101041078D01*
X169155964Y-101041078D02*
X169251202Y-100993459D01*
X170298821Y-100993459D02*
X170489297Y-100993459D01*
X170489297Y-100993459D02*
X170584535Y-101041078D01*
X170584535Y-101041078D02*
X170679773Y-101136316D01*
X170679773Y-101136316D02*
X170727392Y-101326792D01*
X170727392Y-101326792D02*
X170727392Y-101660125D01*
X170727392Y-101660125D02*
X170679773Y-101850601D01*
X170679773Y-101850601D02*
X170584535Y-101945840D01*
X170584535Y-101945840D02*
X170489297Y-101993459D01*
X170489297Y-101993459D02*
X170298821Y-101993459D01*
X170298821Y-101993459D02*
X170203583Y-101945840D01*
X170203583Y-101945840D02*
X170108345Y-101850601D01*
X170108345Y-101850601D02*
X170060726Y-101660125D01*
X170060726Y-101660125D02*
X170060726Y-101326792D01*
X170060726Y-101326792D02*
X170108345Y-101136316D01*
X170108345Y-101136316D02*
X170203583Y-101041078D01*
X170203583Y-101041078D02*
X170298821Y-100993459D01*
X171013107Y-100993459D02*
X171584535Y-100993459D01*
X171298821Y-101993459D02*
X171298821Y-100993459D01*
X170351704Y-55869649D02*
X170494561Y-55917268D01*
X170494561Y-55917268D02*
X170542180Y-55964887D01*
X170542180Y-55964887D02*
X170589799Y-56060125D01*
X170589799Y-56060125D02*
X170589799Y-56202982D01*
X170589799Y-56202982D02*
X170542180Y-56298220D01*
X170542180Y-56298220D02*
X170494561Y-56345840D01*
X170494561Y-56345840D02*
X170399323Y-56393459D01*
X170399323Y-56393459D02*
X170018371Y-56393459D01*
X170018371Y-56393459D02*
X170018371Y-55393459D01*
X170018371Y-55393459D02*
X170351704Y-55393459D01*
X170351704Y-55393459D02*
X170446942Y-55441078D01*
X170446942Y-55441078D02*
X170494561Y-55488697D01*
X170494561Y-55488697D02*
X170542180Y-55583935D01*
X170542180Y-55583935D02*
X170542180Y-55679173D01*
X170542180Y-55679173D02*
X170494561Y-55774411D01*
X170494561Y-55774411D02*
X170446942Y-55822030D01*
X170446942Y-55822030D02*
X170351704Y-55869649D01*
X170351704Y-55869649D02*
X170018371Y-55869649D01*
X171542180Y-56393459D02*
X170970752Y-56393459D01*
X171256466Y-56393459D02*
X171256466Y-55393459D01*
X171256466Y-55393459D02*
X171161228Y-55536316D01*
X171161228Y-55536316D02*
X171065990Y-55631554D01*
X171065990Y-55631554D02*
X170970752Y-55679173D01*
X175030752Y-56107744D02*
X175506942Y-56107744D01*
X174935514Y-56393459D02*
X175268847Y-55393459D01*
X175268847Y-55393459D02*
X175602180Y-56393459D01*
X175887895Y-55488697D02*
X175935514Y-55441078D01*
X175935514Y-55441078D02*
X176030752Y-55393459D01*
X176030752Y-55393459D02*
X176268847Y-55393459D01*
X176268847Y-55393459D02*
X176364085Y-55441078D01*
X176364085Y-55441078D02*
X176411704Y-55488697D01*
X176411704Y-55488697D02*
X176459323Y-55583935D01*
X176459323Y-55583935D02*
X176459323Y-55679173D01*
X176459323Y-55679173D02*
X176411704Y-55822030D01*
X176411704Y-55822030D02*
X175840276Y-56393459D01*
X175840276Y-56393459D02*
X176459323Y-56393459D01*
X180160752Y-56107744D02*
X180636942Y-56107744D01*
X180065514Y-56393459D02*
X180398847Y-55393459D01*
X180398847Y-55393459D02*
X180732180Y-56393459D01*
X181589323Y-56393459D02*
X181017895Y-56393459D01*
X181303609Y-56393459D02*
X181303609Y-55393459D01*
X181303609Y-55393459D02*
X181208371Y-55536316D01*
X181208371Y-55536316D02*
X181113133Y-55631554D01*
X181113133Y-55631554D02*
X181017895Y-55679173D01*
X205180726Y-101619649D02*
X205514059Y-101619649D01*
X205656916Y-102143459D02*
X205180726Y-102143459D01*
X205180726Y-102143459D02*
X205180726Y-101143459D01*
X205180726Y-101143459D02*
X205656916Y-101143459D01*
X206085488Y-102143459D02*
X206085488Y-101143459D01*
X206085488Y-101143459D02*
X206656916Y-102143459D01*
X206656916Y-102143459D02*
X206656916Y-101143459D01*
X248093459Y-100474273D02*
X248902982Y-100474273D01*
X248902982Y-100474273D02*
X248998220Y-100426654D01*
X248998220Y-100426654D02*
X249045840Y-100379035D01*
X249045840Y-100379035D02*
X249093459Y-100283797D01*
X249093459Y-100283797D02*
X249093459Y-100093321D01*
X249093459Y-100093321D02*
X249045840Y-99998083D01*
X249045840Y-99998083D02*
X248998220Y-99950464D01*
X248998220Y-99950464D02*
X248902982Y-99902845D01*
X248902982Y-99902845D02*
X248093459Y-99902845D01*
X248807744Y-99474273D02*
X248807744Y-98998083D01*
X249093459Y-99569511D02*
X248093459Y-99236178D01*
X248093459Y-99236178D02*
X249093459Y-98902845D01*
X249093459Y-97998083D02*
X248617268Y-98331416D01*
X249093459Y-98569511D02*
X248093459Y-98569511D01*
X248093459Y-98569511D02*
X248093459Y-98188559D01*
X248093459Y-98188559D02*
X248141078Y-98093321D01*
X248141078Y-98093321D02*
X248188697Y-98045702D01*
X248188697Y-98045702D02*
X248283935Y-97998083D01*
X248283935Y-97998083D02*
X248426792Y-97998083D01*
X248426792Y-97998083D02*
X248522030Y-98045702D01*
X248522030Y-98045702D02*
X248569649Y-98093321D01*
X248569649Y-98093321D02*
X248617268Y-98188559D01*
X248617268Y-98188559D02*
X248617268Y-98569511D01*
X248093459Y-97712368D02*
X248093459Y-97140940D01*
X249093459Y-97426654D02*
X248093459Y-97426654D01*
D11*
X134553131Y-79943000D02*
X135641702Y-79943000D01*
X135641702Y-79943000D02*
X135859417Y-80015571D01*
X135859417Y-80015571D02*
X136004560Y-80160714D01*
X136004560Y-80160714D02*
X136077131Y-80378428D01*
X136077131Y-80378428D02*
X136077131Y-80523571D01*
X134553131Y-79362428D02*
X134553131Y-78419000D01*
X134553131Y-78419000D02*
X135133702Y-78927000D01*
X135133702Y-78927000D02*
X135133702Y-78709285D01*
X135133702Y-78709285D02*
X135206274Y-78564143D01*
X135206274Y-78564143D02*
X135278845Y-78491571D01*
X135278845Y-78491571D02*
X135423988Y-78419000D01*
X135423988Y-78419000D02*
X135786845Y-78419000D01*
X135786845Y-78419000D02*
X135931988Y-78491571D01*
X135931988Y-78491571D02*
X136004560Y-78564143D01*
X136004560Y-78564143D02*
X136077131Y-78709285D01*
X136077131Y-78709285D02*
X136077131Y-79144714D01*
X136077131Y-79144714D02*
X136004560Y-79289857D01*
X136004560Y-79289857D02*
X135931988Y-79362428D01*
X188324395Y-76679819D02*
X188324395Y-77489342D01*
X188324395Y-77489342D02*
X188372014Y-77584580D01*
X188372014Y-77584580D02*
X188419633Y-77632200D01*
X188419633Y-77632200D02*
X188514871Y-77679819D01*
X188514871Y-77679819D02*
X188705347Y-77679819D01*
X188705347Y-77679819D02*
X188800585Y-77632200D01*
X188800585Y-77632200D02*
X188848204Y-77584580D01*
X188848204Y-77584580D02*
X188895823Y-77489342D01*
X188895823Y-77489342D02*
X188895823Y-76679819D01*
X189800585Y-77013152D02*
X189800585Y-77679819D01*
X189562490Y-76632200D02*
X189324395Y-77346485D01*
X189324395Y-77346485D02*
X189943442Y-77346485D01*
D12*
X225051449Y-106088461D02*
X225051449Y-106087890D01*
X225052449Y-106088176D02*
X225051449Y-106088176D01*
X225052449Y-106087556D02*
X225051449Y-106087556D01*
X225051449Y-106087556D02*
X225051449Y-106087175D01*
X225051449Y-106087175D02*
X225051497Y-106087080D01*
X225051497Y-106087080D02*
X225051544Y-106087033D01*
X225051544Y-106087033D02*
X225051640Y-106086985D01*
X225051640Y-106086985D02*
X225051782Y-106086985D01*
X225051782Y-106086985D02*
X225051878Y-106087033D01*
X225051878Y-106087033D02*
X225051925Y-106087080D01*
X225051925Y-106087080D02*
X225051973Y-106087175D01*
X225051973Y-106087175D02*
X225051973Y-106087556D01*
X225051449Y-106086652D02*
X225051449Y-106085985D01*
X225051449Y-106085985D02*
X225052449Y-106086414D01*
%TO.C,J1*%
D13*
X192900000Y-110760000D02*
X192900000Y-112760000D01*
X183500000Y-110760000D02*
X183500000Y-112760000D01*
%TO.C,C57*%
X161084736Y-113914400D02*
X160869064Y-113914400D01*
X161084736Y-113194400D02*
X160869064Y-113194400D01*
%TO.C,D27*%
X162011900Y-110354400D02*
X162011900Y-112354400D01*
X162011900Y-110354400D02*
X158811900Y-110354400D01*
X161711900Y-112654400D02*
X162011900Y-112354400D01*
X161711900Y-112654400D02*
X158811900Y-112654400D01*
X158811900Y-112654400D02*
X158811900Y-110354400D01*
%TO.C,D33*%
X138011900Y-110454400D02*
X138011900Y-112454400D01*
X138011900Y-110454400D02*
X134811900Y-110454400D01*
X137711900Y-112754400D02*
X138011900Y-112454400D01*
X137711900Y-112754400D02*
X134811900Y-112754400D01*
X134811900Y-112754400D02*
X134811900Y-110454400D01*
%TO.C,TP3*%
X151050000Y-106272800D02*
G75*
G02*
X148150000Y-106272800I-1450000J0D01*
G01*
X148150000Y-106272800D02*
G75*
G02*
X151050000Y-106272800I1450000J0D01*
G01*
%TO.C,C55*%
X169084736Y-113914400D02*
X168869064Y-113914400D01*
X169084736Y-113194400D02*
X168869064Y-113194400D01*
%TO.C,C62*%
X141084736Y-114014400D02*
X140869064Y-114014400D01*
X141084736Y-113294400D02*
X140869064Y-113294400D01*
%TO.C,C52*%
X181134736Y-113914400D02*
X180919064Y-113914400D01*
X181134736Y-113194400D02*
X180919064Y-113194400D01*
%TO.C,C63*%
X137084736Y-114014400D02*
X136869064Y-114014400D01*
X137084736Y-113294400D02*
X136869064Y-113294400D01*
%TO.C,D25*%
X170011900Y-110354400D02*
X170011900Y-112354400D01*
X170011900Y-110354400D02*
X166811900Y-110354400D01*
X169711900Y-112654400D02*
X170011900Y-112354400D01*
X169711900Y-112654400D02*
X166811900Y-112654400D01*
X166811900Y-112654400D02*
X166811900Y-110354400D01*
%TO.C,C59*%
X153084736Y-113914400D02*
X152869064Y-113914400D01*
X153084736Y-113194400D02*
X152869064Y-113194400D01*
%TO.C,D29*%
X154011900Y-110354400D02*
X154011900Y-112354400D01*
X154011900Y-110354400D02*
X150811900Y-110354400D01*
X153711900Y-112654400D02*
X154011900Y-112354400D01*
X153711900Y-112654400D02*
X150811900Y-112654400D01*
X150811900Y-112654400D02*
X150811900Y-110354400D01*
%TO.C,D22*%
X182011900Y-110354400D02*
X182011900Y-112354400D01*
X182011900Y-110354400D02*
X178811900Y-110354400D01*
X181711900Y-112654400D02*
X182011900Y-112354400D01*
X181711900Y-112654400D02*
X178811900Y-112654400D01*
X178811900Y-112654400D02*
X178811900Y-110354400D01*
%TO.C,D23*%
X178011900Y-110354400D02*
X178011900Y-112354400D01*
X178011900Y-110354400D02*
X174811900Y-110354400D01*
X177711900Y-112654400D02*
X178011900Y-112354400D01*
X177711900Y-112654400D02*
X174811900Y-112654400D01*
X174811900Y-112654400D02*
X174811900Y-110354400D01*
%TO.C,D32*%
X142011900Y-110454400D02*
X142011900Y-112454400D01*
X142011900Y-110454400D02*
X138811900Y-110454400D01*
X141711900Y-112754400D02*
X142011900Y-112454400D01*
X141711900Y-112754400D02*
X138811900Y-112754400D01*
X138811900Y-112754400D02*
X138811900Y-110454400D01*
%TO.C,D31*%
X146011900Y-110454400D02*
X146011900Y-112454400D01*
X146011900Y-110454400D02*
X142811900Y-110454400D01*
X145711900Y-112754400D02*
X146011900Y-112454400D01*
X145711900Y-112754400D02*
X142811900Y-112754400D01*
X142811900Y-112754400D02*
X142811900Y-110454400D01*
%TO.C,C60*%
X145084736Y-114014400D02*
X144869064Y-114014400D01*
X145084736Y-113294400D02*
X144869064Y-113294400D01*
%TO.C,C54*%
X173084736Y-113914400D02*
X172869064Y-113914400D01*
X173084736Y-113194400D02*
X172869064Y-113194400D01*
%TO.C,D26*%
X166011900Y-110354400D02*
X166011900Y-112354400D01*
X166011900Y-110354400D02*
X162811900Y-110354400D01*
X165711900Y-112654400D02*
X166011900Y-112354400D01*
X165711900Y-112654400D02*
X162811900Y-112654400D01*
X162811900Y-112654400D02*
X162811900Y-110354400D01*
%TO.C,C58*%
X157084736Y-113914400D02*
X156869064Y-113914400D01*
X157084736Y-113194400D02*
X156869064Y-113194400D01*
%TO.C,D30*%
X150011900Y-110354400D02*
X150011900Y-112354400D01*
X150011900Y-110354400D02*
X146811900Y-110354400D01*
X149711900Y-112654400D02*
X150011900Y-112354400D01*
X149711900Y-112654400D02*
X146811900Y-112654400D01*
X146811900Y-112654400D02*
X146811900Y-110354400D01*
%TO.C,C56*%
X165084736Y-113914400D02*
X164869064Y-113914400D01*
X165084736Y-113194400D02*
X164869064Y-113194400D01*
%TO.C,C61*%
X149104736Y-113814400D02*
X148889064Y-113814400D01*
X149104736Y-113094400D02*
X148889064Y-113094400D01*
%TO.C,D28*%
X158011900Y-110354400D02*
X158011900Y-112354400D01*
X158011900Y-110354400D02*
X154811900Y-110354400D01*
X157711900Y-112654400D02*
X158011900Y-112354400D01*
X157711900Y-112654400D02*
X154811900Y-112654400D01*
X154811900Y-112654400D02*
X154811900Y-110354400D01*
%TO.C,C53*%
X177104736Y-113914400D02*
X176889064Y-113914400D01*
X177104736Y-113194400D02*
X176889064Y-113194400D01*
%TO.C,D24*%
X174011900Y-110354400D02*
X174011900Y-112354400D01*
X174011900Y-110354400D02*
X170811900Y-110354400D01*
X173711900Y-112654400D02*
X174011900Y-112354400D01*
X173711900Y-112654400D02*
X170811900Y-112654400D01*
X170811900Y-112654400D02*
X170811900Y-110354400D01*
%TO.C,C42*%
X233259536Y-113367200D02*
X233043864Y-113367200D01*
X233259536Y-114087200D02*
X233043864Y-114087200D01*
%TO.C,D20*%
X198571700Y-112777200D02*
X198571700Y-110477200D01*
X201471700Y-112777200D02*
X198571700Y-112777200D01*
X201471700Y-112777200D02*
X201771700Y-112477200D01*
X201771700Y-110477200D02*
X198571700Y-110477200D01*
X201771700Y-110477200D02*
X201771700Y-112477200D01*
%TO.C,C47*%
X212929536Y-113267200D02*
X212713864Y-113267200D01*
X212929536Y-113987200D02*
X212713864Y-113987200D01*
%TO.C,D13*%
X226986700Y-112827200D02*
X226986700Y-110527200D01*
X229886700Y-112827200D02*
X226986700Y-112827200D01*
X229886700Y-112827200D02*
X230186700Y-112527200D01*
X230186700Y-110527200D02*
X226986700Y-110527200D01*
X230186700Y-110527200D02*
X230186700Y-112527200D01*
%TO.C,D10*%
X238986700Y-112827200D02*
X238986700Y-110527200D01*
X241886700Y-112827200D02*
X238986700Y-112827200D01*
X241886700Y-112827200D02*
X242186700Y-112527200D01*
X242186700Y-110527200D02*
X238986700Y-110527200D01*
X242186700Y-110527200D02*
X242186700Y-112527200D01*
%TO.C,C43*%
X229259536Y-113367200D02*
X229043864Y-113367200D01*
X229259536Y-114087200D02*
X229043864Y-114087200D01*
%TO.C,C49*%
X204844536Y-113217200D02*
X204628864Y-113217200D01*
X204844536Y-113937200D02*
X204628864Y-113937200D01*
%TO.C,C40*%
X241259536Y-113367200D02*
X241043864Y-113367200D01*
X241259536Y-114087200D02*
X241043864Y-114087200D01*
%TO.C,D14*%
X222901700Y-112877200D02*
X222901700Y-110577200D01*
X225801700Y-112877200D02*
X222901700Y-112877200D01*
X225801700Y-112877200D02*
X226101700Y-112577200D01*
X226101700Y-110577200D02*
X222901700Y-110577200D01*
X226101700Y-110577200D02*
X226101700Y-112577200D01*
%TO.C,C41*%
X237299536Y-113367200D02*
X237083864Y-113367200D01*
X237299536Y-114087200D02*
X237083864Y-114087200D01*
%TO.C,C51*%
X196799536Y-113217200D02*
X196583864Y-113217200D01*
X196799536Y-113937200D02*
X196583864Y-113937200D01*
%TO.C,C50*%
X200864536Y-113217200D02*
X200648864Y-113217200D01*
X200864536Y-113937200D02*
X200648864Y-113937200D01*
%TO.C,C48*%
X208759536Y-113267200D02*
X208543864Y-113267200D01*
X208759536Y-113987200D02*
X208543864Y-113987200D01*
%TO.C,C44*%
X225174536Y-113417200D02*
X224958864Y-113417200D01*
X225174536Y-114137200D02*
X224958864Y-114137200D01*
%TO.C,D21*%
X194486700Y-112777200D02*
X194486700Y-110477200D01*
X197386700Y-112777200D02*
X194486700Y-112777200D01*
X197386700Y-112777200D02*
X197686700Y-112477200D01*
X197686700Y-110477200D02*
X194486700Y-110477200D01*
X197686700Y-110477200D02*
X197686700Y-112477200D01*
%TO.C,D12*%
X230986700Y-112827200D02*
X230986700Y-110527200D01*
X233886700Y-112827200D02*
X230986700Y-112827200D01*
X233886700Y-112827200D02*
X234186700Y-112527200D01*
X234186700Y-110527200D02*
X230986700Y-110527200D01*
X234186700Y-110527200D02*
X234186700Y-112527200D01*
%TO.C,D18*%
X206486700Y-112827200D02*
X206486700Y-110527200D01*
X209386700Y-112827200D02*
X206486700Y-112827200D01*
X209386700Y-112827200D02*
X209686700Y-112527200D01*
X209686700Y-110527200D02*
X206486700Y-110527200D01*
X209686700Y-110527200D02*
X209686700Y-112527200D01*
%TO.C,C46*%
X217174536Y-113317200D02*
X216958864Y-113317200D01*
X217174536Y-114037200D02*
X216958864Y-114037200D01*
%TO.C,D17*%
X210656700Y-112927200D02*
X210656700Y-110627200D01*
X213556700Y-112927200D02*
X210656700Y-112927200D01*
X213556700Y-112927200D02*
X213856700Y-112627200D01*
X213856700Y-110627200D02*
X210656700Y-110627200D01*
X213856700Y-110627200D02*
X213856700Y-112627200D01*
%TO.C,D11*%
X234986700Y-112827200D02*
X234986700Y-110527200D01*
X237886700Y-112827200D02*
X234986700Y-112827200D01*
X237886700Y-112827200D02*
X238186700Y-112527200D01*
X238186700Y-110527200D02*
X234986700Y-110527200D01*
X238186700Y-110527200D02*
X238186700Y-112527200D01*
%TO.C,D19*%
X202571700Y-112777200D02*
X202571700Y-110477200D01*
X205471700Y-112777200D02*
X202571700Y-112777200D01*
X205471700Y-112777200D02*
X205771700Y-112477200D01*
X205771700Y-110477200D02*
X202571700Y-110477200D01*
X205771700Y-110477200D02*
X205771700Y-112477200D01*
%TO.C,D16*%
X214901700Y-112777200D02*
X214901700Y-110477200D01*
X217801700Y-112777200D02*
X214901700Y-112777200D01*
X217801700Y-112777200D02*
X218101700Y-112477200D01*
X218101700Y-110477200D02*
X214901700Y-110477200D01*
X218101700Y-110477200D02*
X218101700Y-112477200D01*
%TO.C,D15*%
X218901700Y-112777200D02*
X218901700Y-110477200D01*
X221801700Y-112777200D02*
X218901700Y-112777200D01*
X221801700Y-112777200D02*
X222101700Y-112477200D01*
X222101700Y-110477200D02*
X218901700Y-110477200D01*
X222101700Y-110477200D02*
X222101700Y-112477200D01*
%TO.C,C45*%
X221174536Y-113317200D02*
X220958864Y-113317200D01*
X221174536Y-114037200D02*
X220958864Y-114037200D01*
%TO.C,R27*%
X247765000Y-84815436D02*
X247765000Y-85269564D01*
X249235000Y-84815436D02*
X249235000Y-85269564D01*
%TO.C,U12*%
D14*
X244140000Y-85505000D02*
X244140000Y-85655000D01*
X244150000Y-85505000D02*
X244300000Y-85505000D01*
X244150000Y-88205000D02*
X244150000Y-88055000D01*
X244150000Y-88205000D02*
X244300000Y-88205000D01*
X246850000Y-88055000D02*
X246850000Y-88205000D01*
X246850000Y-88205000D02*
X246700000Y-88205000D01*
D13*
X246850000Y-85505000D02*
X246850000Y-85145000D01*
X247210000Y-85505000D01*
X246850000Y-85505000D01*
G36*
X247210000Y-85505000D02*
G01*
X246850000Y-85505000D01*
X246850000Y-85145000D01*
X247210000Y-85505000D01*
G37*
%TO.C,C36*%
X241765000Y-86618748D02*
X241765000Y-87141252D01*
X243235000Y-86618748D02*
X243235000Y-87141252D01*
%TO.C,R26*%
X247765000Y-88944564D02*
X247765000Y-88490436D01*
X249235000Y-88944564D02*
X249235000Y-88490436D01*
%TO.C,J7*%
X249945000Y-94250000D02*
X251325000Y-94250000D01*
X249945000Y-95630000D02*
X249945000Y-94250000D01*
X249945000Y-96900000D02*
X249945000Y-104630000D01*
X249945000Y-96900000D02*
X252705000Y-96900000D01*
X249945000Y-104630000D02*
X252705000Y-104630000D01*
X252705000Y-96900000D02*
X252705000Y-104630000D01*
%TO.C,J8*%
X249920000Y-90140000D02*
X249920000Y-82410000D01*
X252680000Y-82410000D02*
X249920000Y-82410000D01*
X252680000Y-90140000D02*
X249920000Y-90140000D01*
X252680000Y-90140000D02*
X252680000Y-82410000D01*
X252680000Y-91410000D02*
X252680000Y-92790000D01*
X252680000Y-92790000D02*
X251300000Y-92790000D01*
%TO.C,J9*%
X124520000Y-104370000D02*
X124520000Y-83940000D01*
X127280000Y-83940000D02*
X124520000Y-83940000D01*
X127280000Y-104370000D02*
X124520000Y-104370000D01*
X127280000Y-104370000D02*
X127280000Y-83940000D01*
X127280000Y-105640000D02*
X127280000Y-107020000D01*
X127280000Y-107020000D02*
X125900000Y-107020000D01*
%TO.C,J3*%
D15*
X136065700Y-75955200D02*
X136065700Y-81644800D01*
X134694100Y-81644800D02*
X136065700Y-81644800D01*
X134694100Y-81644800D02*
X134694100Y-75955200D01*
X134694100Y-75955200D02*
X136065700Y-75955200D01*
X131315900Y-80222400D02*
X125626300Y-80222400D01*
X131315900Y-78850800D02*
X131315900Y-80222400D01*
X125626300Y-78850800D02*
X131315900Y-78850800D01*
X125626300Y-78850800D02*
X125626300Y-80222400D01*
%TO.C,J2*%
D13*
X124390000Y-63427200D02*
X130360000Y-63427200D01*
X130360000Y-73547200D01*
X124390000Y-73547200D01*
X124390000Y-63427200D01*
X129600000Y-71737200D02*
X130350000Y-71737200D01*
X130350000Y-73537200D01*
X129600000Y-73537200D01*
X129600000Y-71737200D01*
X129600000Y-66737200D02*
X130350000Y-66737200D01*
X130350000Y-70237200D01*
X129600000Y-70237200D01*
X129600000Y-66737200D01*
X129600000Y-63437200D02*
X130350000Y-63437200D01*
X130350000Y-65237200D01*
X129600000Y-65237200D01*
X129600000Y-63437200D01*
X130650000Y-64387200D02*
X130650000Y-63137200D01*
X130650000Y-63137200D02*
X129400000Y-63137200D01*
X128100000Y-73537200D02*
X128100000Y-72787200D01*
X128100000Y-72787200D02*
X125150000Y-72787200D01*
X128100000Y-64187200D02*
X125150000Y-64187200D01*
X128100000Y-63437200D02*
X128100000Y-64187200D01*
X125150000Y-72787200D02*
X125150000Y-68487200D01*
X125150000Y-64187200D02*
X125150000Y-68487200D01*
%TO.C,C31*%
X169545300Y-77973752D02*
X169545300Y-77451248D01*
X171015300Y-77973752D02*
X171015300Y-77451248D01*
%TO.C,R21*%
X235465000Y-66172936D02*
X235465000Y-66627064D01*
X236935000Y-66172936D02*
X236935000Y-66627064D01*
%TO.C,D6*%
X192226300Y-87298600D02*
X192226300Y-81788600D01*
X192226300Y-87298600D02*
X195526300Y-87298600D01*
X195526300Y-87298600D02*
X195526300Y-81788600D01*
%TO.C,R17*%
X198182964Y-97459400D02*
X197728836Y-97459400D01*
X198182964Y-98929400D02*
X197728836Y-98929400D01*
%TO.C,U3*%
X218650000Y-77423400D02*
X222410000Y-77423400D01*
X218650000Y-84243400D02*
X222410000Y-84243400D01*
X222410000Y-77423400D02*
X222410000Y-78683400D01*
X222410000Y-84243400D02*
X222410000Y-82983400D01*
X217370000Y-77523400D02*
X217130000Y-77193400D01*
X217610000Y-77193400D01*
X217370000Y-77523400D01*
G36*
X217370000Y-77523400D02*
G01*
X217130000Y-77193400D01*
X217610000Y-77193400D01*
X217370000Y-77523400D01*
G37*
%TO.C,TP2*%
X147050000Y-106272800D02*
G75*
G02*
X144150000Y-106272800I-1450000J0D01*
G01*
X144150000Y-106272800D02*
G75*
G02*
X147050000Y-106272800I1450000J0D01*
G01*
%TO.C,C3*%
X217463748Y-91865000D02*
X217986252Y-91865000D01*
X217463748Y-93335000D02*
X217986252Y-93335000D01*
%TO.C,R25*%
X249360436Y-72965000D02*
X249814564Y-72965000D01*
X249360436Y-74435000D02*
X249814564Y-74435000D01*
%TO.C,U2*%
X217558900Y-86021200D02*
X221678900Y-86021200D01*
X221678900Y-91141200D02*
X217558900Y-91141200D01*
X215878900Y-86581200D02*
X215548900Y-86821200D01*
X215548900Y-86341200D01*
X215878900Y-86581200D01*
G36*
X215878900Y-86581200D02*
G01*
X215548900Y-86821200D01*
X215548900Y-86341200D01*
X215878900Y-86581200D01*
G37*
%TO.C,U8*%
X239855000Y-71700000D02*
X239855000Y-60950000D01*
X253355000Y-60950000D02*
X253355000Y-71700000D01*
X253355000Y-71700000D02*
X239855000Y-71700000D01*
X239505000Y-61950000D02*
X239169000Y-62190000D01*
X239169000Y-61710000D01*
X239505000Y-61950000D01*
G36*
X239505000Y-61950000D02*
G01*
X239169000Y-62190000D01*
X239169000Y-61710000D01*
X239505000Y-61950000D01*
G37*
%TO.C,JP3*%
X229075000Y-96500000D02*
X231875000Y-96500000D01*
X229075000Y-98500000D02*
X229075000Y-96500000D01*
X231875000Y-96500000D02*
X231875000Y-98500000D01*
X231875000Y-98500000D02*
X229075000Y-98500000D01*
%TO.C,U5*%
X204627500Y-61790000D02*
X206447500Y-61790000D01*
X204627500Y-61840000D02*
X204627500Y-61790000D01*
X204627500Y-64910000D02*
X204627500Y-64860000D01*
X206447500Y-61790000D02*
X206447500Y-61840000D01*
X206447500Y-64860000D02*
X206447500Y-64910000D01*
X206447500Y-64910000D02*
X204627500Y-64910000D01*
X204087500Y-61840000D02*
X203847500Y-61510000D01*
X204327500Y-61510000D01*
X204087500Y-61840000D01*
G36*
X204087500Y-61840000D02*
G01*
X203847500Y-61510000D01*
X204327500Y-61510000D01*
X204087500Y-61840000D01*
G37*
%TO.C,R15*%
X191308400Y-101833964D02*
X191308400Y-101379836D01*
X192778400Y-101833964D02*
X192778400Y-101379836D01*
%TO.C,C6*%
X214261252Y-82598400D02*
X213738748Y-82598400D01*
X214261252Y-84068400D02*
X213738748Y-84068400D01*
%TO.C,U4*%
D15*
X186971300Y-75013600D02*
X186971300Y-75558600D01*
X186971300Y-75013600D02*
X187516300Y-75013600D01*
X186971300Y-79013600D02*
X186971300Y-78468600D01*
X186971300Y-79013600D02*
X187516300Y-79013600D01*
X190971300Y-75013600D02*
X190426300Y-75013600D01*
X190971300Y-75013600D02*
X190971300Y-75558600D01*
X190971300Y-79013600D02*
X190426300Y-79013600D01*
X190971300Y-79013600D02*
X190971300Y-78468600D01*
D16*
X186001300Y-76038600D02*
G75*
G02*
X185801300Y-76038600I-100000J0D01*
G01*
X185801300Y-76038600D02*
G75*
G02*
X186001300Y-76038600I100000J0D01*
G01*
%TO.C,TP4*%
D13*
X155050000Y-106272800D02*
G75*
G02*
X152150000Y-106272800I-1450000J0D01*
G01*
X152150000Y-106272800D02*
G75*
G02*
X155050000Y-106272800I1450000J0D01*
G01*
%TO.C,R22*%
X245260436Y-75565000D02*
X245714564Y-75565000D01*
X245260436Y-77035000D02*
X245714564Y-77035000D01*
%TO.C,U7*%
X186688400Y-94639400D02*
X187163400Y-94639400D01*
X186688400Y-95114400D02*
X186688400Y-94639400D01*
X186688400Y-98859400D02*
X186688400Y-98384400D01*
X187163400Y-98859400D02*
X186688400Y-98859400D01*
X190433400Y-94639400D02*
X190908400Y-94639400D01*
X190908400Y-94639400D02*
X190908400Y-95114400D01*
X190908400Y-98384400D02*
X190908400Y-98859400D01*
X190908400Y-98859400D02*
X190433400Y-98859400D01*
X186188400Y-95499400D02*
X185858400Y-95739400D01*
X185858400Y-95259400D01*
X186188400Y-95499400D01*
G36*
X186188400Y-95499400D02*
G01*
X185858400Y-95739400D01*
X185858400Y-95259400D01*
X186188400Y-95499400D01*
G37*
%TO.C,TP5*%
X220650000Y-106087200D02*
G75*
G02*
X217750000Y-106087200I-1450000J0D01*
G01*
X217750000Y-106087200D02*
G75*
G02*
X220650000Y-106087200I1450000J0D01*
G01*
%TO.C,C28*%
X237188748Y-72965000D02*
X237711252Y-72965000D01*
X237188748Y-74435000D02*
X237711252Y-74435000D01*
%TO.C,C11*%
X193290048Y-77428600D02*
X193812552Y-77428600D01*
X193290048Y-78898600D02*
X193812552Y-78898600D01*
%TO.C,C16*%
X209738748Y-61365000D02*
X210261252Y-61365000D01*
X209738748Y-62835000D02*
X210261252Y-62835000D01*
%TO.C,C27*%
X249911252Y-75765000D02*
X249388748Y-75765000D01*
X249911252Y-77235000D02*
X249388748Y-77235000D01*
%TO.C,U10*%
X131015000Y-94365000D02*
X135135000Y-94365000D01*
X131015000Y-94420000D02*
X131015000Y-94365000D01*
X131015000Y-104485000D02*
X131015000Y-104430000D01*
X135135000Y-94365000D02*
X135135000Y-94420000D01*
X135135000Y-104430000D02*
X135135000Y-104485000D01*
X135135000Y-104485000D02*
X131015000Y-104485000D01*
X130475000Y-94415000D02*
X130235000Y-94085000D01*
X130715000Y-94085000D01*
X130475000Y-94415000D01*
G36*
X130475000Y-94415000D02*
G01*
X130235000Y-94085000D01*
X130715000Y-94085000D01*
X130475000Y-94415000D01*
G37*
%TO.C,Q3*%
X211240000Y-102540000D02*
X212760000Y-102540000D01*
X211240000Y-103540000D02*
X211240000Y-102540000D01*
X211240000Y-105660000D02*
X211240000Y-104660000D01*
X212760000Y-102540000D02*
X212760000Y-102590000D01*
X212760000Y-103710000D02*
X212760000Y-104490000D01*
X212760000Y-105610000D02*
X212760000Y-105660000D01*
X212760000Y-105660000D02*
X211240000Y-105660000D01*
X213300000Y-104480000D02*
X213060000Y-104150000D01*
X213540000Y-104150000D01*
X213300000Y-104480000D01*
G36*
X213300000Y-104480000D02*
G01*
X213060000Y-104150000D01*
X213540000Y-104150000D01*
X213300000Y-104480000D01*
G37*
%TO.C,R16*%
X193808400Y-101921464D02*
X193808400Y-101467336D01*
X195278400Y-101921464D02*
X195278400Y-101467336D01*
%TO.C,D4*%
X164815000Y-88740000D02*
X164815000Y-90660000D01*
X164815000Y-90660000D02*
X167500000Y-90660000D01*
X167500000Y-88740000D02*
X164815000Y-88740000D01*
%TO.C,R32*%
X200339564Y-106365000D02*
X199885436Y-106365000D01*
X200339564Y-107835000D02*
X199885436Y-107835000D01*
%TO.C,U1*%
X148740000Y-85945000D02*
X152860000Y-85945000D01*
X148740000Y-86040000D02*
X148740000Y-85945000D01*
X148740000Y-91065000D02*
X148740000Y-90970000D01*
X152860000Y-85945000D02*
X152860000Y-86040000D01*
X152860000Y-90970000D02*
X152860000Y-91065000D01*
X152860000Y-91065000D02*
X148740000Y-91065000D01*
X153400000Y-90975000D02*
X153640000Y-91305000D01*
X153160000Y-91305000D01*
X153400000Y-90975000D01*
G36*
X153640000Y-91305000D02*
G01*
X153160000Y-91305000D01*
X153400000Y-90975000D01*
X153640000Y-91305000D01*
G37*
%TO.C,J10*%
X185760000Y-59950000D02*
X185760000Y-58570000D01*
X187140000Y-59950000D02*
X185760000Y-59950000D01*
X188410000Y-57190000D02*
X191060000Y-57190000D01*
X188410000Y-59950000D02*
X188410000Y-57190000D01*
X188410000Y-59950000D02*
X191060000Y-59950000D01*
X191060000Y-59950000D02*
X191060000Y-57190000D01*
%TO.C,D7*%
X193069100Y-96660600D02*
X195754100Y-96660600D01*
X195754100Y-94740600D02*
X193069100Y-94740600D01*
X195754100Y-96660600D02*
X195754100Y-94740600D01*
%TO.C,Q2*%
X204098800Y-66740000D02*
X205098800Y-66740000D01*
X204098800Y-68260000D02*
X204098800Y-66740000D01*
X204148800Y-68260000D02*
X204098800Y-68260000D01*
X206048800Y-68260000D02*
X205268800Y-68260000D01*
X206218800Y-66740000D02*
X207218800Y-66740000D01*
X207218800Y-66740000D02*
X207218800Y-68260000D01*
X207218800Y-68260000D02*
X207168800Y-68260000D01*
X205278800Y-68800000D02*
X205608800Y-68560000D01*
X205608800Y-69040000D01*
X205278800Y-68800000D01*
G36*
X205608800Y-69040000D02*
G01*
X205278800Y-68800000D01*
X205608800Y-68560000D01*
X205608800Y-69040000D01*
G37*
%TO.C,D3*%
X196116300Y-74953600D02*
X196116300Y-76873600D01*
X196116300Y-76873600D02*
X198801300Y-76873600D01*
X198801300Y-74953600D02*
X196116300Y-74953600D01*
%TO.C,C37*%
X163492748Y-106465000D02*
X164015252Y-106465000D01*
X163492748Y-107935000D02*
X164015252Y-107935000D01*
%TO.C,R9*%
X131227064Y-88565000D02*
X130772936Y-88565000D01*
X131227064Y-90035000D02*
X130772936Y-90035000D01*
%TO.C,R30*%
X211660436Y-100465000D02*
X212114564Y-100465000D01*
X211660436Y-101935000D02*
X212114564Y-101935000D01*
%TO.C,C7*%
X189262552Y-72478600D02*
X188740048Y-72478600D01*
X189262552Y-73948600D02*
X188740048Y-73948600D01*
%TO.C,J4*%
X162880300Y-57180000D02*
X180480300Y-57180000D01*
X162880300Y-67220000D02*
X162880300Y-57180000D01*
X181080300Y-57180000D02*
X183440300Y-57180000D01*
X183440300Y-57180000D02*
X183440300Y-67220000D01*
X183440300Y-57800000D02*
X162880300Y-57800000D01*
X183440300Y-59300000D02*
X162880300Y-59300000D01*
X183440300Y-64200000D02*
X162880300Y-64200000D01*
X183440300Y-67220000D02*
X162880300Y-67220000D01*
X180780300Y-57180000D02*
X180340300Y-56570000D01*
X181220300Y-56570000D01*
X180780300Y-57180000D01*
G36*
X180780300Y-57180000D02*
G01*
X180340300Y-56570000D01*
X181220300Y-56570000D01*
X180780300Y-57180000D01*
G37*
%TO.C,R13*%
X200897936Y-62665000D02*
X201352064Y-62665000D01*
X200897936Y-64135000D02*
X201352064Y-64135000D01*
%TO.C,C12*%
X193290048Y-75178600D02*
X193812552Y-75178600D01*
X193290048Y-76648600D02*
X193812552Y-76648600D01*
%TO.C,J6*%
X139510000Y-57180000D02*
X157110000Y-57180000D01*
X139510000Y-67220000D02*
X139510000Y-57180000D01*
X157710000Y-57180000D02*
X160070000Y-57180000D01*
X160070000Y-57180000D02*
X160070000Y-67220000D01*
X160070000Y-57800000D02*
X139510000Y-57800000D01*
X160070000Y-59300000D02*
X139510000Y-59300000D01*
X160070000Y-64200000D02*
X139510000Y-64200000D01*
X160070000Y-67220000D02*
X139510000Y-67220000D01*
X157410000Y-57180000D02*
X156970000Y-56570000D01*
X157850000Y-56570000D01*
X157410000Y-57180000D01*
G36*
X157410000Y-57180000D02*
G01*
X156970000Y-56570000D01*
X157850000Y-56570000D01*
X157410000Y-57180000D01*
G37*
%TO.C,C32*%
X174545300Y-77451248D02*
X174545300Y-77973752D01*
X176015300Y-77451248D02*
X176015300Y-77973752D01*
%TO.C,C34*%
X146800000Y-77973752D02*
X146800000Y-77451248D01*
X148270000Y-77973752D02*
X148270000Y-77451248D01*
%TO.C,R18*%
X198062964Y-94864400D02*
X197608836Y-94864400D01*
X198062964Y-96334400D02*
X197608836Y-96334400D01*
%TO.C,R12*%
X200897936Y-60165000D02*
X201352064Y-60165000D01*
X200897936Y-61635000D02*
X201352064Y-61635000D01*
%TO.C,Y1*%
X242175000Y-72725000D02*
X240825000Y-72725000D01*
X242175000Y-74475000D02*
X240825000Y-74475000D01*
%TO.C,R14*%
X201352064Y-65165000D02*
X200897936Y-65165000D01*
X201352064Y-66635000D02*
X200897936Y-66635000D01*
%TO.C,R8*%
X185566300Y-82153164D02*
X185566300Y-81699036D01*
X187036300Y-82153164D02*
X187036300Y-81699036D01*
%TO.C,SW2*%
X203150000Y-106325000D02*
X203150000Y-104325000D01*
X204150000Y-103025000D02*
X204600000Y-102575000D01*
X204150000Y-107625000D02*
X204600000Y-108075000D01*
X207200000Y-102575000D02*
X204600000Y-102575000D01*
X207200000Y-108075000D02*
X204600000Y-108075000D01*
X207650000Y-103025000D02*
X207200000Y-102575000D01*
X207650000Y-107625000D02*
X207200000Y-108075000D01*
X208650000Y-106325000D02*
X208650000Y-104325000D01*
%TO.C,R23*%
X237272936Y-75765000D02*
X237727064Y-75765000D01*
X237272936Y-77235000D02*
X237727064Y-77235000D01*
%TO.C,U11*%
X147275000Y-74110000D02*
X147275000Y-69490000D01*
X152745000Y-69490000D02*
X152745000Y-74110000D01*
X152290000Y-67940000D02*
X152050000Y-67610000D01*
X152530000Y-67610000D01*
X152290000Y-67940000D01*
G36*
X152290000Y-67940000D02*
G01*
X152050000Y-67610000D01*
X152530000Y-67610000D01*
X152290000Y-67940000D01*
G37*
%TO.C,SW1*%
X166954000Y-106325000D02*
X166954000Y-104325000D01*
X167954000Y-103025000D02*
X168404000Y-102575000D01*
X167954000Y-107625000D02*
X168404000Y-108075000D01*
X171004000Y-102575000D02*
X168404000Y-102575000D01*
X171004000Y-108075000D02*
X168404000Y-108075000D01*
X171454000Y-103025000D02*
X171004000Y-102575000D01*
X171454000Y-107625000D02*
X171004000Y-108075000D01*
X172454000Y-106325000D02*
X172454000Y-104325000D01*
%TO.C,C23*%
X235465000Y-62338748D02*
X235465000Y-62861252D01*
X236935000Y-62338748D02*
X236935000Y-62861252D01*
%TO.C,TP7*%
X228650000Y-106087200D02*
G75*
G02*
X225750000Y-106087200I-1450000J0D01*
G01*
X225750000Y-106087200D02*
G75*
G02*
X228650000Y-106087200I1450000J0D01*
G01*
%TO.C,C10*%
X184587552Y-77353600D02*
X184065048Y-77353600D01*
X184587552Y-78823600D02*
X184065048Y-78823600D01*
%TO.C,R2*%
X225254336Y-86846200D02*
X225708464Y-86846200D01*
X225254336Y-88316200D02*
X225708464Y-88316200D01*
%TO.C,L2*%
X183816300Y-84353600D02*
X190486300Y-84353600D01*
X183816300Y-85753600D02*
X183816300Y-84353600D01*
X183816300Y-91173600D02*
X183816300Y-89773600D01*
X190486300Y-84353600D02*
X190486300Y-85753600D01*
X190486300Y-89773600D02*
X190486300Y-91173600D01*
X190486300Y-91173600D02*
X183816300Y-91173600D01*
%TO.C,TP6*%
X224650000Y-106087200D02*
G75*
G02*
X221750000Y-106087200I-1450000J0D01*
G01*
X221750000Y-106087200D02*
G75*
G02*
X224650000Y-106087200I1450000J0D01*
G01*
%TO.C,R4*%
X145352064Y-83865000D02*
X144897936Y-83865000D01*
X145352064Y-85335000D02*
X144897936Y-85335000D01*
%TO.C,C33*%
X149300000Y-77973752D02*
X149300000Y-77451248D01*
X150770000Y-77973752D02*
X150770000Y-77451248D01*
%TO.C,TP8*%
X232650000Y-106087200D02*
G75*
G02*
X229750000Y-106087200I-1450000J0D01*
G01*
X229750000Y-106087200D02*
G75*
G02*
X232650000Y-106087200I1450000J0D01*
G01*
%TO.C,J5*%
X192605218Y-59937242D02*
X192605218Y-58557242D01*
X193985218Y-59937242D02*
X192605218Y-59937242D01*
X195255218Y-57177242D02*
X197905218Y-57177242D01*
X195255218Y-59937242D02*
X195255218Y-57177242D01*
X195255218Y-59937242D02*
X197905218Y-59937242D01*
X197905218Y-59937242D02*
X197905218Y-57177242D01*
%TO.C,TH1*%
X197424236Y-80628600D02*
X197878364Y-80628600D01*
X197424236Y-82098600D02*
X197878364Y-82098600D01*
%TO.C,C24*%
X237665000Y-62288748D02*
X237665000Y-62811252D01*
X239135000Y-62288748D02*
X239135000Y-62811252D01*
%TO.C,D1*%
X147915000Y-91850000D02*
X147915000Y-95150000D01*
X147915000Y-91850000D02*
X153425000Y-91850000D01*
X147915000Y-95150000D02*
X153425000Y-95150000D01*
%TO.C,R24*%
X237665000Y-70060436D02*
X237665000Y-70514564D01*
X239135000Y-70060436D02*
X239135000Y-70514564D01*
%TO.C,C4*%
X161436252Y-91765000D02*
X160913748Y-91765000D01*
X161436252Y-93235000D02*
X160913748Y-93235000D01*
%TO.C,Q4*%
X163044000Y-102740000D02*
X164564000Y-102740000D01*
X163044000Y-102790000D02*
X163044000Y-102740000D01*
X163044000Y-104690000D02*
X163044000Y-103910000D01*
X163044000Y-105860000D02*
X163044000Y-105810000D01*
X164564000Y-102740000D02*
X164564000Y-103740000D01*
X164564000Y-104860000D02*
X164564000Y-105860000D01*
X164564000Y-105860000D02*
X163044000Y-105860000D01*
X162504000Y-103920000D02*
X162744000Y-104250000D01*
X162264000Y-104250000D01*
X162504000Y-103920000D01*
G36*
X162744000Y-104250000D02*
G01*
X162264000Y-104250000D01*
X162504000Y-103920000D01*
X162744000Y-104250000D01*
G37*
%TO.C,C19*%
X186308400Y-101955652D02*
X186308400Y-101433148D01*
X187778400Y-101955652D02*
X187778400Y-101433148D01*
%TO.C,C13*%
X189816300Y-81702348D02*
X189816300Y-82224852D01*
X191286300Y-81702348D02*
X191286300Y-82224852D01*
%TO.C,C38*%
X212111252Y-106365000D02*
X211588748Y-106365000D01*
X212111252Y-107835000D02*
X211588748Y-107835000D01*
%TO.C,R10*%
X130772936Y-86115000D02*
X131227064Y-86115000D01*
X130772936Y-87585000D02*
X131227064Y-87585000D01*
%TO.C,D5*%
X212135300Y-90348100D02*
X214820300Y-90348100D01*
X214820300Y-88428100D02*
X212135300Y-88428100D01*
X214820300Y-90348100D02*
X214820300Y-88428100D01*
%TO.C,C29*%
X245961252Y-72865000D02*
X245438748Y-72865000D01*
X245961252Y-74335000D02*
X245438748Y-74335000D01*
%TO.C,D8*%
X193094100Y-99115600D02*
X195779100Y-99115600D01*
X195779100Y-97195600D02*
X193094100Y-97195600D01*
X195779100Y-99115600D02*
X195779100Y-97195600D01*
%TO.C,C35*%
X151450000Y-77451248D02*
X151450000Y-77973752D01*
X152920000Y-77451248D02*
X152920000Y-77973752D01*
%TO.C,R31*%
X163364436Y-100765000D02*
X163818564Y-100765000D01*
X163364436Y-102235000D02*
X163818564Y-102235000D01*
%TO.C,U6*%
X182495900Y-95284400D02*
X184315900Y-95284400D01*
X182495900Y-95334400D02*
X182495900Y-95284400D01*
X182495900Y-98404400D02*
X182495900Y-98354400D01*
X184315900Y-95284400D02*
X184315900Y-95334400D01*
X184315900Y-98354400D02*
X184315900Y-98404400D01*
X184315900Y-98404400D02*
X182495900Y-98404400D01*
X184855900Y-98354400D02*
X185095900Y-98684400D01*
X184615900Y-98684400D01*
X184855900Y-98354400D01*
G36*
X185095900Y-98684400D02*
G01*
X184615900Y-98684400D01*
X184855900Y-98354400D01*
X185095900Y-98684400D01*
G37*
%TO.C,C14*%
X187641300Y-82224852D02*
X187641300Y-81702348D01*
X189111300Y-82224852D02*
X189111300Y-81702348D01*
%TO.C,C1*%
X145386252Y-88995000D02*
X144863748Y-88995000D01*
X145386252Y-90465000D02*
X144863748Y-90465000D01*
%TO.C,C20*%
X183808400Y-101955652D02*
X183808400Y-101433148D01*
X185278400Y-101955652D02*
X185278400Y-101433148D01*
%TO.C,C2*%
X145336252Y-86495000D02*
X144813748Y-86495000D01*
X145336252Y-87965000D02*
X144813748Y-87965000D01*
%TO.C,C5*%
X152463748Y-83865000D02*
X152986252Y-83865000D01*
X152463748Y-85335000D02*
X152986252Y-85335000D01*
%TO.C,R3*%
X149152064Y-83865000D02*
X148697936Y-83865000D01*
X149152064Y-85335000D02*
X148697936Y-85335000D01*
%TO.C,TP1*%
X143050000Y-106272800D02*
G75*
G02*
X140150000Y-106272800I-1450000J0D01*
G01*
X140150000Y-106272800D02*
G75*
G02*
X143050000Y-106272800I1450000J0D01*
G01*
%TO.C,Q1*%
X204040000Y-58390000D02*
X204090000Y-58390000D01*
X204040000Y-59910000D02*
X204040000Y-58390000D01*
X205040000Y-59910000D02*
X204040000Y-59910000D01*
X205210000Y-58390000D02*
X205990000Y-58390000D01*
X207110000Y-58390000D02*
X207160000Y-58390000D01*
X207160000Y-58390000D02*
X207160000Y-59910000D01*
X207160000Y-59910000D02*
X206160000Y-59910000D01*
X205980000Y-57850000D02*
X205650000Y-58090000D01*
X205650000Y-57610000D01*
X205980000Y-57850000D01*
G36*
X205980000Y-57850000D02*
G01*
X205650000Y-58090000D01*
X205650000Y-57610000D01*
X205980000Y-57850000D01*
G37*
%TO.C,C8*%
X214311252Y-80265000D02*
X213788748Y-80265000D01*
X214311252Y-81735000D02*
X213788748Y-81735000D01*
%TO.C,R1*%
X225254336Y-89346200D02*
X225708464Y-89346200D01*
X225254336Y-90816200D02*
X225708464Y-90816200D01*
%TO.C,C15*%
X130826248Y-91065000D02*
X131348752Y-91065000D01*
X130826248Y-92535000D02*
X131348752Y-92535000D01*
%TO.C,C9*%
X184587552Y-75178600D02*
X184065048Y-75178600D01*
X184587552Y-76648600D02*
X184065048Y-76648600D01*
%TO.C,C18*%
X188808400Y-101905652D02*
X188808400Y-101383148D01*
X190278400Y-101905652D02*
X190278400Y-101383148D01*
%TO.C,C17*%
X209738748Y-63865000D02*
X210261252Y-63865000D01*
X209738748Y-65335000D02*
X210261252Y-65335000D01*
%TO.C,JP4*%
X224600000Y-96500000D02*
X227400000Y-96500000D01*
X224600000Y-98500000D02*
X224600000Y-96500000D01*
X227400000Y-96500000D02*
X227400000Y-98500000D01*
X227400000Y-98500000D02*
X224600000Y-98500000D01*
%TO.C,C30*%
X172045300Y-77973752D02*
X172045300Y-77451248D01*
X173515300Y-77973752D02*
X173515300Y-77451248D01*
%TO.C,R7*%
X213058236Y-91253100D02*
X213512364Y-91253100D01*
X213058236Y-92723100D02*
X213512364Y-92723100D01*
%TO.C,JP2*%
X238375000Y-96500000D02*
X241175000Y-96500000D01*
X238375000Y-98500000D02*
X238375000Y-96500000D01*
X241175000Y-96500000D02*
X241175000Y-98500000D01*
X241175000Y-98500000D02*
X238375000Y-98500000D01*
%TO.C,JP1*%
X233875000Y-96500000D02*
X236675000Y-96500000D01*
X233875000Y-98500000D02*
X233875000Y-96500000D01*
X236675000Y-96500000D02*
X236675000Y-98500000D01*
X236675000Y-98500000D02*
X233875000Y-98500000D01*
%TO.C,D2*%
X196116300Y-77453600D02*
X196116300Y-79373600D01*
X196116300Y-79373600D02*
X198801300Y-79373600D01*
X198801300Y-77453600D02*
X196116300Y-77453600D01*
%TO.C,C26*%
X241038748Y-75665000D02*
X241561252Y-75665000D01*
X241038748Y-77135000D02*
X241561252Y-77135000D01*
%TO.C,R6*%
X166160436Y-91765000D02*
X166614564Y-91765000D01*
X166160436Y-93235000D02*
X166614564Y-93235000D01*
%TO.C,L1*%
X155965000Y-83963300D02*
X162635000Y-83963300D01*
X155965000Y-85363300D02*
X155965000Y-83963300D01*
X155965000Y-90783300D02*
X155965000Y-89383300D01*
X162635000Y-83963300D02*
X162635000Y-85363300D01*
X162635000Y-89383300D02*
X162635000Y-90783300D01*
X162635000Y-90783300D02*
X155965000Y-90783300D01*
%TO.C,R5*%
X183316300Y-81699036D02*
X183316300Y-82153164D01*
X184786300Y-81699036D02*
X184786300Y-82153164D01*
%TO.C,U9*%
X170045300Y-74110000D02*
X170045300Y-69490000D01*
X175515300Y-69490000D02*
X175515300Y-74110000D01*
X175060300Y-67940000D02*
X174820300Y-67610000D01*
X175300300Y-67610000D01*
X175060300Y-67940000D01*
G36*
X175060300Y-67940000D02*
G01*
X174820300Y-67610000D01*
X175300300Y-67610000D01*
X175060300Y-67940000D01*
G37*
%TO.C,R11*%
X197878364Y-82828600D02*
X197424236Y-82828600D01*
X197878364Y-84298600D02*
X197424236Y-84298600D01*
%TO.C,C25*%
X237690000Y-66661252D02*
X237690000Y-66138748D01*
X239160000Y-66661252D02*
X239160000Y-66138748D01*
%TO.C,Q5*%
X238840000Y-104340000D02*
X240360000Y-104340000D01*
X238840000Y-104390000D02*
X238840000Y-104340000D01*
X238840000Y-106290000D02*
X238840000Y-105510000D01*
X238840000Y-107460000D02*
X238840000Y-107410000D01*
X240360000Y-104340000D02*
X240360000Y-105340000D01*
X240360000Y-106460000D02*
X240360000Y-107460000D01*
X240360000Y-107460000D02*
X238840000Y-107460000D01*
X238300000Y-105520000D02*
X238540000Y-105850000D01*
X238060000Y-105850000D01*
X238300000Y-105520000D01*
G36*
X238540000Y-105850000D02*
G01*
X238060000Y-105850000D01*
X238300000Y-105520000D01*
X238540000Y-105850000D01*
G37*
%TO.C,R19*%
X235715000Y-105610436D02*
X235715000Y-106064564D01*
X237185000Y-105610436D02*
X237185000Y-106064564D01*
%TD*%
D17*
%TO.C,J3*%
X128458400Y-79536600D03*
D18*
X135379900Y-78800000D03*
%TD*%
M02*
