%TF.GenerationSoftware,KiCad,Pcbnew,10.0.2-1.fc43*%
%TF.CreationDate,2026-05-25T12:28:05+02:00*%
%TF.ProjectId,robot,726f626f-742e-46b6-9963-61645f706362,rev?*%
%TF.SameCoordinates,Original*%
%TF.FileFunction,Soldermask,Top*%
%TF.FilePolarity,Negative*%
%FSLAX46Y46*%
G04 Gerber Fmt 4.6, Leading zero omitted, Abs format (unit mm)*
G04 Created by KiCad (PCBNEW 10.0.2-1.fc43) date 2026-05-25 12:28:05*
%MOMM*%
%LPD*%
G01*
G04 APERTURE LIST*
G04 Aperture macros list*
%AMRoundRect*
0 Rectangle with rounded corners*
0 $1 Rounding radius*
0 $2 $3 $4 $5 $6 $7 $8 $9 X,Y pos of 4 corners*
0 Add a 4 corners polygon primitive as box body*
4,1,4,$2,$3,$4,$5,$6,$7,$8,$9,$2,$3,0*
0 Add four circle primitives for the rounded corners*
1,1,$1+$1,$2,$3*
1,1,$1+$1,$4,$5*
1,1,$1+$1,$6,$7*
1,1,$1+$1,$8,$9*
0 Add four rect primitives between the rounded corners*
20,1,$1+$1,$2,$3,$4,$5,0*
20,1,$1+$1,$4,$5,$6,$7,0*
20,1,$1+$1,$6,$7,$8,$9,0*
20,1,$1+$1,$8,$9,$2,$3,0*%
%AMOutline5P*
0 Free polygon, 5 corners , with rotation*
0 The origin of the aperture is its center*
0 number of corners: always 5*
0 $1 to $10 corner X, Y*
0 $11 Rotation angle, in degrees counterclockwise*
0 create outline with 5 corners*
4,1,5,$1,$2,$3,$4,$5,$6,$7,$8,$9,$10,$1,$2,$11*%
%AMOutline6P*
0 Free polygon, 6 corners , with rotation*
0 The origin of the aperture is its center*
0 number of corners: always 6*
0 $1 to $12 corner X, Y*
0 $13 Rotation angle, in degrees counterclockwise*
0 create outline with 6 corners*
4,1,6,$1,$2,$3,$4,$5,$6,$7,$8,$9,$10,$11,$12,$1,$2,$13*%
%AMOutline7P*
0 Free polygon, 7 corners , with rotation*
0 The origin of the aperture is its center*
0 number of corners: always 7*
0 $1 to $14 corner X, Y*
0 $15 Rotation angle, in degrees counterclockwise*
0 create outline with 7 corners*
4,1,7,$1,$2,$3,$4,$5,$6,$7,$8,$9,$10,$11,$12,$13,$14,$1,$2,$15*%
%AMOutline8P*
0 Free polygon, 8 corners , with rotation*
0 The origin of the aperture is its center*
0 number of corners: always 8*
0 $1 to $16 corner X, Y*
0 $17 Rotation angle, in degrees counterclockwise*
0 create outline with 8 corners*
4,1,8,$1,$2,$3,$4,$5,$6,$7,$8,$9,$10,$11,$12,$13,$14,$15,$16,$1,$2,$17*%
%AMFreePoly0*
4,1,6,0.500000,-0.750000,-0.650000,-0.750000,-0.150000,0.000000,-0.650000,0.750000,0.500000,0.750000,0.500000,-0.750000,0.500000,-0.750000,$1*%
%AMFreePoly1*
4,1,6,1.000000,0.000000,0.500000,-0.750000,-0.500000,-0.750000,-0.500000,0.750000,0.500000,0.750000,1.000000,0.000000,1.000000,0.000000,$1*%
G04 Aperture macros list end*
%ADD10FreePoly0,0.000000*%
%ADD11FreePoly1,0.000000*%
%ADD12R,1.700000X1.700000*%
%ADD13C,1.700000*%
%ADD14R,0.700000X0.700000*%
%ADD15RoundRect,0.250000X0.475000X-0.250000X0.475000X0.250000X-0.475000X0.250000X-0.475000X-0.250000X0*%
%ADD16RoundRect,0.250000X-0.450000X0.262500X-0.450000X-0.262500X0.450000X-0.262500X0.450000X0.262500X0*%
%ADD17RoundRect,0.250000X0.650000X-1.000000X0.650000X1.000000X-0.650000X1.000000X-0.650000X-1.000000X0*%
%ADD18RoundRect,0.250000X0.262500X0.450000X-0.262500X0.450000X-0.262500X-0.450000X0.262500X-0.450000X0*%
%ADD19RoundRect,0.140000X0.140000X0.170000X-0.140000X0.170000X-0.140000X-0.170000X0.140000X-0.170000X0*%
%ADD20RoundRect,0.375000X-0.625000X-0.375000X0.625000X-0.375000X0.625000X0.375000X-0.625000X0.375000X0*%
%ADD21RoundRect,0.500000X-0.500000X-1.400000X0.500000X-1.400000X0.500000X1.400000X-0.500000X1.400000X0*%
%ADD22RoundRect,0.250000X0.450000X-0.262500X0.450000X0.262500X-0.450000X0.262500X-0.450000X-0.262500X0*%
%ADD23C,2.500000*%
%ADD24RoundRect,0.250000X-0.250000X-0.475000X0.250000X-0.475000X0.250000X0.475000X-0.250000X0.475000X0*%
%ADD25RoundRect,0.250000X-0.262500X-0.450000X0.262500X-0.450000X0.262500X0.450000X-0.262500X0.450000X0*%
%ADD26RoundRect,0.150000X-0.687500X-0.150000X0.687500X-0.150000X0.687500X0.150000X-0.687500X0.150000X0*%
%ADD27R,2.100000X3.300000*%
%ADD28C,0.650000*%
%ADD29RoundRect,0.150000X-0.150000X-0.575000X0.150000X-0.575000X0.150000X0.575000X-0.150000X0.575000X0*%
%ADD30RoundRect,0.075000X-0.075000X-0.650000X0.075000X-0.650000X0.075000X0.650000X-0.075000X0.650000X0*%
%ADD31O,1.000000X2.100000*%
%ADD32O,1.000000X1.600000*%
%ADD33R,0.800000X0.400000*%
%ADD34R,0.400000X0.800000*%
%ADD35Outline5P,-0.725000X0.130500X-0.130500X0.725000X0.725000X0.725000X0.725000X-0.725000X-0.725000X-0.725000X0.000000*%
%ADD36R,1.450000X1.450000*%
%ADD37RoundRect,0.150000X-0.512500X-0.150000X0.512500X-0.150000X0.512500X0.150000X-0.512500X0.150000X0*%
%ADD38RoundRect,0.250000X0.250000X0.475000X-0.250000X0.475000X-0.250000X-0.475000X0.250000X-0.475000X0*%
%ADD39RoundRect,0.065500X-0.541500X-0.196500X0.541500X-0.196500X0.541500X0.196500X-0.541500X0.196500X0*%
%ADD40RoundRect,0.065500X-0.196500X-0.541500X0.196500X-0.541500X0.196500X0.541500X-0.196500X0.541500X0*%
%ADD41RoundRect,0.102000X-1.050000X-1.050000X1.050000X-1.050000X1.050000X1.050000X-1.050000X1.050000X0*%
%ADD42RoundRect,0.062500X-0.350000X-0.062500X0.350000X-0.062500X0.350000X0.062500X-0.350000X0.062500X0*%
%ADD43RoundRect,0.062500X-0.062500X-0.350000X0.062500X-0.350000X0.062500X0.350000X-0.062500X0.350000X0*%
%ADD44R,2.600000X2.600000*%
%ADD45O,3.556000X7.112000*%
%ADD46O,7.112000X3.556000*%
%ADD47RoundRect,0.150000X-0.725000X-0.150000X0.725000X-0.150000X0.725000X0.150000X-0.725000X0.150000X0*%
%ADD48RoundRect,0.150000X0.587500X0.150000X-0.587500X0.150000X-0.587500X-0.150000X0.587500X-0.150000X0*%
%ADD49C,3.200000*%
%ADD50RoundRect,0.243750X-0.243750X-0.456250X0.243750X-0.456250X0.243750X0.456250X-0.243750X0.456250X0*%
%ADD51RoundRect,0.150000X0.825000X0.150000X-0.825000X0.150000X-0.825000X-0.150000X0.825000X-0.150000X0*%
%ADD52RoundRect,0.243750X0.243750X0.456250X-0.243750X0.456250X-0.243750X-0.456250X0.243750X-0.456250X0*%
%ADD53RoundRect,0.150000X0.150000X-0.587500X0.150000X0.587500X-0.150000X0.587500X-0.150000X-0.587500X0*%
%ADD54RoundRect,0.250000X1.050000X1.050000X-1.050000X1.050000X-1.050000X-1.050000X1.050000X-1.050000X0*%
%ADD55C,2.600000*%
%ADD56RoundRect,0.250000X-0.475000X0.250000X-0.475000X-0.250000X0.475000X-0.250000X0.475000X0.250000X0*%
%ADD57R,1.000000X1.800000*%
%ADD58RoundRect,0.150000X-0.587500X-0.150000X0.587500X-0.150000X0.587500X0.150000X-0.587500X0.150000X0*%
%ADD59R,1.000000X0.750000*%
%ADD60RoundRect,0.100000X-0.100000X0.637500X-0.100000X-0.637500X0.100000X-0.637500X0.100000X0.637500X0*%
%ADD61RoundRect,0.250000X0.925000X1.500000X-0.925000X1.500000X-0.925000X-1.500000X0.925000X-1.500000X0*%
%ADD62R,0.500000X0.350000*%
%ADD63RoundRect,0.250000X-1.000000X-0.650000X1.000000X-0.650000X1.000000X0.650000X-1.000000X0.650000X0*%
%ADD64RoundRect,0.250000X-0.725000X0.600000X-0.725000X-0.600000X0.725000X-0.600000X0.725000X0.600000X0*%
%ADD65O,1.950000X1.700000*%
%ADD66RoundRect,0.150000X0.512500X0.150000X-0.512500X0.150000X-0.512500X-0.150000X0.512500X-0.150000X0*%
%ADD67RoundRect,0.150000X-0.150000X0.587500X-0.150000X-0.587500X0.150000X-0.587500X0.150000X0.587500X0*%
G04 APERTURE END LIST*
%TO.C,JP1*%
G36*
X234050000Y-96750000D02*
G01*
X236500000Y-96750000D01*
X236500000Y-98250000D01*
X234050000Y-98250000D01*
X234050000Y-96750000D01*
G37*
%TO.C,JP2*%
G36*
X238550000Y-96750000D02*
G01*
X241000000Y-96750000D01*
X241000000Y-98250000D01*
X238550000Y-98250000D01*
X238550000Y-96750000D01*
G37*
%TO.C,JP4*%
G36*
X224775000Y-96750000D02*
G01*
X227225000Y-96750000D01*
X227225000Y-98250000D01*
X224775000Y-98250000D01*
X224775000Y-96750000D01*
G37*
%TO.C,JP3*%
G36*
X229250000Y-96750000D02*
G01*
X231700000Y-96750000D01*
X231700000Y-98250000D01*
X229250000Y-98250000D01*
X229250000Y-96750000D01*
G37*
%TD*%
D10*
%TO.C,JP1*%
X236000000Y-97500000D03*
D11*
X234550000Y-97500000D03*
%TD*%
D10*
%TO.C,JP2*%
X240500000Y-97500000D03*
D11*
X239050000Y-97500000D03*
%TD*%
D10*
%TO.C,JP4*%
X226725000Y-97500000D03*
D11*
X225275000Y-97500000D03*
%TD*%
D10*
%TO.C,JP3*%
X231200000Y-97500000D03*
D11*
X229750000Y-97500000D03*
%TD*%
D12*
%TO.C,J10*%
X187140000Y-58570000D03*
D13*
X189680000Y-58570000D03*
%TD*%
D12*
%TO.C,J5*%
X193985218Y-58557242D03*
D13*
X196525218Y-58557242D03*
%TD*%
D14*
%TO.C,D15*%
X221416700Y-110877200D03*
X221416700Y-109777200D03*
X219586700Y-109777200D03*
X219586700Y-110877200D03*
%TD*%
D15*
%TO.C,C31*%
X170280300Y-78662500D03*
X170280300Y-76762500D03*
%TD*%
D16*
%TO.C,R21*%
X236200000Y-65487500D03*
X236200000Y-67312500D03*
%TD*%
D17*
%TO.C,D6*%
X193876300Y-85788600D03*
X193876300Y-81788600D03*
%TD*%
D18*
%TO.C,R17*%
X198868400Y-98194400D03*
X197043400Y-98194400D03*
%TD*%
D19*
%TO.C,C53*%
X177476900Y-112254400D03*
X176516900Y-112254400D03*
%TD*%
D20*
%TO.C,U3*%
X217350000Y-78533400D03*
X217350000Y-80833400D03*
D21*
X223650000Y-80833400D03*
D20*
X217350000Y-83133400D03*
%TD*%
D22*
%TO.C,R26*%
X248500000Y-89630000D03*
X248500000Y-87805000D03*
%TD*%
D23*
%TO.C,TP2*%
X145600000Y-106272800D03*
%TD*%
D24*
%TO.C,C3*%
X216775000Y-92600000D03*
X218675000Y-92600000D03*
%TD*%
D19*
%TO.C,C45*%
X221546700Y-112377200D03*
X220586700Y-112377200D03*
%TD*%
D25*
%TO.C,R25*%
X248675000Y-73700000D03*
X250500000Y-73700000D03*
%TD*%
D14*
%TO.C,D12*%
X233501700Y-110927200D03*
X233501700Y-109827200D03*
X231671700Y-109827200D03*
X231671700Y-110927200D03*
%TD*%
D19*
%TO.C,C42*%
X233631700Y-112427200D03*
X232671700Y-112427200D03*
%TD*%
D26*
%TO.C,U2*%
X216981400Y-86581200D03*
X216981400Y-87581200D03*
X216981400Y-88581200D03*
X216981400Y-89581200D03*
X216981400Y-90581200D03*
X222256400Y-90581200D03*
X222256400Y-89581200D03*
X222256400Y-88581200D03*
X222256400Y-87581200D03*
X222256400Y-86581200D03*
D27*
X219618900Y-88581200D03*
%TD*%
D28*
%TO.C,J1*%
X185310000Y-110060000D03*
X191090000Y-110060000D03*
D29*
X184950000Y-108615000D03*
X185750000Y-108615000D03*
D30*
X186950000Y-108615000D03*
X187950000Y-108615000D03*
X188450000Y-108615000D03*
X189450000Y-108615000D03*
D29*
X190650000Y-108615000D03*
X191450000Y-108615000D03*
X191450000Y-108615000D03*
X190650000Y-108615000D03*
D30*
X189950000Y-108615000D03*
X188950000Y-108615000D03*
X187450000Y-108615000D03*
X186450000Y-108615000D03*
D29*
X185750000Y-108615000D03*
X184950000Y-108615000D03*
D31*
X183880000Y-109530000D03*
D32*
X183880000Y-113710000D03*
D31*
X192520000Y-109530000D03*
D32*
X192520000Y-113710000D03*
%TD*%
D14*
%TO.C,D20*%
X201086700Y-110877200D03*
X201086700Y-109777200D03*
X199256700Y-109777200D03*
X199256700Y-110877200D03*
%TD*%
D33*
%TO.C,U8*%
X240705000Y-61950000D03*
X240705000Y-62750000D03*
X240705000Y-63550000D03*
X240705000Y-64350000D03*
X240705000Y-65150000D03*
X240705000Y-65950000D03*
X240705000Y-66750000D03*
X240705000Y-67550000D03*
X240705000Y-68350000D03*
X240705000Y-69150000D03*
X240705000Y-69950000D03*
D34*
X241805000Y-70850000D03*
X242605000Y-70850000D03*
X243405000Y-70850000D03*
X244205000Y-70850000D03*
X245005000Y-70850000D03*
X245805000Y-70850000D03*
X246605000Y-70850000D03*
X247405000Y-70850000D03*
X248205000Y-70850000D03*
X249005000Y-70850000D03*
X249805000Y-70850000D03*
X250605000Y-70850000D03*
X251405000Y-70850000D03*
D33*
X252505000Y-69950000D03*
X252505000Y-69150000D03*
X252505000Y-68350000D03*
X252505000Y-67550000D03*
X252505000Y-66750000D03*
X252505000Y-65950000D03*
X252505000Y-65150000D03*
X252505000Y-64350000D03*
X252505000Y-63550000D03*
X252505000Y-62750000D03*
X252505000Y-61950000D03*
D34*
X251405000Y-61050000D03*
X250605000Y-61050000D03*
X249805000Y-61050000D03*
X249005000Y-61050000D03*
X248205000Y-61050000D03*
X247405000Y-61050000D03*
X246605000Y-61050000D03*
X245805000Y-61050000D03*
X245005000Y-61050000D03*
X244205000Y-61050000D03*
X243405000Y-61050000D03*
X242605000Y-61050000D03*
X241805000Y-61050000D03*
D35*
X244630000Y-63975000D03*
D36*
X244630000Y-65950000D03*
X244630000Y-67925000D03*
X246605000Y-63975000D03*
X246605000Y-65950000D03*
X246605000Y-67925000D03*
X248580000Y-63975000D03*
X248580000Y-65950000D03*
X248580000Y-67925000D03*
D14*
X252555000Y-61000000D03*
X252555000Y-70900000D03*
X240655000Y-70900000D03*
X240655000Y-61000000D03*
%TD*%
D37*
%TO.C,U5*%
X204400000Y-62400000D03*
X204400000Y-63350000D03*
X204400000Y-64300000D03*
X206675000Y-64300000D03*
X206675000Y-63350000D03*
X206675000Y-62400000D03*
%TD*%
D22*
%TO.C,R15*%
X192043400Y-102519400D03*
X192043400Y-100694400D03*
%TD*%
D19*
%TO.C,C57*%
X161456900Y-112254400D03*
X160496900Y-112254400D03*
%TD*%
D38*
%TO.C,C6*%
X214950000Y-83333400D03*
X213050000Y-83333400D03*
%TD*%
D14*
%TO.C,D13*%
X229501700Y-110927200D03*
X229501700Y-109827200D03*
X227671700Y-109827200D03*
X227671700Y-110927200D03*
%TD*%
D19*
%TO.C,C56*%
X165456900Y-112254400D03*
X164496900Y-112254400D03*
%TD*%
D14*
%TO.C,D24*%
X173326900Y-110754400D03*
X173326900Y-109654400D03*
X171496900Y-109654400D03*
X171496900Y-110754400D03*
%TD*%
%TO.C,D28*%
X157326900Y-110754400D03*
X157326900Y-109654400D03*
X155496900Y-109654400D03*
X155496900Y-110754400D03*
%TD*%
%TO.C,D33*%
X137326900Y-110854400D03*
X137326900Y-109754400D03*
X135496900Y-109754400D03*
X135496900Y-110854400D03*
%TD*%
D39*
%TO.C,U4*%
X187111300Y-76038600D03*
X187111300Y-76688600D03*
X187111300Y-77338600D03*
X187111300Y-77988600D03*
D40*
X187996300Y-78873600D03*
X188646300Y-78873600D03*
X189296300Y-78873600D03*
X189946300Y-78873600D03*
D39*
X190831300Y-77988600D03*
X190831300Y-77338600D03*
X190831300Y-76688600D03*
X190831300Y-76038600D03*
D40*
X189946300Y-75153600D03*
X189296300Y-75153600D03*
X188646300Y-75153600D03*
X187996300Y-75153600D03*
D41*
X188971300Y-77013600D03*
%TD*%
D23*
%TO.C,TP4*%
X153600000Y-106272800D03*
%TD*%
D14*
%TO.C,D19*%
X205086700Y-110877200D03*
X205086700Y-109777200D03*
X203256700Y-109777200D03*
X203256700Y-110877200D03*
%TD*%
D25*
%TO.C,R22*%
X244575000Y-76300000D03*
X246400000Y-76300000D03*
%TD*%
D42*
%TO.C,U7*%
X186860900Y-95499400D03*
X186860900Y-95999400D03*
X186860900Y-96499400D03*
X186860900Y-96999400D03*
X186860900Y-97499400D03*
X186860900Y-97999400D03*
D43*
X187548400Y-98686900D03*
X188048400Y-98686900D03*
X188548400Y-98686900D03*
X189048400Y-98686900D03*
X189548400Y-98686900D03*
X190048400Y-98686900D03*
D42*
X190735900Y-97999400D03*
X190735900Y-97499400D03*
X190735900Y-96999400D03*
X190735900Y-96499400D03*
X190735900Y-95999400D03*
X190735900Y-95499400D03*
D43*
X190048400Y-94811900D03*
X189548400Y-94811900D03*
X189048400Y-94811900D03*
X188548400Y-94811900D03*
X188048400Y-94811900D03*
X187548400Y-94811900D03*
D44*
X188798400Y-96749400D03*
%TD*%
D23*
%TO.C,TP5*%
X219200000Y-106087200D03*
%TD*%
D24*
%TO.C,C28*%
X236500000Y-73700000D03*
X238400000Y-73700000D03*
%TD*%
D14*
%TO.C,D30*%
X149326900Y-110754400D03*
X149326900Y-109654400D03*
X147496900Y-109654400D03*
X147496900Y-110754400D03*
%TD*%
D24*
%TO.C,C11*%
X192601300Y-78163600D03*
X194501300Y-78163600D03*
%TD*%
%TO.C,C16*%
X209050000Y-62100000D03*
X210950000Y-62100000D03*
%TD*%
D38*
%TO.C,C27*%
X250600000Y-76500000D03*
X248700000Y-76500000D03*
%TD*%
D45*
%TO.C,J3*%
X135379900Y-78800000D03*
D46*
X128458400Y-79536600D03*
%TD*%
D14*
%TO.C,D27*%
X161326900Y-110754400D03*
X161326900Y-109654400D03*
X159496900Y-109654400D03*
X159496900Y-110754400D03*
%TD*%
D47*
%TO.C,U10*%
X130500000Y-94980000D03*
X130500000Y-96250000D03*
X130500000Y-97520000D03*
X130500000Y-98790000D03*
X130500000Y-100060000D03*
X130500000Y-101330000D03*
X130500000Y-102600000D03*
X130500000Y-103870000D03*
X135650000Y-103870000D03*
X135650000Y-102600000D03*
X135650000Y-101330000D03*
X135650000Y-100060000D03*
X135650000Y-98790000D03*
X135650000Y-97520000D03*
X135650000Y-96250000D03*
X135650000Y-94980000D03*
%TD*%
D14*
%TO.C,D14*%
X225416700Y-110977200D03*
X225416700Y-109877200D03*
X223586700Y-109877200D03*
X223586700Y-110977200D03*
%TD*%
D48*
%TO.C,Q3*%
X212937500Y-105050000D03*
X212937500Y-103150000D03*
X211062500Y-104100000D03*
%TD*%
D49*
%TO.C,MH1*%
X220000000Y-58900000D03*
%TD*%
D22*
%TO.C,R16*%
X194543400Y-102606900D03*
X194543400Y-100781900D03*
%TD*%
D50*
%TO.C,D4*%
X165562500Y-89700000D03*
X167437500Y-89700000D03*
%TD*%
D18*
%TO.C,R32*%
X201025000Y-107100000D03*
X199200000Y-107100000D03*
%TD*%
D51*
%TO.C,U1*%
X153275000Y-90410000D03*
X153275000Y-89140000D03*
X153275000Y-87870000D03*
X153275000Y-86600000D03*
X148325000Y-86600000D03*
X148325000Y-87870000D03*
X148325000Y-89140000D03*
X148325000Y-90410000D03*
%TD*%
D19*
%TO.C,C61*%
X149476900Y-112154400D03*
X148516900Y-112154400D03*
%TD*%
D16*
%TO.C,R19*%
X236450000Y-104925000D03*
X236450000Y-106750000D03*
%TD*%
D19*
%TO.C,C52*%
X181506900Y-112254400D03*
X180546900Y-112254400D03*
%TD*%
D52*
%TO.C,D7*%
X195006600Y-95700600D03*
X193131600Y-95700600D03*
%TD*%
D19*
%TO.C,C40*%
X241631700Y-112427200D03*
X240671700Y-112427200D03*
%TD*%
D53*
%TO.C,Q2*%
X204708800Y-68437500D03*
X206608800Y-68437500D03*
X205658800Y-66562500D03*
%TD*%
D50*
%TO.C,D3*%
X196863800Y-75913600D03*
X198738800Y-75913600D03*
%TD*%
D24*
%TO.C,C37*%
X162804000Y-107200000D03*
X164704000Y-107200000D03*
%TD*%
D18*
%TO.C,R9*%
X131912500Y-89300000D03*
X130087500Y-89300000D03*
%TD*%
D25*
%TO.C,R30*%
X210975000Y-101200000D03*
X212800000Y-101200000D03*
%TD*%
D12*
%TO.C,J9*%
X125900000Y-105640000D03*
D13*
X125900000Y-103100000D03*
X125900000Y-100560000D03*
X125900000Y-98020000D03*
X125900000Y-95480000D03*
X125900000Y-92940000D03*
X125900000Y-90400000D03*
X125900000Y-87860000D03*
X125900000Y-85320000D03*
%TD*%
D38*
%TO.C,C7*%
X189951300Y-73213600D03*
X188051300Y-73213600D03*
%TD*%
D54*
%TO.C,J4*%
X180780300Y-61900000D03*
D55*
X175700300Y-61900000D03*
X170620300Y-61900000D03*
X165540300Y-61900000D03*
%TD*%
D25*
%TO.C,R13*%
X200212500Y-63400000D03*
X202037500Y-63400000D03*
%TD*%
D14*
%TO.C,D25*%
X169326900Y-110754400D03*
X169326900Y-109654400D03*
X167496900Y-109654400D03*
X167496900Y-110754400D03*
%TD*%
D24*
%TO.C,C12*%
X192601300Y-75913600D03*
X194501300Y-75913600D03*
%TD*%
D14*
%TO.C,D22*%
X181326900Y-110754400D03*
X181326900Y-109654400D03*
X179496900Y-109654400D03*
X179496900Y-110754400D03*
%TD*%
D54*
%TO.C,J6*%
X157410000Y-61900000D03*
D55*
X152330000Y-61900000D03*
X147250000Y-61900000D03*
X142170000Y-61900000D03*
%TD*%
D14*
%TO.C,D16*%
X217416700Y-110877200D03*
X217416700Y-109777200D03*
X215586700Y-109777200D03*
X215586700Y-110877200D03*
%TD*%
D56*
%TO.C,C32*%
X175280300Y-76762500D03*
X175280300Y-78662500D03*
%TD*%
D15*
%TO.C,C34*%
X147535000Y-78662500D03*
X147535000Y-76762500D03*
%TD*%
D18*
%TO.C,R18*%
X198748400Y-95599400D03*
X196923400Y-95599400D03*
%TD*%
D25*
%TO.C,R12*%
X200212500Y-60900000D03*
X202037500Y-60900000D03*
%TD*%
D57*
%TO.C,Y1*%
X240250000Y-73600000D03*
X242750000Y-73600000D03*
%TD*%
D58*
%TO.C,Q5*%
X238662500Y-104950000D03*
X238662500Y-106850000D03*
X240537500Y-105900000D03*
%TD*%
D14*
%TO.C,D23*%
X177326900Y-110754400D03*
X177326900Y-109654400D03*
X175496900Y-109654400D03*
X175496900Y-110754400D03*
%TD*%
D18*
%TO.C,R14*%
X202037500Y-65900000D03*
X200212500Y-65900000D03*
%TD*%
D14*
%TO.C,D32*%
X141326900Y-110854400D03*
X141326900Y-109754400D03*
X139496900Y-109754400D03*
X139496900Y-110854400D03*
%TD*%
D22*
%TO.C,R8*%
X186301300Y-82838600D03*
X186301300Y-81013600D03*
%TD*%
D59*
%TO.C,SW2*%
X208900000Y-107200000D03*
X202900000Y-107200000D03*
X208900000Y-103450000D03*
X202900000Y-103450000D03*
%TD*%
D25*
%TO.C,R23*%
X236587500Y-76500000D03*
X238412500Y-76500000D03*
%TD*%
D19*
%TO.C,C59*%
X153456900Y-112254400D03*
X152496900Y-112254400D03*
%TD*%
D60*
%TO.C,U11*%
X152285000Y-68937500D03*
X151635000Y-68937500D03*
X150985000Y-68937500D03*
X150335000Y-68937500D03*
X149685000Y-68937500D03*
X149035000Y-68937500D03*
X148385000Y-68937500D03*
X147735000Y-68937500D03*
X147735000Y-74662500D03*
X148385000Y-74662500D03*
X149035000Y-74662500D03*
X149685000Y-74662500D03*
X150335000Y-74662500D03*
X150985000Y-74662500D03*
X151635000Y-74662500D03*
X152285000Y-74662500D03*
%TD*%
D59*
%TO.C,SW1*%
X172704000Y-107200000D03*
X166704000Y-107200000D03*
X172704000Y-103450000D03*
X166704000Y-103450000D03*
%TD*%
D56*
%TO.C,C23*%
X236200000Y-61650000D03*
X236200000Y-63550000D03*
%TD*%
D23*
%TO.C,TP7*%
X227200000Y-106087200D03*
%TD*%
D14*
%TO.C,D31*%
X145326900Y-110854400D03*
X145326900Y-109754400D03*
X143496900Y-109754400D03*
X143496900Y-110854400D03*
%TD*%
D38*
%TO.C,C10*%
X185276300Y-78088600D03*
X183376300Y-78088600D03*
%TD*%
D14*
%TO.C,D17*%
X213171700Y-111027200D03*
X213171700Y-109927200D03*
X211341700Y-109927200D03*
X211341700Y-111027200D03*
%TD*%
D19*
%TO.C,C50*%
X201236700Y-112277200D03*
X200276700Y-112277200D03*
%TD*%
%TO.C,C46*%
X217546700Y-112377200D03*
X216586700Y-112377200D03*
%TD*%
D12*
%TO.C,J8*%
X251300000Y-91410000D03*
D13*
X251300000Y-88870000D03*
X251300000Y-86330000D03*
X251300000Y-83790000D03*
%TD*%
D25*
%TO.C,R2*%
X224568900Y-87581200D03*
X226393900Y-87581200D03*
%TD*%
D61*
%TO.C,L2*%
X190176300Y-87763600D03*
X184126300Y-87763600D03*
%TD*%
D19*
%TO.C,C44*%
X225546700Y-112477200D03*
X224586700Y-112477200D03*
%TD*%
D23*
%TO.C,TP6*%
X223200000Y-106087200D03*
%TD*%
D18*
%TO.C,R4*%
X146037500Y-84600000D03*
X144212500Y-84600000D03*
%TD*%
D19*
%TO.C,C54*%
X173456900Y-112254400D03*
X172496900Y-112254400D03*
%TD*%
D14*
%TO.C,D26*%
X165326900Y-110754400D03*
X165326900Y-109654400D03*
X163496900Y-109654400D03*
X163496900Y-110754400D03*
%TD*%
D15*
%TO.C,C33*%
X150035000Y-78662500D03*
X150035000Y-76762500D03*
%TD*%
D56*
%TO.C,C36*%
X242500000Y-85930000D03*
X242500000Y-87830000D03*
%TD*%
D14*
%TO.C,D11*%
X237501700Y-110927200D03*
X237501700Y-109827200D03*
X235671700Y-109827200D03*
X235671700Y-110927200D03*
%TD*%
D19*
%TO.C,C47*%
X213301700Y-112327200D03*
X212341700Y-112327200D03*
%TD*%
D16*
%TO.C,R27*%
X248500000Y-84130000D03*
X248500000Y-85955000D03*
%TD*%
D23*
%TO.C,TP8*%
X231200000Y-106087200D03*
%TD*%
D14*
%TO.C,D29*%
X153326900Y-110754400D03*
X153326900Y-109654400D03*
X151496900Y-109654400D03*
X151496900Y-110754400D03*
%TD*%
D25*
%TO.C,TH1*%
X196738800Y-81363600D03*
X198563800Y-81363600D03*
%TD*%
D19*
%TO.C,C51*%
X197171700Y-112277200D03*
X196211700Y-112277200D03*
%TD*%
%TO.C,C63*%
X137456900Y-112354400D03*
X136496900Y-112354400D03*
%TD*%
D56*
%TO.C,C24*%
X238400000Y-61600000D03*
X238400000Y-63500000D03*
%TD*%
D19*
%TO.C,C58*%
X157456900Y-112254400D03*
X156496900Y-112254400D03*
%TD*%
D62*
%TO.C,U12*%
X246525000Y-85880000D03*
X246525000Y-86530000D03*
X246525000Y-87180000D03*
X246525000Y-87830000D03*
X244475000Y-87830000D03*
X244475000Y-87180000D03*
X244475000Y-86530000D03*
X244475000Y-85880000D03*
%TD*%
D63*
%TO.C,D1*%
X149425000Y-93500000D03*
X153425000Y-93500000D03*
%TD*%
D16*
%TO.C,R24*%
X238400000Y-69375000D03*
X238400000Y-71200000D03*
%TD*%
D13*
%TO.C,J7*%
X251325000Y-103250000D03*
X251325000Y-100710000D03*
X251325000Y-98170000D03*
D12*
X251325000Y-95630000D03*
%TD*%
D38*
%TO.C,C4*%
X162125000Y-92500000D03*
X160225000Y-92500000D03*
%TD*%
D58*
%TO.C,Q4*%
X162866500Y-103350000D03*
X162866500Y-105250000D03*
X164741500Y-104300000D03*
%TD*%
D15*
%TO.C,C19*%
X187043400Y-102644400D03*
X187043400Y-100744400D03*
%TD*%
D23*
%TO.C,TP3*%
X149600000Y-106272800D03*
%TD*%
D19*
%TO.C,C60*%
X145456900Y-112354400D03*
X144496900Y-112354400D03*
%TD*%
D56*
%TO.C,C13*%
X190551300Y-81013600D03*
X190551300Y-82913600D03*
%TD*%
D49*
%TO.C,MH2*%
X126500000Y-59000000D03*
%TD*%
D19*
%TO.C,C62*%
X141456900Y-112354400D03*
X140496900Y-112354400D03*
%TD*%
D38*
%TO.C,C38*%
X212800000Y-107100000D03*
X210900000Y-107100000D03*
%TD*%
D64*
%TO.C,J2*%
X127900000Y-65987200D03*
D65*
X127900000Y-68487200D03*
X127900000Y-70987200D03*
%TD*%
D25*
%TO.C,R10*%
X130087500Y-86850000D03*
X131912500Y-86850000D03*
%TD*%
D49*
%TO.C,MH4*%
X250000000Y-111000000D03*
%TD*%
D52*
%TO.C,D5*%
X214072800Y-89388100D03*
X212197800Y-89388100D03*
%TD*%
D38*
%TO.C,C29*%
X246650000Y-73600000D03*
X244750000Y-73600000D03*
%TD*%
D52*
%TO.C,D8*%
X195031600Y-98155600D03*
X193156600Y-98155600D03*
%TD*%
D49*
%TO.C,MH3*%
X126500000Y-111000000D03*
%TD*%
D19*
%TO.C,C55*%
X169456900Y-112254400D03*
X168496900Y-112254400D03*
%TD*%
D14*
%TO.C,D18*%
X209001700Y-110927200D03*
X209001700Y-109827200D03*
X207171700Y-109827200D03*
X207171700Y-110927200D03*
%TD*%
D56*
%TO.C,C35*%
X152185000Y-76762500D03*
X152185000Y-78662500D03*
%TD*%
D25*
%TO.C,R31*%
X162679000Y-101500000D03*
X164504000Y-101500000D03*
%TD*%
D66*
%TO.C,U6*%
X184543400Y-97794400D03*
X184543400Y-96844400D03*
X184543400Y-95894400D03*
X182268400Y-95894400D03*
X182268400Y-96844400D03*
X182268400Y-97794400D03*
%TD*%
D15*
%TO.C,C14*%
X188376300Y-82913600D03*
X188376300Y-81013600D03*
%TD*%
D38*
%TO.C,C1*%
X146075000Y-89730000D03*
X144175000Y-89730000D03*
%TD*%
D19*
%TO.C,C43*%
X229631700Y-112427200D03*
X228671700Y-112427200D03*
%TD*%
D15*
%TO.C,C20*%
X184543400Y-102644400D03*
X184543400Y-100744400D03*
%TD*%
D38*
%TO.C,C2*%
X146025000Y-87230000D03*
X144125000Y-87230000D03*
%TD*%
D24*
%TO.C,C5*%
X151775000Y-84600000D03*
X153675000Y-84600000D03*
%TD*%
D18*
%TO.C,R3*%
X149837500Y-84600000D03*
X148012500Y-84600000D03*
%TD*%
D23*
%TO.C,TP1*%
X141600000Y-106272800D03*
%TD*%
D67*
%TO.C,Q1*%
X206550000Y-58212500D03*
X204650000Y-58212500D03*
X205600000Y-60087500D03*
%TD*%
D38*
%TO.C,C8*%
X215000000Y-81000000D03*
X213100000Y-81000000D03*
%TD*%
D25*
%TO.C,R1*%
X224568900Y-90081200D03*
X226393900Y-90081200D03*
%TD*%
D19*
%TO.C,C41*%
X237671700Y-112427200D03*
X236711700Y-112427200D03*
%TD*%
D24*
%TO.C,C15*%
X130137500Y-91800000D03*
X132037500Y-91800000D03*
%TD*%
D38*
%TO.C,C9*%
X185276300Y-75913600D03*
X183376300Y-75913600D03*
%TD*%
D15*
%TO.C,C18*%
X189543400Y-102594400D03*
X189543400Y-100694400D03*
%TD*%
D24*
%TO.C,C17*%
X209050000Y-64600000D03*
X210950000Y-64600000D03*
%TD*%
D15*
%TO.C,C30*%
X172780300Y-78662500D03*
X172780300Y-76762500D03*
%TD*%
D14*
%TO.C,D10*%
X241501700Y-110927200D03*
X241501700Y-109827200D03*
X239671700Y-109827200D03*
X239671700Y-110927200D03*
%TD*%
D25*
%TO.C,R7*%
X212372800Y-91988100D03*
X214197800Y-91988100D03*
%TD*%
D14*
%TO.C,D21*%
X197001700Y-110877200D03*
X197001700Y-109777200D03*
X195171700Y-109777200D03*
X195171700Y-110877200D03*
%TD*%
D50*
%TO.C,D2*%
X196863800Y-78413600D03*
X198738800Y-78413600D03*
%TD*%
D19*
%TO.C,C49*%
X205216700Y-112277200D03*
X204256700Y-112277200D03*
%TD*%
D24*
%TO.C,C26*%
X240350000Y-76400000D03*
X242250000Y-76400000D03*
%TD*%
D19*
%TO.C,C48*%
X209131700Y-112327200D03*
X208171700Y-112327200D03*
%TD*%
D25*
%TO.C,R6*%
X165475000Y-92500000D03*
X167300000Y-92500000D03*
%TD*%
D61*
%TO.C,L1*%
X162325000Y-87373300D03*
X156275000Y-87373300D03*
%TD*%
D16*
%TO.C,R5*%
X184051300Y-81013600D03*
X184051300Y-82838600D03*
%TD*%
D60*
%TO.C,U9*%
X175055300Y-68937500D03*
X174405300Y-68937500D03*
X173755300Y-68937500D03*
X173105300Y-68937500D03*
X172455300Y-68937500D03*
X171805300Y-68937500D03*
X171155300Y-68937500D03*
X170505300Y-68937500D03*
X170505300Y-74662500D03*
X171155300Y-74662500D03*
X171805300Y-74662500D03*
X172455300Y-74662500D03*
X173105300Y-74662500D03*
X173755300Y-74662500D03*
X174405300Y-74662500D03*
X175055300Y-74662500D03*
%TD*%
D18*
%TO.C,R11*%
X198563800Y-83563600D03*
X196738800Y-83563600D03*
%TD*%
D15*
%TO.C,C25*%
X238425000Y-67350000D03*
X238425000Y-65450000D03*
%TD*%
M02*
