%TF.GenerationSoftware,KiCad,Pcbnew,10.0.2-1.fc43*%
%TF.CreationDate,2026-05-23T18:33:44+02:00*%
%TF.ProjectId,robot,726f626f-742e-46b6-9963-61645f706362,rev?*%
%TF.SameCoordinates,Original*%
%TF.FileFunction,Drillmap*%
%TF.FilePolarity,Positive*%
%FSLAX45Y45*%
G04 Gerber Fmt 4.5, Leading zero omitted, Abs format (unit mm)*
G04 Created by KiCad (PCBNEW 10.0.2-1.fc43) date 2026-05-23 18:33:44*
%MOMM*%
%LPD*%
G01*
G04 APERTURE LIST*
%ADD10C,0.200000*%
%ADD11C,0.100000*%
%ADD12C,0.127000*%
%ADD13C,0.130000*%
G04 APERTURE END LIST*
D10*
X12250000Y-5619803D02*
X12250000Y-11420000D01*
X12250000Y-5619803D02*
G75*
G02*
X12349803Y-5519800I100000J3D01*
G01*
X12350000Y-11520000D02*
G75*
G02*
X12250000Y-11420000I0J100000D01*
G01*
X22299803Y-5500197D02*
X12349803Y-5519803D01*
X22299803Y-5500197D02*
G75*
G02*
X22400003Y-5600197I197J-100003D01*
G01*
X22400000Y-5960000D02*
X22400000Y-5600197D01*
X22500000Y-6060000D02*
G75*
G02*
X22400000Y-5960000I0J100000D01*
G01*
X25350000Y-6060000D02*
X22500000Y-6060000D01*
X25350000Y-6060000D02*
G75*
G02*
X25450000Y-6160000I0J-100000D01*
G01*
X25350000Y-11520000D02*
X12350000Y-11520000D01*
X25450000Y-6160000D02*
X25450000Y-11420000D01*
X25450000Y-11420000D02*
G75*
G02*
X25350000Y-11520000I-100000J0D01*
G01*
D11*
X12850000Y-10549000D02*
X12880000Y-10579000D01*
X12880000Y-10549000D02*
X12850000Y-10579000D01*
X13272000Y-8555000D02*
X13302000Y-8585000D01*
X13302000Y-8555000D02*
X13272000Y-8585000D01*
X13298000Y-9062000D02*
X13328000Y-9092000D01*
X13328000Y-9062000D02*
X13298000Y-9092000D01*
X13414510Y-9763290D02*
X13444510Y-9793290D01*
X13444510Y-9763290D02*
X13414510Y-9793290D01*
X13415150Y-10118000D02*
X13445150Y-10148000D01*
X13445150Y-10118000D02*
X13415150Y-10148000D01*
X13416750Y-9887540D02*
X13446750Y-9917540D01*
X13446750Y-9887540D02*
X13416750Y-9917540D01*
X13434440Y-10956560D02*
X13464440Y-10986560D01*
X13464440Y-10956560D02*
X13434440Y-10986560D01*
X13535440Y-11218560D02*
X13565440Y-11248560D01*
X13565440Y-11218560D02*
X13535440Y-11248560D01*
X13720000Y-9482000D02*
X13750000Y-9512000D01*
X13750000Y-9482000D02*
X13720000Y-9512000D01*
X13746000Y-9586000D02*
X13776000Y-9616000D01*
X13776000Y-9586000D02*
X13746000Y-9616000D01*
X13833440Y-10963560D02*
X13863440Y-10993560D01*
X13863440Y-10963560D02*
X13833440Y-10993560D01*
X13846360Y-9754900D02*
X13876360Y-9784900D01*
X13876360Y-9754900D02*
X13846360Y-9784900D01*
X13892000Y-7872000D02*
X13922000Y-7902000D01*
X13922000Y-7872000D02*
X13892000Y-7902000D01*
X13932000Y-11221000D02*
X13962000Y-11251000D01*
X13962000Y-11221000D02*
X13932000Y-11251000D01*
X14026890Y-11085200D02*
X14056890Y-11115200D01*
X14056890Y-11085200D02*
X14026890Y-11115200D01*
X14229880Y-10961000D02*
X14259880Y-10991000D01*
X14259880Y-10961000D02*
X14229880Y-10991000D01*
X14268000Y-8771000D02*
X14298000Y-8801000D01*
X14298000Y-8771000D02*
X14268000Y-8801000D01*
X14279000Y-8956000D02*
X14309000Y-8986000D01*
X14309000Y-8956000D02*
X14279000Y-8986000D01*
X14335440Y-11219560D02*
X14365440Y-11249560D01*
X14365440Y-11219560D02*
X14335440Y-11249560D01*
X14406250Y-8586000D02*
X14436250Y-8616000D01*
X14436250Y-8586000D02*
X14406250Y-8616000D01*
X14440260Y-10896850D02*
X14470260Y-10926850D01*
X14470260Y-10896850D02*
X14440260Y-10926850D01*
X14623000Y-11033000D02*
X14653000Y-11063000D01*
X14653000Y-11033000D02*
X14623000Y-11063000D01*
X14640440Y-10949560D02*
X14670440Y-10979560D01*
X14670440Y-10949560D02*
X14640440Y-10979560D01*
X14736440Y-11198560D02*
X14766440Y-11228560D01*
X14766440Y-11198560D02*
X14736440Y-11228560D01*
X14786990Y-10454270D02*
X14816990Y-10484270D01*
X14816990Y-10454270D02*
X14786990Y-10484270D01*
X14900000Y-6763000D02*
X14930000Y-6793000D01*
X14930000Y-6763000D02*
X14900000Y-6793000D01*
X14972000Y-8787000D02*
X15002000Y-8817000D01*
X15002000Y-8787000D02*
X14972000Y-8817000D01*
X15003000Y-11002000D02*
X15033000Y-11032000D01*
X15033000Y-11002000D02*
X15003000Y-11032000D01*
X15032000Y-11080610D02*
X15062000Y-11110610D01*
X15062000Y-11080610D02*
X15032000Y-11110610D01*
X15057000Y-10885000D02*
X15087000Y-10915000D01*
X15087000Y-10885000D02*
X15057000Y-10915000D01*
X15075000Y-7308000D02*
X15105000Y-7338000D01*
X15105000Y-7308000D02*
X15075000Y-7338000D01*
X15089000Y-6981000D02*
X15119000Y-7011000D01*
X15119000Y-6981000D02*
X15089000Y-7011000D01*
X15139440Y-11210560D02*
X15169440Y-11240560D01*
X15169440Y-11210560D02*
X15139440Y-11240560D01*
X15348000Y-7855000D02*
X15378000Y-7885000D01*
X15378000Y-7855000D02*
X15348000Y-7885000D01*
X15351000Y-10399000D02*
X15381000Y-10429000D01*
X15381000Y-10399000D02*
X15351000Y-10429000D01*
X15370000Y-8300000D02*
X15400000Y-8330000D01*
X15400000Y-8300000D02*
X15370000Y-8330000D01*
X15455000Y-10923000D02*
X15485000Y-10953000D01*
X15485000Y-10923000D02*
X15455000Y-10953000D01*
X15500000Y-8442000D02*
X15530000Y-8472000D01*
X15530000Y-8442000D02*
X15500000Y-8472000D01*
X15538440Y-11207560D02*
X15568440Y-11237560D01*
X15568440Y-11207560D02*
X15538440Y-11237560D01*
X15571000Y-9333000D02*
X15601000Y-9363000D01*
X15601000Y-9333000D02*
X15571000Y-9363000D01*
X15803510Y-10963530D02*
X15833510Y-10993530D01*
X15833510Y-10963530D02*
X15803510Y-10993530D01*
X15895000Y-10867000D02*
X15925000Y-10897000D01*
X15925000Y-10867000D02*
X15895000Y-10897000D01*
X15935440Y-11209560D02*
X15965440Y-11239560D01*
X15965440Y-11209560D02*
X15935440Y-11239560D01*
X16029480Y-11080200D02*
X16059480Y-11110200D01*
X16059480Y-11080200D02*
X16029480Y-11110200D01*
X16207000Y-10777000D02*
X16237000Y-10807000D01*
X16237000Y-10777000D02*
X16207000Y-10807000D01*
X16249010Y-11060440D02*
X16279010Y-11090440D01*
X16279010Y-11060440D02*
X16249010Y-11090440D01*
X16335440Y-11209560D02*
X16365440Y-11239560D01*
X16365440Y-11209560D02*
X16335440Y-11239560D01*
X16340760Y-10852820D02*
X16370760Y-10882820D01*
X16370760Y-10852820D02*
X16340760Y-10882820D01*
X16376000Y-10971000D02*
X16406000Y-11001000D01*
X16406000Y-10971000D02*
X16376000Y-11001000D01*
X16652000Y-10906000D02*
X16682000Y-10936000D01*
X16682000Y-10906000D02*
X16652000Y-10936000D01*
X16733440Y-11205560D02*
X16763440Y-11235560D01*
X16763440Y-11205560D02*
X16733440Y-11235560D01*
X16785350Y-7343680D02*
X16815350Y-7373680D01*
X16815350Y-7343680D02*
X16785350Y-7373680D01*
X16795000Y-9598000D02*
X16825000Y-9628000D01*
X16825000Y-9598000D02*
X16795000Y-9628000D01*
X16814000Y-9127000D02*
X16844000Y-9157000D01*
X16844000Y-9127000D02*
X16814000Y-9157000D01*
X16866920Y-7180550D02*
X16896920Y-7210550D01*
X16896920Y-7180550D02*
X16866920Y-7210550D01*
X16968280Y-7528600D02*
X16998280Y-7558600D01*
X16998280Y-7528600D02*
X16968280Y-7558600D01*
X16968960Y-7451250D02*
X16998960Y-7481250D01*
X16998960Y-7451250D02*
X16968960Y-7481250D01*
X17004300Y-10962630D02*
X17034300Y-10992630D01*
X17034300Y-10962630D02*
X17004300Y-10992630D01*
X17049000Y-11067660D02*
X17079000Y-11097660D01*
X17079000Y-11067660D02*
X17049000Y-11097660D01*
X17088000Y-10915000D02*
X17118000Y-10945000D01*
X17118000Y-10915000D02*
X17088000Y-10945000D01*
X17133440Y-11211560D02*
X17163440Y-11241560D01*
X17163440Y-11211560D02*
X17133440Y-11241560D01*
X17146000Y-6740000D02*
X17176000Y-6770000D01*
X17176000Y-6740000D02*
X17146000Y-6770000D01*
X17238030Y-6538000D02*
X17268030Y-6568000D01*
X17268030Y-6538000D02*
X17238030Y-6568000D01*
X17295530Y-7538059D02*
X17325530Y-7568059D01*
X17325530Y-7538059D02*
X17295530Y-7568059D01*
X17409000Y-6658000D02*
X17439000Y-6688000D01*
X17439000Y-6658000D02*
X17409000Y-6688000D01*
X17537000Y-10861000D02*
X17567000Y-10891000D01*
X17567000Y-10861000D02*
X17537000Y-10891000D01*
X17537440Y-11209560D02*
X17567440Y-11239560D01*
X17567440Y-11209560D02*
X17537440Y-11239560D01*
X17557350Y-6854620D02*
X17587350Y-6884620D01*
X17587350Y-6854620D02*
X17557350Y-6884620D01*
X17636820Y-6942030D02*
X17666820Y-6972030D01*
X17666820Y-6942030D02*
X17636820Y-6972030D01*
X17642000Y-7913000D02*
X17672000Y-7943000D01*
X17672000Y-7913000D02*
X17642000Y-7943000D01*
X17770847Y-10868847D02*
X17800847Y-10898847D01*
X17800847Y-10868847D02*
X17770847Y-10898847D01*
X17807970Y-8929150D02*
X17837970Y-8959150D01*
X17837970Y-8929150D02*
X17807970Y-8959150D01*
X17845300Y-6916740D02*
X17875300Y-6946740D01*
X17875300Y-6916740D02*
X17845300Y-6946740D01*
X17871305Y-6792680D02*
X17901305Y-6822680D01*
X17901305Y-6792680D02*
X17871305Y-6822680D01*
X17902000Y-10879000D02*
X17932000Y-10909000D01*
X17932000Y-10879000D02*
X17902000Y-10909000D01*
X17940440Y-11211560D02*
X17970440Y-11241560D01*
X17970440Y-11211560D02*
X17940440Y-11241560D01*
X18027990Y-7691090D02*
X18057990Y-7721090D01*
X18057990Y-7691090D02*
X18027990Y-7721090D01*
X18081980Y-10186200D02*
X18111980Y-10216200D01*
X18111980Y-10186200D02*
X18081980Y-10216200D01*
X18169540Y-9665000D02*
X18199540Y-9695000D01*
X18199540Y-9665000D02*
X18169540Y-9695000D01*
X18227000Y-7797000D02*
X18257000Y-7827000D01*
X18257000Y-7797000D02*
X18227000Y-7827000D01*
X18231000Y-7572000D02*
X18261000Y-7602000D01*
X18261000Y-7572000D02*
X18231000Y-7602000D01*
X18235040Y-10337250D02*
X18265040Y-10367250D01*
X18265040Y-10337250D02*
X18235040Y-10367250D01*
X18237170Y-8411320D02*
X18267170Y-8441320D01*
X18267170Y-8411320D02*
X18237170Y-8441320D01*
X18257000Y-8087000D02*
X18287000Y-8117000D01*
X18287000Y-8087000D02*
X18257000Y-8117000D01*
X18307000Y-7331000D02*
X18337000Y-7361000D01*
X18337000Y-7331000D02*
X18307000Y-7361000D01*
X18503000Y-10613000D02*
X18533000Y-10643000D01*
X18533000Y-10613000D02*
X18503000Y-10643000D01*
X18507220Y-9647260D02*
X18537220Y-9677260D01*
X18537220Y-9647260D02*
X18507220Y-9677260D01*
X18576000Y-9541000D02*
X18606000Y-9571000D01*
X18606000Y-9541000D02*
X18576000Y-9571000D01*
X18590000Y-7917000D02*
X18620000Y-7947000D01*
X18620000Y-7917000D02*
X18590000Y-7947000D01*
X18599000Y-7295000D02*
X18629000Y-7325000D01*
X18629000Y-7295000D02*
X18599000Y-7325000D01*
X18612040Y-10723260D02*
X18642040Y-10753260D01*
X18642040Y-10723260D02*
X18612040Y-10753260D01*
X18726889Y-8134933D02*
X18756889Y-8164933D01*
X18756889Y-8134933D02*
X18726889Y-8164933D01*
X18813000Y-9598000D02*
X18843000Y-9628000D01*
X18843000Y-9598000D02*
X18813000Y-9628000D01*
X18839148Y-7986360D02*
X18869148Y-8016360D01*
X18869148Y-7986360D02*
X18839148Y-8016360D01*
X19053110Y-9462680D02*
X19083110Y-9492680D01*
X19083110Y-9462680D02*
X19053110Y-9492680D01*
X19054000Y-10278000D02*
X19084000Y-10308000D01*
X19084000Y-10278000D02*
X19054000Y-10308000D01*
X19064879Y-7555481D02*
X19094879Y-7585481D01*
X19094879Y-7555481D02*
X19064879Y-7585481D01*
X19087000Y-9932000D02*
X19117000Y-9962000D01*
X19117000Y-9932000D02*
X19087000Y-9962000D01*
X19105000Y-10421000D02*
X19135000Y-10451000D01*
X19135000Y-10421000D02*
X19105000Y-10451000D01*
X19113510Y-10668260D02*
X19143510Y-10698260D01*
X19143510Y-10668260D02*
X19113510Y-10698260D01*
X19123000Y-8359000D02*
X19153000Y-8389000D01*
X19153000Y-8359000D02*
X19123000Y-8389000D01*
X19136173Y-7166500D02*
X19166173Y-7196500D01*
X19166173Y-7166500D02*
X19136173Y-7196500D01*
X19159000Y-7413000D02*
X19189000Y-7443000D01*
X19189000Y-7413000D02*
X19159000Y-7443000D01*
X19310070Y-7111610D02*
X19340070Y-7141610D01*
X19340070Y-7111610D02*
X19310070Y-7141610D01*
X19325900Y-9306780D02*
X19355900Y-9336780D01*
X19355900Y-9306780D02*
X19325900Y-9336780D01*
X19341000Y-7471000D02*
X19371000Y-7501000D01*
X19371000Y-7471000D02*
X19341000Y-7501000D01*
X19407000Y-10950000D02*
X19437000Y-10980000D01*
X19437000Y-10950000D02*
X19407000Y-10980000D01*
X19510000Y-11212960D02*
X19540000Y-11242960D01*
X19540000Y-11212960D02*
X19510000Y-11242960D01*
X19521016Y-7639016D02*
X19551016Y-7669016D01*
X19551016Y-7639016D02*
X19521016Y-7669016D01*
X19523000Y-7890000D02*
X19553000Y-7920000D01*
X19553000Y-7890000D02*
X19523000Y-7920000D01*
X19535130Y-8099290D02*
X19565130Y-8129290D01*
X19565130Y-8099290D02*
X19535130Y-8129290D01*
X19547000Y-10239000D02*
X19577000Y-10269000D01*
X19577000Y-10239000D02*
X19547000Y-10269000D01*
X19608820Y-10082600D02*
X19638820Y-10112600D01*
X19638820Y-10082600D02*
X19608820Y-10112600D01*
X19613000Y-9609000D02*
X19643000Y-9639000D01*
X19643000Y-9609000D02*
X19613000Y-9639000D01*
X19665000Y-8456000D02*
X19695000Y-8486000D01*
X19695000Y-8456000D02*
X19665000Y-8486000D01*
X19690000Y-9946000D02*
X19720000Y-9976000D01*
X19720000Y-9946000D02*
X19690000Y-9976000D01*
X19798720Y-6896030D02*
X19828720Y-6926030D01*
X19828720Y-6896030D02*
X19798720Y-6926030D01*
X19802710Y-10630930D02*
X19832710Y-10660930D01*
X19832710Y-10630930D02*
X19802710Y-10660930D01*
X19842000Y-10963000D02*
X19872000Y-10993000D01*
X19872000Y-10963000D02*
X19842000Y-10993000D01*
X19854920Y-6055630D02*
X19884920Y-6085630D01*
X19884920Y-6055630D02*
X19854920Y-6085630D01*
X19914000Y-11212000D02*
X19944000Y-11242000D01*
X19944000Y-11212000D02*
X19914000Y-11242000D01*
X19938000Y-6458000D02*
X19968000Y-6488000D01*
X19968000Y-6458000D02*
X19938000Y-6488000D01*
X20008160Y-11083590D02*
X20038160Y-11113590D01*
X20038160Y-11083590D02*
X20008160Y-11113590D01*
X20031000Y-7460000D02*
X20061000Y-7490000D01*
X20061000Y-7460000D02*
X20031000Y-7490000D01*
X20243000Y-10964000D02*
X20273000Y-10994000D01*
X20273000Y-10964000D02*
X20243000Y-10994000D01*
X20275000Y-9922630D02*
X20305000Y-9952630D01*
X20305000Y-9922630D02*
X20275000Y-9952630D01*
X20308000Y-11213000D02*
X20338000Y-11243000D01*
X20338000Y-11213000D02*
X20308000Y-11243000D01*
X20316450Y-6806270D02*
X20346450Y-6836270D01*
X20346450Y-6806270D02*
X20316450Y-6836270D01*
X20357000Y-6604000D02*
X20387000Y-6634000D01*
X20387000Y-6604000D02*
X20357000Y-6634000D01*
X20579050Y-10962720D02*
X20609050Y-10992720D01*
X20609050Y-10962720D02*
X20579050Y-10992720D01*
X20657000Y-11204000D02*
X20687000Y-11234000D01*
X20687000Y-11204000D02*
X20657000Y-11234000D01*
X20722490Y-10796840D02*
X20752490Y-10826840D01*
X20752490Y-10796840D02*
X20722490Y-10826840D01*
X20757249Y-10982751D02*
X20787249Y-11012751D01*
X20787249Y-10982751D02*
X20757249Y-11012751D01*
X20799690Y-11109380D02*
X20829690Y-11139380D01*
X20829690Y-11109380D02*
X20799690Y-11139380D01*
X20806000Y-6741000D02*
X20836000Y-6771000D01*
X20836000Y-6741000D02*
X20806000Y-6771000D01*
X20825000Y-5862000D02*
X20855000Y-5892000D01*
X20855000Y-5862000D02*
X20825000Y-5892000D01*
X20973000Y-5887000D02*
X21003000Y-5917000D01*
X21003000Y-5887000D02*
X20973000Y-5917000D01*
X21089000Y-11233000D02*
X21119000Y-11263000D01*
X21119000Y-11233000D02*
X21089000Y-11263000D01*
X21184000Y-10994000D02*
X21214000Y-11024000D01*
X21214000Y-10994000D02*
X21184000Y-11024000D01*
X21191000Y-8218000D02*
X21221000Y-8248000D01*
X21221000Y-8218000D02*
X21191000Y-8248000D01*
X21296000Y-7941000D02*
X21326000Y-7971000D01*
X21326000Y-7941000D02*
X21296000Y-7971000D01*
X21385000Y-10671000D02*
X21415000Y-10701000D01*
X21415000Y-10671000D02*
X21385000Y-10701000D01*
X21385000Y-10957550D02*
X21415000Y-10987550D01*
X21415000Y-10957550D02*
X21385000Y-10987550D01*
X21404220Y-11072720D02*
X21434220Y-11102720D01*
X21434220Y-11072720D02*
X21404220Y-11102720D01*
X21472502Y-10996284D02*
X21502502Y-11026284D01*
X21502502Y-10996284D02*
X21472502Y-11026284D01*
X21483000Y-9108000D02*
X21513000Y-9138000D01*
X21513000Y-9108000D02*
X21483000Y-9138000D01*
X21542000Y-11222000D02*
X21572000Y-11252000D01*
X21572000Y-11222000D02*
X21542000Y-11252000D01*
X21553000Y-7836000D02*
X21583000Y-7866000D01*
X21583000Y-7836000D02*
X21553000Y-7866000D01*
X21559000Y-8733000D02*
X21589000Y-8763000D01*
X21589000Y-8733000D02*
X21559000Y-8763000D01*
X21581000Y-9273000D02*
X21611000Y-9303000D01*
X21611000Y-9273000D02*
X21581000Y-9303000D01*
X21863540Y-8570100D02*
X21893540Y-8600100D01*
X21893540Y-8570100D02*
X21863540Y-8600100D01*
X21866000Y-10954000D02*
X21896000Y-10984000D01*
X21896000Y-10954000D02*
X21866000Y-10984000D01*
X21917000Y-11187000D02*
X21947000Y-11217000D01*
X21947000Y-11187000D02*
X21917000Y-11217000D01*
X22039340Y-9194970D02*
X22069340Y-9224970D01*
X22069340Y-9194970D02*
X22039340Y-9224970D01*
X22042090Y-11130270D02*
X22072090Y-11160270D01*
X22072090Y-11130270D02*
X22042090Y-11160270D01*
X22074960Y-9059880D02*
X22104960Y-9089880D01*
X22104960Y-9059880D02*
X22074960Y-9089880D01*
X22084000Y-8741000D02*
X22114000Y-8771000D01*
X22114000Y-8741000D02*
X22084000Y-8771000D01*
X22290000Y-10938000D02*
X22320000Y-10968000D01*
X22320000Y-10938000D02*
X22290000Y-10968000D01*
X22316360Y-11213210D02*
X22346360Y-11243210D01*
X22346360Y-11213210D02*
X22316360Y-11243210D01*
X22338710Y-8441140D02*
X22368710Y-8471140D01*
X22368710Y-8441140D02*
X22338710Y-8471140D01*
X22620000Y-9218000D02*
X22650000Y-9248000D01*
X22650000Y-9218000D02*
X22620000Y-9248000D01*
X22669130Y-7301690D02*
X22699130Y-7331690D01*
X22699130Y-7301690D02*
X22669130Y-7331690D01*
X22680000Y-10916000D02*
X22710000Y-10946000D01*
X22710000Y-10916000D02*
X22680000Y-10946000D01*
X22720000Y-11208230D02*
X22750000Y-11238230D01*
X22750000Y-11208230D02*
X22720000Y-11238230D01*
X22792410Y-7153640D02*
X22822410Y-7183640D01*
X22822410Y-7153640D02*
X22792410Y-7183640D01*
X23062960Y-6997230D02*
X23092960Y-7027230D01*
X23092960Y-6997230D02*
X23062960Y-7027230D01*
X23072000Y-10981000D02*
X23102000Y-11011000D01*
X23102000Y-10981000D02*
X23072000Y-11011000D01*
X23137000Y-11204000D02*
X23167000Y-11234000D01*
X23167000Y-11204000D02*
X23137000Y-11234000D01*
X23157600Y-9634900D02*
X23187600Y-9664900D01*
X23187600Y-9634900D02*
X23157600Y-9664900D01*
X23302000Y-10590000D02*
X23332000Y-10620000D01*
X23332000Y-10590000D02*
X23302000Y-10620000D01*
X23325080Y-6526940D02*
X23355080Y-6556940D01*
X23355080Y-6526940D02*
X23325080Y-6556940D01*
X23325080Y-7770200D02*
X23355080Y-7800200D01*
X23355080Y-7770200D02*
X23325080Y-7800200D01*
X23344660Y-10792660D02*
X23374660Y-10822660D01*
X23374660Y-10792660D02*
X23344660Y-10822660D01*
X23481000Y-10959000D02*
X23511000Y-10989000D01*
X23511000Y-10959000D02*
X23481000Y-10989000D01*
X23486500Y-6768860D02*
X23516500Y-6798860D01*
X23516500Y-6768860D02*
X23486500Y-6798860D01*
X23513000Y-11208000D02*
X23543000Y-11238000D01*
X23543000Y-11208000D02*
X23513000Y-11238000D01*
X23546000Y-7456000D02*
X23576000Y-7486000D01*
X23576000Y-7456000D02*
X23546000Y-7486000D01*
X23552420Y-7836050D02*
X23582420Y-7866050D01*
X23582420Y-7836050D02*
X23552420Y-7866050D01*
X23595460Y-6874870D02*
X23625460Y-6904870D01*
X23625460Y-6874870D02*
X23595460Y-6904870D01*
X23607120Y-9735000D02*
X23637120Y-9765000D01*
X23637120Y-9735000D02*
X23607120Y-9765000D01*
X23772000Y-10589000D02*
X23802000Y-10619000D01*
X23802000Y-10589000D02*
X23772000Y-10619000D01*
X23869190Y-11062410D02*
X23899190Y-11092410D01*
X23899190Y-11062410D02*
X23869190Y-11092410D01*
X23905000Y-10963570D02*
X23935000Y-10993570D01*
X23935000Y-10963570D02*
X23905000Y-10993570D01*
X23921000Y-6758000D02*
X23951000Y-6788000D01*
X23951000Y-6758000D02*
X23921000Y-6788000D01*
X23921000Y-7715000D02*
X23951000Y-7745000D01*
X23951000Y-7715000D02*
X23921000Y-7745000D01*
X23941000Y-7040820D02*
X23971000Y-7070820D01*
X23971000Y-7040820D02*
X23941000Y-7070820D01*
X23951000Y-11227000D02*
X23981000Y-11257000D01*
X23981000Y-11227000D02*
X23951000Y-11257000D01*
X24144490Y-6923210D02*
X24174490Y-6953210D01*
X24174490Y-6923210D02*
X24144490Y-6953210D01*
X24172270Y-6826250D02*
X24202270Y-6856250D01*
X24202270Y-6826250D02*
X24172270Y-6856250D01*
X24209000Y-6225000D02*
X24239000Y-6255000D01*
X24239000Y-6225000D02*
X24209000Y-6255000D01*
X24237900Y-6754170D02*
X24267900Y-6784170D01*
X24267900Y-6754170D02*
X24237900Y-6784170D01*
X24244000Y-8895000D02*
X24274000Y-8925000D01*
X24274000Y-8895000D02*
X24244000Y-8925000D01*
X24270630Y-7198857D02*
X24300630Y-7228857D01*
X24300630Y-7198857D02*
X24270630Y-7228857D01*
X24325630Y-7584530D02*
X24355630Y-7614530D01*
X24355630Y-7584530D02*
X24325630Y-7614530D01*
X24376000Y-8646000D02*
X24406000Y-8676000D01*
X24406000Y-8646000D02*
X24376000Y-8676000D01*
X24411350Y-6982810D02*
X24441350Y-7012810D01*
X24441350Y-6982810D02*
X24411350Y-7012810D01*
X24436000Y-8852000D02*
X24466000Y-8882000D01*
X24466000Y-8852000D02*
X24436000Y-8882000D01*
X24501430Y-7158590D02*
X24531430Y-7188590D01*
X24531430Y-7158590D02*
X24501430Y-7188590D01*
X24520080Y-10480000D02*
X24550080Y-10510000D01*
X24550080Y-10480000D02*
X24520080Y-10510000D01*
X24606000Y-8512000D02*
X24636000Y-8542000D01*
X24636000Y-8512000D02*
X24606000Y-8542000D01*
X24666230Y-6979100D02*
X24696230Y-7009100D01*
X24696230Y-6979100D02*
X24666230Y-7009100D01*
X24760000Y-7271000D02*
X24790000Y-7301000D01*
X24790000Y-7271000D02*
X24760000Y-7301000D01*
X24777660Y-6982800D02*
X24807660Y-7012800D01*
X24807660Y-6982800D02*
X24777660Y-7012800D01*
X24855000Y-6257000D02*
X24885000Y-6287000D01*
X24885000Y-6257000D02*
X24855000Y-6287000D01*
X24858140Y-6984700D02*
X24888140Y-7014700D01*
X24888140Y-6984700D02*
X24858140Y-7014700D01*
X24932000Y-6194000D02*
X24962000Y-6224000D01*
X24962000Y-6194000D02*
X24932000Y-6224000D01*
X24961190Y-6740000D02*
X24991190Y-6770000D01*
X24991190Y-6740000D02*
X24961190Y-6770000D01*
X24961190Y-6855430D02*
X24991190Y-6885430D01*
X24991190Y-6855430D02*
X24961190Y-6885430D01*
X25114910Y-6900000D02*
X25144910Y-6930000D01*
X25144910Y-6900000D02*
X25114910Y-6930000D01*
X25116910Y-6660000D02*
X25146910Y-6690000D01*
X25146910Y-6660000D02*
X25116910Y-6690000D01*
X25125500Y-7155480D02*
X25155500Y-7185480D01*
X25155500Y-7155480D02*
X25125500Y-7185480D01*
X25139000Y-7645000D02*
X25169000Y-7675000D01*
X25169000Y-7645000D02*
X25139000Y-7675000D01*
X25145010Y-6500000D02*
X25175010Y-6530000D01*
X25175010Y-6500000D02*
X25145010Y-6530000D01*
X25169000Y-7283000D02*
X25199000Y-7313000D01*
X25199000Y-7283000D02*
X25169000Y-7313000D01*
X25336780Y-6580000D02*
X25366780Y-6610000D01*
X25366780Y-6580000D02*
X25336780Y-6610000D01*
X25385500Y-6524310D02*
X25415500Y-6554310D01*
X25415500Y-6524310D02*
X25385500Y-6554310D01*
X17851000Y-10291000D02*
G75*
G02*
X17811000Y-10291000I-20000J0D01*
G01*
X17811000Y-10291000D02*
G75*
G02*
X17851000Y-10291000I20000J0D01*
G01*
X18562000Y-9881000D02*
G75*
G02*
X18522000Y-9881000I-20000J0D01*
G01*
X18522000Y-9881000D02*
G75*
G02*
X18562000Y-9881000I20000J0D01*
G01*
X18652781Y-9973781D02*
G75*
G02*
X18612781Y-9973781I-20000J0D01*
G01*
X18612781Y-9973781D02*
G75*
G02*
X18652781Y-9973781I20000J0D01*
G01*
X20026000Y-10575000D02*
G75*
G02*
X19986000Y-10575000I-20000J0D01*
G01*
X19986000Y-10575000D02*
G75*
G02*
X20026000Y-10575000I20000J0D01*
G01*
X21333000Y-9056000D02*
G75*
G02*
X21293000Y-9056000I-20000J0D01*
G01*
X21293000Y-9056000D02*
G75*
G02*
X21333000Y-9056000I20000J0D01*
G01*
X21945000Y-8086000D02*
G75*
G02*
X21905000Y-8086000I-20000J0D01*
G01*
X21905000Y-8086000D02*
G75*
G02*
X21945000Y-8086000I20000J0D01*
G01*
X22578000Y-8053000D02*
G75*
G02*
X22538000Y-8053000I-20000J0D01*
G01*
X22538000Y-8053000D02*
G75*
G02*
X22578000Y-8053000I20000J0D01*
G01*
X23528000Y-6338420D02*
G75*
G02*
X23488000Y-6338420I-20000J0D01*
G01*
X23488000Y-6338420D02*
G75*
G02*
X23528000Y-6338420I20000J0D01*
G01*
X23528521Y-6695521D02*
G75*
G02*
X23488521Y-6695521I-20000J0D01*
G01*
X23488521Y-6695521D02*
G75*
G02*
X23528521Y-6695521I20000J0D01*
G01*
X24269000Y-8498000D02*
G75*
G02*
X24229000Y-8498000I-20000J0D01*
G01*
X24229000Y-8498000D02*
G75*
G02*
X24269000Y-8498000I20000J0D01*
G01*
X24468000Y-8510000D02*
G75*
G02*
X24428000Y-8510000I-20000J0D01*
G01*
X24428000Y-8510000D02*
G75*
G02*
X24468000Y-8510000I20000J0D01*
G01*
X24622000Y-8651000D02*
G75*
G02*
X24582000Y-8651000I-20000J0D01*
G01*
X24582000Y-8651000D02*
G75*
G02*
X24622000Y-8651000I20000J0D01*
G01*
X24745000Y-8854000D02*
G75*
G02*
X24705000Y-8854000I-20000J0D01*
G01*
X24705000Y-8854000D02*
G75*
G02*
X24745000Y-8854000I20000J0D01*
G01*
X25196000Y-7391000D02*
G75*
G02*
X25156000Y-7391000I-20000J0D01*
G01*
X25156000Y-7391000D02*
G75*
G02*
X25196000Y-7391000I20000J0D01*
G01*
X18388000Y-10923000D02*
X18388000Y-10983000D01*
X18358000Y-10953000D02*
X18418000Y-10953000D01*
X18358000Y-10898000D02*
X18358000Y-11008000D01*
X18418000Y-11008000D02*
G75*
G02*
X18358000Y-11008000I-30000J0D01*
G01*
X18418000Y-11008000D02*
X18418000Y-10898000D01*
X18418000Y-10898000D02*
G75*
G03*
X18358000Y-10898000I-30000J0D01*
G01*
X18388000Y-11341000D02*
X18388000Y-11401000D01*
X18358000Y-11371000D02*
X18418000Y-11371000D01*
X18358000Y-11341000D02*
X18358000Y-11401000D01*
X18418000Y-11401000D02*
G75*
G02*
X18358000Y-11401000I-30000J0D01*
G01*
X18418000Y-11401000D02*
X18418000Y-11341000D01*
X18418000Y-11341000D02*
G75*
G03*
X18358000Y-11341000I-30000J0D01*
G01*
X19252000Y-10923000D02*
X19252000Y-10983000D01*
X19222000Y-10953000D02*
X19282000Y-10953000D01*
X19222000Y-10898000D02*
X19222000Y-11008000D01*
X19282000Y-11008000D02*
G75*
G02*
X19222000Y-11008000I-30000J0D01*
G01*
X19282000Y-11008000D02*
X19282000Y-10898000D01*
X19282000Y-10898000D02*
G75*
G03*
X19222000Y-10898000I-30000J0D01*
G01*
X19252000Y-11341000D02*
X19252000Y-11401000D01*
X19222000Y-11371000D02*
X19282000Y-11371000D01*
X19222000Y-11341000D02*
X19222000Y-11401000D01*
X19282000Y-11401000D02*
G75*
G02*
X19222000Y-11401000I-30000J0D01*
G01*
X19282000Y-11401000D02*
X19282000Y-11341000D01*
X19282000Y-11341000D02*
G75*
G03*
X19222000Y-11341000I-30000J0D01*
G01*
X12823588Y-6632308D02*
X12823588Y-6565132D01*
X12756412Y-6565132D01*
X12756412Y-6632308D01*
X12823588Y-6632308D01*
X12823588Y-6882308D02*
X12823588Y-6815132D01*
X12756412Y-6815132D01*
X12756412Y-6882308D01*
X12823588Y-6882308D01*
X12823588Y-7132308D02*
X12823588Y-7065132D01*
X12756412Y-7065132D01*
X12756412Y-7132308D01*
X12823588Y-7132308D01*
X12590000Y-8582000D02*
X12640000Y-8532000D01*
X12590000Y-8482000D01*
X12540000Y-8532000D01*
X12590000Y-8582000D01*
X12590000Y-8836000D02*
X12640000Y-8786000D01*
X12590000Y-8736000D01*
X12540000Y-8786000D01*
X12590000Y-8836000D01*
X12590000Y-9090000D02*
X12640000Y-9040000D01*
X12590000Y-8990000D01*
X12540000Y-9040000D01*
X12590000Y-9090000D01*
X12590000Y-9344000D02*
X12640000Y-9294000D01*
X12590000Y-9244000D01*
X12540000Y-9294000D01*
X12590000Y-9344000D01*
X12590000Y-9598000D02*
X12640000Y-9548000D01*
X12590000Y-9498000D01*
X12540000Y-9548000D01*
X12590000Y-9598000D01*
X12590000Y-9852000D02*
X12640000Y-9802000D01*
X12590000Y-9752000D01*
X12540000Y-9802000D01*
X12590000Y-9852000D01*
X12590000Y-10106000D02*
X12640000Y-10056000D01*
X12590000Y-10006000D01*
X12540000Y-10056000D01*
X12590000Y-10106000D01*
X12590000Y-10360000D02*
X12640000Y-10310000D01*
X12590000Y-10260000D01*
X12540000Y-10310000D01*
X12590000Y-10360000D01*
X12590000Y-10614000D02*
X12640000Y-10564000D01*
X12590000Y-10514000D01*
X12540000Y-10564000D01*
X12590000Y-10614000D01*
X25120000Y-9613000D02*
X25170000Y-9563000D01*
X25120000Y-9513000D01*
X25070000Y-9563000D01*
X25120000Y-9613000D01*
X25120000Y-9867000D02*
X25170000Y-9817000D01*
X25120000Y-9767000D01*
X25070000Y-9817000D01*
X25120000Y-9867000D01*
X25120000Y-10121000D02*
X25170000Y-10071000D01*
X25120000Y-10021000D01*
X25070000Y-10071000D01*
X25120000Y-10121000D01*
X25120000Y-10375000D02*
X25170000Y-10325000D01*
X25120000Y-10275000D01*
X25070000Y-10325000D01*
X25120000Y-10375000D01*
X25130000Y-8429000D02*
X25180000Y-8379000D01*
X25130000Y-8329000D01*
X25080000Y-8379000D01*
X25130000Y-8429000D01*
X25130000Y-8683000D02*
X25180000Y-8633000D01*
X25130000Y-8583000D01*
X25080000Y-8633000D01*
X25130000Y-8683000D01*
X25130000Y-8937000D02*
X25180000Y-8887000D01*
X25130000Y-8837000D01*
X25080000Y-8887000D01*
X25130000Y-8937000D01*
X25130000Y-9191000D02*
X25180000Y-9141000D01*
X25130000Y-9091000D01*
X25080000Y-9141000D01*
X25130000Y-9191000D01*
D12*
X12782340Y-7890160D02*
X12909340Y-8017160D01*
X12909340Y-7890160D02*
X12782340Y-8017160D01*
X12909340Y-7953660D02*
G75*
G02*
X12782340Y-7953660I-63500J0D01*
G01*
X12782340Y-7953660D02*
G75*
G02*
X12909340Y-7953660I63500J0D01*
G01*
X13474490Y-7816500D02*
X13601490Y-7943500D01*
X13601490Y-7816500D02*
X13474490Y-7943500D01*
X13601490Y-7880000D02*
G75*
G02*
X13474490Y-7880000I-63500J0D01*
G01*
X13474490Y-7880000D02*
G75*
G02*
X13601490Y-7880000I63500J0D01*
G01*
D13*
X14152000Y-6125000D02*
X14282000Y-6255000D01*
X14282000Y-6125000D02*
X14152000Y-6255000D01*
X14217000Y-6125000D02*
X14217000Y-6255000D01*
X14152000Y-6190000D02*
X14282000Y-6190000D01*
X14660000Y-6125000D02*
X14790000Y-6255000D01*
X14790000Y-6125000D02*
X14660000Y-6255000D01*
X14725000Y-6125000D02*
X14725000Y-6255000D01*
X14660000Y-6190000D02*
X14790000Y-6190000D01*
X15168000Y-6125000D02*
X15298000Y-6255000D01*
X15298000Y-6125000D02*
X15168000Y-6255000D01*
X15233000Y-6125000D02*
X15233000Y-6255000D01*
X15168000Y-6190000D02*
X15298000Y-6190000D01*
X15676000Y-6125000D02*
X15806000Y-6255000D01*
X15806000Y-6125000D02*
X15676000Y-6255000D01*
X15741000Y-6125000D02*
X15741000Y-6255000D01*
X15676000Y-6190000D02*
X15806000Y-6190000D01*
X16489030Y-6125000D02*
X16619030Y-6255000D01*
X16619030Y-6125000D02*
X16489030Y-6255000D01*
X16554030Y-6125000D02*
X16554030Y-6255000D01*
X16489030Y-6190000D02*
X16619030Y-6190000D01*
X16997030Y-6125000D02*
X17127030Y-6255000D01*
X17127030Y-6125000D02*
X16997030Y-6255000D01*
X17062030Y-6125000D02*
X17062030Y-6255000D01*
X16997030Y-6190000D02*
X17127030Y-6190000D01*
X17505030Y-6125000D02*
X17635030Y-6255000D01*
X17635030Y-6125000D02*
X17505030Y-6255000D01*
X17570030Y-6125000D02*
X17570030Y-6255000D01*
X17505030Y-6190000D02*
X17635030Y-6190000D01*
X18013030Y-6125000D02*
X18143030Y-6255000D01*
X18143030Y-6125000D02*
X18013030Y-6255000D01*
X18078030Y-6125000D02*
X18078030Y-6255000D01*
X18013030Y-6190000D02*
X18143030Y-6190000D01*
D10*
X12500777Y-11841484D02*
X12500777Y-11641484D01*
X12500777Y-11641484D02*
X12548396Y-11641484D01*
X12548396Y-11641484D02*
X12576967Y-11651008D01*
X12576967Y-11651008D02*
X12596015Y-11670055D01*
X12596015Y-11670055D02*
X12605539Y-11689103D01*
X12605539Y-11689103D02*
X12615062Y-11727198D01*
X12615062Y-11727198D02*
X12615062Y-11755769D01*
X12615062Y-11755769D02*
X12605539Y-11793865D01*
X12605539Y-11793865D02*
X12596015Y-11812912D01*
X12596015Y-11812912D02*
X12576967Y-11831960D01*
X12576967Y-11831960D02*
X12548396Y-11841484D01*
X12548396Y-11841484D02*
X12500777Y-11841484D01*
X12700777Y-11841484D02*
X12700777Y-11708150D01*
X12700777Y-11746246D02*
X12710301Y-11727198D01*
X12710301Y-11727198D02*
X12719824Y-11717674D01*
X12719824Y-11717674D02*
X12738872Y-11708150D01*
X12738872Y-11708150D02*
X12757920Y-11708150D01*
X12824586Y-11841484D02*
X12824586Y-11708150D01*
X12824586Y-11641484D02*
X12815062Y-11651008D01*
X12815062Y-11651008D02*
X12824586Y-11660531D01*
X12824586Y-11660531D02*
X12834110Y-11651008D01*
X12834110Y-11651008D02*
X12824586Y-11641484D01*
X12824586Y-11641484D02*
X12824586Y-11660531D01*
X12948396Y-11841484D02*
X12929348Y-11831960D01*
X12929348Y-11831960D02*
X12919824Y-11812912D01*
X12919824Y-11812912D02*
X12919824Y-11641484D01*
X13053158Y-11841484D02*
X13034110Y-11831960D01*
X13034110Y-11831960D02*
X13024586Y-11812912D01*
X13024586Y-11812912D02*
X13024586Y-11641484D01*
X13281729Y-11841484D02*
X13281729Y-11641484D01*
X13281729Y-11641484D02*
X13348396Y-11784341D01*
X13348396Y-11784341D02*
X13415062Y-11641484D01*
X13415062Y-11641484D02*
X13415062Y-11841484D01*
X13596015Y-11841484D02*
X13596015Y-11736722D01*
X13596015Y-11736722D02*
X13586491Y-11717674D01*
X13586491Y-11717674D02*
X13567443Y-11708150D01*
X13567443Y-11708150D02*
X13529348Y-11708150D01*
X13529348Y-11708150D02*
X13510301Y-11717674D01*
X13596015Y-11831960D02*
X13576967Y-11841484D01*
X13576967Y-11841484D02*
X13529348Y-11841484D01*
X13529348Y-11841484D02*
X13510301Y-11831960D01*
X13510301Y-11831960D02*
X13500777Y-11812912D01*
X13500777Y-11812912D02*
X13500777Y-11793865D01*
X13500777Y-11793865D02*
X13510301Y-11774817D01*
X13510301Y-11774817D02*
X13529348Y-11765293D01*
X13529348Y-11765293D02*
X13576967Y-11765293D01*
X13576967Y-11765293D02*
X13596015Y-11755769D01*
X13691253Y-11708150D02*
X13691253Y-11908150D01*
X13691253Y-11717674D02*
X13710301Y-11708150D01*
X13710301Y-11708150D02*
X13748396Y-11708150D01*
X13748396Y-11708150D02*
X13767443Y-11717674D01*
X13767443Y-11717674D02*
X13776967Y-11727198D01*
X13776967Y-11727198D02*
X13786491Y-11746246D01*
X13786491Y-11746246D02*
X13786491Y-11803388D01*
X13786491Y-11803388D02*
X13776967Y-11822436D01*
X13776967Y-11822436D02*
X13767443Y-11831960D01*
X13767443Y-11831960D02*
X13748396Y-11841484D01*
X13748396Y-11841484D02*
X13710301Y-11841484D01*
X13710301Y-11841484D02*
X13691253Y-11831960D01*
X13872205Y-11822436D02*
X13881729Y-11831960D01*
X13881729Y-11831960D02*
X13872205Y-11841484D01*
X13872205Y-11841484D02*
X13862682Y-11831960D01*
X13862682Y-11831960D02*
X13872205Y-11822436D01*
X13872205Y-11822436D02*
X13872205Y-11841484D01*
X13872205Y-11717674D02*
X13881729Y-11727198D01*
X13881729Y-11727198D02*
X13872205Y-11736722D01*
X13872205Y-11736722D02*
X13862682Y-11727198D01*
X13862682Y-11727198D02*
X13872205Y-11717674D01*
X13872205Y-11717674D02*
X13872205Y-11736722D01*
D11*
X12210000Y-12155000D02*
X12240000Y-12185000D01*
X12240000Y-12155000D02*
X12210000Y-12185000D01*
D10*
X12538872Y-12061484D02*
X12557920Y-12061484D01*
X12557920Y-12061484D02*
X12576967Y-12071008D01*
X12576967Y-12071008D02*
X12586491Y-12080531D01*
X12586491Y-12080531D02*
X12596015Y-12099579D01*
X12596015Y-12099579D02*
X12605539Y-12137674D01*
X12605539Y-12137674D02*
X12605539Y-12185293D01*
X12605539Y-12185293D02*
X12596015Y-12223388D01*
X12596015Y-12223388D02*
X12586491Y-12242436D01*
X12586491Y-12242436D02*
X12576967Y-12251960D01*
X12576967Y-12251960D02*
X12557920Y-12261484D01*
X12557920Y-12261484D02*
X12538872Y-12261484D01*
X12538872Y-12261484D02*
X12519824Y-12251960D01*
X12519824Y-12251960D02*
X12510301Y-12242436D01*
X12510301Y-12242436D02*
X12500777Y-12223388D01*
X12500777Y-12223388D02*
X12491253Y-12185293D01*
X12491253Y-12185293D02*
X12491253Y-12137674D01*
X12491253Y-12137674D02*
X12500777Y-12099579D01*
X12500777Y-12099579D02*
X12510301Y-12080531D01*
X12510301Y-12080531D02*
X12519824Y-12071008D01*
X12519824Y-12071008D02*
X12538872Y-12061484D01*
X12691253Y-12242436D02*
X12700777Y-12251960D01*
X12700777Y-12251960D02*
X12691253Y-12261484D01*
X12691253Y-12261484D02*
X12681729Y-12251960D01*
X12681729Y-12251960D02*
X12691253Y-12242436D01*
X12691253Y-12242436D02*
X12691253Y-12261484D01*
X12767443Y-12061484D02*
X12891253Y-12061484D01*
X12891253Y-12061484D02*
X12824586Y-12137674D01*
X12824586Y-12137674D02*
X12853158Y-12137674D01*
X12853158Y-12137674D02*
X12872205Y-12147198D01*
X12872205Y-12147198D02*
X12881729Y-12156722D01*
X12881729Y-12156722D02*
X12891253Y-12175769D01*
X12891253Y-12175769D02*
X12891253Y-12223388D01*
X12891253Y-12223388D02*
X12881729Y-12242436D01*
X12881729Y-12242436D02*
X12872205Y-12251960D01*
X12872205Y-12251960D02*
X12853158Y-12261484D01*
X12853158Y-12261484D02*
X12796015Y-12261484D01*
X12796015Y-12261484D02*
X12776967Y-12251960D01*
X12776967Y-12251960D02*
X12767443Y-12242436D01*
X13015062Y-12061484D02*
X13034110Y-12061484D01*
X13034110Y-12061484D02*
X13053158Y-12071008D01*
X13053158Y-12071008D02*
X13062682Y-12080531D01*
X13062682Y-12080531D02*
X13072205Y-12099579D01*
X13072205Y-12099579D02*
X13081729Y-12137674D01*
X13081729Y-12137674D02*
X13081729Y-12185293D01*
X13081729Y-12185293D02*
X13072205Y-12223388D01*
X13072205Y-12223388D02*
X13062682Y-12242436D01*
X13062682Y-12242436D02*
X13053158Y-12251960D01*
X13053158Y-12251960D02*
X13034110Y-12261484D01*
X13034110Y-12261484D02*
X13015062Y-12261484D01*
X13015062Y-12261484D02*
X12996015Y-12251960D01*
X12996015Y-12251960D02*
X12986491Y-12242436D01*
X12986491Y-12242436D02*
X12976967Y-12223388D01*
X12976967Y-12223388D02*
X12967443Y-12185293D01*
X12967443Y-12185293D02*
X12967443Y-12137674D01*
X12967443Y-12137674D02*
X12976967Y-12099579D01*
X12976967Y-12099579D02*
X12986491Y-12080531D01*
X12986491Y-12080531D02*
X12996015Y-12071008D01*
X12996015Y-12071008D02*
X13015062Y-12061484D01*
X13205539Y-12061484D02*
X13224586Y-12061484D01*
X13224586Y-12061484D02*
X13243634Y-12071008D01*
X13243634Y-12071008D02*
X13253158Y-12080531D01*
X13253158Y-12080531D02*
X13262682Y-12099579D01*
X13262682Y-12099579D02*
X13272205Y-12137674D01*
X13272205Y-12137674D02*
X13272205Y-12185293D01*
X13272205Y-12185293D02*
X13262682Y-12223388D01*
X13262682Y-12223388D02*
X13253158Y-12242436D01*
X13253158Y-12242436D02*
X13243634Y-12251960D01*
X13243634Y-12251960D02*
X13224586Y-12261484D01*
X13224586Y-12261484D02*
X13205539Y-12261484D01*
X13205539Y-12261484D02*
X13186491Y-12251960D01*
X13186491Y-12251960D02*
X13176967Y-12242436D01*
X13176967Y-12242436D02*
X13167443Y-12223388D01*
X13167443Y-12223388D02*
X13157920Y-12185293D01*
X13157920Y-12185293D02*
X13157920Y-12137674D01*
X13157920Y-12137674D02*
X13167443Y-12099579D01*
X13167443Y-12099579D02*
X13176967Y-12080531D01*
X13176967Y-12080531D02*
X13186491Y-12071008D01*
X13186491Y-12071008D02*
X13205539Y-12061484D01*
X13357920Y-12261484D02*
X13357920Y-12128150D01*
X13357920Y-12147198D02*
X13367443Y-12137674D01*
X13367443Y-12137674D02*
X13386491Y-12128150D01*
X13386491Y-12128150D02*
X13415063Y-12128150D01*
X13415063Y-12128150D02*
X13434110Y-12137674D01*
X13434110Y-12137674D02*
X13443634Y-12156722D01*
X13443634Y-12156722D02*
X13443634Y-12261484D01*
X13443634Y-12156722D02*
X13453158Y-12137674D01*
X13453158Y-12137674D02*
X13472205Y-12128150D01*
X13472205Y-12128150D02*
X13500777Y-12128150D01*
X13500777Y-12128150D02*
X13519824Y-12137674D01*
X13519824Y-12137674D02*
X13529348Y-12156722D01*
X13529348Y-12156722D02*
X13529348Y-12261484D01*
X13624586Y-12261484D02*
X13624586Y-12128150D01*
X13624586Y-12147198D02*
X13634110Y-12137674D01*
X13634110Y-12137674D02*
X13653158Y-12128150D01*
X13653158Y-12128150D02*
X13681729Y-12128150D01*
X13681729Y-12128150D02*
X13700777Y-12137674D01*
X13700777Y-12137674D02*
X13710301Y-12156722D01*
X13710301Y-12156722D02*
X13710301Y-12261484D01*
X13710301Y-12156722D02*
X13719824Y-12137674D01*
X13719824Y-12137674D02*
X13738872Y-12128150D01*
X13738872Y-12128150D02*
X13767443Y-12128150D01*
X13767443Y-12128150D02*
X13786491Y-12137674D01*
X13786491Y-12137674D02*
X13796015Y-12156722D01*
X13796015Y-12156722D02*
X13796015Y-12261484D01*
X14186491Y-12051960D02*
X14015063Y-12309103D01*
X14443634Y-12061484D02*
X14462682Y-12061484D01*
X14462682Y-12061484D02*
X14481729Y-12071008D01*
X14481729Y-12071008D02*
X14491253Y-12080531D01*
X14491253Y-12080531D02*
X14500777Y-12099579D01*
X14500777Y-12099579D02*
X14510301Y-12137674D01*
X14510301Y-12137674D02*
X14510301Y-12185293D01*
X14510301Y-12185293D02*
X14500777Y-12223388D01*
X14500777Y-12223388D02*
X14491253Y-12242436D01*
X14491253Y-12242436D02*
X14481729Y-12251960D01*
X14481729Y-12251960D02*
X14462682Y-12261484D01*
X14462682Y-12261484D02*
X14443634Y-12261484D01*
X14443634Y-12261484D02*
X14424586Y-12251960D01*
X14424586Y-12251960D02*
X14415063Y-12242436D01*
X14415063Y-12242436D02*
X14405539Y-12223388D01*
X14405539Y-12223388D02*
X14396015Y-12185293D01*
X14396015Y-12185293D02*
X14396015Y-12137674D01*
X14396015Y-12137674D02*
X14405539Y-12099579D01*
X14405539Y-12099579D02*
X14415063Y-12080531D01*
X14415063Y-12080531D02*
X14424586Y-12071008D01*
X14424586Y-12071008D02*
X14443634Y-12061484D01*
X14596015Y-12242436D02*
X14605539Y-12251960D01*
X14605539Y-12251960D02*
X14596015Y-12261484D01*
X14596015Y-12261484D02*
X14586491Y-12251960D01*
X14586491Y-12251960D02*
X14596015Y-12242436D01*
X14596015Y-12242436D02*
X14596015Y-12261484D01*
X14729348Y-12061484D02*
X14748396Y-12061484D01*
X14748396Y-12061484D02*
X14767444Y-12071008D01*
X14767444Y-12071008D02*
X14776967Y-12080531D01*
X14776967Y-12080531D02*
X14786491Y-12099579D01*
X14786491Y-12099579D02*
X14796015Y-12137674D01*
X14796015Y-12137674D02*
X14796015Y-12185293D01*
X14796015Y-12185293D02*
X14786491Y-12223388D01*
X14786491Y-12223388D02*
X14776967Y-12242436D01*
X14776967Y-12242436D02*
X14767444Y-12251960D01*
X14767444Y-12251960D02*
X14748396Y-12261484D01*
X14748396Y-12261484D02*
X14729348Y-12261484D01*
X14729348Y-12261484D02*
X14710301Y-12251960D01*
X14710301Y-12251960D02*
X14700777Y-12242436D01*
X14700777Y-12242436D02*
X14691253Y-12223388D01*
X14691253Y-12223388D02*
X14681729Y-12185293D01*
X14681729Y-12185293D02*
X14681729Y-12137674D01*
X14681729Y-12137674D02*
X14691253Y-12099579D01*
X14691253Y-12099579D02*
X14700777Y-12080531D01*
X14700777Y-12080531D02*
X14710301Y-12071008D01*
X14710301Y-12071008D02*
X14729348Y-12061484D01*
X14986491Y-12261484D02*
X14872206Y-12261484D01*
X14929348Y-12261484D02*
X14929348Y-12061484D01*
X14929348Y-12061484D02*
X14910301Y-12090055D01*
X14910301Y-12090055D02*
X14891253Y-12109103D01*
X14891253Y-12109103D02*
X14872206Y-12118627D01*
X15176967Y-12261484D02*
X15062682Y-12261484D01*
X15119825Y-12261484D02*
X15119825Y-12061484D01*
X15119825Y-12061484D02*
X15100777Y-12090055D01*
X15100777Y-12090055D02*
X15081729Y-12109103D01*
X15081729Y-12109103D02*
X15062682Y-12118627D01*
X15291253Y-12147198D02*
X15272206Y-12137674D01*
X15272206Y-12137674D02*
X15262682Y-12128150D01*
X15262682Y-12128150D02*
X15253158Y-12109103D01*
X15253158Y-12109103D02*
X15253158Y-12099579D01*
X15253158Y-12099579D02*
X15262682Y-12080531D01*
X15262682Y-12080531D02*
X15272206Y-12071008D01*
X15272206Y-12071008D02*
X15291253Y-12061484D01*
X15291253Y-12061484D02*
X15329348Y-12061484D01*
X15329348Y-12061484D02*
X15348396Y-12071008D01*
X15348396Y-12071008D02*
X15357920Y-12080531D01*
X15357920Y-12080531D02*
X15367444Y-12099579D01*
X15367444Y-12099579D02*
X15367444Y-12109103D01*
X15367444Y-12109103D02*
X15357920Y-12128150D01*
X15357920Y-12128150D02*
X15348396Y-12137674D01*
X15348396Y-12137674D02*
X15329348Y-12147198D01*
X15329348Y-12147198D02*
X15291253Y-12147198D01*
X15291253Y-12147198D02*
X15272206Y-12156722D01*
X15272206Y-12156722D02*
X15262682Y-12166246D01*
X15262682Y-12166246D02*
X15253158Y-12185293D01*
X15253158Y-12185293D02*
X15253158Y-12223388D01*
X15253158Y-12223388D02*
X15262682Y-12242436D01*
X15262682Y-12242436D02*
X15272206Y-12251960D01*
X15272206Y-12251960D02*
X15291253Y-12261484D01*
X15291253Y-12261484D02*
X15329348Y-12261484D01*
X15329348Y-12261484D02*
X15348396Y-12251960D01*
X15348396Y-12251960D02*
X15357920Y-12242436D01*
X15357920Y-12242436D02*
X15367444Y-12223388D01*
X15367444Y-12223388D02*
X15367444Y-12185293D01*
X15367444Y-12185293D02*
X15357920Y-12166246D01*
X15357920Y-12166246D02*
X15348396Y-12156722D01*
X15348396Y-12156722D02*
X15329348Y-12147198D01*
X15443634Y-12061484D02*
X15443634Y-12099579D01*
X15519825Y-12061484D02*
X15519825Y-12099579D01*
X15815063Y-12337674D02*
X15805539Y-12328150D01*
X15805539Y-12328150D02*
X15786491Y-12299579D01*
X15786491Y-12299579D02*
X15776968Y-12280531D01*
X15776968Y-12280531D02*
X15767444Y-12251960D01*
X15767444Y-12251960D02*
X15757920Y-12204341D01*
X15757920Y-12204341D02*
X15757920Y-12166246D01*
X15757920Y-12166246D02*
X15767444Y-12118627D01*
X15767444Y-12118627D02*
X15776968Y-12090055D01*
X15776968Y-12090055D02*
X15786491Y-12071008D01*
X15786491Y-12071008D02*
X15805539Y-12042436D01*
X15805539Y-12042436D02*
X15815063Y-12032912D01*
X15881729Y-12080531D02*
X15891253Y-12071008D01*
X15891253Y-12071008D02*
X15910301Y-12061484D01*
X15910301Y-12061484D02*
X15957920Y-12061484D01*
X15957920Y-12061484D02*
X15976968Y-12071008D01*
X15976968Y-12071008D02*
X15986491Y-12080531D01*
X15986491Y-12080531D02*
X15996015Y-12099579D01*
X15996015Y-12099579D02*
X15996015Y-12118627D01*
X15996015Y-12118627D02*
X15986491Y-12147198D01*
X15986491Y-12147198D02*
X15872206Y-12261484D01*
X15872206Y-12261484D02*
X15996015Y-12261484D01*
X16186491Y-12261484D02*
X16072206Y-12261484D01*
X16129348Y-12261484D02*
X16129348Y-12061484D01*
X16129348Y-12061484D02*
X16110301Y-12090055D01*
X16110301Y-12090055D02*
X16091253Y-12109103D01*
X16091253Y-12109103D02*
X16072206Y-12118627D01*
X16357920Y-12061484D02*
X16319825Y-12061484D01*
X16319825Y-12061484D02*
X16300777Y-12071008D01*
X16300777Y-12071008D02*
X16291253Y-12080531D01*
X16291253Y-12080531D02*
X16272206Y-12109103D01*
X16272206Y-12109103D02*
X16262682Y-12147198D01*
X16262682Y-12147198D02*
X16262682Y-12223388D01*
X16262682Y-12223388D02*
X16272206Y-12242436D01*
X16272206Y-12242436D02*
X16281729Y-12251960D01*
X16281729Y-12251960D02*
X16300777Y-12261484D01*
X16300777Y-12261484D02*
X16338872Y-12261484D01*
X16338872Y-12261484D02*
X16357920Y-12251960D01*
X16357920Y-12251960D02*
X16367444Y-12242436D01*
X16367444Y-12242436D02*
X16376968Y-12223388D01*
X16376968Y-12223388D02*
X16376968Y-12175769D01*
X16376968Y-12175769D02*
X16367444Y-12156722D01*
X16367444Y-12156722D02*
X16357920Y-12147198D01*
X16357920Y-12147198D02*
X16338872Y-12137674D01*
X16338872Y-12137674D02*
X16300777Y-12137674D01*
X16300777Y-12137674D02*
X16281729Y-12147198D01*
X16281729Y-12147198D02*
X16272206Y-12156722D01*
X16272206Y-12156722D02*
X16262682Y-12175769D01*
X16615063Y-12261484D02*
X16615063Y-12061484D01*
X16700777Y-12261484D02*
X16700777Y-12156722D01*
X16700777Y-12156722D02*
X16691253Y-12137674D01*
X16691253Y-12137674D02*
X16672206Y-12128150D01*
X16672206Y-12128150D02*
X16643634Y-12128150D01*
X16643634Y-12128150D02*
X16624587Y-12137674D01*
X16624587Y-12137674D02*
X16615063Y-12147198D01*
X16824587Y-12261484D02*
X16805539Y-12251960D01*
X16805539Y-12251960D02*
X16796015Y-12242436D01*
X16796015Y-12242436D02*
X16786492Y-12223388D01*
X16786492Y-12223388D02*
X16786492Y-12166246D01*
X16786492Y-12166246D02*
X16796015Y-12147198D01*
X16796015Y-12147198D02*
X16805539Y-12137674D01*
X16805539Y-12137674D02*
X16824587Y-12128150D01*
X16824587Y-12128150D02*
X16853158Y-12128150D01*
X16853158Y-12128150D02*
X16872206Y-12137674D01*
X16872206Y-12137674D02*
X16881730Y-12147198D01*
X16881730Y-12147198D02*
X16891253Y-12166246D01*
X16891253Y-12166246D02*
X16891253Y-12223388D01*
X16891253Y-12223388D02*
X16881730Y-12242436D01*
X16881730Y-12242436D02*
X16872206Y-12251960D01*
X16872206Y-12251960D02*
X16853158Y-12261484D01*
X16853158Y-12261484D02*
X16824587Y-12261484D01*
X17005539Y-12261484D02*
X16986492Y-12251960D01*
X16986492Y-12251960D02*
X16976968Y-12232912D01*
X16976968Y-12232912D02*
X16976968Y-12061484D01*
X17157920Y-12251960D02*
X17138873Y-12261484D01*
X17138873Y-12261484D02*
X17100777Y-12261484D01*
X17100777Y-12261484D02*
X17081730Y-12251960D01*
X17081730Y-12251960D02*
X17072206Y-12232912D01*
X17072206Y-12232912D02*
X17072206Y-12156722D01*
X17072206Y-12156722D02*
X17081730Y-12137674D01*
X17081730Y-12137674D02*
X17100777Y-12128150D01*
X17100777Y-12128150D02*
X17138873Y-12128150D01*
X17138873Y-12128150D02*
X17157920Y-12137674D01*
X17157920Y-12137674D02*
X17167444Y-12156722D01*
X17167444Y-12156722D02*
X17167444Y-12175769D01*
X17167444Y-12175769D02*
X17072206Y-12194817D01*
X17243634Y-12251960D02*
X17262682Y-12261484D01*
X17262682Y-12261484D02*
X17300777Y-12261484D01*
X17300777Y-12261484D02*
X17319825Y-12251960D01*
X17319825Y-12251960D02*
X17329349Y-12232912D01*
X17329349Y-12232912D02*
X17329349Y-12223388D01*
X17329349Y-12223388D02*
X17319825Y-12204341D01*
X17319825Y-12204341D02*
X17300777Y-12194817D01*
X17300777Y-12194817D02*
X17272206Y-12194817D01*
X17272206Y-12194817D02*
X17253158Y-12185293D01*
X17253158Y-12185293D02*
X17243634Y-12166246D01*
X17243634Y-12166246D02*
X17243634Y-12156722D01*
X17243634Y-12156722D02*
X17253158Y-12137674D01*
X17253158Y-12137674D02*
X17272206Y-12128150D01*
X17272206Y-12128150D02*
X17300777Y-12128150D01*
X17300777Y-12128150D02*
X17319825Y-12137674D01*
X17396015Y-12337674D02*
X17405539Y-12328150D01*
X17405539Y-12328150D02*
X17424587Y-12299579D01*
X17424587Y-12299579D02*
X17434111Y-12280531D01*
X17434111Y-12280531D02*
X17443634Y-12251960D01*
X17443634Y-12251960D02*
X17453158Y-12204341D01*
X17453158Y-12204341D02*
X17453158Y-12166246D01*
X17453158Y-12166246D02*
X17443634Y-12118627D01*
X17443634Y-12118627D02*
X17434111Y-12090055D01*
X17434111Y-12090055D02*
X17424587Y-12071008D01*
X17424587Y-12071008D02*
X17405539Y-12042436D01*
X17405539Y-12042436D02*
X17396015Y-12032912D01*
D11*
X12240000Y-12434000D02*
G75*
G02*
X12200000Y-12434000I-20000J0D01*
G01*
X12200000Y-12434000D02*
G75*
G02*
X12240000Y-12434000I20000J0D01*
G01*
D10*
X12538872Y-12325484D02*
X12557920Y-12325484D01*
X12557920Y-12325484D02*
X12576967Y-12335008D01*
X12576967Y-12335008D02*
X12586491Y-12344531D01*
X12586491Y-12344531D02*
X12596015Y-12363579D01*
X12596015Y-12363579D02*
X12605539Y-12401674D01*
X12605539Y-12401674D02*
X12605539Y-12449293D01*
X12605539Y-12449293D02*
X12596015Y-12487388D01*
X12596015Y-12487388D02*
X12586491Y-12506436D01*
X12586491Y-12506436D02*
X12576967Y-12515960D01*
X12576967Y-12515960D02*
X12557920Y-12525484D01*
X12557920Y-12525484D02*
X12538872Y-12525484D01*
X12538872Y-12525484D02*
X12519824Y-12515960D01*
X12519824Y-12515960D02*
X12510301Y-12506436D01*
X12510301Y-12506436D02*
X12500777Y-12487388D01*
X12500777Y-12487388D02*
X12491253Y-12449293D01*
X12491253Y-12449293D02*
X12491253Y-12401674D01*
X12491253Y-12401674D02*
X12500777Y-12363579D01*
X12500777Y-12363579D02*
X12510301Y-12344531D01*
X12510301Y-12344531D02*
X12519824Y-12335008D01*
X12519824Y-12335008D02*
X12538872Y-12325484D01*
X12691253Y-12506436D02*
X12700777Y-12515960D01*
X12700777Y-12515960D02*
X12691253Y-12525484D01*
X12691253Y-12525484D02*
X12681729Y-12515960D01*
X12681729Y-12515960D02*
X12691253Y-12506436D01*
X12691253Y-12506436D02*
X12691253Y-12525484D01*
X12872205Y-12392150D02*
X12872205Y-12525484D01*
X12824586Y-12315960D02*
X12776967Y-12458817D01*
X12776967Y-12458817D02*
X12900777Y-12458817D01*
X13015062Y-12325484D02*
X13034110Y-12325484D01*
X13034110Y-12325484D02*
X13053158Y-12335008D01*
X13053158Y-12335008D02*
X13062682Y-12344531D01*
X13062682Y-12344531D02*
X13072205Y-12363579D01*
X13072205Y-12363579D02*
X13081729Y-12401674D01*
X13081729Y-12401674D02*
X13081729Y-12449293D01*
X13081729Y-12449293D02*
X13072205Y-12487388D01*
X13072205Y-12487388D02*
X13062682Y-12506436D01*
X13062682Y-12506436D02*
X13053158Y-12515960D01*
X13053158Y-12515960D02*
X13034110Y-12525484D01*
X13034110Y-12525484D02*
X13015062Y-12525484D01*
X13015062Y-12525484D02*
X12996015Y-12515960D01*
X12996015Y-12515960D02*
X12986491Y-12506436D01*
X12986491Y-12506436D02*
X12976967Y-12487388D01*
X12976967Y-12487388D02*
X12967443Y-12449293D01*
X12967443Y-12449293D02*
X12967443Y-12401674D01*
X12967443Y-12401674D02*
X12976967Y-12363579D01*
X12976967Y-12363579D02*
X12986491Y-12344531D01*
X12986491Y-12344531D02*
X12996015Y-12335008D01*
X12996015Y-12335008D02*
X13015062Y-12325484D01*
X13205539Y-12325484D02*
X13224586Y-12325484D01*
X13224586Y-12325484D02*
X13243634Y-12335008D01*
X13243634Y-12335008D02*
X13253158Y-12344531D01*
X13253158Y-12344531D02*
X13262682Y-12363579D01*
X13262682Y-12363579D02*
X13272205Y-12401674D01*
X13272205Y-12401674D02*
X13272205Y-12449293D01*
X13272205Y-12449293D02*
X13262682Y-12487388D01*
X13262682Y-12487388D02*
X13253158Y-12506436D01*
X13253158Y-12506436D02*
X13243634Y-12515960D01*
X13243634Y-12515960D02*
X13224586Y-12525484D01*
X13224586Y-12525484D02*
X13205539Y-12525484D01*
X13205539Y-12525484D02*
X13186491Y-12515960D01*
X13186491Y-12515960D02*
X13176967Y-12506436D01*
X13176967Y-12506436D02*
X13167443Y-12487388D01*
X13167443Y-12487388D02*
X13157920Y-12449293D01*
X13157920Y-12449293D02*
X13157920Y-12401674D01*
X13157920Y-12401674D02*
X13167443Y-12363579D01*
X13167443Y-12363579D02*
X13176967Y-12344531D01*
X13176967Y-12344531D02*
X13186491Y-12335008D01*
X13186491Y-12335008D02*
X13205539Y-12325484D01*
X13357920Y-12525484D02*
X13357920Y-12392150D01*
X13357920Y-12411198D02*
X13367443Y-12401674D01*
X13367443Y-12401674D02*
X13386491Y-12392150D01*
X13386491Y-12392150D02*
X13415063Y-12392150D01*
X13415063Y-12392150D02*
X13434110Y-12401674D01*
X13434110Y-12401674D02*
X13443634Y-12420722D01*
X13443634Y-12420722D02*
X13443634Y-12525484D01*
X13443634Y-12420722D02*
X13453158Y-12401674D01*
X13453158Y-12401674D02*
X13472205Y-12392150D01*
X13472205Y-12392150D02*
X13500777Y-12392150D01*
X13500777Y-12392150D02*
X13519824Y-12401674D01*
X13519824Y-12401674D02*
X13529348Y-12420722D01*
X13529348Y-12420722D02*
X13529348Y-12525484D01*
X13624586Y-12525484D02*
X13624586Y-12392150D01*
X13624586Y-12411198D02*
X13634110Y-12401674D01*
X13634110Y-12401674D02*
X13653158Y-12392150D01*
X13653158Y-12392150D02*
X13681729Y-12392150D01*
X13681729Y-12392150D02*
X13700777Y-12401674D01*
X13700777Y-12401674D02*
X13710301Y-12420722D01*
X13710301Y-12420722D02*
X13710301Y-12525484D01*
X13710301Y-12420722D02*
X13719824Y-12401674D01*
X13719824Y-12401674D02*
X13738872Y-12392150D01*
X13738872Y-12392150D02*
X13767443Y-12392150D01*
X13767443Y-12392150D02*
X13786491Y-12401674D01*
X13786491Y-12401674D02*
X13796015Y-12420722D01*
X13796015Y-12420722D02*
X13796015Y-12525484D01*
X14186491Y-12315960D02*
X14015063Y-12573103D01*
X14443634Y-12325484D02*
X14462682Y-12325484D01*
X14462682Y-12325484D02*
X14481729Y-12335008D01*
X14481729Y-12335008D02*
X14491253Y-12344531D01*
X14491253Y-12344531D02*
X14500777Y-12363579D01*
X14500777Y-12363579D02*
X14510301Y-12401674D01*
X14510301Y-12401674D02*
X14510301Y-12449293D01*
X14510301Y-12449293D02*
X14500777Y-12487388D01*
X14500777Y-12487388D02*
X14491253Y-12506436D01*
X14491253Y-12506436D02*
X14481729Y-12515960D01*
X14481729Y-12515960D02*
X14462682Y-12525484D01*
X14462682Y-12525484D02*
X14443634Y-12525484D01*
X14443634Y-12525484D02*
X14424586Y-12515960D01*
X14424586Y-12515960D02*
X14415063Y-12506436D01*
X14415063Y-12506436D02*
X14405539Y-12487388D01*
X14405539Y-12487388D02*
X14396015Y-12449293D01*
X14396015Y-12449293D02*
X14396015Y-12401674D01*
X14396015Y-12401674D02*
X14405539Y-12363579D01*
X14405539Y-12363579D02*
X14415063Y-12344531D01*
X14415063Y-12344531D02*
X14424586Y-12335008D01*
X14424586Y-12335008D02*
X14443634Y-12325484D01*
X14596015Y-12506436D02*
X14605539Y-12515960D01*
X14605539Y-12515960D02*
X14596015Y-12525484D01*
X14596015Y-12525484D02*
X14586491Y-12515960D01*
X14586491Y-12515960D02*
X14596015Y-12506436D01*
X14596015Y-12506436D02*
X14596015Y-12525484D01*
X14729348Y-12325484D02*
X14748396Y-12325484D01*
X14748396Y-12325484D02*
X14767444Y-12335008D01*
X14767444Y-12335008D02*
X14776967Y-12344531D01*
X14776967Y-12344531D02*
X14786491Y-12363579D01*
X14786491Y-12363579D02*
X14796015Y-12401674D01*
X14796015Y-12401674D02*
X14796015Y-12449293D01*
X14796015Y-12449293D02*
X14786491Y-12487388D01*
X14786491Y-12487388D02*
X14776967Y-12506436D01*
X14776967Y-12506436D02*
X14767444Y-12515960D01*
X14767444Y-12515960D02*
X14748396Y-12525484D01*
X14748396Y-12525484D02*
X14729348Y-12525484D01*
X14729348Y-12525484D02*
X14710301Y-12515960D01*
X14710301Y-12515960D02*
X14700777Y-12506436D01*
X14700777Y-12506436D02*
X14691253Y-12487388D01*
X14691253Y-12487388D02*
X14681729Y-12449293D01*
X14681729Y-12449293D02*
X14681729Y-12401674D01*
X14681729Y-12401674D02*
X14691253Y-12363579D01*
X14691253Y-12363579D02*
X14700777Y-12344531D01*
X14700777Y-12344531D02*
X14710301Y-12335008D01*
X14710301Y-12335008D02*
X14729348Y-12325484D01*
X14986491Y-12525484D02*
X14872206Y-12525484D01*
X14929348Y-12525484D02*
X14929348Y-12325484D01*
X14929348Y-12325484D02*
X14910301Y-12354055D01*
X14910301Y-12354055D02*
X14891253Y-12373103D01*
X14891253Y-12373103D02*
X14872206Y-12382627D01*
X15167444Y-12325484D02*
X15072206Y-12325484D01*
X15072206Y-12325484D02*
X15062682Y-12420722D01*
X15062682Y-12420722D02*
X15072206Y-12411198D01*
X15072206Y-12411198D02*
X15091253Y-12401674D01*
X15091253Y-12401674D02*
X15138872Y-12401674D01*
X15138872Y-12401674D02*
X15157920Y-12411198D01*
X15157920Y-12411198D02*
X15167444Y-12420722D01*
X15167444Y-12420722D02*
X15176967Y-12439769D01*
X15176967Y-12439769D02*
X15176967Y-12487388D01*
X15176967Y-12487388D02*
X15167444Y-12506436D01*
X15167444Y-12506436D02*
X15157920Y-12515960D01*
X15157920Y-12515960D02*
X15138872Y-12525484D01*
X15138872Y-12525484D02*
X15091253Y-12525484D01*
X15091253Y-12525484D02*
X15072206Y-12515960D01*
X15072206Y-12515960D02*
X15062682Y-12506436D01*
X15243634Y-12325484D02*
X15376967Y-12325484D01*
X15376967Y-12325484D02*
X15291253Y-12525484D01*
X15443634Y-12325484D02*
X15443634Y-12363579D01*
X15519825Y-12325484D02*
X15519825Y-12363579D01*
X15815063Y-12601674D02*
X15805539Y-12592150D01*
X15805539Y-12592150D02*
X15786491Y-12563579D01*
X15786491Y-12563579D02*
X15776968Y-12544531D01*
X15776968Y-12544531D02*
X15767444Y-12515960D01*
X15767444Y-12515960D02*
X15757920Y-12468341D01*
X15757920Y-12468341D02*
X15757920Y-12430246D01*
X15757920Y-12430246D02*
X15767444Y-12382627D01*
X15767444Y-12382627D02*
X15776968Y-12354055D01*
X15776968Y-12354055D02*
X15786491Y-12335008D01*
X15786491Y-12335008D02*
X15805539Y-12306436D01*
X15805539Y-12306436D02*
X15815063Y-12296912D01*
X15996015Y-12525484D02*
X15881729Y-12525484D01*
X15938872Y-12525484D02*
X15938872Y-12325484D01*
X15938872Y-12325484D02*
X15919825Y-12354055D01*
X15919825Y-12354055D02*
X15900777Y-12373103D01*
X15900777Y-12373103D02*
X15881729Y-12382627D01*
X16167444Y-12392150D02*
X16167444Y-12525484D01*
X16119825Y-12315960D02*
X16072206Y-12458817D01*
X16072206Y-12458817D02*
X16196015Y-12458817D01*
X16424587Y-12525484D02*
X16424587Y-12325484D01*
X16510301Y-12525484D02*
X16510301Y-12420722D01*
X16510301Y-12420722D02*
X16500777Y-12401674D01*
X16500777Y-12401674D02*
X16481730Y-12392150D01*
X16481730Y-12392150D02*
X16453158Y-12392150D01*
X16453158Y-12392150D02*
X16434110Y-12401674D01*
X16434110Y-12401674D02*
X16424587Y-12411198D01*
X16634110Y-12525484D02*
X16615063Y-12515960D01*
X16615063Y-12515960D02*
X16605539Y-12506436D01*
X16605539Y-12506436D02*
X16596015Y-12487388D01*
X16596015Y-12487388D02*
X16596015Y-12430246D01*
X16596015Y-12430246D02*
X16605539Y-12411198D01*
X16605539Y-12411198D02*
X16615063Y-12401674D01*
X16615063Y-12401674D02*
X16634110Y-12392150D01*
X16634110Y-12392150D02*
X16662682Y-12392150D01*
X16662682Y-12392150D02*
X16681730Y-12401674D01*
X16681730Y-12401674D02*
X16691253Y-12411198D01*
X16691253Y-12411198D02*
X16700777Y-12430246D01*
X16700777Y-12430246D02*
X16700777Y-12487388D01*
X16700777Y-12487388D02*
X16691253Y-12506436D01*
X16691253Y-12506436D02*
X16681730Y-12515960D01*
X16681730Y-12515960D02*
X16662682Y-12525484D01*
X16662682Y-12525484D02*
X16634110Y-12525484D01*
X16815063Y-12525484D02*
X16796015Y-12515960D01*
X16796015Y-12515960D02*
X16786492Y-12496912D01*
X16786492Y-12496912D02*
X16786492Y-12325484D01*
X16967444Y-12515960D02*
X16948396Y-12525484D01*
X16948396Y-12525484D02*
X16910301Y-12525484D01*
X16910301Y-12525484D02*
X16891253Y-12515960D01*
X16891253Y-12515960D02*
X16881730Y-12496912D01*
X16881730Y-12496912D02*
X16881730Y-12420722D01*
X16881730Y-12420722D02*
X16891253Y-12401674D01*
X16891253Y-12401674D02*
X16910301Y-12392150D01*
X16910301Y-12392150D02*
X16948396Y-12392150D01*
X16948396Y-12392150D02*
X16967444Y-12401674D01*
X16967444Y-12401674D02*
X16976968Y-12420722D01*
X16976968Y-12420722D02*
X16976968Y-12439769D01*
X16976968Y-12439769D02*
X16881730Y-12458817D01*
X17053158Y-12515960D02*
X17072206Y-12525484D01*
X17072206Y-12525484D02*
X17110301Y-12525484D01*
X17110301Y-12525484D02*
X17129349Y-12515960D01*
X17129349Y-12515960D02*
X17138873Y-12496912D01*
X17138873Y-12496912D02*
X17138873Y-12487388D01*
X17138873Y-12487388D02*
X17129349Y-12468341D01*
X17129349Y-12468341D02*
X17110301Y-12458817D01*
X17110301Y-12458817D02*
X17081730Y-12458817D01*
X17081730Y-12458817D02*
X17062682Y-12449293D01*
X17062682Y-12449293D02*
X17053158Y-12430246D01*
X17053158Y-12430246D02*
X17053158Y-12420722D01*
X17053158Y-12420722D02*
X17062682Y-12401674D01*
X17062682Y-12401674D02*
X17081730Y-12392150D01*
X17081730Y-12392150D02*
X17110301Y-12392150D01*
X17110301Y-12392150D02*
X17129349Y-12401674D01*
X17205539Y-12601674D02*
X17215063Y-12592150D01*
X17215063Y-12592150D02*
X17234111Y-12563579D01*
X17234111Y-12563579D02*
X17243634Y-12544531D01*
X17243634Y-12544531D02*
X17253158Y-12515960D01*
X17253158Y-12515960D02*
X17262682Y-12468341D01*
X17262682Y-12468341D02*
X17262682Y-12430246D01*
X17262682Y-12430246D02*
X17253158Y-12382627D01*
X17253158Y-12382627D02*
X17243634Y-12354055D01*
X17243634Y-12354055D02*
X17234111Y-12335008D01*
X17234111Y-12335008D02*
X17215063Y-12306436D01*
X17215063Y-12306436D02*
X17205539Y-12296912D01*
D11*
X12210000Y-12668000D02*
X12210000Y-12728000D01*
X12180000Y-12698000D02*
X12240000Y-12698000D01*
D10*
X12538872Y-12589484D02*
X12557920Y-12589484D01*
X12557920Y-12589484D02*
X12576967Y-12599008D01*
X12576967Y-12599008D02*
X12586491Y-12608531D01*
X12586491Y-12608531D02*
X12596015Y-12627579D01*
X12596015Y-12627579D02*
X12605539Y-12665674D01*
X12605539Y-12665674D02*
X12605539Y-12713293D01*
X12605539Y-12713293D02*
X12596015Y-12751388D01*
X12596015Y-12751388D02*
X12586491Y-12770436D01*
X12586491Y-12770436D02*
X12576967Y-12779960D01*
X12576967Y-12779960D02*
X12557920Y-12789484D01*
X12557920Y-12789484D02*
X12538872Y-12789484D01*
X12538872Y-12789484D02*
X12519824Y-12779960D01*
X12519824Y-12779960D02*
X12510301Y-12770436D01*
X12510301Y-12770436D02*
X12500777Y-12751388D01*
X12500777Y-12751388D02*
X12491253Y-12713293D01*
X12491253Y-12713293D02*
X12491253Y-12665674D01*
X12491253Y-12665674D02*
X12500777Y-12627579D01*
X12500777Y-12627579D02*
X12510301Y-12608531D01*
X12510301Y-12608531D02*
X12519824Y-12599008D01*
X12519824Y-12599008D02*
X12538872Y-12589484D01*
X12691253Y-12770436D02*
X12700777Y-12779960D01*
X12700777Y-12779960D02*
X12691253Y-12789484D01*
X12691253Y-12789484D02*
X12681729Y-12779960D01*
X12681729Y-12779960D02*
X12691253Y-12770436D01*
X12691253Y-12770436D02*
X12691253Y-12789484D01*
X12872205Y-12589484D02*
X12834110Y-12589484D01*
X12834110Y-12589484D02*
X12815062Y-12599008D01*
X12815062Y-12599008D02*
X12805539Y-12608531D01*
X12805539Y-12608531D02*
X12786491Y-12637103D01*
X12786491Y-12637103D02*
X12776967Y-12675198D01*
X12776967Y-12675198D02*
X12776967Y-12751388D01*
X12776967Y-12751388D02*
X12786491Y-12770436D01*
X12786491Y-12770436D02*
X12796015Y-12779960D01*
X12796015Y-12779960D02*
X12815062Y-12789484D01*
X12815062Y-12789484D02*
X12853158Y-12789484D01*
X12853158Y-12789484D02*
X12872205Y-12779960D01*
X12872205Y-12779960D02*
X12881729Y-12770436D01*
X12881729Y-12770436D02*
X12891253Y-12751388D01*
X12891253Y-12751388D02*
X12891253Y-12703769D01*
X12891253Y-12703769D02*
X12881729Y-12684722D01*
X12881729Y-12684722D02*
X12872205Y-12675198D01*
X12872205Y-12675198D02*
X12853158Y-12665674D01*
X12853158Y-12665674D02*
X12815062Y-12665674D01*
X12815062Y-12665674D02*
X12796015Y-12675198D01*
X12796015Y-12675198D02*
X12786491Y-12684722D01*
X12786491Y-12684722D02*
X12776967Y-12703769D01*
X13015062Y-12589484D02*
X13034110Y-12589484D01*
X13034110Y-12589484D02*
X13053158Y-12599008D01*
X13053158Y-12599008D02*
X13062682Y-12608531D01*
X13062682Y-12608531D02*
X13072205Y-12627579D01*
X13072205Y-12627579D02*
X13081729Y-12665674D01*
X13081729Y-12665674D02*
X13081729Y-12713293D01*
X13081729Y-12713293D02*
X13072205Y-12751388D01*
X13072205Y-12751388D02*
X13062682Y-12770436D01*
X13062682Y-12770436D02*
X13053158Y-12779960D01*
X13053158Y-12779960D02*
X13034110Y-12789484D01*
X13034110Y-12789484D02*
X13015062Y-12789484D01*
X13015062Y-12789484D02*
X12996015Y-12779960D01*
X12996015Y-12779960D02*
X12986491Y-12770436D01*
X12986491Y-12770436D02*
X12976967Y-12751388D01*
X12976967Y-12751388D02*
X12967443Y-12713293D01*
X12967443Y-12713293D02*
X12967443Y-12665674D01*
X12967443Y-12665674D02*
X12976967Y-12627579D01*
X12976967Y-12627579D02*
X12986491Y-12608531D01*
X12986491Y-12608531D02*
X12996015Y-12599008D01*
X12996015Y-12599008D02*
X13015062Y-12589484D01*
X13205539Y-12589484D02*
X13224586Y-12589484D01*
X13224586Y-12589484D02*
X13243634Y-12599008D01*
X13243634Y-12599008D02*
X13253158Y-12608531D01*
X13253158Y-12608531D02*
X13262682Y-12627579D01*
X13262682Y-12627579D02*
X13272205Y-12665674D01*
X13272205Y-12665674D02*
X13272205Y-12713293D01*
X13272205Y-12713293D02*
X13262682Y-12751388D01*
X13262682Y-12751388D02*
X13253158Y-12770436D01*
X13253158Y-12770436D02*
X13243634Y-12779960D01*
X13243634Y-12779960D02*
X13224586Y-12789484D01*
X13224586Y-12789484D02*
X13205539Y-12789484D01*
X13205539Y-12789484D02*
X13186491Y-12779960D01*
X13186491Y-12779960D02*
X13176967Y-12770436D01*
X13176967Y-12770436D02*
X13167443Y-12751388D01*
X13167443Y-12751388D02*
X13157920Y-12713293D01*
X13157920Y-12713293D02*
X13157920Y-12665674D01*
X13157920Y-12665674D02*
X13167443Y-12627579D01*
X13167443Y-12627579D02*
X13176967Y-12608531D01*
X13176967Y-12608531D02*
X13186491Y-12599008D01*
X13186491Y-12599008D02*
X13205539Y-12589484D01*
X13357920Y-12789484D02*
X13357920Y-12656150D01*
X13357920Y-12675198D02*
X13367443Y-12665674D01*
X13367443Y-12665674D02*
X13386491Y-12656150D01*
X13386491Y-12656150D02*
X13415063Y-12656150D01*
X13415063Y-12656150D02*
X13434110Y-12665674D01*
X13434110Y-12665674D02*
X13443634Y-12684722D01*
X13443634Y-12684722D02*
X13443634Y-12789484D01*
X13443634Y-12684722D02*
X13453158Y-12665674D01*
X13453158Y-12665674D02*
X13472205Y-12656150D01*
X13472205Y-12656150D02*
X13500777Y-12656150D01*
X13500777Y-12656150D02*
X13519824Y-12665674D01*
X13519824Y-12665674D02*
X13529348Y-12684722D01*
X13529348Y-12684722D02*
X13529348Y-12789484D01*
X13624586Y-12789484D02*
X13624586Y-12656150D01*
X13624586Y-12675198D02*
X13634110Y-12665674D01*
X13634110Y-12665674D02*
X13653158Y-12656150D01*
X13653158Y-12656150D02*
X13681729Y-12656150D01*
X13681729Y-12656150D02*
X13700777Y-12665674D01*
X13700777Y-12665674D02*
X13710301Y-12684722D01*
X13710301Y-12684722D02*
X13710301Y-12789484D01*
X13710301Y-12684722D02*
X13719824Y-12665674D01*
X13719824Y-12665674D02*
X13738872Y-12656150D01*
X13738872Y-12656150D02*
X13767443Y-12656150D01*
X13767443Y-12656150D02*
X13786491Y-12665674D01*
X13786491Y-12665674D02*
X13796015Y-12684722D01*
X13796015Y-12684722D02*
X13796015Y-12789484D01*
X14186491Y-12579960D02*
X14015063Y-12837103D01*
X14443634Y-12589484D02*
X14462682Y-12589484D01*
X14462682Y-12589484D02*
X14481729Y-12599008D01*
X14481729Y-12599008D02*
X14491253Y-12608531D01*
X14491253Y-12608531D02*
X14500777Y-12627579D01*
X14500777Y-12627579D02*
X14510301Y-12665674D01*
X14510301Y-12665674D02*
X14510301Y-12713293D01*
X14510301Y-12713293D02*
X14500777Y-12751388D01*
X14500777Y-12751388D02*
X14491253Y-12770436D01*
X14491253Y-12770436D02*
X14481729Y-12779960D01*
X14481729Y-12779960D02*
X14462682Y-12789484D01*
X14462682Y-12789484D02*
X14443634Y-12789484D01*
X14443634Y-12789484D02*
X14424586Y-12779960D01*
X14424586Y-12779960D02*
X14415063Y-12770436D01*
X14415063Y-12770436D02*
X14405539Y-12751388D01*
X14405539Y-12751388D02*
X14396015Y-12713293D01*
X14396015Y-12713293D02*
X14396015Y-12665674D01*
X14396015Y-12665674D02*
X14405539Y-12627579D01*
X14405539Y-12627579D02*
X14415063Y-12608531D01*
X14415063Y-12608531D02*
X14424586Y-12599008D01*
X14424586Y-12599008D02*
X14443634Y-12589484D01*
X14596015Y-12770436D02*
X14605539Y-12779960D01*
X14605539Y-12779960D02*
X14596015Y-12789484D01*
X14596015Y-12789484D02*
X14586491Y-12779960D01*
X14586491Y-12779960D02*
X14596015Y-12770436D01*
X14596015Y-12770436D02*
X14596015Y-12789484D01*
X14729348Y-12589484D02*
X14748396Y-12589484D01*
X14748396Y-12589484D02*
X14767444Y-12599008D01*
X14767444Y-12599008D02*
X14776967Y-12608531D01*
X14776967Y-12608531D02*
X14786491Y-12627579D01*
X14786491Y-12627579D02*
X14796015Y-12665674D01*
X14796015Y-12665674D02*
X14796015Y-12713293D01*
X14796015Y-12713293D02*
X14786491Y-12751388D01*
X14786491Y-12751388D02*
X14776967Y-12770436D01*
X14776967Y-12770436D02*
X14767444Y-12779960D01*
X14767444Y-12779960D02*
X14748396Y-12789484D01*
X14748396Y-12789484D02*
X14729348Y-12789484D01*
X14729348Y-12789484D02*
X14710301Y-12779960D01*
X14710301Y-12779960D02*
X14700777Y-12770436D01*
X14700777Y-12770436D02*
X14691253Y-12751388D01*
X14691253Y-12751388D02*
X14681729Y-12713293D01*
X14681729Y-12713293D02*
X14681729Y-12665674D01*
X14681729Y-12665674D02*
X14691253Y-12627579D01*
X14691253Y-12627579D02*
X14700777Y-12608531D01*
X14700777Y-12608531D02*
X14710301Y-12599008D01*
X14710301Y-12599008D02*
X14729348Y-12589484D01*
X14872206Y-12608531D02*
X14881729Y-12599008D01*
X14881729Y-12599008D02*
X14900777Y-12589484D01*
X14900777Y-12589484D02*
X14948396Y-12589484D01*
X14948396Y-12589484D02*
X14967444Y-12599008D01*
X14967444Y-12599008D02*
X14976967Y-12608531D01*
X14976967Y-12608531D02*
X14986491Y-12627579D01*
X14986491Y-12627579D02*
X14986491Y-12646627D01*
X14986491Y-12646627D02*
X14976967Y-12675198D01*
X14976967Y-12675198D02*
X14862682Y-12789484D01*
X14862682Y-12789484D02*
X14986491Y-12789484D01*
X15053158Y-12589484D02*
X15176967Y-12589484D01*
X15176967Y-12589484D02*
X15110301Y-12665674D01*
X15110301Y-12665674D02*
X15138872Y-12665674D01*
X15138872Y-12665674D02*
X15157920Y-12675198D01*
X15157920Y-12675198D02*
X15167444Y-12684722D01*
X15167444Y-12684722D02*
X15176967Y-12703769D01*
X15176967Y-12703769D02*
X15176967Y-12751388D01*
X15176967Y-12751388D02*
X15167444Y-12770436D01*
X15167444Y-12770436D02*
X15157920Y-12779960D01*
X15157920Y-12779960D02*
X15138872Y-12789484D01*
X15138872Y-12789484D02*
X15081729Y-12789484D01*
X15081729Y-12789484D02*
X15062682Y-12779960D01*
X15062682Y-12779960D02*
X15053158Y-12770436D01*
X15348396Y-12589484D02*
X15310301Y-12589484D01*
X15310301Y-12589484D02*
X15291253Y-12599008D01*
X15291253Y-12599008D02*
X15281729Y-12608531D01*
X15281729Y-12608531D02*
X15262682Y-12637103D01*
X15262682Y-12637103D02*
X15253158Y-12675198D01*
X15253158Y-12675198D02*
X15253158Y-12751388D01*
X15253158Y-12751388D02*
X15262682Y-12770436D01*
X15262682Y-12770436D02*
X15272206Y-12779960D01*
X15272206Y-12779960D02*
X15291253Y-12789484D01*
X15291253Y-12789484D02*
X15329348Y-12789484D01*
X15329348Y-12789484D02*
X15348396Y-12779960D01*
X15348396Y-12779960D02*
X15357920Y-12770436D01*
X15357920Y-12770436D02*
X15367444Y-12751388D01*
X15367444Y-12751388D02*
X15367444Y-12703769D01*
X15367444Y-12703769D02*
X15357920Y-12684722D01*
X15357920Y-12684722D02*
X15348396Y-12675198D01*
X15348396Y-12675198D02*
X15329348Y-12665674D01*
X15329348Y-12665674D02*
X15291253Y-12665674D01*
X15291253Y-12665674D02*
X15272206Y-12675198D01*
X15272206Y-12675198D02*
X15262682Y-12684722D01*
X15262682Y-12684722D02*
X15253158Y-12703769D01*
X15443634Y-12589484D02*
X15443634Y-12627579D01*
X15519825Y-12589484D02*
X15519825Y-12627579D01*
X15815063Y-12865674D02*
X15805539Y-12856150D01*
X15805539Y-12856150D02*
X15786491Y-12827579D01*
X15786491Y-12827579D02*
X15776968Y-12808531D01*
X15776968Y-12808531D02*
X15767444Y-12779960D01*
X15767444Y-12779960D02*
X15757920Y-12732341D01*
X15757920Y-12732341D02*
X15757920Y-12694246D01*
X15757920Y-12694246D02*
X15767444Y-12646627D01*
X15767444Y-12646627D02*
X15776968Y-12618055D01*
X15776968Y-12618055D02*
X15786491Y-12599008D01*
X15786491Y-12599008D02*
X15805539Y-12570436D01*
X15805539Y-12570436D02*
X15815063Y-12560912D01*
X15929348Y-12589484D02*
X15948396Y-12589484D01*
X15948396Y-12589484D02*
X15967444Y-12599008D01*
X15967444Y-12599008D02*
X15976968Y-12608531D01*
X15976968Y-12608531D02*
X15986491Y-12627579D01*
X15986491Y-12627579D02*
X15996015Y-12665674D01*
X15996015Y-12665674D02*
X15996015Y-12713293D01*
X15996015Y-12713293D02*
X15986491Y-12751388D01*
X15986491Y-12751388D02*
X15976968Y-12770436D01*
X15976968Y-12770436D02*
X15967444Y-12779960D01*
X15967444Y-12779960D02*
X15948396Y-12789484D01*
X15948396Y-12789484D02*
X15929348Y-12789484D01*
X15929348Y-12789484D02*
X15910301Y-12779960D01*
X15910301Y-12779960D02*
X15900777Y-12770436D01*
X15900777Y-12770436D02*
X15891253Y-12751388D01*
X15891253Y-12751388D02*
X15881729Y-12713293D01*
X15881729Y-12713293D02*
X15881729Y-12665674D01*
X15881729Y-12665674D02*
X15891253Y-12627579D01*
X15891253Y-12627579D02*
X15900777Y-12608531D01*
X15900777Y-12608531D02*
X15910301Y-12599008D01*
X15910301Y-12599008D02*
X15929348Y-12589484D01*
X16234110Y-12789484D02*
X16234110Y-12589484D01*
X16319825Y-12789484D02*
X16319825Y-12684722D01*
X16319825Y-12684722D02*
X16310301Y-12665674D01*
X16310301Y-12665674D02*
X16291253Y-12656150D01*
X16291253Y-12656150D02*
X16262682Y-12656150D01*
X16262682Y-12656150D02*
X16243634Y-12665674D01*
X16243634Y-12665674D02*
X16234110Y-12675198D01*
X16443634Y-12789484D02*
X16424587Y-12779960D01*
X16424587Y-12779960D02*
X16415063Y-12770436D01*
X16415063Y-12770436D02*
X16405539Y-12751388D01*
X16405539Y-12751388D02*
X16405539Y-12694246D01*
X16405539Y-12694246D02*
X16415063Y-12675198D01*
X16415063Y-12675198D02*
X16424587Y-12665674D01*
X16424587Y-12665674D02*
X16443634Y-12656150D01*
X16443634Y-12656150D02*
X16472206Y-12656150D01*
X16472206Y-12656150D02*
X16491253Y-12665674D01*
X16491253Y-12665674D02*
X16500777Y-12675198D01*
X16500777Y-12675198D02*
X16510301Y-12694246D01*
X16510301Y-12694246D02*
X16510301Y-12751388D01*
X16510301Y-12751388D02*
X16500777Y-12770436D01*
X16500777Y-12770436D02*
X16491253Y-12779960D01*
X16491253Y-12779960D02*
X16472206Y-12789484D01*
X16472206Y-12789484D02*
X16443634Y-12789484D01*
X16624587Y-12789484D02*
X16605539Y-12779960D01*
X16605539Y-12779960D02*
X16596015Y-12760912D01*
X16596015Y-12760912D02*
X16596015Y-12589484D01*
X16776968Y-12779960D02*
X16757920Y-12789484D01*
X16757920Y-12789484D02*
X16719825Y-12789484D01*
X16719825Y-12789484D02*
X16700777Y-12779960D01*
X16700777Y-12779960D02*
X16691253Y-12760912D01*
X16691253Y-12760912D02*
X16691253Y-12684722D01*
X16691253Y-12684722D02*
X16700777Y-12665674D01*
X16700777Y-12665674D02*
X16719825Y-12656150D01*
X16719825Y-12656150D02*
X16757920Y-12656150D01*
X16757920Y-12656150D02*
X16776968Y-12665674D01*
X16776968Y-12665674D02*
X16786492Y-12684722D01*
X16786492Y-12684722D02*
X16786492Y-12703769D01*
X16786492Y-12703769D02*
X16691253Y-12722817D01*
X16862682Y-12779960D02*
X16881730Y-12789484D01*
X16881730Y-12789484D02*
X16919825Y-12789484D01*
X16919825Y-12789484D02*
X16938873Y-12779960D01*
X16938873Y-12779960D02*
X16948396Y-12760912D01*
X16948396Y-12760912D02*
X16948396Y-12751388D01*
X16948396Y-12751388D02*
X16938873Y-12732341D01*
X16938873Y-12732341D02*
X16919825Y-12722817D01*
X16919825Y-12722817D02*
X16891253Y-12722817D01*
X16891253Y-12722817D02*
X16872206Y-12713293D01*
X16872206Y-12713293D02*
X16862682Y-12694246D01*
X16862682Y-12694246D02*
X16862682Y-12684722D01*
X16862682Y-12684722D02*
X16872206Y-12665674D01*
X16872206Y-12665674D02*
X16891253Y-12656150D01*
X16891253Y-12656150D02*
X16919825Y-12656150D01*
X16919825Y-12656150D02*
X16938873Y-12665674D01*
X17186492Y-12713293D02*
X17338873Y-12713293D01*
X17262682Y-12789484D02*
X17262682Y-12637103D01*
X17672206Y-12656150D02*
X17672206Y-12789484D01*
X17624587Y-12579960D02*
X17576968Y-12722817D01*
X17576968Y-12722817D02*
X17700777Y-12722817D01*
X17919825Y-12779960D02*
X17938873Y-12789484D01*
X17938873Y-12789484D02*
X17976968Y-12789484D01*
X17976968Y-12789484D02*
X17996016Y-12779960D01*
X17996016Y-12779960D02*
X18005539Y-12760912D01*
X18005539Y-12760912D02*
X18005539Y-12751388D01*
X18005539Y-12751388D02*
X17996016Y-12732341D01*
X17996016Y-12732341D02*
X17976968Y-12722817D01*
X17976968Y-12722817D02*
X17948396Y-12722817D01*
X17948396Y-12722817D02*
X17929349Y-12713293D01*
X17929349Y-12713293D02*
X17919825Y-12694246D01*
X17919825Y-12694246D02*
X17919825Y-12684722D01*
X17919825Y-12684722D02*
X17929349Y-12665674D01*
X17929349Y-12665674D02*
X17948396Y-12656150D01*
X17948396Y-12656150D02*
X17976968Y-12656150D01*
X17976968Y-12656150D02*
X17996016Y-12665674D01*
X18119825Y-12789484D02*
X18100777Y-12779960D01*
X18100777Y-12779960D02*
X18091254Y-12760912D01*
X18091254Y-12760912D02*
X18091254Y-12589484D01*
X18224587Y-12789484D02*
X18205539Y-12779960D01*
X18205539Y-12779960D02*
X18196016Y-12770436D01*
X18196016Y-12770436D02*
X18186492Y-12751388D01*
X18186492Y-12751388D02*
X18186492Y-12694246D01*
X18186492Y-12694246D02*
X18196016Y-12675198D01*
X18196016Y-12675198D02*
X18205539Y-12665674D01*
X18205539Y-12665674D02*
X18224587Y-12656150D01*
X18224587Y-12656150D02*
X18253158Y-12656150D01*
X18253158Y-12656150D02*
X18272206Y-12665674D01*
X18272206Y-12665674D02*
X18281730Y-12675198D01*
X18281730Y-12675198D02*
X18291254Y-12694246D01*
X18291254Y-12694246D02*
X18291254Y-12751388D01*
X18291254Y-12751388D02*
X18281730Y-12770436D01*
X18281730Y-12770436D02*
X18272206Y-12779960D01*
X18272206Y-12779960D02*
X18253158Y-12789484D01*
X18253158Y-12789484D02*
X18224587Y-12789484D01*
X18348397Y-12656150D02*
X18424587Y-12656150D01*
X18376968Y-12589484D02*
X18376968Y-12760912D01*
X18376968Y-12760912D02*
X18386492Y-12779960D01*
X18386492Y-12779960D02*
X18405539Y-12789484D01*
X18405539Y-12789484D02*
X18424587Y-12789484D01*
X18481730Y-12779960D02*
X18500777Y-12789484D01*
X18500777Y-12789484D02*
X18538873Y-12789484D01*
X18538873Y-12789484D02*
X18557920Y-12779960D01*
X18557920Y-12779960D02*
X18567444Y-12760912D01*
X18567444Y-12760912D02*
X18567444Y-12751388D01*
X18567444Y-12751388D02*
X18557920Y-12732341D01*
X18557920Y-12732341D02*
X18538873Y-12722817D01*
X18538873Y-12722817D02*
X18510301Y-12722817D01*
X18510301Y-12722817D02*
X18491254Y-12713293D01*
X18491254Y-12713293D02*
X18481730Y-12694246D01*
X18481730Y-12694246D02*
X18481730Y-12684722D01*
X18481730Y-12684722D02*
X18491254Y-12665674D01*
X18491254Y-12665674D02*
X18510301Y-12656150D01*
X18510301Y-12656150D02*
X18538873Y-12656150D01*
X18538873Y-12656150D02*
X18557920Y-12665674D01*
X18634111Y-12865674D02*
X18643635Y-12856150D01*
X18643635Y-12856150D02*
X18662682Y-12827579D01*
X18662682Y-12827579D02*
X18672206Y-12808531D01*
X18672206Y-12808531D02*
X18681730Y-12779960D01*
X18681730Y-12779960D02*
X18691254Y-12732341D01*
X18691254Y-12732341D02*
X18691254Y-12694246D01*
X18691254Y-12694246D02*
X18681730Y-12646627D01*
X18681730Y-12646627D02*
X18672206Y-12618055D01*
X18672206Y-12618055D02*
X18662682Y-12599008D01*
X18662682Y-12599008D02*
X18643635Y-12570436D01*
X18643635Y-12570436D02*
X18634111Y-12560912D01*
D11*
X12226088Y-12995588D02*
X12226088Y-12928412D01*
X12158912Y-12928412D01*
X12158912Y-12995588D01*
X12226088Y-12995588D01*
D10*
X12538872Y-12853484D02*
X12557920Y-12853484D01*
X12557920Y-12853484D02*
X12576967Y-12863008D01*
X12576967Y-12863008D02*
X12586491Y-12872531D01*
X12586491Y-12872531D02*
X12596015Y-12891579D01*
X12596015Y-12891579D02*
X12605539Y-12929674D01*
X12605539Y-12929674D02*
X12605539Y-12977293D01*
X12605539Y-12977293D02*
X12596015Y-13015388D01*
X12596015Y-13015388D02*
X12586491Y-13034436D01*
X12586491Y-13034436D02*
X12576967Y-13043960D01*
X12576967Y-13043960D02*
X12557920Y-13053484D01*
X12557920Y-13053484D02*
X12538872Y-13053484D01*
X12538872Y-13053484D02*
X12519824Y-13043960D01*
X12519824Y-13043960D02*
X12510301Y-13034436D01*
X12510301Y-13034436D02*
X12500777Y-13015388D01*
X12500777Y-13015388D02*
X12491253Y-12977293D01*
X12491253Y-12977293D02*
X12491253Y-12929674D01*
X12491253Y-12929674D02*
X12500777Y-12891579D01*
X12500777Y-12891579D02*
X12510301Y-12872531D01*
X12510301Y-12872531D02*
X12519824Y-12863008D01*
X12519824Y-12863008D02*
X12538872Y-12853484D01*
X12691253Y-13034436D02*
X12700777Y-13043960D01*
X12700777Y-13043960D02*
X12691253Y-13053484D01*
X12691253Y-13053484D02*
X12681729Y-13043960D01*
X12681729Y-13043960D02*
X12691253Y-13034436D01*
X12691253Y-13034436D02*
X12691253Y-13053484D01*
X12796015Y-13053484D02*
X12834110Y-13053484D01*
X12834110Y-13053484D02*
X12853158Y-13043960D01*
X12853158Y-13043960D02*
X12862682Y-13034436D01*
X12862682Y-13034436D02*
X12881729Y-13005865D01*
X12881729Y-13005865D02*
X12891253Y-12967769D01*
X12891253Y-12967769D02*
X12891253Y-12891579D01*
X12891253Y-12891579D02*
X12881729Y-12872531D01*
X12881729Y-12872531D02*
X12872205Y-12863008D01*
X12872205Y-12863008D02*
X12853158Y-12853484D01*
X12853158Y-12853484D02*
X12815062Y-12853484D01*
X12815062Y-12853484D02*
X12796015Y-12863008D01*
X12796015Y-12863008D02*
X12786491Y-12872531D01*
X12786491Y-12872531D02*
X12776967Y-12891579D01*
X12776967Y-12891579D02*
X12776967Y-12939198D01*
X12776967Y-12939198D02*
X12786491Y-12958246D01*
X12786491Y-12958246D02*
X12796015Y-12967769D01*
X12796015Y-12967769D02*
X12815062Y-12977293D01*
X12815062Y-12977293D02*
X12853158Y-12977293D01*
X12853158Y-12977293D02*
X12872205Y-12967769D01*
X12872205Y-12967769D02*
X12881729Y-12958246D01*
X12881729Y-12958246D02*
X12891253Y-12939198D01*
X13072205Y-12853484D02*
X12976967Y-12853484D01*
X12976967Y-12853484D02*
X12967443Y-12948722D01*
X12967443Y-12948722D02*
X12976967Y-12939198D01*
X12976967Y-12939198D02*
X12996015Y-12929674D01*
X12996015Y-12929674D02*
X13043634Y-12929674D01*
X13043634Y-12929674D02*
X13062682Y-12939198D01*
X13062682Y-12939198D02*
X13072205Y-12948722D01*
X13072205Y-12948722D02*
X13081729Y-12967769D01*
X13081729Y-12967769D02*
X13081729Y-13015388D01*
X13081729Y-13015388D02*
X13072205Y-13034436D01*
X13072205Y-13034436D02*
X13062682Y-13043960D01*
X13062682Y-13043960D02*
X13043634Y-13053484D01*
X13043634Y-13053484D02*
X12996015Y-13053484D01*
X12996015Y-13053484D02*
X12976967Y-13043960D01*
X12976967Y-13043960D02*
X12967443Y-13034436D01*
X13205539Y-12853484D02*
X13224586Y-12853484D01*
X13224586Y-12853484D02*
X13243634Y-12863008D01*
X13243634Y-12863008D02*
X13253158Y-12872531D01*
X13253158Y-12872531D02*
X13262682Y-12891579D01*
X13262682Y-12891579D02*
X13272205Y-12929674D01*
X13272205Y-12929674D02*
X13272205Y-12977293D01*
X13272205Y-12977293D02*
X13262682Y-13015388D01*
X13262682Y-13015388D02*
X13253158Y-13034436D01*
X13253158Y-13034436D02*
X13243634Y-13043960D01*
X13243634Y-13043960D02*
X13224586Y-13053484D01*
X13224586Y-13053484D02*
X13205539Y-13053484D01*
X13205539Y-13053484D02*
X13186491Y-13043960D01*
X13186491Y-13043960D02*
X13176967Y-13034436D01*
X13176967Y-13034436D02*
X13167443Y-13015388D01*
X13167443Y-13015388D02*
X13157920Y-12977293D01*
X13157920Y-12977293D02*
X13157920Y-12929674D01*
X13157920Y-12929674D02*
X13167443Y-12891579D01*
X13167443Y-12891579D02*
X13176967Y-12872531D01*
X13176967Y-12872531D02*
X13186491Y-12863008D01*
X13186491Y-12863008D02*
X13205539Y-12853484D01*
X13357920Y-13053484D02*
X13357920Y-12920150D01*
X13357920Y-12939198D02*
X13367443Y-12929674D01*
X13367443Y-12929674D02*
X13386491Y-12920150D01*
X13386491Y-12920150D02*
X13415063Y-12920150D01*
X13415063Y-12920150D02*
X13434110Y-12929674D01*
X13434110Y-12929674D02*
X13443634Y-12948722D01*
X13443634Y-12948722D02*
X13443634Y-13053484D01*
X13443634Y-12948722D02*
X13453158Y-12929674D01*
X13453158Y-12929674D02*
X13472205Y-12920150D01*
X13472205Y-12920150D02*
X13500777Y-12920150D01*
X13500777Y-12920150D02*
X13519824Y-12929674D01*
X13519824Y-12929674D02*
X13529348Y-12948722D01*
X13529348Y-12948722D02*
X13529348Y-13053484D01*
X13624586Y-13053484D02*
X13624586Y-12920150D01*
X13624586Y-12939198D02*
X13634110Y-12929674D01*
X13634110Y-12929674D02*
X13653158Y-12920150D01*
X13653158Y-12920150D02*
X13681729Y-12920150D01*
X13681729Y-12920150D02*
X13700777Y-12929674D01*
X13700777Y-12929674D02*
X13710301Y-12948722D01*
X13710301Y-12948722D02*
X13710301Y-13053484D01*
X13710301Y-12948722D02*
X13719824Y-12929674D01*
X13719824Y-12929674D02*
X13738872Y-12920150D01*
X13738872Y-12920150D02*
X13767443Y-12920150D01*
X13767443Y-12920150D02*
X13786491Y-12929674D01*
X13786491Y-12929674D02*
X13796015Y-12948722D01*
X13796015Y-12948722D02*
X13796015Y-13053484D01*
X14186491Y-12843960D02*
X14015063Y-13101103D01*
X14443634Y-12853484D02*
X14462682Y-12853484D01*
X14462682Y-12853484D02*
X14481729Y-12863008D01*
X14481729Y-12863008D02*
X14491253Y-12872531D01*
X14491253Y-12872531D02*
X14500777Y-12891579D01*
X14500777Y-12891579D02*
X14510301Y-12929674D01*
X14510301Y-12929674D02*
X14510301Y-12977293D01*
X14510301Y-12977293D02*
X14500777Y-13015388D01*
X14500777Y-13015388D02*
X14491253Y-13034436D01*
X14491253Y-13034436D02*
X14481729Y-13043960D01*
X14481729Y-13043960D02*
X14462682Y-13053484D01*
X14462682Y-13053484D02*
X14443634Y-13053484D01*
X14443634Y-13053484D02*
X14424586Y-13043960D01*
X14424586Y-13043960D02*
X14415063Y-13034436D01*
X14415063Y-13034436D02*
X14405539Y-13015388D01*
X14405539Y-13015388D02*
X14396015Y-12977293D01*
X14396015Y-12977293D02*
X14396015Y-12929674D01*
X14396015Y-12929674D02*
X14405539Y-12891579D01*
X14405539Y-12891579D02*
X14415063Y-12872531D01*
X14415063Y-12872531D02*
X14424586Y-12863008D01*
X14424586Y-12863008D02*
X14443634Y-12853484D01*
X14596015Y-13034436D02*
X14605539Y-13043960D01*
X14605539Y-13043960D02*
X14596015Y-13053484D01*
X14596015Y-13053484D02*
X14586491Y-13043960D01*
X14586491Y-13043960D02*
X14596015Y-13034436D01*
X14596015Y-13034436D02*
X14596015Y-13053484D01*
X14729348Y-12853484D02*
X14748396Y-12853484D01*
X14748396Y-12853484D02*
X14767444Y-12863008D01*
X14767444Y-12863008D02*
X14776967Y-12872531D01*
X14776967Y-12872531D02*
X14786491Y-12891579D01*
X14786491Y-12891579D02*
X14796015Y-12929674D01*
X14796015Y-12929674D02*
X14796015Y-12977293D01*
X14796015Y-12977293D02*
X14786491Y-13015388D01*
X14786491Y-13015388D02*
X14776967Y-13034436D01*
X14776967Y-13034436D02*
X14767444Y-13043960D01*
X14767444Y-13043960D02*
X14748396Y-13053484D01*
X14748396Y-13053484D02*
X14729348Y-13053484D01*
X14729348Y-13053484D02*
X14710301Y-13043960D01*
X14710301Y-13043960D02*
X14700777Y-13034436D01*
X14700777Y-13034436D02*
X14691253Y-13015388D01*
X14691253Y-13015388D02*
X14681729Y-12977293D01*
X14681729Y-12977293D02*
X14681729Y-12929674D01*
X14681729Y-12929674D02*
X14691253Y-12891579D01*
X14691253Y-12891579D02*
X14700777Y-12872531D01*
X14700777Y-12872531D02*
X14710301Y-12863008D01*
X14710301Y-12863008D02*
X14729348Y-12853484D01*
X14862682Y-12853484D02*
X14986491Y-12853484D01*
X14986491Y-12853484D02*
X14919825Y-12929674D01*
X14919825Y-12929674D02*
X14948396Y-12929674D01*
X14948396Y-12929674D02*
X14967444Y-12939198D01*
X14967444Y-12939198D02*
X14976967Y-12948722D01*
X14976967Y-12948722D02*
X14986491Y-12967769D01*
X14986491Y-12967769D02*
X14986491Y-13015388D01*
X14986491Y-13015388D02*
X14976967Y-13034436D01*
X14976967Y-13034436D02*
X14967444Y-13043960D01*
X14967444Y-13043960D02*
X14948396Y-13053484D01*
X14948396Y-13053484D02*
X14891253Y-13053484D01*
X14891253Y-13053484D02*
X14872206Y-13043960D01*
X14872206Y-13043960D02*
X14862682Y-13034436D01*
X15053158Y-12853484D02*
X15186491Y-12853484D01*
X15186491Y-12853484D02*
X15100777Y-13053484D01*
X15348396Y-12920150D02*
X15348396Y-13053484D01*
X15300777Y-12843960D02*
X15253158Y-12986817D01*
X15253158Y-12986817D02*
X15376967Y-12986817D01*
X15443634Y-12853484D02*
X15443634Y-12891579D01*
X15519825Y-12853484D02*
X15519825Y-12891579D01*
X15815063Y-13129674D02*
X15805539Y-13120150D01*
X15805539Y-13120150D02*
X15786491Y-13091579D01*
X15786491Y-13091579D02*
X15776968Y-13072531D01*
X15776968Y-13072531D02*
X15767444Y-13043960D01*
X15767444Y-13043960D02*
X15757920Y-12996341D01*
X15757920Y-12996341D02*
X15757920Y-12958246D01*
X15757920Y-12958246D02*
X15767444Y-12910627D01*
X15767444Y-12910627D02*
X15776968Y-12882055D01*
X15776968Y-12882055D02*
X15786491Y-12863008D01*
X15786491Y-12863008D02*
X15805539Y-12834436D01*
X15805539Y-12834436D02*
X15815063Y-12824912D01*
X15872206Y-12853484D02*
X15996015Y-12853484D01*
X15996015Y-12853484D02*
X15929348Y-12929674D01*
X15929348Y-12929674D02*
X15957920Y-12929674D01*
X15957920Y-12929674D02*
X15976968Y-12939198D01*
X15976968Y-12939198D02*
X15986491Y-12948722D01*
X15986491Y-12948722D02*
X15996015Y-12967769D01*
X15996015Y-12967769D02*
X15996015Y-13015388D01*
X15996015Y-13015388D02*
X15986491Y-13034436D01*
X15986491Y-13034436D02*
X15976968Y-13043960D01*
X15976968Y-13043960D02*
X15957920Y-13053484D01*
X15957920Y-13053484D02*
X15900777Y-13053484D01*
X15900777Y-13053484D02*
X15881729Y-13043960D01*
X15881729Y-13043960D02*
X15872206Y-13034436D01*
X16234110Y-13053484D02*
X16234110Y-12853484D01*
X16319825Y-13053484D02*
X16319825Y-12948722D01*
X16319825Y-12948722D02*
X16310301Y-12929674D01*
X16310301Y-12929674D02*
X16291253Y-12920150D01*
X16291253Y-12920150D02*
X16262682Y-12920150D01*
X16262682Y-12920150D02*
X16243634Y-12929674D01*
X16243634Y-12929674D02*
X16234110Y-12939198D01*
X16443634Y-13053484D02*
X16424587Y-13043960D01*
X16424587Y-13043960D02*
X16415063Y-13034436D01*
X16415063Y-13034436D02*
X16405539Y-13015388D01*
X16405539Y-13015388D02*
X16405539Y-12958246D01*
X16405539Y-12958246D02*
X16415063Y-12939198D01*
X16415063Y-12939198D02*
X16424587Y-12929674D01*
X16424587Y-12929674D02*
X16443634Y-12920150D01*
X16443634Y-12920150D02*
X16472206Y-12920150D01*
X16472206Y-12920150D02*
X16491253Y-12929674D01*
X16491253Y-12929674D02*
X16500777Y-12939198D01*
X16500777Y-12939198D02*
X16510301Y-12958246D01*
X16510301Y-12958246D02*
X16510301Y-13015388D01*
X16510301Y-13015388D02*
X16500777Y-13034436D01*
X16500777Y-13034436D02*
X16491253Y-13043960D01*
X16491253Y-13043960D02*
X16472206Y-13053484D01*
X16472206Y-13053484D02*
X16443634Y-13053484D01*
X16624587Y-13053484D02*
X16605539Y-13043960D01*
X16605539Y-13043960D02*
X16596015Y-13024912D01*
X16596015Y-13024912D02*
X16596015Y-12853484D01*
X16776968Y-13043960D02*
X16757920Y-13053484D01*
X16757920Y-13053484D02*
X16719825Y-13053484D01*
X16719825Y-13053484D02*
X16700777Y-13043960D01*
X16700777Y-13043960D02*
X16691253Y-13024912D01*
X16691253Y-13024912D02*
X16691253Y-12948722D01*
X16691253Y-12948722D02*
X16700777Y-12929674D01*
X16700777Y-12929674D02*
X16719825Y-12920150D01*
X16719825Y-12920150D02*
X16757920Y-12920150D01*
X16757920Y-12920150D02*
X16776968Y-12929674D01*
X16776968Y-12929674D02*
X16786492Y-12948722D01*
X16786492Y-12948722D02*
X16786492Y-12967769D01*
X16786492Y-12967769D02*
X16691253Y-12986817D01*
X16862682Y-13043960D02*
X16881730Y-13053484D01*
X16881730Y-13053484D02*
X16919825Y-13053484D01*
X16919825Y-13053484D02*
X16938873Y-13043960D01*
X16938873Y-13043960D02*
X16948396Y-13024912D01*
X16948396Y-13024912D02*
X16948396Y-13015388D01*
X16948396Y-13015388D02*
X16938873Y-12996341D01*
X16938873Y-12996341D02*
X16919825Y-12986817D01*
X16919825Y-12986817D02*
X16891253Y-12986817D01*
X16891253Y-12986817D02*
X16872206Y-12977293D01*
X16872206Y-12977293D02*
X16862682Y-12958246D01*
X16862682Y-12958246D02*
X16862682Y-12948722D01*
X16862682Y-12948722D02*
X16872206Y-12929674D01*
X16872206Y-12929674D02*
X16891253Y-12920150D01*
X16891253Y-12920150D02*
X16919825Y-12920150D01*
X16919825Y-12920150D02*
X16938873Y-12929674D01*
X17015063Y-13129674D02*
X17024587Y-13120150D01*
X17024587Y-13120150D02*
X17043634Y-13091579D01*
X17043634Y-13091579D02*
X17053158Y-13072531D01*
X17053158Y-13072531D02*
X17062682Y-13043960D01*
X17062682Y-13043960D02*
X17072206Y-12996341D01*
X17072206Y-12996341D02*
X17072206Y-12958246D01*
X17072206Y-12958246D02*
X17062682Y-12910627D01*
X17062682Y-12910627D02*
X17053158Y-12882055D01*
X17053158Y-12882055D02*
X17043634Y-12863008D01*
X17043634Y-12863008D02*
X17024587Y-12834436D01*
X17024587Y-12834436D02*
X17015063Y-12824912D01*
D11*
X12190000Y-13276000D02*
X12240000Y-13226000D01*
X12190000Y-13176000D01*
X12140000Y-13226000D01*
X12190000Y-13276000D01*
D10*
X12605539Y-13317484D02*
X12491253Y-13317484D01*
X12548396Y-13317484D02*
X12548396Y-13117484D01*
X12548396Y-13117484D02*
X12529348Y-13146055D01*
X12529348Y-13146055D02*
X12510301Y-13165103D01*
X12510301Y-13165103D02*
X12491253Y-13174627D01*
X12691253Y-13298436D02*
X12700777Y-13307960D01*
X12700777Y-13307960D02*
X12691253Y-13317484D01*
X12691253Y-13317484D02*
X12681729Y-13307960D01*
X12681729Y-13307960D02*
X12691253Y-13298436D01*
X12691253Y-13298436D02*
X12691253Y-13317484D01*
X12824586Y-13117484D02*
X12843634Y-13117484D01*
X12843634Y-13117484D02*
X12862682Y-13127008D01*
X12862682Y-13127008D02*
X12872205Y-13136531D01*
X12872205Y-13136531D02*
X12881729Y-13155579D01*
X12881729Y-13155579D02*
X12891253Y-13193674D01*
X12891253Y-13193674D02*
X12891253Y-13241293D01*
X12891253Y-13241293D02*
X12881729Y-13279388D01*
X12881729Y-13279388D02*
X12872205Y-13298436D01*
X12872205Y-13298436D02*
X12862682Y-13307960D01*
X12862682Y-13307960D02*
X12843634Y-13317484D01*
X12843634Y-13317484D02*
X12824586Y-13317484D01*
X12824586Y-13317484D02*
X12805539Y-13307960D01*
X12805539Y-13307960D02*
X12796015Y-13298436D01*
X12796015Y-13298436D02*
X12786491Y-13279388D01*
X12786491Y-13279388D02*
X12776967Y-13241293D01*
X12776967Y-13241293D02*
X12776967Y-13193674D01*
X12776967Y-13193674D02*
X12786491Y-13155579D01*
X12786491Y-13155579D02*
X12796015Y-13136531D01*
X12796015Y-13136531D02*
X12805539Y-13127008D01*
X12805539Y-13127008D02*
X12824586Y-13117484D01*
X13015062Y-13117484D02*
X13034110Y-13117484D01*
X13034110Y-13117484D02*
X13053158Y-13127008D01*
X13053158Y-13127008D02*
X13062682Y-13136531D01*
X13062682Y-13136531D02*
X13072205Y-13155579D01*
X13072205Y-13155579D02*
X13081729Y-13193674D01*
X13081729Y-13193674D02*
X13081729Y-13241293D01*
X13081729Y-13241293D02*
X13072205Y-13279388D01*
X13072205Y-13279388D02*
X13062682Y-13298436D01*
X13062682Y-13298436D02*
X13053158Y-13307960D01*
X13053158Y-13307960D02*
X13034110Y-13317484D01*
X13034110Y-13317484D02*
X13015062Y-13317484D01*
X13015062Y-13317484D02*
X12996015Y-13307960D01*
X12996015Y-13307960D02*
X12986491Y-13298436D01*
X12986491Y-13298436D02*
X12976967Y-13279388D01*
X12976967Y-13279388D02*
X12967443Y-13241293D01*
X12967443Y-13241293D02*
X12967443Y-13193674D01*
X12967443Y-13193674D02*
X12976967Y-13155579D01*
X12976967Y-13155579D02*
X12986491Y-13136531D01*
X12986491Y-13136531D02*
X12996015Y-13127008D01*
X12996015Y-13127008D02*
X13015062Y-13117484D01*
X13205539Y-13117484D02*
X13224586Y-13117484D01*
X13224586Y-13117484D02*
X13243634Y-13127008D01*
X13243634Y-13127008D02*
X13253158Y-13136531D01*
X13253158Y-13136531D02*
X13262682Y-13155579D01*
X13262682Y-13155579D02*
X13272205Y-13193674D01*
X13272205Y-13193674D02*
X13272205Y-13241293D01*
X13272205Y-13241293D02*
X13262682Y-13279388D01*
X13262682Y-13279388D02*
X13253158Y-13298436D01*
X13253158Y-13298436D02*
X13243634Y-13307960D01*
X13243634Y-13307960D02*
X13224586Y-13317484D01*
X13224586Y-13317484D02*
X13205539Y-13317484D01*
X13205539Y-13317484D02*
X13186491Y-13307960D01*
X13186491Y-13307960D02*
X13176967Y-13298436D01*
X13176967Y-13298436D02*
X13167443Y-13279388D01*
X13167443Y-13279388D02*
X13157920Y-13241293D01*
X13157920Y-13241293D02*
X13157920Y-13193674D01*
X13157920Y-13193674D02*
X13167443Y-13155579D01*
X13167443Y-13155579D02*
X13176967Y-13136531D01*
X13176967Y-13136531D02*
X13186491Y-13127008D01*
X13186491Y-13127008D02*
X13205539Y-13117484D01*
X13357920Y-13317484D02*
X13357920Y-13184150D01*
X13357920Y-13203198D02*
X13367443Y-13193674D01*
X13367443Y-13193674D02*
X13386491Y-13184150D01*
X13386491Y-13184150D02*
X13415063Y-13184150D01*
X13415063Y-13184150D02*
X13434110Y-13193674D01*
X13434110Y-13193674D02*
X13443634Y-13212722D01*
X13443634Y-13212722D02*
X13443634Y-13317484D01*
X13443634Y-13212722D02*
X13453158Y-13193674D01*
X13453158Y-13193674D02*
X13472205Y-13184150D01*
X13472205Y-13184150D02*
X13500777Y-13184150D01*
X13500777Y-13184150D02*
X13519824Y-13193674D01*
X13519824Y-13193674D02*
X13529348Y-13212722D01*
X13529348Y-13212722D02*
X13529348Y-13317484D01*
X13624586Y-13317484D02*
X13624586Y-13184150D01*
X13624586Y-13203198D02*
X13634110Y-13193674D01*
X13634110Y-13193674D02*
X13653158Y-13184150D01*
X13653158Y-13184150D02*
X13681729Y-13184150D01*
X13681729Y-13184150D02*
X13700777Y-13193674D01*
X13700777Y-13193674D02*
X13710301Y-13212722D01*
X13710301Y-13212722D02*
X13710301Y-13317484D01*
X13710301Y-13212722D02*
X13719824Y-13193674D01*
X13719824Y-13193674D02*
X13738872Y-13184150D01*
X13738872Y-13184150D02*
X13767443Y-13184150D01*
X13767443Y-13184150D02*
X13786491Y-13193674D01*
X13786491Y-13193674D02*
X13796015Y-13212722D01*
X13796015Y-13212722D02*
X13796015Y-13317484D01*
X14186491Y-13107960D02*
X14015063Y-13365103D01*
X14443634Y-13117484D02*
X14462682Y-13117484D01*
X14462682Y-13117484D02*
X14481729Y-13127008D01*
X14481729Y-13127008D02*
X14491253Y-13136531D01*
X14491253Y-13136531D02*
X14500777Y-13155579D01*
X14500777Y-13155579D02*
X14510301Y-13193674D01*
X14510301Y-13193674D02*
X14510301Y-13241293D01*
X14510301Y-13241293D02*
X14500777Y-13279388D01*
X14500777Y-13279388D02*
X14491253Y-13298436D01*
X14491253Y-13298436D02*
X14481729Y-13307960D01*
X14481729Y-13307960D02*
X14462682Y-13317484D01*
X14462682Y-13317484D02*
X14443634Y-13317484D01*
X14443634Y-13317484D02*
X14424586Y-13307960D01*
X14424586Y-13307960D02*
X14415063Y-13298436D01*
X14415063Y-13298436D02*
X14405539Y-13279388D01*
X14405539Y-13279388D02*
X14396015Y-13241293D01*
X14396015Y-13241293D02*
X14396015Y-13193674D01*
X14396015Y-13193674D02*
X14405539Y-13155579D01*
X14405539Y-13155579D02*
X14415063Y-13136531D01*
X14415063Y-13136531D02*
X14424586Y-13127008D01*
X14424586Y-13127008D02*
X14443634Y-13117484D01*
X14596015Y-13298436D02*
X14605539Y-13307960D01*
X14605539Y-13307960D02*
X14596015Y-13317484D01*
X14596015Y-13317484D02*
X14586491Y-13307960D01*
X14586491Y-13307960D02*
X14596015Y-13298436D01*
X14596015Y-13298436D02*
X14596015Y-13317484D01*
X14729348Y-13117484D02*
X14748396Y-13117484D01*
X14748396Y-13117484D02*
X14767444Y-13127008D01*
X14767444Y-13127008D02*
X14776967Y-13136531D01*
X14776967Y-13136531D02*
X14786491Y-13155579D01*
X14786491Y-13155579D02*
X14796015Y-13193674D01*
X14796015Y-13193674D02*
X14796015Y-13241293D01*
X14796015Y-13241293D02*
X14786491Y-13279388D01*
X14786491Y-13279388D02*
X14776967Y-13298436D01*
X14776967Y-13298436D02*
X14767444Y-13307960D01*
X14767444Y-13307960D02*
X14748396Y-13317484D01*
X14748396Y-13317484D02*
X14729348Y-13317484D01*
X14729348Y-13317484D02*
X14710301Y-13307960D01*
X14710301Y-13307960D02*
X14700777Y-13298436D01*
X14700777Y-13298436D02*
X14691253Y-13279388D01*
X14691253Y-13279388D02*
X14681729Y-13241293D01*
X14681729Y-13241293D02*
X14681729Y-13193674D01*
X14681729Y-13193674D02*
X14691253Y-13155579D01*
X14691253Y-13155579D02*
X14700777Y-13136531D01*
X14700777Y-13136531D02*
X14710301Y-13127008D01*
X14710301Y-13127008D02*
X14729348Y-13117484D01*
X14862682Y-13117484D02*
X14986491Y-13117484D01*
X14986491Y-13117484D02*
X14919825Y-13193674D01*
X14919825Y-13193674D02*
X14948396Y-13193674D01*
X14948396Y-13193674D02*
X14967444Y-13203198D01*
X14967444Y-13203198D02*
X14976967Y-13212722D01*
X14976967Y-13212722D02*
X14986491Y-13231769D01*
X14986491Y-13231769D02*
X14986491Y-13279388D01*
X14986491Y-13279388D02*
X14976967Y-13298436D01*
X14976967Y-13298436D02*
X14967444Y-13307960D01*
X14967444Y-13307960D02*
X14948396Y-13317484D01*
X14948396Y-13317484D02*
X14891253Y-13317484D01*
X14891253Y-13317484D02*
X14872206Y-13307960D01*
X14872206Y-13307960D02*
X14862682Y-13298436D01*
X15081729Y-13317484D02*
X15119825Y-13317484D01*
X15119825Y-13317484D02*
X15138872Y-13307960D01*
X15138872Y-13307960D02*
X15148396Y-13298436D01*
X15148396Y-13298436D02*
X15167444Y-13269865D01*
X15167444Y-13269865D02*
X15176967Y-13231769D01*
X15176967Y-13231769D02*
X15176967Y-13155579D01*
X15176967Y-13155579D02*
X15167444Y-13136531D01*
X15167444Y-13136531D02*
X15157920Y-13127008D01*
X15157920Y-13127008D02*
X15138872Y-13117484D01*
X15138872Y-13117484D02*
X15100777Y-13117484D01*
X15100777Y-13117484D02*
X15081729Y-13127008D01*
X15081729Y-13127008D02*
X15072206Y-13136531D01*
X15072206Y-13136531D02*
X15062682Y-13155579D01*
X15062682Y-13155579D02*
X15062682Y-13203198D01*
X15062682Y-13203198D02*
X15072206Y-13222246D01*
X15072206Y-13222246D02*
X15081729Y-13231769D01*
X15081729Y-13231769D02*
X15100777Y-13241293D01*
X15100777Y-13241293D02*
X15138872Y-13241293D01*
X15138872Y-13241293D02*
X15157920Y-13231769D01*
X15157920Y-13231769D02*
X15167444Y-13222246D01*
X15167444Y-13222246D02*
X15176967Y-13203198D01*
X15348396Y-13184150D02*
X15348396Y-13317484D01*
X15300777Y-13107960D02*
X15253158Y-13250817D01*
X15253158Y-13250817D02*
X15376967Y-13250817D01*
X15443634Y-13117484D02*
X15443634Y-13155579D01*
X15519825Y-13117484D02*
X15519825Y-13155579D01*
X15815063Y-13393674D02*
X15805539Y-13384150D01*
X15805539Y-13384150D02*
X15786491Y-13355579D01*
X15786491Y-13355579D02*
X15776968Y-13336531D01*
X15776968Y-13336531D02*
X15767444Y-13307960D01*
X15767444Y-13307960D02*
X15757920Y-13260341D01*
X15757920Y-13260341D02*
X15757920Y-13222246D01*
X15757920Y-13222246D02*
X15767444Y-13174627D01*
X15767444Y-13174627D02*
X15776968Y-13146055D01*
X15776968Y-13146055D02*
X15786491Y-13127008D01*
X15786491Y-13127008D02*
X15805539Y-13098436D01*
X15805539Y-13098436D02*
X15815063Y-13088912D01*
X15996015Y-13317484D02*
X15881729Y-13317484D01*
X15938872Y-13317484D02*
X15938872Y-13117484D01*
X15938872Y-13117484D02*
X15919825Y-13146055D01*
X15919825Y-13146055D02*
X15900777Y-13165103D01*
X15900777Y-13165103D02*
X15881729Y-13174627D01*
X16062682Y-13117484D02*
X16196015Y-13117484D01*
X16196015Y-13117484D02*
X16110301Y-13317484D01*
X16424587Y-13317484D02*
X16424587Y-13117484D01*
X16510301Y-13317484D02*
X16510301Y-13212722D01*
X16510301Y-13212722D02*
X16500777Y-13193674D01*
X16500777Y-13193674D02*
X16481730Y-13184150D01*
X16481730Y-13184150D02*
X16453158Y-13184150D01*
X16453158Y-13184150D02*
X16434110Y-13193674D01*
X16434110Y-13193674D02*
X16424587Y-13203198D01*
X16634110Y-13317484D02*
X16615063Y-13307960D01*
X16615063Y-13307960D02*
X16605539Y-13298436D01*
X16605539Y-13298436D02*
X16596015Y-13279388D01*
X16596015Y-13279388D02*
X16596015Y-13222246D01*
X16596015Y-13222246D02*
X16605539Y-13203198D01*
X16605539Y-13203198D02*
X16615063Y-13193674D01*
X16615063Y-13193674D02*
X16634110Y-13184150D01*
X16634110Y-13184150D02*
X16662682Y-13184150D01*
X16662682Y-13184150D02*
X16681730Y-13193674D01*
X16681730Y-13193674D02*
X16691253Y-13203198D01*
X16691253Y-13203198D02*
X16700777Y-13222246D01*
X16700777Y-13222246D02*
X16700777Y-13279388D01*
X16700777Y-13279388D02*
X16691253Y-13298436D01*
X16691253Y-13298436D02*
X16681730Y-13307960D01*
X16681730Y-13307960D02*
X16662682Y-13317484D01*
X16662682Y-13317484D02*
X16634110Y-13317484D01*
X16815063Y-13317484D02*
X16796015Y-13307960D01*
X16796015Y-13307960D02*
X16786492Y-13288912D01*
X16786492Y-13288912D02*
X16786492Y-13117484D01*
X16967444Y-13307960D02*
X16948396Y-13317484D01*
X16948396Y-13317484D02*
X16910301Y-13317484D01*
X16910301Y-13317484D02*
X16891253Y-13307960D01*
X16891253Y-13307960D02*
X16881730Y-13288912D01*
X16881730Y-13288912D02*
X16881730Y-13212722D01*
X16881730Y-13212722D02*
X16891253Y-13193674D01*
X16891253Y-13193674D02*
X16910301Y-13184150D01*
X16910301Y-13184150D02*
X16948396Y-13184150D01*
X16948396Y-13184150D02*
X16967444Y-13193674D01*
X16967444Y-13193674D02*
X16976968Y-13212722D01*
X16976968Y-13212722D02*
X16976968Y-13231769D01*
X16976968Y-13231769D02*
X16881730Y-13250817D01*
X17053158Y-13307960D02*
X17072206Y-13317484D01*
X17072206Y-13317484D02*
X17110301Y-13317484D01*
X17110301Y-13317484D02*
X17129349Y-13307960D01*
X17129349Y-13307960D02*
X17138873Y-13288912D01*
X17138873Y-13288912D02*
X17138873Y-13279388D01*
X17138873Y-13279388D02*
X17129349Y-13260341D01*
X17129349Y-13260341D02*
X17110301Y-13250817D01*
X17110301Y-13250817D02*
X17081730Y-13250817D01*
X17081730Y-13250817D02*
X17062682Y-13241293D01*
X17062682Y-13241293D02*
X17053158Y-13222246D01*
X17053158Y-13222246D02*
X17053158Y-13212722D01*
X17053158Y-13212722D02*
X17062682Y-13193674D01*
X17062682Y-13193674D02*
X17081730Y-13184150D01*
X17081730Y-13184150D02*
X17110301Y-13184150D01*
X17110301Y-13184150D02*
X17129349Y-13193674D01*
X17205539Y-13393674D02*
X17215063Y-13384150D01*
X17215063Y-13384150D02*
X17234111Y-13355579D01*
X17234111Y-13355579D02*
X17243634Y-13336531D01*
X17243634Y-13336531D02*
X17253158Y-13307960D01*
X17253158Y-13307960D02*
X17262682Y-13260341D01*
X17262682Y-13260341D02*
X17262682Y-13222246D01*
X17262682Y-13222246D02*
X17253158Y-13174627D01*
X17253158Y-13174627D02*
X17243634Y-13146055D01*
X17243634Y-13146055D02*
X17234111Y-13127008D01*
X17234111Y-13127008D02*
X17215063Y-13098436D01*
X17215063Y-13098436D02*
X17205539Y-13088912D01*
D12*
X12113000Y-13426500D02*
X12240000Y-13553500D01*
X12240000Y-13426500D02*
X12113000Y-13553500D01*
X12240000Y-13490000D02*
G75*
G02*
X12113000Y-13490000I-63500J0D01*
G01*
X12113000Y-13490000D02*
G75*
G02*
X12240000Y-13490000I63500J0D01*
G01*
D10*
X12605539Y-13581484D02*
X12491253Y-13581484D01*
X12548396Y-13581484D02*
X12548396Y-13381484D01*
X12548396Y-13381484D02*
X12529348Y-13410055D01*
X12529348Y-13410055D02*
X12510301Y-13429103D01*
X12510301Y-13429103D02*
X12491253Y-13438627D01*
X12691253Y-13562436D02*
X12700777Y-13571960D01*
X12700777Y-13571960D02*
X12691253Y-13581484D01*
X12691253Y-13581484D02*
X12681729Y-13571960D01*
X12681729Y-13571960D02*
X12691253Y-13562436D01*
X12691253Y-13562436D02*
X12691253Y-13581484D01*
X12776967Y-13400531D02*
X12786491Y-13391008D01*
X12786491Y-13391008D02*
X12805539Y-13381484D01*
X12805539Y-13381484D02*
X12853158Y-13381484D01*
X12853158Y-13381484D02*
X12872205Y-13391008D01*
X12872205Y-13391008D02*
X12881729Y-13400531D01*
X12881729Y-13400531D02*
X12891253Y-13419579D01*
X12891253Y-13419579D02*
X12891253Y-13438627D01*
X12891253Y-13438627D02*
X12881729Y-13467198D01*
X12881729Y-13467198D02*
X12767443Y-13581484D01*
X12767443Y-13581484D02*
X12891253Y-13581484D01*
X12957920Y-13381484D02*
X13091253Y-13381484D01*
X13091253Y-13381484D02*
X13005539Y-13581484D01*
X13205539Y-13381484D02*
X13224586Y-13381484D01*
X13224586Y-13381484D02*
X13243634Y-13391008D01*
X13243634Y-13391008D02*
X13253158Y-13400531D01*
X13253158Y-13400531D02*
X13262682Y-13419579D01*
X13262682Y-13419579D02*
X13272205Y-13457674D01*
X13272205Y-13457674D02*
X13272205Y-13505293D01*
X13272205Y-13505293D02*
X13262682Y-13543388D01*
X13262682Y-13543388D02*
X13253158Y-13562436D01*
X13253158Y-13562436D02*
X13243634Y-13571960D01*
X13243634Y-13571960D02*
X13224586Y-13581484D01*
X13224586Y-13581484D02*
X13205539Y-13581484D01*
X13205539Y-13581484D02*
X13186491Y-13571960D01*
X13186491Y-13571960D02*
X13176967Y-13562436D01*
X13176967Y-13562436D02*
X13167443Y-13543388D01*
X13167443Y-13543388D02*
X13157920Y-13505293D01*
X13157920Y-13505293D02*
X13157920Y-13457674D01*
X13157920Y-13457674D02*
X13167443Y-13419579D01*
X13167443Y-13419579D02*
X13176967Y-13400531D01*
X13176967Y-13400531D02*
X13186491Y-13391008D01*
X13186491Y-13391008D02*
X13205539Y-13381484D01*
X13357920Y-13581484D02*
X13357920Y-13448150D01*
X13357920Y-13467198D02*
X13367443Y-13457674D01*
X13367443Y-13457674D02*
X13386491Y-13448150D01*
X13386491Y-13448150D02*
X13415063Y-13448150D01*
X13415063Y-13448150D02*
X13434110Y-13457674D01*
X13434110Y-13457674D02*
X13443634Y-13476722D01*
X13443634Y-13476722D02*
X13443634Y-13581484D01*
X13443634Y-13476722D02*
X13453158Y-13457674D01*
X13453158Y-13457674D02*
X13472205Y-13448150D01*
X13472205Y-13448150D02*
X13500777Y-13448150D01*
X13500777Y-13448150D02*
X13519824Y-13457674D01*
X13519824Y-13457674D02*
X13529348Y-13476722D01*
X13529348Y-13476722D02*
X13529348Y-13581484D01*
X13624586Y-13581484D02*
X13624586Y-13448150D01*
X13624586Y-13467198D02*
X13634110Y-13457674D01*
X13634110Y-13457674D02*
X13653158Y-13448150D01*
X13653158Y-13448150D02*
X13681729Y-13448150D01*
X13681729Y-13448150D02*
X13700777Y-13457674D01*
X13700777Y-13457674D02*
X13710301Y-13476722D01*
X13710301Y-13476722D02*
X13710301Y-13581484D01*
X13710301Y-13476722D02*
X13719824Y-13457674D01*
X13719824Y-13457674D02*
X13738872Y-13448150D01*
X13738872Y-13448150D02*
X13767443Y-13448150D01*
X13767443Y-13448150D02*
X13786491Y-13457674D01*
X13786491Y-13457674D02*
X13796015Y-13476722D01*
X13796015Y-13476722D02*
X13796015Y-13581484D01*
X14186491Y-13371960D02*
X14015063Y-13629103D01*
X14443634Y-13381484D02*
X14462682Y-13381484D01*
X14462682Y-13381484D02*
X14481729Y-13391008D01*
X14481729Y-13391008D02*
X14491253Y-13400531D01*
X14491253Y-13400531D02*
X14500777Y-13419579D01*
X14500777Y-13419579D02*
X14510301Y-13457674D01*
X14510301Y-13457674D02*
X14510301Y-13505293D01*
X14510301Y-13505293D02*
X14500777Y-13543388D01*
X14500777Y-13543388D02*
X14491253Y-13562436D01*
X14491253Y-13562436D02*
X14481729Y-13571960D01*
X14481729Y-13571960D02*
X14462682Y-13581484D01*
X14462682Y-13581484D02*
X14443634Y-13581484D01*
X14443634Y-13581484D02*
X14424586Y-13571960D01*
X14424586Y-13571960D02*
X14415063Y-13562436D01*
X14415063Y-13562436D02*
X14405539Y-13543388D01*
X14405539Y-13543388D02*
X14396015Y-13505293D01*
X14396015Y-13505293D02*
X14396015Y-13457674D01*
X14396015Y-13457674D02*
X14405539Y-13419579D01*
X14405539Y-13419579D02*
X14415063Y-13400531D01*
X14415063Y-13400531D02*
X14424586Y-13391008D01*
X14424586Y-13391008D02*
X14443634Y-13381484D01*
X14596015Y-13562436D02*
X14605539Y-13571960D01*
X14605539Y-13571960D02*
X14596015Y-13581484D01*
X14596015Y-13581484D02*
X14586491Y-13571960D01*
X14586491Y-13571960D02*
X14596015Y-13562436D01*
X14596015Y-13562436D02*
X14596015Y-13581484D01*
X14729348Y-13381484D02*
X14748396Y-13381484D01*
X14748396Y-13381484D02*
X14767444Y-13391008D01*
X14767444Y-13391008D02*
X14776967Y-13400531D01*
X14776967Y-13400531D02*
X14786491Y-13419579D01*
X14786491Y-13419579D02*
X14796015Y-13457674D01*
X14796015Y-13457674D02*
X14796015Y-13505293D01*
X14796015Y-13505293D02*
X14786491Y-13543388D01*
X14786491Y-13543388D02*
X14776967Y-13562436D01*
X14776967Y-13562436D02*
X14767444Y-13571960D01*
X14767444Y-13571960D02*
X14748396Y-13581484D01*
X14748396Y-13581484D02*
X14729348Y-13581484D01*
X14729348Y-13581484D02*
X14710301Y-13571960D01*
X14710301Y-13571960D02*
X14700777Y-13562436D01*
X14700777Y-13562436D02*
X14691253Y-13543388D01*
X14691253Y-13543388D02*
X14681729Y-13505293D01*
X14681729Y-13505293D02*
X14681729Y-13457674D01*
X14681729Y-13457674D02*
X14691253Y-13419579D01*
X14691253Y-13419579D02*
X14700777Y-13400531D01*
X14700777Y-13400531D02*
X14710301Y-13391008D01*
X14710301Y-13391008D02*
X14729348Y-13381484D01*
X14976967Y-13381484D02*
X14881729Y-13381484D01*
X14881729Y-13381484D02*
X14872206Y-13476722D01*
X14872206Y-13476722D02*
X14881729Y-13467198D01*
X14881729Y-13467198D02*
X14900777Y-13457674D01*
X14900777Y-13457674D02*
X14948396Y-13457674D01*
X14948396Y-13457674D02*
X14967444Y-13467198D01*
X14967444Y-13467198D02*
X14976967Y-13476722D01*
X14976967Y-13476722D02*
X14986491Y-13495769D01*
X14986491Y-13495769D02*
X14986491Y-13543388D01*
X14986491Y-13543388D02*
X14976967Y-13562436D01*
X14976967Y-13562436D02*
X14967444Y-13571960D01*
X14967444Y-13571960D02*
X14948396Y-13581484D01*
X14948396Y-13581484D02*
X14900777Y-13581484D01*
X14900777Y-13581484D02*
X14881729Y-13571960D01*
X14881729Y-13571960D02*
X14872206Y-13562436D01*
X15110301Y-13381484D02*
X15129348Y-13381484D01*
X15129348Y-13381484D02*
X15148396Y-13391008D01*
X15148396Y-13391008D02*
X15157920Y-13400531D01*
X15157920Y-13400531D02*
X15167444Y-13419579D01*
X15167444Y-13419579D02*
X15176967Y-13457674D01*
X15176967Y-13457674D02*
X15176967Y-13505293D01*
X15176967Y-13505293D02*
X15167444Y-13543388D01*
X15167444Y-13543388D02*
X15157920Y-13562436D01*
X15157920Y-13562436D02*
X15148396Y-13571960D01*
X15148396Y-13571960D02*
X15129348Y-13581484D01*
X15129348Y-13581484D02*
X15110301Y-13581484D01*
X15110301Y-13581484D02*
X15091253Y-13571960D01*
X15091253Y-13571960D02*
X15081729Y-13562436D01*
X15081729Y-13562436D02*
X15072206Y-13543388D01*
X15072206Y-13543388D02*
X15062682Y-13505293D01*
X15062682Y-13505293D02*
X15062682Y-13457674D01*
X15062682Y-13457674D02*
X15072206Y-13419579D01*
X15072206Y-13419579D02*
X15081729Y-13400531D01*
X15081729Y-13400531D02*
X15091253Y-13391008D01*
X15091253Y-13391008D02*
X15110301Y-13381484D01*
X15300777Y-13381484D02*
X15319825Y-13381484D01*
X15319825Y-13381484D02*
X15338872Y-13391008D01*
X15338872Y-13391008D02*
X15348396Y-13400531D01*
X15348396Y-13400531D02*
X15357920Y-13419579D01*
X15357920Y-13419579D02*
X15367444Y-13457674D01*
X15367444Y-13457674D02*
X15367444Y-13505293D01*
X15367444Y-13505293D02*
X15357920Y-13543388D01*
X15357920Y-13543388D02*
X15348396Y-13562436D01*
X15348396Y-13562436D02*
X15338872Y-13571960D01*
X15338872Y-13571960D02*
X15319825Y-13581484D01*
X15319825Y-13581484D02*
X15300777Y-13581484D01*
X15300777Y-13581484D02*
X15281729Y-13571960D01*
X15281729Y-13571960D02*
X15272206Y-13562436D01*
X15272206Y-13562436D02*
X15262682Y-13543388D01*
X15262682Y-13543388D02*
X15253158Y-13505293D01*
X15253158Y-13505293D02*
X15253158Y-13457674D01*
X15253158Y-13457674D02*
X15262682Y-13419579D01*
X15262682Y-13419579D02*
X15272206Y-13400531D01*
X15272206Y-13400531D02*
X15281729Y-13391008D01*
X15281729Y-13391008D02*
X15300777Y-13381484D01*
X15443634Y-13381484D02*
X15443634Y-13419579D01*
X15519825Y-13381484D02*
X15519825Y-13419579D01*
X15815063Y-13657674D02*
X15805539Y-13648150D01*
X15805539Y-13648150D02*
X15786491Y-13619579D01*
X15786491Y-13619579D02*
X15776968Y-13600531D01*
X15776968Y-13600531D02*
X15767444Y-13571960D01*
X15767444Y-13571960D02*
X15757920Y-13524341D01*
X15757920Y-13524341D02*
X15757920Y-13486246D01*
X15757920Y-13486246D02*
X15767444Y-13438627D01*
X15767444Y-13438627D02*
X15776968Y-13410055D01*
X15776968Y-13410055D02*
X15786491Y-13391008D01*
X15786491Y-13391008D02*
X15805539Y-13362436D01*
X15805539Y-13362436D02*
X15815063Y-13352912D01*
X15881729Y-13400531D02*
X15891253Y-13391008D01*
X15891253Y-13391008D02*
X15910301Y-13381484D01*
X15910301Y-13381484D02*
X15957920Y-13381484D01*
X15957920Y-13381484D02*
X15976968Y-13391008D01*
X15976968Y-13391008D02*
X15986491Y-13400531D01*
X15986491Y-13400531D02*
X15996015Y-13419579D01*
X15996015Y-13419579D02*
X15996015Y-13438627D01*
X15996015Y-13438627D02*
X15986491Y-13467198D01*
X15986491Y-13467198D02*
X15872206Y-13581484D01*
X15872206Y-13581484D02*
X15996015Y-13581484D01*
X16234110Y-13581484D02*
X16234110Y-13381484D01*
X16319825Y-13581484D02*
X16319825Y-13476722D01*
X16319825Y-13476722D02*
X16310301Y-13457674D01*
X16310301Y-13457674D02*
X16291253Y-13448150D01*
X16291253Y-13448150D02*
X16262682Y-13448150D01*
X16262682Y-13448150D02*
X16243634Y-13457674D01*
X16243634Y-13457674D02*
X16234110Y-13467198D01*
X16443634Y-13581484D02*
X16424587Y-13571960D01*
X16424587Y-13571960D02*
X16415063Y-13562436D01*
X16415063Y-13562436D02*
X16405539Y-13543388D01*
X16405539Y-13543388D02*
X16405539Y-13486246D01*
X16405539Y-13486246D02*
X16415063Y-13467198D01*
X16415063Y-13467198D02*
X16424587Y-13457674D01*
X16424587Y-13457674D02*
X16443634Y-13448150D01*
X16443634Y-13448150D02*
X16472206Y-13448150D01*
X16472206Y-13448150D02*
X16491253Y-13457674D01*
X16491253Y-13457674D02*
X16500777Y-13467198D01*
X16500777Y-13467198D02*
X16510301Y-13486246D01*
X16510301Y-13486246D02*
X16510301Y-13543388D01*
X16510301Y-13543388D02*
X16500777Y-13562436D01*
X16500777Y-13562436D02*
X16491253Y-13571960D01*
X16491253Y-13571960D02*
X16472206Y-13581484D01*
X16472206Y-13581484D02*
X16443634Y-13581484D01*
X16624587Y-13581484D02*
X16605539Y-13571960D01*
X16605539Y-13571960D02*
X16596015Y-13552912D01*
X16596015Y-13552912D02*
X16596015Y-13381484D01*
X16776968Y-13571960D02*
X16757920Y-13581484D01*
X16757920Y-13581484D02*
X16719825Y-13581484D01*
X16719825Y-13581484D02*
X16700777Y-13571960D01*
X16700777Y-13571960D02*
X16691253Y-13552912D01*
X16691253Y-13552912D02*
X16691253Y-13476722D01*
X16691253Y-13476722D02*
X16700777Y-13457674D01*
X16700777Y-13457674D02*
X16719825Y-13448150D01*
X16719825Y-13448150D02*
X16757920Y-13448150D01*
X16757920Y-13448150D02*
X16776968Y-13457674D01*
X16776968Y-13457674D02*
X16786492Y-13476722D01*
X16786492Y-13476722D02*
X16786492Y-13495769D01*
X16786492Y-13495769D02*
X16691253Y-13514817D01*
X16862682Y-13571960D02*
X16881730Y-13581484D01*
X16881730Y-13581484D02*
X16919825Y-13581484D01*
X16919825Y-13581484D02*
X16938873Y-13571960D01*
X16938873Y-13571960D02*
X16948396Y-13552912D01*
X16948396Y-13552912D02*
X16948396Y-13543388D01*
X16948396Y-13543388D02*
X16938873Y-13524341D01*
X16938873Y-13524341D02*
X16919825Y-13514817D01*
X16919825Y-13514817D02*
X16891253Y-13514817D01*
X16891253Y-13514817D02*
X16872206Y-13505293D01*
X16872206Y-13505293D02*
X16862682Y-13486246D01*
X16862682Y-13486246D02*
X16862682Y-13476722D01*
X16862682Y-13476722D02*
X16872206Y-13457674D01*
X16872206Y-13457674D02*
X16891253Y-13448150D01*
X16891253Y-13448150D02*
X16919825Y-13448150D01*
X16919825Y-13448150D02*
X16938873Y-13457674D01*
X17015063Y-13657674D02*
X17024587Y-13648150D01*
X17024587Y-13648150D02*
X17043634Y-13619579D01*
X17043634Y-13619579D02*
X17053158Y-13600531D01*
X17053158Y-13600531D02*
X17062682Y-13571960D01*
X17062682Y-13571960D02*
X17072206Y-13524341D01*
X17072206Y-13524341D02*
X17072206Y-13486246D01*
X17072206Y-13486246D02*
X17062682Y-13438627D01*
X17062682Y-13438627D02*
X17053158Y-13410055D01*
X17053158Y-13410055D02*
X17043634Y-13391008D01*
X17043634Y-13391008D02*
X17024587Y-13362436D01*
X17024587Y-13362436D02*
X17015063Y-13352912D01*
D13*
X12110000Y-13689000D02*
X12240000Y-13819000D01*
X12240000Y-13689000D02*
X12110000Y-13819000D01*
X12175000Y-13689000D02*
X12175000Y-13819000D01*
X12110000Y-13754000D02*
X12240000Y-13754000D01*
D10*
X12605539Y-13845484D02*
X12491253Y-13845484D01*
X12548396Y-13845484D02*
X12548396Y-13645484D01*
X12548396Y-13645484D02*
X12529348Y-13674055D01*
X12529348Y-13674055D02*
X12510301Y-13693103D01*
X12510301Y-13693103D02*
X12491253Y-13702627D01*
X12691253Y-13826436D02*
X12700777Y-13835960D01*
X12700777Y-13835960D02*
X12691253Y-13845484D01*
X12691253Y-13845484D02*
X12681729Y-13835960D01*
X12681729Y-13835960D02*
X12691253Y-13826436D01*
X12691253Y-13826436D02*
X12691253Y-13845484D01*
X12767443Y-13645484D02*
X12891253Y-13645484D01*
X12891253Y-13645484D02*
X12824586Y-13721674D01*
X12824586Y-13721674D02*
X12853158Y-13721674D01*
X12853158Y-13721674D02*
X12872205Y-13731198D01*
X12872205Y-13731198D02*
X12881729Y-13740722D01*
X12881729Y-13740722D02*
X12891253Y-13759769D01*
X12891253Y-13759769D02*
X12891253Y-13807388D01*
X12891253Y-13807388D02*
X12881729Y-13826436D01*
X12881729Y-13826436D02*
X12872205Y-13835960D01*
X12872205Y-13835960D02*
X12853158Y-13845484D01*
X12853158Y-13845484D02*
X12796015Y-13845484D01*
X12796015Y-13845484D02*
X12776967Y-13835960D01*
X12776967Y-13835960D02*
X12767443Y-13826436D01*
X13015062Y-13645484D02*
X13034110Y-13645484D01*
X13034110Y-13645484D02*
X13053158Y-13655008D01*
X13053158Y-13655008D02*
X13062682Y-13664531D01*
X13062682Y-13664531D02*
X13072205Y-13683579D01*
X13072205Y-13683579D02*
X13081729Y-13721674D01*
X13081729Y-13721674D02*
X13081729Y-13769293D01*
X13081729Y-13769293D02*
X13072205Y-13807388D01*
X13072205Y-13807388D02*
X13062682Y-13826436D01*
X13062682Y-13826436D02*
X13053158Y-13835960D01*
X13053158Y-13835960D02*
X13034110Y-13845484D01*
X13034110Y-13845484D02*
X13015062Y-13845484D01*
X13015062Y-13845484D02*
X12996015Y-13835960D01*
X12996015Y-13835960D02*
X12986491Y-13826436D01*
X12986491Y-13826436D02*
X12976967Y-13807388D01*
X12976967Y-13807388D02*
X12967443Y-13769293D01*
X12967443Y-13769293D02*
X12967443Y-13721674D01*
X12967443Y-13721674D02*
X12976967Y-13683579D01*
X12976967Y-13683579D02*
X12986491Y-13664531D01*
X12986491Y-13664531D02*
X12996015Y-13655008D01*
X12996015Y-13655008D02*
X13015062Y-13645484D01*
X13205539Y-13645484D02*
X13224586Y-13645484D01*
X13224586Y-13645484D02*
X13243634Y-13655008D01*
X13243634Y-13655008D02*
X13253158Y-13664531D01*
X13253158Y-13664531D02*
X13262682Y-13683579D01*
X13262682Y-13683579D02*
X13272205Y-13721674D01*
X13272205Y-13721674D02*
X13272205Y-13769293D01*
X13272205Y-13769293D02*
X13262682Y-13807388D01*
X13262682Y-13807388D02*
X13253158Y-13826436D01*
X13253158Y-13826436D02*
X13243634Y-13835960D01*
X13243634Y-13835960D02*
X13224586Y-13845484D01*
X13224586Y-13845484D02*
X13205539Y-13845484D01*
X13205539Y-13845484D02*
X13186491Y-13835960D01*
X13186491Y-13835960D02*
X13176967Y-13826436D01*
X13176967Y-13826436D02*
X13167443Y-13807388D01*
X13167443Y-13807388D02*
X13157920Y-13769293D01*
X13157920Y-13769293D02*
X13157920Y-13721674D01*
X13157920Y-13721674D02*
X13167443Y-13683579D01*
X13167443Y-13683579D02*
X13176967Y-13664531D01*
X13176967Y-13664531D02*
X13186491Y-13655008D01*
X13186491Y-13655008D02*
X13205539Y-13645484D01*
X13357920Y-13845484D02*
X13357920Y-13712150D01*
X13357920Y-13731198D02*
X13367443Y-13721674D01*
X13367443Y-13721674D02*
X13386491Y-13712150D01*
X13386491Y-13712150D02*
X13415063Y-13712150D01*
X13415063Y-13712150D02*
X13434110Y-13721674D01*
X13434110Y-13721674D02*
X13443634Y-13740722D01*
X13443634Y-13740722D02*
X13443634Y-13845484D01*
X13443634Y-13740722D02*
X13453158Y-13721674D01*
X13453158Y-13721674D02*
X13472205Y-13712150D01*
X13472205Y-13712150D02*
X13500777Y-13712150D01*
X13500777Y-13712150D02*
X13519824Y-13721674D01*
X13519824Y-13721674D02*
X13529348Y-13740722D01*
X13529348Y-13740722D02*
X13529348Y-13845484D01*
X13624586Y-13845484D02*
X13624586Y-13712150D01*
X13624586Y-13731198D02*
X13634110Y-13721674D01*
X13634110Y-13721674D02*
X13653158Y-13712150D01*
X13653158Y-13712150D02*
X13681729Y-13712150D01*
X13681729Y-13712150D02*
X13700777Y-13721674D01*
X13700777Y-13721674D02*
X13710301Y-13740722D01*
X13710301Y-13740722D02*
X13710301Y-13845484D01*
X13710301Y-13740722D02*
X13719824Y-13721674D01*
X13719824Y-13721674D02*
X13738872Y-13712150D01*
X13738872Y-13712150D02*
X13767443Y-13712150D01*
X13767443Y-13712150D02*
X13786491Y-13721674D01*
X13786491Y-13721674D02*
X13796015Y-13740722D01*
X13796015Y-13740722D02*
X13796015Y-13845484D01*
X14186491Y-13635960D02*
X14015063Y-13893103D01*
X14443634Y-13645484D02*
X14462682Y-13645484D01*
X14462682Y-13645484D02*
X14481729Y-13655008D01*
X14481729Y-13655008D02*
X14491253Y-13664531D01*
X14491253Y-13664531D02*
X14500777Y-13683579D01*
X14500777Y-13683579D02*
X14510301Y-13721674D01*
X14510301Y-13721674D02*
X14510301Y-13769293D01*
X14510301Y-13769293D02*
X14500777Y-13807388D01*
X14500777Y-13807388D02*
X14491253Y-13826436D01*
X14491253Y-13826436D02*
X14481729Y-13835960D01*
X14481729Y-13835960D02*
X14462682Y-13845484D01*
X14462682Y-13845484D02*
X14443634Y-13845484D01*
X14443634Y-13845484D02*
X14424586Y-13835960D01*
X14424586Y-13835960D02*
X14415063Y-13826436D01*
X14415063Y-13826436D02*
X14405539Y-13807388D01*
X14405539Y-13807388D02*
X14396015Y-13769293D01*
X14396015Y-13769293D02*
X14396015Y-13721674D01*
X14396015Y-13721674D02*
X14405539Y-13683579D01*
X14405539Y-13683579D02*
X14415063Y-13664531D01*
X14415063Y-13664531D02*
X14424586Y-13655008D01*
X14424586Y-13655008D02*
X14443634Y-13645484D01*
X14596015Y-13826436D02*
X14605539Y-13835960D01*
X14605539Y-13835960D02*
X14596015Y-13845484D01*
X14596015Y-13845484D02*
X14586491Y-13835960D01*
X14586491Y-13835960D02*
X14596015Y-13826436D01*
X14596015Y-13826436D02*
X14596015Y-13845484D01*
X14729348Y-13645484D02*
X14748396Y-13645484D01*
X14748396Y-13645484D02*
X14767444Y-13655008D01*
X14767444Y-13655008D02*
X14776967Y-13664531D01*
X14776967Y-13664531D02*
X14786491Y-13683579D01*
X14786491Y-13683579D02*
X14796015Y-13721674D01*
X14796015Y-13721674D02*
X14796015Y-13769293D01*
X14796015Y-13769293D02*
X14786491Y-13807388D01*
X14786491Y-13807388D02*
X14776967Y-13826436D01*
X14776967Y-13826436D02*
X14767444Y-13835960D01*
X14767444Y-13835960D02*
X14748396Y-13845484D01*
X14748396Y-13845484D02*
X14729348Y-13845484D01*
X14729348Y-13845484D02*
X14710301Y-13835960D01*
X14710301Y-13835960D02*
X14700777Y-13826436D01*
X14700777Y-13826436D02*
X14691253Y-13807388D01*
X14691253Y-13807388D02*
X14681729Y-13769293D01*
X14681729Y-13769293D02*
X14681729Y-13721674D01*
X14681729Y-13721674D02*
X14691253Y-13683579D01*
X14691253Y-13683579D02*
X14700777Y-13664531D01*
X14700777Y-13664531D02*
X14710301Y-13655008D01*
X14710301Y-13655008D02*
X14729348Y-13645484D01*
X14976967Y-13645484D02*
X14881729Y-13645484D01*
X14881729Y-13645484D02*
X14872206Y-13740722D01*
X14872206Y-13740722D02*
X14881729Y-13731198D01*
X14881729Y-13731198D02*
X14900777Y-13721674D01*
X14900777Y-13721674D02*
X14948396Y-13721674D01*
X14948396Y-13721674D02*
X14967444Y-13731198D01*
X14967444Y-13731198D02*
X14976967Y-13740722D01*
X14976967Y-13740722D02*
X14986491Y-13759769D01*
X14986491Y-13759769D02*
X14986491Y-13807388D01*
X14986491Y-13807388D02*
X14976967Y-13826436D01*
X14976967Y-13826436D02*
X14967444Y-13835960D01*
X14967444Y-13835960D02*
X14948396Y-13845484D01*
X14948396Y-13845484D02*
X14900777Y-13845484D01*
X14900777Y-13845484D02*
X14881729Y-13835960D01*
X14881729Y-13835960D02*
X14872206Y-13826436D01*
X15176967Y-13845484D02*
X15062682Y-13845484D01*
X15119825Y-13845484D02*
X15119825Y-13645484D01*
X15119825Y-13645484D02*
X15100777Y-13674055D01*
X15100777Y-13674055D02*
X15081729Y-13693103D01*
X15081729Y-13693103D02*
X15062682Y-13702627D01*
X15253158Y-13664531D02*
X15262682Y-13655008D01*
X15262682Y-13655008D02*
X15281729Y-13645484D01*
X15281729Y-13645484D02*
X15329348Y-13645484D01*
X15329348Y-13645484D02*
X15348396Y-13655008D01*
X15348396Y-13655008D02*
X15357920Y-13664531D01*
X15357920Y-13664531D02*
X15367444Y-13683579D01*
X15367444Y-13683579D02*
X15367444Y-13702627D01*
X15367444Y-13702627D02*
X15357920Y-13731198D01*
X15357920Y-13731198D02*
X15243634Y-13845484D01*
X15243634Y-13845484D02*
X15367444Y-13845484D01*
X15443634Y-13645484D02*
X15443634Y-13683579D01*
X15519825Y-13645484D02*
X15519825Y-13683579D01*
X15815063Y-13921674D02*
X15805539Y-13912150D01*
X15805539Y-13912150D02*
X15786491Y-13883579D01*
X15786491Y-13883579D02*
X15776968Y-13864531D01*
X15776968Y-13864531D02*
X15767444Y-13835960D01*
X15767444Y-13835960D02*
X15757920Y-13788341D01*
X15757920Y-13788341D02*
X15757920Y-13750246D01*
X15757920Y-13750246D02*
X15767444Y-13702627D01*
X15767444Y-13702627D02*
X15776968Y-13674055D01*
X15776968Y-13674055D02*
X15786491Y-13655008D01*
X15786491Y-13655008D02*
X15805539Y-13626436D01*
X15805539Y-13626436D02*
X15815063Y-13616912D01*
X15919825Y-13731198D02*
X15900777Y-13721674D01*
X15900777Y-13721674D02*
X15891253Y-13712150D01*
X15891253Y-13712150D02*
X15881729Y-13693103D01*
X15881729Y-13693103D02*
X15881729Y-13683579D01*
X15881729Y-13683579D02*
X15891253Y-13664531D01*
X15891253Y-13664531D02*
X15900777Y-13655008D01*
X15900777Y-13655008D02*
X15919825Y-13645484D01*
X15919825Y-13645484D02*
X15957920Y-13645484D01*
X15957920Y-13645484D02*
X15976968Y-13655008D01*
X15976968Y-13655008D02*
X15986491Y-13664531D01*
X15986491Y-13664531D02*
X15996015Y-13683579D01*
X15996015Y-13683579D02*
X15996015Y-13693103D01*
X15996015Y-13693103D02*
X15986491Y-13712150D01*
X15986491Y-13712150D02*
X15976968Y-13721674D01*
X15976968Y-13721674D02*
X15957920Y-13731198D01*
X15957920Y-13731198D02*
X15919825Y-13731198D01*
X15919825Y-13731198D02*
X15900777Y-13740722D01*
X15900777Y-13740722D02*
X15891253Y-13750246D01*
X15891253Y-13750246D02*
X15881729Y-13769293D01*
X15881729Y-13769293D02*
X15881729Y-13807388D01*
X15881729Y-13807388D02*
X15891253Y-13826436D01*
X15891253Y-13826436D02*
X15900777Y-13835960D01*
X15900777Y-13835960D02*
X15919825Y-13845484D01*
X15919825Y-13845484D02*
X15957920Y-13845484D01*
X15957920Y-13845484D02*
X15976968Y-13835960D01*
X15976968Y-13835960D02*
X15986491Y-13826436D01*
X15986491Y-13826436D02*
X15996015Y-13807388D01*
X15996015Y-13807388D02*
X15996015Y-13769293D01*
X15996015Y-13769293D02*
X15986491Y-13750246D01*
X15986491Y-13750246D02*
X15976968Y-13740722D01*
X15976968Y-13740722D02*
X15957920Y-13731198D01*
X16234110Y-13845484D02*
X16234110Y-13645484D01*
X16319825Y-13845484D02*
X16319825Y-13740722D01*
X16319825Y-13740722D02*
X16310301Y-13721674D01*
X16310301Y-13721674D02*
X16291253Y-13712150D01*
X16291253Y-13712150D02*
X16262682Y-13712150D01*
X16262682Y-13712150D02*
X16243634Y-13721674D01*
X16243634Y-13721674D02*
X16234110Y-13731198D01*
X16443634Y-13845484D02*
X16424587Y-13835960D01*
X16424587Y-13835960D02*
X16415063Y-13826436D01*
X16415063Y-13826436D02*
X16405539Y-13807388D01*
X16405539Y-13807388D02*
X16405539Y-13750246D01*
X16405539Y-13750246D02*
X16415063Y-13731198D01*
X16415063Y-13731198D02*
X16424587Y-13721674D01*
X16424587Y-13721674D02*
X16443634Y-13712150D01*
X16443634Y-13712150D02*
X16472206Y-13712150D01*
X16472206Y-13712150D02*
X16491253Y-13721674D01*
X16491253Y-13721674D02*
X16500777Y-13731198D01*
X16500777Y-13731198D02*
X16510301Y-13750246D01*
X16510301Y-13750246D02*
X16510301Y-13807388D01*
X16510301Y-13807388D02*
X16500777Y-13826436D01*
X16500777Y-13826436D02*
X16491253Y-13835960D01*
X16491253Y-13835960D02*
X16472206Y-13845484D01*
X16472206Y-13845484D02*
X16443634Y-13845484D01*
X16624587Y-13845484D02*
X16605539Y-13835960D01*
X16605539Y-13835960D02*
X16596015Y-13816912D01*
X16596015Y-13816912D02*
X16596015Y-13645484D01*
X16776968Y-13835960D02*
X16757920Y-13845484D01*
X16757920Y-13845484D02*
X16719825Y-13845484D01*
X16719825Y-13845484D02*
X16700777Y-13835960D01*
X16700777Y-13835960D02*
X16691253Y-13816912D01*
X16691253Y-13816912D02*
X16691253Y-13740722D01*
X16691253Y-13740722D02*
X16700777Y-13721674D01*
X16700777Y-13721674D02*
X16719825Y-13712150D01*
X16719825Y-13712150D02*
X16757920Y-13712150D01*
X16757920Y-13712150D02*
X16776968Y-13721674D01*
X16776968Y-13721674D02*
X16786492Y-13740722D01*
X16786492Y-13740722D02*
X16786492Y-13759769D01*
X16786492Y-13759769D02*
X16691253Y-13778817D01*
X16862682Y-13835960D02*
X16881730Y-13845484D01*
X16881730Y-13845484D02*
X16919825Y-13845484D01*
X16919825Y-13845484D02*
X16938873Y-13835960D01*
X16938873Y-13835960D02*
X16948396Y-13816912D01*
X16948396Y-13816912D02*
X16948396Y-13807388D01*
X16948396Y-13807388D02*
X16938873Y-13788341D01*
X16938873Y-13788341D02*
X16919825Y-13778817D01*
X16919825Y-13778817D02*
X16891253Y-13778817D01*
X16891253Y-13778817D02*
X16872206Y-13769293D01*
X16872206Y-13769293D02*
X16862682Y-13750246D01*
X16862682Y-13750246D02*
X16862682Y-13740722D01*
X16862682Y-13740722D02*
X16872206Y-13721674D01*
X16872206Y-13721674D02*
X16891253Y-13712150D01*
X16891253Y-13712150D02*
X16919825Y-13712150D01*
X16919825Y-13712150D02*
X16938873Y-13721674D01*
X17015063Y-13921674D02*
X17024587Y-13912150D01*
X17024587Y-13912150D02*
X17043634Y-13883579D01*
X17043634Y-13883579D02*
X17053158Y-13864531D01*
X17053158Y-13864531D02*
X17062682Y-13835960D01*
X17062682Y-13835960D02*
X17072206Y-13788341D01*
X17072206Y-13788341D02*
X17072206Y-13750246D01*
X17072206Y-13750246D02*
X17062682Y-13702627D01*
X17062682Y-13702627D02*
X17053158Y-13674055D01*
X17053158Y-13674055D02*
X17043634Y-13655008D01*
X17043634Y-13655008D02*
X17024587Y-13626436D01*
X17024587Y-13626436D02*
X17015063Y-13616912D01*
M02*
