%TF.GenerationSoftware,KiCad,Pcbnew,10.0.3-1.fc43*%
%TF.CreationDate,2026-05-27T22:45:46+02:00*%
%TF.ProjectId,robot,726f626f-742e-46b6-9963-61645f706362,rev?*%
%TF.SameCoordinates,Original*%
%TF.FileFunction,Legend,Bot*%
%TF.FilePolarity,Positive*%
%FSLAX46Y46*%
G04 Gerber Fmt 4.6, Leading zero omitted, Abs format (unit mm)*
G04 Created by KiCad (PCBNEW 10.0.3-1.fc43) date 2026-05-27 22:45:46*
%MOMM*%
%LPD*%
G01*
G04 APERTURE LIST*
%ADD10C,0.080000*%
%ADD11C,0.203200*%
%ADD12C,0.127000*%
G04 APERTURE END LIST*
D10*
X244240226Y-101348515D02*
X244049749Y-101348515D01*
X244049749Y-101348515D02*
X243859273Y-101396134D01*
X243859273Y-101396134D02*
X243764035Y-101443753D01*
X243764035Y-101443753D02*
X243668797Y-101538991D01*
X243668797Y-101538991D02*
X243573559Y-101729467D01*
X243573559Y-101729467D02*
X243573559Y-101967562D01*
X243573559Y-101967562D02*
X243668797Y-102158038D01*
X243668797Y-102158038D02*
X243764035Y-102253276D01*
X243764035Y-102253276D02*
X243859273Y-102300896D01*
X243859273Y-102300896D02*
X244049749Y-102348515D01*
X244049749Y-102348515D02*
X244240226Y-102348515D01*
X244240226Y-102348515D02*
X244430702Y-102300896D01*
X244430702Y-102300896D02*
X244525940Y-102253276D01*
X244525940Y-102253276D02*
X244621178Y-102158038D01*
X244621178Y-102158038D02*
X244716416Y-101967562D01*
X244716416Y-101967562D02*
X244716416Y-101729467D01*
X244716416Y-101729467D02*
X244621178Y-101538991D01*
X244621178Y-101538991D02*
X244525940Y-101443753D01*
X244525940Y-101443753D02*
X244430702Y-101396134D01*
X244430702Y-101396134D02*
X244240226Y-101348515D01*
X241764035Y-101348515D02*
X242716416Y-101348515D01*
X242716416Y-101348515D02*
X242811654Y-101824705D01*
X242811654Y-101824705D02*
X242716416Y-101777086D01*
X242716416Y-101777086D02*
X242525940Y-101729467D01*
X242525940Y-101729467D02*
X242049749Y-101729467D01*
X242049749Y-101729467D02*
X241859273Y-101777086D01*
X241859273Y-101777086D02*
X241764035Y-101824705D01*
X241764035Y-101824705D02*
X241668797Y-101919943D01*
X241668797Y-101919943D02*
X241668797Y-102158038D01*
X241668797Y-102158038D02*
X241764035Y-102253276D01*
X241764035Y-102253276D02*
X241859273Y-102300896D01*
X241859273Y-102300896D02*
X242049749Y-102348515D01*
X242049749Y-102348515D02*
X242525940Y-102348515D01*
X242525940Y-102348515D02*
X242716416Y-102300896D01*
X242716416Y-102300896D02*
X242811654Y-102253276D01*
X239383083Y-101300896D02*
X241097368Y-102586610D01*
X238811654Y-101443753D02*
X238716416Y-101396134D01*
X238716416Y-101396134D02*
X238525940Y-101348515D01*
X238525940Y-101348515D02*
X238049749Y-101348515D01*
X238049749Y-101348515D02*
X237859273Y-101396134D01*
X237859273Y-101396134D02*
X237764035Y-101443753D01*
X237764035Y-101443753D02*
X237668797Y-101538991D01*
X237668797Y-101538991D02*
X237668797Y-101634229D01*
X237668797Y-101634229D02*
X237764035Y-101777086D01*
X237764035Y-101777086D02*
X238906892Y-102348515D01*
X238906892Y-102348515D02*
X237668797Y-102348515D01*
X235954511Y-101348515D02*
X236335464Y-101348515D01*
X236335464Y-101348515D02*
X236525940Y-101396134D01*
X236525940Y-101396134D02*
X236621178Y-101443753D01*
X236621178Y-101443753D02*
X236811654Y-101586610D01*
X236811654Y-101586610D02*
X236906892Y-101777086D01*
X236906892Y-101777086D02*
X236906892Y-102158038D01*
X236906892Y-102158038D02*
X236811654Y-102253276D01*
X236811654Y-102253276D02*
X236716416Y-102300896D01*
X236716416Y-102300896D02*
X236525940Y-102348515D01*
X236525940Y-102348515D02*
X236144987Y-102348515D01*
X236144987Y-102348515D02*
X235954511Y-102300896D01*
X235954511Y-102300896D02*
X235859273Y-102253276D01*
X235859273Y-102253276D02*
X235764035Y-102158038D01*
X235764035Y-102158038D02*
X235764035Y-101919943D01*
X235764035Y-101919943D02*
X235859273Y-101824705D01*
X235859273Y-101824705D02*
X235954511Y-101777086D01*
X235954511Y-101777086D02*
X236144987Y-101729467D01*
X236144987Y-101729467D02*
X236525940Y-101729467D01*
X236525940Y-101729467D02*
X236716416Y-101777086D01*
X236716416Y-101777086D02*
X236811654Y-101824705D01*
X236811654Y-101824705D02*
X236906892Y-101919943D01*
X244906892Y-102958459D02*
X243764035Y-102958459D01*
X244335464Y-103958459D02*
X244335464Y-102958459D01*
X243097368Y-103958459D02*
X243097368Y-102958459D01*
X242240225Y-103958459D02*
X242240225Y-103434649D01*
X242240225Y-103434649D02*
X242335463Y-103339411D01*
X242335463Y-103339411D02*
X242525939Y-103291792D01*
X242525939Y-103291792D02*
X242811654Y-103291792D01*
X242811654Y-103291792D02*
X243002130Y-103339411D01*
X243002130Y-103339411D02*
X243097368Y-103387030D01*
X241002130Y-103958459D02*
X241192606Y-103910840D01*
X241192606Y-103910840D02*
X241287844Y-103863220D01*
X241287844Y-103863220D02*
X241383082Y-103767982D01*
X241383082Y-103767982D02*
X241383082Y-103482268D01*
X241383082Y-103482268D02*
X241287844Y-103387030D01*
X241287844Y-103387030D02*
X241192606Y-103339411D01*
X241192606Y-103339411D02*
X241002130Y-103291792D01*
X241002130Y-103291792D02*
X240716415Y-103291792D01*
X240716415Y-103291792D02*
X240525939Y-103339411D01*
X240525939Y-103339411D02*
X240430701Y-103387030D01*
X240430701Y-103387030D02*
X240335463Y-103482268D01*
X240335463Y-103482268D02*
X240335463Y-103767982D01*
X240335463Y-103767982D02*
X240430701Y-103863220D01*
X240430701Y-103863220D02*
X240525939Y-103910840D01*
X240525939Y-103910840D02*
X240716415Y-103958459D01*
X240716415Y-103958459D02*
X241002130Y-103958459D01*
X239478320Y-103958459D02*
X239478320Y-103291792D01*
X239478320Y-103387030D02*
X239383082Y-103339411D01*
X239383082Y-103339411D02*
X239192606Y-103291792D01*
X239192606Y-103291792D02*
X238906891Y-103291792D01*
X238906891Y-103291792D02*
X238716415Y-103339411D01*
X238716415Y-103339411D02*
X238621177Y-103434649D01*
X238621177Y-103434649D02*
X238621177Y-103958459D01*
X238621177Y-103434649D02*
X238525939Y-103339411D01*
X238525939Y-103339411D02*
X238335463Y-103291792D01*
X238335463Y-103291792D02*
X238049749Y-103291792D01*
X238049749Y-103291792D02*
X237859272Y-103339411D01*
X237859272Y-103339411D02*
X237764034Y-103434649D01*
X237764034Y-103434649D02*
X237764034Y-103958459D01*
X235954510Y-103958459D02*
X235954510Y-103434649D01*
X235954510Y-103434649D02*
X236049748Y-103339411D01*
X236049748Y-103339411D02*
X236240224Y-103291792D01*
X236240224Y-103291792D02*
X236621177Y-103291792D01*
X236621177Y-103291792D02*
X236811653Y-103339411D01*
X235954510Y-103910840D02*
X236144986Y-103958459D01*
X236144986Y-103958459D02*
X236621177Y-103958459D01*
X236621177Y-103958459D02*
X236811653Y-103910840D01*
X236811653Y-103910840D02*
X236906891Y-103815601D01*
X236906891Y-103815601D02*
X236906891Y-103720363D01*
X236906891Y-103720363D02*
X236811653Y-103625125D01*
X236811653Y-103625125D02*
X236621177Y-103577506D01*
X236621177Y-103577506D02*
X236144986Y-103577506D01*
X236144986Y-103577506D02*
X235954510Y-103529887D01*
X235097367Y-103910840D02*
X234906891Y-103958459D01*
X234906891Y-103958459D02*
X234525939Y-103958459D01*
X234525939Y-103958459D02*
X234335462Y-103910840D01*
X234335462Y-103910840D02*
X234240224Y-103815601D01*
X234240224Y-103815601D02*
X234240224Y-103767982D01*
X234240224Y-103767982D02*
X234335462Y-103672744D01*
X234335462Y-103672744D02*
X234525939Y-103625125D01*
X234525939Y-103625125D02*
X234811653Y-103625125D01*
X234811653Y-103625125D02*
X235002129Y-103577506D01*
X235002129Y-103577506D02*
X235097367Y-103482268D01*
X235097367Y-103482268D02*
X235097367Y-103434649D01*
X235097367Y-103434649D02*
X235002129Y-103339411D01*
X235002129Y-103339411D02*
X234811653Y-103291792D01*
X234811653Y-103291792D02*
X234525939Y-103291792D01*
X234525939Y-103291792D02*
X234335462Y-103339411D01*
X231859271Y-103958459D02*
X231859271Y-102958459D01*
X231859271Y-102958459D02*
X231192604Y-103672744D01*
X231192604Y-103672744D02*
X230525938Y-102958459D01*
X230525938Y-102958459D02*
X230525938Y-103958459D01*
X229287843Y-103958459D02*
X229478319Y-103910840D01*
X229478319Y-103910840D02*
X229573557Y-103863220D01*
X229573557Y-103863220D02*
X229668795Y-103767982D01*
X229668795Y-103767982D02*
X229668795Y-103482268D01*
X229668795Y-103482268D02*
X229573557Y-103387030D01*
X229573557Y-103387030D02*
X229478319Y-103339411D01*
X229478319Y-103339411D02*
X229287843Y-103291792D01*
X229287843Y-103291792D02*
X229002128Y-103291792D01*
X229002128Y-103291792D02*
X228811652Y-103339411D01*
X228811652Y-103339411D02*
X228716414Y-103387030D01*
X228716414Y-103387030D02*
X228621176Y-103482268D01*
X228621176Y-103482268D02*
X228621176Y-103767982D01*
X228621176Y-103767982D02*
X228716414Y-103863220D01*
X228716414Y-103863220D02*
X228811652Y-103910840D01*
X228811652Y-103910840D02*
X229002128Y-103958459D01*
X229002128Y-103958459D02*
X229287843Y-103958459D01*
X227764033Y-103958459D02*
X227764033Y-103291792D01*
X227764033Y-103482268D02*
X227668795Y-103387030D01*
X227668795Y-103387030D02*
X227573557Y-103339411D01*
X227573557Y-103339411D02*
X227383081Y-103291792D01*
X227383081Y-103291792D02*
X227192604Y-103291792D01*
X225764033Y-103910840D02*
X225954509Y-103958459D01*
X225954509Y-103958459D02*
X226335462Y-103958459D01*
X226335462Y-103958459D02*
X226525938Y-103910840D01*
X226525938Y-103910840D02*
X226621176Y-103815601D01*
X226621176Y-103815601D02*
X226621176Y-103434649D01*
X226621176Y-103434649D02*
X226525938Y-103339411D01*
X226525938Y-103339411D02*
X226335462Y-103291792D01*
X226335462Y-103291792D02*
X225954509Y-103291792D01*
X225954509Y-103291792D02*
X225764033Y-103339411D01*
X225764033Y-103339411D02*
X225668795Y-103434649D01*
X225668795Y-103434649D02*
X225668795Y-103529887D01*
X225668795Y-103529887D02*
X226621176Y-103625125D01*
X223287842Y-103958459D02*
X223287842Y-102958459D01*
X221954509Y-102958459D02*
X221573556Y-102958459D01*
X221573556Y-102958459D02*
X221383080Y-103006078D01*
X221383080Y-103006078D02*
X221192604Y-103101316D01*
X221192604Y-103101316D02*
X221097366Y-103291792D01*
X221097366Y-103291792D02*
X221097366Y-103625125D01*
X221097366Y-103625125D02*
X221192604Y-103815601D01*
X221192604Y-103815601D02*
X221383080Y-103910840D01*
X221383080Y-103910840D02*
X221573556Y-103958459D01*
X221573556Y-103958459D02*
X221954509Y-103958459D01*
X221954509Y-103958459D02*
X222144985Y-103910840D01*
X222144985Y-103910840D02*
X222335461Y-103815601D01*
X222335461Y-103815601D02*
X222430699Y-103625125D01*
X222430699Y-103625125D02*
X222430699Y-103291792D01*
X222430699Y-103291792D02*
X222335461Y-103101316D01*
X222335461Y-103101316D02*
X222144985Y-103006078D01*
X222144985Y-103006078D02*
X221954509Y-102958459D01*
X220525937Y-102958459D02*
X219383080Y-102958459D01*
X219954509Y-103958459D02*
X219954509Y-102958459D01*
X244621178Y-105568403D02*
X244621178Y-104568403D01*
X244621178Y-104568403D02*
X243954511Y-105282688D01*
X243954511Y-105282688D02*
X243287845Y-104568403D01*
X243287845Y-104568403D02*
X243287845Y-105568403D01*
X241478321Y-105568403D02*
X241478321Y-105044593D01*
X241478321Y-105044593D02*
X241573559Y-104949355D01*
X241573559Y-104949355D02*
X241764035Y-104901736D01*
X241764035Y-104901736D02*
X242144988Y-104901736D01*
X242144988Y-104901736D02*
X242335464Y-104949355D01*
X241478321Y-105520784D02*
X241668797Y-105568403D01*
X241668797Y-105568403D02*
X242144988Y-105568403D01*
X242144988Y-105568403D02*
X242335464Y-105520784D01*
X242335464Y-105520784D02*
X242430702Y-105425545D01*
X242430702Y-105425545D02*
X242430702Y-105330307D01*
X242430702Y-105330307D02*
X242335464Y-105235069D01*
X242335464Y-105235069D02*
X242144988Y-105187450D01*
X242144988Y-105187450D02*
X241668797Y-105187450D01*
X241668797Y-105187450D02*
X241478321Y-105139831D01*
X240240226Y-105568403D02*
X240430702Y-105520784D01*
X240430702Y-105520784D02*
X240525940Y-105425545D01*
X240525940Y-105425545D02*
X240525940Y-104568403D01*
X239478321Y-105568403D02*
X239478321Y-104901736D01*
X239478321Y-104568403D02*
X239573559Y-104616022D01*
X239573559Y-104616022D02*
X239478321Y-104663641D01*
X239478321Y-104663641D02*
X239383083Y-104616022D01*
X239383083Y-104616022D02*
X239478321Y-104568403D01*
X239478321Y-104568403D02*
X239478321Y-104663641D01*
X238525940Y-105568403D02*
X238525940Y-104568403D01*
X238335464Y-105187450D02*
X237764035Y-105568403D01*
X237764035Y-104901736D02*
X238525940Y-105282688D01*
X234716415Y-105044593D02*
X234430701Y-105092212D01*
X234430701Y-105092212D02*
X234335463Y-105139831D01*
X234335463Y-105139831D02*
X234240225Y-105235069D01*
X234240225Y-105235069D02*
X234240225Y-105377926D01*
X234240225Y-105377926D02*
X234335463Y-105473164D01*
X234335463Y-105473164D02*
X234430701Y-105520784D01*
X234430701Y-105520784D02*
X234621177Y-105568403D01*
X234621177Y-105568403D02*
X235383082Y-105568403D01*
X235383082Y-105568403D02*
X235383082Y-104568403D01*
X235383082Y-104568403D02*
X234716415Y-104568403D01*
X234716415Y-104568403D02*
X234525939Y-104616022D01*
X234525939Y-104616022D02*
X234430701Y-104663641D01*
X234430701Y-104663641D02*
X234335463Y-104758879D01*
X234335463Y-104758879D02*
X234335463Y-104854117D01*
X234335463Y-104854117D02*
X234430701Y-104949355D01*
X234430701Y-104949355D02*
X234525939Y-104996974D01*
X234525939Y-104996974D02*
X234716415Y-105044593D01*
X234716415Y-105044593D02*
X235383082Y-105044593D01*
X230430701Y-104520784D02*
X232144986Y-105806498D01*
X228525938Y-104568403D02*
X227859272Y-105568403D01*
X227859272Y-105568403D02*
X227192605Y-104568403D01*
X226240224Y-105568403D02*
X226430700Y-105520784D01*
X226430700Y-105520784D02*
X226525938Y-105425545D01*
X226525938Y-105425545D02*
X226525938Y-104568403D01*
X224621176Y-105568403D02*
X224621176Y-105044593D01*
X224621176Y-105044593D02*
X224716414Y-104949355D01*
X224716414Y-104949355D02*
X224906890Y-104901736D01*
X224906890Y-104901736D02*
X225287843Y-104901736D01*
X225287843Y-104901736D02*
X225478319Y-104949355D01*
X224621176Y-105520784D02*
X224811652Y-105568403D01*
X224811652Y-105568403D02*
X225287843Y-105568403D01*
X225287843Y-105568403D02*
X225478319Y-105520784D01*
X225478319Y-105520784D02*
X225573557Y-105425545D01*
X225573557Y-105425545D02*
X225573557Y-105330307D01*
X225573557Y-105330307D02*
X225478319Y-105235069D01*
X225478319Y-105235069D02*
X225287843Y-105187450D01*
X225287843Y-105187450D02*
X224811652Y-105187450D01*
X224811652Y-105187450D02*
X224621176Y-105139831D01*
X222811652Y-105568403D02*
X222811652Y-104568403D01*
X222811652Y-105520784D02*
X223002128Y-105568403D01*
X223002128Y-105568403D02*
X223383081Y-105568403D01*
X223383081Y-105568403D02*
X223573557Y-105520784D01*
X223573557Y-105520784D02*
X223668795Y-105473164D01*
X223668795Y-105473164D02*
X223764033Y-105377926D01*
X223764033Y-105377926D02*
X223764033Y-105092212D01*
X223764033Y-105092212D02*
X223668795Y-104996974D01*
X223668795Y-104996974D02*
X223573557Y-104949355D01*
X223573557Y-104949355D02*
X223383081Y-104901736D01*
X223383081Y-104901736D02*
X223002128Y-104901736D01*
X223002128Y-104901736D02*
X222811652Y-104949355D01*
X221859271Y-105568403D02*
X221859271Y-104901736D01*
X221859271Y-104568403D02*
X221954509Y-104616022D01*
X221954509Y-104616022D02*
X221859271Y-104663641D01*
X221859271Y-104663641D02*
X221764033Y-104616022D01*
X221764033Y-104616022D02*
X221859271Y-104568403D01*
X221859271Y-104568403D02*
X221859271Y-104663641D01*
X221002128Y-105520784D02*
X220811652Y-105568403D01*
X220811652Y-105568403D02*
X220430700Y-105568403D01*
X220430700Y-105568403D02*
X220240223Y-105520784D01*
X220240223Y-105520784D02*
X220144985Y-105425545D01*
X220144985Y-105425545D02*
X220144985Y-105377926D01*
X220144985Y-105377926D02*
X220240223Y-105282688D01*
X220240223Y-105282688D02*
X220430700Y-105235069D01*
X220430700Y-105235069D02*
X220716414Y-105235069D01*
X220716414Y-105235069D02*
X220906890Y-105187450D01*
X220906890Y-105187450D02*
X221002128Y-105092212D01*
X221002128Y-105092212D02*
X221002128Y-105044593D01*
X221002128Y-105044593D02*
X220906890Y-104949355D01*
X220906890Y-104949355D02*
X220716414Y-104901736D01*
X220716414Y-104901736D02*
X220430700Y-104901736D01*
X220430700Y-104901736D02*
X220240223Y-104949355D01*
X219002128Y-105568403D02*
X219192604Y-105520784D01*
X219192604Y-105520784D02*
X219287842Y-105425545D01*
X219287842Y-105425545D02*
X219287842Y-104568403D01*
X217383080Y-105568403D02*
X217383080Y-105044593D01*
X217383080Y-105044593D02*
X217478318Y-104949355D01*
X217478318Y-104949355D02*
X217668794Y-104901736D01*
X217668794Y-104901736D02*
X218049747Y-104901736D01*
X218049747Y-104901736D02*
X218240223Y-104949355D01*
X217383080Y-105520784D02*
X217573556Y-105568403D01*
X217573556Y-105568403D02*
X218049747Y-105568403D01*
X218049747Y-105568403D02*
X218240223Y-105520784D01*
X218240223Y-105520784D02*
X218335461Y-105425545D01*
X218335461Y-105425545D02*
X218335461Y-105330307D01*
X218335461Y-105330307D02*
X218240223Y-105235069D01*
X218240223Y-105235069D02*
X218049747Y-105187450D01*
X218049747Y-105187450D02*
X217573556Y-105187450D01*
X217573556Y-105187450D02*
X217383080Y-105139831D01*
X216621175Y-104901736D02*
X216144985Y-105568403D01*
X216144985Y-105568403D02*
X215668794Y-104901736D01*
X213668793Y-104568403D02*
X213002127Y-105568403D01*
X213002127Y-105568403D02*
X212335460Y-104568403D01*
%TO.C,J3*%
D11*
X137742100Y-74990000D02*
X137742100Y-82610000D01*
D12*
X133093900Y-77022000D02*
X132077900Y-77022000D01*
X132585900Y-76514000D02*
X132585900Y-77530000D01*
D11*
X131392100Y-82610000D02*
X137742100Y-82610000D01*
X131392100Y-82000400D02*
X131392100Y-82610000D01*
X131392100Y-74990000D02*
X137742100Y-74990000D01*
X131392100Y-74990000D02*
X131392100Y-75599600D01*
D12*
X127759900Y-76768000D02*
X128775900Y-76768000D01*
D11*
X124457900Y-82000400D02*
X131392100Y-82000400D01*
X124457900Y-75599600D02*
X131392100Y-75599600D01*
X124457900Y-75599600D02*
X124457900Y-82000400D01*
%TD*%
M02*
