%TF.GenerationSoftware,KiCad,Pcbnew,10.0.2-1.fc43*%
%TF.CreationDate,2026-05-25T12:28:04+02:00*%
%TF.ProjectId,robot,726f626f-742e-46b6-9963-61645f706362,rev?*%
%TF.SameCoordinates,Original*%
%TF.FileFunction,Copper,L4,Bot*%
%TF.FilePolarity,Positive*%
%FSLAX46Y46*%
G04 Gerber Fmt 4.6, Leading zero omitted, Abs format (unit mm)*
G04 Created by KiCad (PCBNEW 10.0.2-1.fc43) date 2026-05-25 12:28:04*
%MOMM*%
%LPD*%
G01*
G04 APERTURE LIST*
G04 Aperture macros list*
%AMRoundRect*
0 Rectangle with rounded corners*
0 $1 Rounding radius*
0 $2 $3 $4 $5 $6 $7 $8 $9 X,Y pos of 4 corners*
0 Add a 4 corners polygon primitive as box body*
4,1,4,$2,$3,$4,$5,$6,$7,$8,$9,$2,$3,0*
0 Add four circle primitives for the rounded corners*
1,1,$1+$1,$2,$3*
1,1,$1+$1,$4,$5*
1,1,$1+$1,$6,$7*
1,1,$1+$1,$8,$9*
0 Add four rect primitives between the rounded corners*
20,1,$1+$1,$2,$3,$4,$5,0*
20,1,$1+$1,$4,$5,$6,$7,0*
20,1,$1+$1,$6,$7,$8,$9,0*
20,1,$1+$1,$8,$9,$2,$3,0*%
G04 Aperture macros list end*
%TA.AperFunction,ComponentPad*%
%ADD10R,1.700000X1.700000*%
%TD*%
%TA.AperFunction,ComponentPad*%
%ADD11C,1.700000*%
%TD*%
%TA.AperFunction,ComponentPad*%
%ADD12O,1.000000X2.100000*%
%TD*%
%TA.AperFunction,ComponentPad*%
%ADD13O,1.000000X1.600000*%
%TD*%
%TA.AperFunction,ComponentPad*%
%ADD14O,3.556000X7.112000*%
%TD*%
%TA.AperFunction,ComponentPad*%
%ADD15O,7.112000X3.556000*%
%TD*%
%TA.AperFunction,ComponentPad*%
%ADD16RoundRect,0.250000X1.050000X1.050000X-1.050000X1.050000X-1.050000X-1.050000X1.050000X-1.050000X0*%
%TD*%
%TA.AperFunction,ComponentPad*%
%ADD17C,2.600000*%
%TD*%
%TA.AperFunction,ComponentPad*%
%ADD18RoundRect,0.250000X-0.725000X0.600000X-0.725000X-0.600000X0.725000X-0.600000X0.725000X0.600000X0*%
%TD*%
%TA.AperFunction,ComponentPad*%
%ADD19O,1.950000X1.700000*%
%TD*%
%TA.AperFunction,ViaPad*%
%ADD20C,0.600000*%
%TD*%
%TA.AperFunction,ViaPad*%
%ADD21C,0.500000*%
%TD*%
%TA.AperFunction,ViaPad*%
%ADD22C,0.700000*%
%TD*%
%TA.AperFunction,Conductor*%
%ADD23C,0.250000*%
%TD*%
%TA.AperFunction,Conductor*%
%ADD24C,0.200000*%
%TD*%
%TA.AperFunction,Conductor*%
%ADD25C,0.800000*%
%TD*%
%TA.AperFunction,Conductor*%
%ADD26C,0.300000*%
%TD*%
G04 APERTURE END LIST*
D10*
%TO.P,J10,1,Pin_1_1*%
%TO.N,+5V*%
X187140000Y-58570000D03*
D11*
%TO.P,J10,2,Pin_2_2*%
%TO.N,GND*%
X189680000Y-58570000D03*
%TD*%
D10*
%TO.P,J5,1,Pin_1_1*%
%TO.N,+3.3V*%
X193985218Y-58557242D03*
D11*
%TO.P,J5,2,Pin_2_2*%
%TO.N,GND*%
X196525218Y-58557242D03*
%TD*%
D12*
%TO.P,J1,SH,SHIELD_SH*%
%TO.N,unconnected-(J1-SHIELD-PadSH)*%
X183880000Y-109530000D03*
D13*
%TO.N,unconnected-(J1-SHIELD-PadSH)_1*%
X183880000Y-113710000D03*
D12*
%TO.N,unconnected-(J1-SHIELD-PadSH)_3*%
X192520000Y-109530000D03*
D13*
%TO.N,unconnected-(J1-SHIELD-PadSH)_2*%
X192520000Y-113710000D03*
%TD*%
D14*
%TO.P,J3,1,Pin_1_1*%
%TO.N,GND*%
X135379900Y-78800000D03*
D15*
%TO.P,J3,2,Pin_2_2*%
%TO.N,+BATT*%
X128458400Y-79536600D03*
%TD*%
D10*
%TO.P,J9,1,Pin_1_1*%
%TO.N,GND*%
X125900000Y-105640000D03*
D11*
%TO.P,J9,2,Pin_2_2*%
%TO.N,/ESP32-C6-mini/NEAR*%
X125900000Y-103100000D03*
%TO.P,J9,3,Pin_3_3*%
%TO.N,/ESP32-C6-mini/CLP*%
X125900000Y-100560000D03*
%TO.P,J9,4,Pin_4_4*%
%TO.N,/ESP32-C6-mini/S5*%
X125900000Y-98020000D03*
%TO.P,J9,5,Pin_5_5*%
%TO.N,/ESP32-C6-mini/S4*%
X125900000Y-95480000D03*
%TO.P,J9,6,Pin_6_6*%
%TO.N,/ESP32-C6-mini/S3*%
X125900000Y-92940000D03*
%TO.P,J9,7,Pin_7_7*%
%TO.N,/ESP32-C6-mini/S2*%
X125900000Y-90400000D03*
%TO.P,J9,8,Pin_8_8*%
%TO.N,/ESP32-C6-mini/S1*%
X125900000Y-87860000D03*
%TO.P,J9,9,Pin_9_9*%
%TO.N,+3.3V*%
X125900000Y-85320000D03*
%TD*%
D16*
%TO.P,J4,1,Pin_1_1*%
%TO.N,/ESP32-C6-mini/F_AOUT1*%
X180780300Y-61900000D03*
D17*
%TO.P,J4,2,Pin_2_2*%
%TO.N,/ESP32-C6-mini/F_AOUT2*%
X175700300Y-61900000D03*
%TO.P,J4,3,Pin_3_3*%
%TO.N,/ESP32-C6-mini/F_BOUT1*%
X170620300Y-61900000D03*
%TO.P,J4,4,Pin_4_4*%
%TO.N,/ESP32-C6-mini/F_BOUT2*%
X165540300Y-61900000D03*
%TD*%
D16*
%TO.P,J6,1,Pin_1_1*%
%TO.N,/ESP32-C6-mini/B_AOUT1*%
X157410000Y-61900000D03*
D17*
%TO.P,J6,2,Pin_2_2*%
%TO.N,/ESP32-C6-mini/B_AOUT2*%
X152330000Y-61900000D03*
%TO.P,J6,3,Pin_3_3*%
%TO.N,/ESP32-C6-mini/B_BOUT1*%
X147250000Y-61900000D03*
%TO.P,J6,4,Pin_4_4*%
%TO.N,/ESP32-C6-mini/B_BOUT2*%
X142170000Y-61900000D03*
%TD*%
D10*
%TO.P,J8,1,Pin_1_1*%
%TO.N,+3.3V*%
X251300000Y-91410000D03*
D11*
%TO.P,J8,2,Pin_2_2*%
%TO.N,/ESP32-C6-mini/SDA*%
X251300000Y-88870000D03*
%TO.P,J8,3,Pin_3_3*%
%TO.N,/ESP32-C6-mini/SCL*%
X251300000Y-86330000D03*
%TO.P,J8,4,Pin_4_4*%
%TO.N,GND*%
X251300000Y-83790000D03*
%TD*%
%TO.P,J7,4,Pin_4_4*%
%TO.N,GND*%
X251325000Y-103250000D03*
%TO.P,J7,3,Pin_3_3*%
%TO.N,/ESP32-C6-mini/RXD0*%
X251325000Y-100710000D03*
%TO.P,J7,2,Pin_2_2*%
%TO.N,/ESP32-C6-mini/TXD0*%
X251325000Y-98170000D03*
D10*
%TO.P,J7,1,Pin_1_1*%
%TO.N,+3.3V*%
X251325000Y-95630000D03*
%TD*%
D18*
%TO.P,J2,1,Pin_1_1*%
%TO.N,+BATT*%
X127900000Y-65987200D03*
D19*
%TO.P,J2,2,Pin_2_2*%
%TO.N,/Cell2*%
X127900000Y-68487200D03*
%TO.P,J2,3,Pin_3_3*%
%TO.N,GND1*%
X127900000Y-70987200D03*
%TD*%
D20*
%TO.N,+5V*%
X158200000Y-88200000D03*
X158200000Y-87200000D03*
X158200000Y-86100000D03*
D21*
%TO.N,GND*%
X197800000Y-57200000D03*
D20*
%TO.N,+3.3V*%
X225750000Y-79000000D03*
X225750000Y-80000000D03*
X225750000Y-82000000D03*
X225750000Y-81000000D03*
D21*
%TO.N,GND*%
X191540000Y-58610000D03*
D22*
%TO.N,+3.3V*%
X192100000Y-57700000D03*
D20*
%TO.N,+5V*%
X185440000Y-67480000D03*
D22*
X184690000Y-59820000D03*
X183960000Y-61790000D03*
D20*
%TO.N,+BATT*%
X130670000Y-76310000D03*
X129610000Y-76330000D03*
X127320000Y-76350000D03*
X126110000Y-76370000D03*
X124977964Y-76337566D03*
%TO.N,GND*%
X139040000Y-77150000D03*
X139010000Y-79870000D03*
X139100000Y-76320000D03*
X139050000Y-77960000D03*
X139000000Y-78830000D03*
X138970000Y-80830000D03*
X138950000Y-81700000D03*
D21*
X149960000Y-88280000D03*
D20*
X142130000Y-89740000D03*
X142150000Y-88870000D03*
X142190000Y-87910000D03*
X142180000Y-86870000D03*
X142230000Y-86000000D03*
X142220000Y-85190000D03*
X142280000Y-84360000D03*
%TO.N,/ESP32-C6-mini/user_interface/ULED*%
X157860000Y-111220000D03*
X242390367Y-112420000D03*
X169940000Y-110770000D03*
X197890000Y-112270000D03*
X153920000Y-112760000D03*
X205780000Y-110850000D03*
X158273635Y-112270900D03*
X209760000Y-110920000D03*
X237490000Y-111510367D03*
X222040000Y-110890000D03*
X182150000Y-112270000D03*
X181920000Y-110740000D03*
X137940000Y-113100000D03*
X173930000Y-110760000D03*
X153800000Y-111260000D03*
X234370367Y-112420000D03*
X202030000Y-112310000D03*
X230296585Y-110526585D03*
X234100367Y-110980000D03*
X224770000Y-110840000D03*
X178210000Y-112260000D03*
X161980000Y-112680000D03*
X217980000Y-110840000D03*
X170120000Y-112250000D03*
X165970000Y-110780000D03*
X218220000Y-112450000D03*
X145700000Y-111240000D03*
X150230000Y-110570000D03*
X166183635Y-112270900D03*
X137959081Y-110517166D03*
X201760000Y-110820000D03*
X222190000Y-112380000D03*
X142290000Y-112350000D03*
X226160367Y-112450000D03*
X205870000Y-112230000D03*
X242120367Y-110940000D03*
X145940000Y-112780000D03*
X197650000Y-110920000D03*
X174070000Y-112270000D03*
X230320000Y-112410000D03*
X238350367Y-112410000D03*
X213830000Y-111010000D03*
X141790000Y-111300000D03*
X150060000Y-112750000D03*
X161800000Y-111240000D03*
X178030000Y-110750000D03*
X209760000Y-112330000D03*
X213970000Y-112310000D03*
D21*
%TO.N,GND*%
X189750000Y-103710000D03*
X232440000Y-112080000D03*
X202590000Y-109870000D03*
X140046900Y-111870000D03*
X149310000Y-79610000D03*
X214050000Y-107120000D03*
X187070000Y-73250000D03*
X185426991Y-96776991D03*
X153630000Y-83270000D03*
X187373191Y-81936809D03*
X139910000Y-109980000D03*
X180160000Y-112590000D03*
X130520000Y-104800000D03*
X151100000Y-109890000D03*
X133340000Y-91810000D03*
X207730000Y-109830000D03*
X215030000Y-91310000D03*
X236500000Y-72490000D03*
X184829999Y-109389012D03*
X220250000Y-112680000D03*
X207819595Y-112630000D03*
X148510000Y-70500000D03*
X182410000Y-78060000D03*
D22*
X246520000Y-85200000D03*
D21*
X224170000Y-112800000D03*
X185999538Y-95600033D03*
X136490000Y-113020000D03*
X135476900Y-109113750D03*
X182310000Y-75920000D03*
X236330000Y-112800000D03*
X199949082Y-112630000D03*
X173140000Y-73354400D03*
X156140000Y-111900000D03*
X197760000Y-95160000D03*
X168410000Y-92510000D03*
X212110000Y-83360000D03*
X215850000Y-92250000D03*
X252240000Y-72000000D03*
X217400000Y-77020000D03*
X207574365Y-68774365D03*
X133180000Y-86850000D03*
X199896091Y-109716091D03*
X151010000Y-67440000D03*
X195850000Y-112630000D03*
X234920000Y-110020000D03*
X194750000Y-110000000D03*
X148010000Y-112750000D03*
X147790000Y-109880000D03*
X195856300Y-77830000D03*
X176140000Y-109670000D03*
X150310000Y-73380000D03*
X251120000Y-105220000D03*
X188320000Y-96190000D03*
X223750433Y-86703296D03*
X228340000Y-112750000D03*
X232910000Y-104900000D03*
X170740000Y-109900000D03*
X244420000Y-88740000D03*
X239330000Y-67850000D03*
X168125200Y-110050777D03*
X185060000Y-103630000D03*
X210690000Y-110160000D03*
X197580000Y-82610000D03*
X187770000Y-103760000D03*
X218860000Y-109820000D03*
X195856300Y-74990000D03*
X161780000Y-106220000D03*
X190600000Y-75390000D03*
X224410000Y-110070000D03*
X197820000Y-97330000D03*
X226890000Y-109990000D03*
X239240000Y-110080000D03*
X243010000Y-69900000D03*
X247247800Y-74170000D03*
X216176537Y-112729141D03*
X127610000Y-105630000D03*
X172780000Y-79860000D03*
X172090000Y-112590000D03*
X164170000Y-111920000D03*
X191419763Y-107009763D03*
X219618900Y-88581200D03*
X240380000Y-112710000D03*
X155800000Y-93190000D03*
X211970000Y-111920000D03*
X241720000Y-69720000D03*
X144002598Y-110046595D03*
X154660000Y-109900000D03*
X153670000Y-78670000D03*
X152010000Y-112690000D03*
X249250000Y-62790000D03*
X216218883Y-109653300D03*
X242450000Y-88800000D03*
X203910000Y-112610000D03*
X162670000Y-109900000D03*
X195460000Y-103370000D03*
X175340000Y-79950000D03*
X191660000Y-82080000D03*
X168180000Y-112660000D03*
X144430000Y-112920000D03*
X160140000Y-112610000D03*
X243740000Y-86630000D03*
X173970000Y-67670000D03*
X212080000Y-81010000D03*
X239260000Y-75470000D03*
X133070000Y-96300000D03*
X171708413Y-67031587D03*
X179110000Y-109940000D03*
X232090000Y-110040000D03*
X251730000Y-76390000D03*
X154870000Y-104540000D03*
X158760000Y-109830000D03*
X176120000Y-112530000D03*
D20*
%TO.N,+BATT*%
X133040000Y-89290000D03*
X148980000Y-77320000D03*
X147560000Y-79930000D03*
X198156200Y-61600000D03*
X128520000Y-76340000D03*
X195306300Y-81605400D03*
X187840000Y-80000900D03*
D21*
%TO.N,/ESP32-C6-mini/EN*%
X209551000Y-102609500D03*
X213762300Y-65598100D03*
D22*
%TO.N,+3.3V*%
X249580000Y-85910000D03*
X251740000Y-73700000D03*
X220600000Y-64760000D03*
X197960000Y-107120000D03*
X242520000Y-84790000D03*
X215300000Y-79300000D03*
X197330000Y-101780000D03*
X137590000Y-94990000D03*
X244500000Y-84540000D03*
X249450000Y-88690000D03*
X245200000Y-87060000D03*
X219290000Y-80790000D03*
X213590000Y-87800000D03*
X247170000Y-86480000D03*
X234290000Y-67270000D03*
D20*
%TO.N,/LX*%
X186304500Y-75354800D03*
X191477700Y-85263500D03*
%TO.N,+5V*%
X219940000Y-83780000D03*
X234510000Y-106360000D03*
X150620000Y-83100000D03*
X165630000Y-88270000D03*
D21*
%TO.N,/ESP32-C6-mini/SDA*%
X245417500Y-72484700D03*
D20*
%TO.N,/D-*%
X237628100Y-75482800D03*
X207898700Y-106097300D03*
X220479000Y-93413700D03*
%TO.N,/CC2*%
X219493200Y-90742000D03*
X212624900Y-99410200D03*
%TO.N,/CC1*%
X208905500Y-85977100D03*
X187150000Y-109904100D03*
D21*
%TO.N,VBUS*%
X189950000Y-99900000D03*
X224140000Y-93330000D03*
X185530000Y-78970000D03*
X192290000Y-103420000D03*
X182990000Y-80540000D03*
X183030001Y-97095448D03*
X187190000Y-75330000D03*
X190420959Y-107410959D03*
X186750000Y-78900000D03*
X185673325Y-76686675D03*
X194770000Y-99910000D03*
X185850000Y-109433274D03*
D20*
X188048400Y-99701500D03*
D21*
X216332800Y-98242100D03*
X192490000Y-99890000D03*
%TO.N,/ESP32-C6-mini/DIN*%
X241570800Y-65592400D03*
X240586700Y-110872600D03*
%TO.N,/ESP32-C6-mini/CLK*%
X223825500Y-64619100D03*
X210138000Y-92592100D03*
%TO.N,/ESP32-C6-mini/DATA*%
X185815900Y-106954000D03*
X241618100Y-68312500D03*
%TO.N,/ESP32-C6-mini/LD*%
X181065000Y-95896900D03*
X210722900Y-68529900D03*
%TO.N,/ESP32-C6-mini/SCL*%
X245005000Y-71712600D03*
D20*
%TO.N,/ESP32-C6-mini/D-*%
X228506300Y-76500000D03*
X227969900Y-97180000D03*
X184678100Y-74662500D03*
X187328500Y-71093400D03*
%TO.N,/ESP32-C6-mini/D+*%
X220928800Y-77970400D03*
X214430800Y-94839700D03*
D21*
%TO.N,/ESP32-C6-mini/F_BIN1*%
X185402100Y-72239000D03*
X247510000Y-71727100D03*
%TO.N,/ESP32-C6-mini/F_BIN2*%
X244461100Y-69971900D03*
X174453000Y-73075800D03*
%TO.N,/ESP32-C6-mini/BOOT*%
X250605000Y-71735100D03*
X240666800Y-81725500D03*
X176618700Y-103450000D03*
X195431500Y-84637200D03*
%TO.N,/ESP32-C6-mini/B_AIN1*%
X185584800Y-71502700D03*
X253995400Y-65429900D03*
%TO.N,/ESP32-C6-mini/B_AIN2*%
X206223700Y-70758800D03*
X251594500Y-69950000D03*
%TO.N,/ESP32-C6-mini/B_BIN1*%
X232482100Y-70164700D03*
X244275400Y-69150000D03*
%TO.N,/ESP32-C6-mini/SLEEP*%
X201810000Y-69589700D03*
X251639200Y-67550000D03*
%TO.N,/ESP32-C6-mini/DIN_EN*%
X245350800Y-104950000D03*
X251614500Y-66698900D03*
%TO.N,/ESP32-C6-mini/RXD0*%
X253519500Y-65950000D03*
D20*
%TO.N,/ESP32-C6-mini/TXD0*%
X251600100Y-65150000D03*
%TO.N,GND1*%
X203500000Y-58160000D03*
X210160000Y-63620000D03*
X207080000Y-61410000D03*
X212030000Y-62110000D03*
%TO.N,/BAT*%
X193501944Y-77638600D03*
X193501300Y-76338600D03*
%TO.N,/CV-VREG*%
X191601301Y-75472941D03*
X191605412Y-77417408D03*
%TO.N,/TS*%
X197500000Y-77300000D03*
X195906300Y-76780000D03*
%TO.N,/CHRG*%
X187336700Y-74294000D03*
X191521800Y-74408500D03*
%TO.N,/ESP32-C6-mini/V3*%
X184530000Y-99880000D03*
X186100000Y-98960000D03*
D21*
%TO.N,/ESP32-C6-mini/RXS*%
X191690200Y-97999400D03*
X195855300Y-99017400D03*
D20*
%TO.N,/ESP32-C6-mini/RTS*%
X180969800Y-102012000D03*
X190682800Y-94811900D03*
D21*
%TO.N,/ESP32-C6-mini/S1*%
X134257900Y-101330000D03*
%TO.N,/ESP32-C6-mini/S2*%
X133255300Y-99596000D03*
%TO.N,/ESP32-C6-mini/S3*%
X132668300Y-98601700D03*
%TO.N,/ESP32-C6-mini/F_BOUT1*%
X171062900Y-67713000D03*
%TO.N,/ESP32-C6-mini/B_BOUT1*%
X148291700Y-67715700D03*
D20*
%TO.N,+BATT*%
X146025000Y-88437500D03*
X146040000Y-85980000D03*
X129900000Y-64650000D03*
D21*
%TO.N,/ESP32-C6-mini/B_BIN2*%
X175771100Y-70395500D03*
X251494900Y-62658800D03*
%TD*%
%TO.N,/ESP32-C6-mini/B_BIN2*%
D23*
X176554500Y-70395500D02*
X187050000Y-59900000D01*
X251494900Y-62658800D02*
X250151700Y-61315600D01*
X250151700Y-61315600D02*
X217963900Y-61315600D01*
X217963900Y-61315600D02*
X216231800Y-59583500D01*
X196844161Y-59900000D02*
X187050000Y-59900000D01*
X216231800Y-59583500D02*
X197160661Y-59583500D01*
X197160661Y-59583500D02*
X196844161Y-59900000D01*
%TO.N,/ESP32-C6-mini/B_AIN1*%
X196487004Y-60400000D02*
X196475000Y-60400000D01*
X251811300Y-63245800D02*
X251172500Y-63245800D01*
X199366500Y-60033500D02*
X199000000Y-60400000D01*
X216043000Y-60033500D02*
X199366500Y-60033500D01*
X198936396Y-60400000D02*
X198886396Y-60350000D01*
X196537004Y-60350000D02*
X196487004Y-60400000D01*
X198886396Y-60350000D02*
X196537004Y-60350000D01*
X218019100Y-62009600D02*
X216043000Y-60033500D01*
X249936300Y-62009600D02*
X218019100Y-62009600D01*
X196475000Y-60400000D02*
X185584800Y-71290200D01*
X251172500Y-63245800D02*
X249936300Y-62009600D01*
X199000000Y-60400000D02*
X198936396Y-60400000D01*
X253995400Y-65429900D02*
X251811300Y-63245800D01*
X185584800Y-71290200D02*
X185584800Y-71502700D01*
%TO.N,/ESP32-C6-mini/F_BIN1*%
X186701800Y-71201500D02*
X185664300Y-72239000D01*
X247163500Y-68379400D02*
X242363800Y-63579700D01*
X196723400Y-60800000D02*
X186701800Y-70821600D01*
X198700000Y-60800000D02*
X196723400Y-60800000D01*
X247163500Y-71380600D02*
X247163500Y-68379400D01*
X199428900Y-68798900D02*
X199428900Y-61528900D01*
X202719000Y-72089000D02*
X199428900Y-68798900D01*
X205709300Y-72089000D02*
X202719000Y-72089000D01*
X186701800Y-70821600D02*
X186701800Y-71201500D01*
X214218600Y-63579700D02*
X205709300Y-72089000D01*
X199428900Y-61528900D02*
X198700000Y-60800000D01*
X242363800Y-63579700D02*
X214218600Y-63579700D01*
X247510000Y-71727100D02*
X247163500Y-71380600D01*
X185664300Y-72239000D02*
X185402100Y-72239000D01*
%TO.N,+BATT*%
D24*
X198156200Y-61600000D02*
X198156200Y-61656200D01*
X198156200Y-61656200D02*
X195306300Y-64506100D01*
X195306300Y-64506100D02*
X195306300Y-80000900D01*
%TO.N,+5V*%
D25*
X183960000Y-61170000D02*
X184690000Y-60440000D01*
X184690000Y-60440000D02*
X184690000Y-59820000D01*
X183960000Y-61790000D02*
X183960000Y-61170000D01*
%TO.N,VBUS*%
X222974000Y-93330000D02*
X218061900Y-98242100D01*
X224140000Y-93330000D02*
X222974000Y-93330000D01*
X218061900Y-98242100D02*
X216332800Y-98242100D01*
%TO.N,+BATT*%
D24*
X195306300Y-80000900D02*
X194967200Y-80340000D01*
X195306300Y-80000900D02*
X195306300Y-81605400D01*
X194967200Y-80340000D02*
X188179100Y-80340000D01*
X188179100Y-80340000D02*
X187840000Y-80000900D01*
%TO.N,/ESP32-C6-mini/EN*%
D23*
X209551000Y-102609500D02*
X209551000Y-70517400D01*
X209551000Y-70517400D02*
X213762300Y-66306100D01*
X213762300Y-66306100D02*
X213762300Y-65598100D01*
%TO.N,/LX*%
D24*
X187400000Y-81185800D02*
X191477700Y-85263500D01*
X186304500Y-75354800D02*
X187400000Y-76450300D01*
X187240000Y-79752371D02*
X187240000Y-80249429D01*
X187400000Y-76450300D02*
X187400000Y-79592371D01*
X187400000Y-80409429D02*
X187400000Y-81185800D01*
X187400000Y-79592371D02*
X187240000Y-79752371D01*
X187240000Y-80249429D02*
X187400000Y-80409429D01*
%TO.N,/ESP32-C6-mini/SDA*%
D23*
X251300000Y-88870000D02*
X250185000Y-87755000D01*
X244900000Y-82470000D02*
X244900000Y-82450000D01*
X249775000Y-87345000D02*
X244900000Y-82470000D01*
X250185000Y-87755000D02*
X250185000Y-87740405D01*
X249789595Y-87345000D02*
X249775000Y-87345000D01*
X245584100Y-71473700D02*
X245584100Y-72318100D01*
X244767400Y-71134700D02*
X245245100Y-71134700D01*
X245584100Y-72318100D02*
X245417500Y-72484700D01*
X245245100Y-71134700D02*
X245584100Y-71473700D01*
X250185000Y-87740405D02*
X249789595Y-87345000D01*
X244389100Y-71513000D02*
X244767400Y-71134700D01*
X244389100Y-81939100D02*
X244389100Y-71513000D01*
X244900000Y-82450000D02*
X244389100Y-81939100D01*
%TO.N,/D-*%
D24*
X220479000Y-93413700D02*
X220168900Y-93413700D01*
X207898700Y-105683900D02*
X207898700Y-106097300D01*
X220168900Y-93413700D02*
X207898700Y-105683900D01*
%TO.N,/CC2*%
X219493200Y-92541900D02*
X212624900Y-99410200D01*
X219493200Y-90742000D02*
X219493200Y-92541900D01*
%TO.N,/CC1*%
X208905500Y-87664500D02*
X208905500Y-85977100D01*
X187150000Y-109420000D02*
X208905500Y-87664500D01*
X187150000Y-109904100D02*
X187150000Y-109420000D01*
%TO.N,/ESP32-C6-mini/DIN*%
D23*
X240090100Y-110376000D02*
X240586700Y-110872600D01*
X240090100Y-67073100D02*
X240090100Y-110376000D01*
X241570800Y-65592400D02*
X240090100Y-67073100D01*
%TO.N,/ESP32-C6-mini/CLK*%
X210138000Y-78306600D02*
X210138000Y-92592100D01*
X223825500Y-64619100D02*
X210138000Y-78306600D01*
%TO.N,/ESP32-C6-mini/DATA*%
X185815900Y-106954000D02*
X186505600Y-107643700D01*
X186505600Y-110208300D02*
X186830300Y-110533000D01*
X194487300Y-104755400D02*
X208220700Y-104755400D01*
X208220700Y-104755400D02*
X226660700Y-86315400D01*
X242192400Y-67738200D02*
X241618100Y-68312500D01*
X226660700Y-86315400D02*
X226660700Y-77438000D01*
X242192400Y-65393300D02*
X242192400Y-67738200D01*
X186505600Y-107643700D02*
X186505600Y-110208300D01*
X188709700Y-110533000D02*
X194487300Y-104755400D01*
X186830300Y-110533000D02*
X188709700Y-110533000D01*
X241814700Y-65015600D02*
X242192400Y-65393300D01*
X239083100Y-65015600D02*
X241814700Y-65015600D01*
X226660700Y-77438000D02*
X239083100Y-65015600D01*
%TO.N,/ESP32-C6-mini/LD*%
X183355900Y-95896900D02*
X210722900Y-68529900D01*
X181065000Y-95896900D02*
X183355900Y-95896900D01*
%TO.N,/ESP32-C6-mini/SCL*%
X244840800Y-79870800D02*
X244840800Y-71876800D01*
X244840800Y-71876800D02*
X245005000Y-71712600D01*
X251300000Y-86330000D02*
X244840800Y-79870800D01*
%TO.N,/ESP32-C6-mini/D-*%
D24*
X187328500Y-71093400D02*
X187328500Y-72012100D01*
X187328500Y-72012100D02*
X184678100Y-74662500D01*
X227969900Y-77036400D02*
X228506300Y-76500000D01*
X227969900Y-97180000D02*
X227969900Y-77036400D01*
%TO.N,/ESP32-C6-mini/D+*%
X214430800Y-84468400D02*
X214430800Y-94839700D01*
X220928800Y-77970400D02*
X214430800Y-84468400D01*
%TO.N,/ESP32-C6-mini/F_BIN2*%
D23*
X244863200Y-69569800D02*
X244461100Y-69971900D01*
X214940700Y-64484200D02*
X215392400Y-64032500D01*
X215392400Y-64032500D02*
X242130000Y-64032500D01*
X213952900Y-64484200D02*
X214940700Y-64484200D01*
X244863200Y-66765700D02*
X244863200Y-69569800D01*
X242130000Y-64032500D02*
X244863200Y-66765700D01*
X187274900Y-85897700D02*
X192539400Y-85897700D01*
X192539400Y-85897700D02*
X213952900Y-64484200D01*
X174453000Y-73075800D02*
X187274900Y-85897700D01*
%TO.N,/ESP32-C6-mini/BOOT*%
X185761365Y-95025033D02*
X185424538Y-95361860D01*
X195431500Y-84637200D02*
X195431500Y-85828500D01*
X177810000Y-103450000D02*
X176618700Y-103450000D01*
X240666800Y-81725500D02*
X240666800Y-74581600D01*
X246438100Y-71648100D02*
X246438100Y-71832400D01*
X185424538Y-95361860D02*
X185424538Y-95835462D01*
X246438100Y-71832400D02*
X246907800Y-72302100D01*
X240666800Y-74581600D02*
X244603100Y-70645300D01*
X185424538Y-95835462D02*
X177810000Y-103450000D01*
X246907800Y-72302100D02*
X250038000Y-72302100D01*
X245435300Y-70645300D02*
X246438100Y-71648100D01*
X244603100Y-70645300D02*
X245435300Y-70645300D01*
X195431500Y-85828500D02*
X186234967Y-95025033D01*
X250038000Y-72302100D02*
X250605000Y-71735100D01*
X186234967Y-95025033D02*
X185761365Y-95025033D01*
%TO.N,/ESP32-C6-mini/B_AIN2*%
X214110300Y-63129700D02*
X214032204Y-63129700D01*
X206403104Y-70758800D02*
X206223700Y-70758800D01*
X244772500Y-63128000D02*
X214112000Y-63128000D01*
X214032204Y-63129700D02*
X206403104Y-70758800D01*
X214112000Y-63128000D02*
X214110300Y-63129700D01*
X251594500Y-69950000D02*
X244772500Y-63128000D01*
%TO.N,/ESP32-C6-mini/B_BIN1*%
X242013200Y-64562400D02*
X238084400Y-64562400D01*
X238084400Y-64562400D02*
X232482100Y-70164700D01*
X244275400Y-66824600D02*
X242013200Y-64562400D01*
X244275400Y-69150000D02*
X244275400Y-66824600D01*
%TO.N,/ESP32-C6-mini/SLEEP*%
X201810000Y-69589700D02*
X203860300Y-69589700D01*
X211845000Y-62735000D02*
X212288884Y-62735000D01*
X203890037Y-69559963D02*
X205020037Y-69559963D01*
X246765500Y-62676300D02*
X251639200Y-67550000D01*
X210785000Y-63878884D02*
X210785000Y-63795000D01*
X210335000Y-64245000D02*
X210418884Y-64245000D01*
X212288884Y-62735000D02*
X212347584Y-62676300D01*
X212347584Y-62676300D02*
X246765500Y-62676300D01*
X203860300Y-69589700D02*
X203890037Y-69559963D01*
X210785000Y-63795000D02*
X211845000Y-62735000D01*
X210418884Y-64245000D02*
X210785000Y-63878884D01*
X205020037Y-69559963D02*
X210335000Y-64245000D01*
%TO.N,/ESP32-C6-mini/RXD0*%
X251200000Y-100710000D02*
X253910000Y-98000000D01*
X253910000Y-98000000D02*
X253910000Y-66340500D01*
X253910000Y-66340500D02*
X253519500Y-65950000D01*
%TO.N,/ESP32-C6-mini/TXD0*%
D24*
X252950000Y-96420000D02*
X252950000Y-66794714D01*
X251200000Y-98170000D02*
X252950000Y-96420000D01*
X252519500Y-66364213D02*
X252519500Y-66069400D01*
X252950000Y-66794714D02*
X252519500Y-66364213D01*
X252519500Y-66069400D02*
X251600100Y-65150000D01*
%TO.N,/BAT*%
X193540000Y-76377300D02*
X193501300Y-76338600D01*
X193501944Y-77638600D02*
X193540000Y-77600544D01*
X193540000Y-77600544D02*
X193540000Y-76377300D01*
%TO.N,/CV-VREG*%
X191605412Y-77417408D02*
X191680000Y-77342820D01*
X191680000Y-77342820D02*
X191680000Y-75551640D01*
X191680000Y-75551640D02*
X191601301Y-75472941D01*
%TO.N,/TS*%
D26*
X195906300Y-76780000D02*
X196980000Y-76780000D01*
X196980000Y-76780000D02*
X197500000Y-77300000D01*
%TO.N,/CHRG*%
D24*
X191407300Y-74294000D02*
X191521800Y-74408500D01*
X187336700Y-74294000D02*
X191407300Y-74294000D01*
%TO.N,/ESP32-C6-mini/V3*%
D26*
X185180000Y-99880000D02*
X186100000Y-98960000D01*
X184530000Y-99880000D02*
X185180000Y-99880000D01*
%TO.N,/ESP32-C6-mini/RXS*%
D23*
X195855300Y-99017400D02*
X192708200Y-99017400D01*
X192708200Y-99017400D02*
X191690200Y-97999400D01*
%TO.N,/ESP32-C6-mini/RTS*%
D24*
X190682800Y-94811900D02*
X188169900Y-94811900D01*
X188169900Y-94811900D02*
X180969800Y-102012000D01*
%TO.N,/ESP32-C6-mini/S1*%
D23*
X125900000Y-87860000D02*
X134257900Y-96217900D01*
X134257900Y-96217900D02*
X134257900Y-101330000D01*
%TO.N,/ESP32-C6-mini/S2*%
X133255300Y-99596000D02*
X133255300Y-97755300D01*
X133255300Y-97755300D02*
X125900000Y-90400000D01*
%TO.N,/ESP32-C6-mini/S3*%
X125900000Y-92940000D02*
X131561700Y-98601700D01*
X131561700Y-98601700D02*
X132668300Y-98601700D01*
%TO.N,/ESP32-C6-mini/F_BOUT1*%
X170620300Y-67270400D02*
X171062900Y-67713000D01*
X170620300Y-61900000D02*
X170620300Y-67270400D01*
%TO.N,/ESP32-C6-mini/B_BOUT1*%
X147250000Y-61900000D02*
X148291700Y-62941700D01*
X148291700Y-62941700D02*
X148291700Y-67715700D01*
%TO.N,/ESP32-C6-mini/B_BIN2*%
X175771100Y-70395500D02*
X176554500Y-70395500D01*
%TO.N,/ESP32-C6-mini/DIN_EN*%
X245350800Y-104813000D02*
X245350800Y-104950000D01*
X250817100Y-99346700D02*
X245350800Y-104813000D01*
X251614500Y-66698900D02*
X250971700Y-66056100D01*
X250971700Y-66056100D02*
X250971700Y-64858800D01*
X250971700Y-64858800D02*
X251308800Y-64521700D01*
X251308800Y-64521700D02*
X251859300Y-64521700D01*
X251859300Y-64521700D02*
X252996964Y-65659364D01*
X252996964Y-65659364D02*
X252944500Y-65711827D01*
X252944500Y-66188173D02*
X253281327Y-66525000D01*
X253281327Y-66525000D02*
X253458104Y-66525000D01*
X252944500Y-65711827D02*
X252944500Y-66188173D01*
X251926904Y-99346700D02*
X250817100Y-99346700D01*
X253460000Y-66526896D02*
X253460000Y-97813604D01*
X253458104Y-66525000D02*
X253460000Y-66526896D01*
X253460000Y-97813604D02*
X251926904Y-99346700D01*
%TO.N,/D-*%
D24*
X237628100Y-88571900D02*
X237628100Y-75482800D01*
X228414900Y-97785100D02*
X237628100Y-88571900D01*
X227227800Y-97288900D02*
X227724000Y-97785100D01*
X224153500Y-91714300D02*
X227227800Y-94788600D01*
X222178400Y-91714300D02*
X224153500Y-91714300D01*
X227724000Y-97785100D02*
X228414900Y-97785100D01*
X227227800Y-94788600D02*
X227227800Y-97288900D01*
X220479000Y-93413700D02*
X222178400Y-91714300D01*
%TD*%
M02*
